<svg xmlns="http://www.w3.org/2000/svg" xmlns:xlink="http://www.w3.org/1999/xlink" width="1080" zoomAndPan="magnify" viewBox="0 0 810 809.999993" height="1080" preserveAspectRatio="xMidYMid meet" version="1.0"><defs><clipPath id="9a837b4653"><path d="M 478 412 L 498.75 412 L 498.75 427 L 478 427 Z M 478 412 " clip-rule="nonzero"/></clipPath><clipPath id="faa18c6846"><path d="M 335.203125 442.835938 L 369 442.835938 L 369 455.976562 L 335.203125 455.976562 Z M 335.203125 442.835938 " clip-rule="nonzero"/></clipPath></defs><path fill="#e7ec1e" d="M 420.414062 392.085938 C 423.285156 388.0625 426.152344 384.027344 429.351562 380.25 C 430.835938 380.730469 432.273438 381.355469 433.917969 381 C 435.070312 380.75 435.660156 381.589844 436.039062 382.480469 C 436.957031 384.628906 438.425781 386.101562 440.730469 386.746094 C 442.082031 387.121094 442.546875 388.386719 443.125 389.496094 C 444.957031 393.007812 445.097656 393.113281 449.121094 392.710938 C 450.453125 392.574219 450.992188 393.1875 451.179688 394.371094 C 451.472656 396.226562 451.976562 398.046875 452.160156 399.925781 C 452.25 400.878906 452.484375 401.796875 453.101562 402.542969 C 454.074219 403.710938 455.316406 404.40625 456.835938 403.898438 C 458.382812 403.378906 459.246094 402.203125 459.324219 400.53125 C 459.335938 400.292969 459.300781 400.0625 459.273438 399.828125 C 459.152344 398.839844 458.546875 397.445312 459.554688 397.007812 C 460.726562 396.503906 461.003906 398.078125 461.527344 398.839844 C 463.4375 401.609375 467.386719 402.578125 468.976562 398.300781 C 469.769531 396.933594 468.578125 395.035156 470.160156 393.882812 C 470.964844 394.070312 471.207031 394.773438 471.496094 395.402344 C 475.273438 403.578125 479.027344 411.769531 483.375 419.664062 C 484.148438 421.070312 483.925781 421.992188 482.351562 422.582031 C 479.5625 423.628906 476.769531 424.664062 473.996094 425.753906 C 473.007812 426.144531 471.984375 426.148438 470.996094 425.800781 C 466.402344 424.164062 461.570312 423.429688 456.886719 422.132812 C 453.027344 421.070312 449.554688 419.4375 446.386719 417.054688 C 444.753906 415.828125 442.929688 414.894531 441.246094 413.75 C 437.007812 411.011719 433.125 407.832031 429.40625 404.417969 C 427.53125 402.695312 426.492188 400.40625 424.863281 398.539062 C 423.8125 396.734375 421.839844 395.6875 420.9375 393.75 C 420.691406 393.214844 420.136719 392.785156 420.414062 392.085938 " fill-opacity="1" fill-rule="nonzero"/><path fill="#e9ee39" d="M 469.460938 398.683594 C 466.964844 403.589844 463.953125 403.15625 459.714844 397.25 C 459.382812 397.945312 459.644531 398.585938 459.796875 399.253906 C 460.375 401.851562 459.027344 404.222656 456.71875 404.746094 C 454.5625 405.230469 451.828125 403.21875 451.613281 400.695312 C 451.433594 398.582031 450.746094 396.574219 450.617188 394.476562 C 450.53125 393.074219 450.015625 393.023438 448.816406 393.394531 C 445.945312 394.285156 444.449219 393.640625 443.171875 390.898438 C 442.226562 388.859375 441.265625 387.117188 438.753906 386.589844 C 437.003906 386.226562 436.308594 384.496094 435.664062 382.972656 C 435.183594 381.839844 434.664062 381.308594 433.234375 381.660156 C 431.796875 382.015625 430.230469 381.847656 429.351562 380.25 C 433.167969 374.558594 437.390625 369.167969 441.585938 363.757812 C 442.871094 367.761719 446.464844 368.953125 449.804688 370.40625 C 450.664062 370.78125 451.199219 371.34375 451.648438 372.078125 C 452.320312 373.175781 453.292969 373.863281 454.570312 373.535156 C 456.578125 373.023438 458.210938 373.878906 459.890625 374.691406 C 460.101562 374.816406 460.292969 374.96875 460.464844 375.140625 C 463.578125 380.296875 466.484375 385.574219 469.277344 390.90625 C 470.601562 393.441406 469.453125 396.089844 469.460938 398.683594 " fill-opacity="1" fill-rule="nonzero"/><path fill="#f3f01f" d="M 441.160156 413.285156 C 444.023438 414.414062 446.378906 416.355469 448.875 418.070312 C 453.246094 421.070312 458.40625 421.839844 463.371094 423.152344 C 464.347656 423.410156 465.457031 423.367188 466.328125 423.808594 C 470.972656 426.171875 475.308594 424.96875 479.707031 423.011719 C 483.421875 421.363281 483.457031 421.496094 481.679688 417.9375 C 477.742188 410.035156 473.613281 402.222656 470.382812 393.988281 C 471.582031 393.921875 472.6875 395.257812 474.023438 394.078125 C 474.335938 393.800781 474.910156 394.792969 475.214844 395.328125 C 476.234375 397.097656 477.386719 398.785156 478.578125 400.441406 C 479.109375 401.183594 479.625 402.019531 480.820312 402.265625 C 481.101562 400.589844 479.882812 399.546875 479.328125 398.277344 C 478.796875 397.070312 477.089844 395.542969 478.582031 394.625 C 479.789062 393.882812 480.5 396.015625 481.246094 397.023438 C 482.585938 398.839844 483.84375 400.707031 485.78125 402.441406 C 486.054688 401.183594 485.476562 400.519531 485.058594 399.839844 C 484.238281 398.503906 483.300781 397.242188 482.480469 395.902344 C 482.019531 395.152344 481.539062 394.34375 482.523438 393.632812 C 483.882812 392.652344 483.488281 391.457031 482.957031 390.273438 C 482.15625 388.480469 480.972656 386.890625 480.125 385.117188 C 479.601562 384.023438 479.144531 382.945312 480.671875 382.242188 C 486.484375 392.207031 492.28125 402.183594 497.761719 412.335938 C 494.28125 415.066406 490.75 417.746094 487.746094 421.039062 C 487.117188 421.726562 486.464844 422.367188 486.15625 423.304688 C 485.382812 425.671875 484.878906 425.9375 482.210938 425.40625 C 481.003906 425.167969 479.769531 424.539062 478.871094 425.984375 C 477.96875 426.316406 477.0625 426.648438 476.15625 426.980469 C 469.960938 428.476562 464.125 427.941406 459 423.789062 C 457.582031 422.640625 456.09375 422.148438 454.253906 422.359375 C 451.550781 422.664062 449.453125 421.082031 447.46875 419.621094 C 445.785156 418.382812 444.074219 417.109375 442.695312 415.488281 C 442.15625 414.777344 441.058594 414.445312 441.160156 413.285156 " fill-opacity="1" fill-rule="nonzero"/><path fill="#efef25" d="M 480.671875 382.242188 C 479.953125 383.15625 480.039062 383.972656 480.683594 384.972656 C 481.738281 386.613281 482.742188 388.320312 483.480469 390.117188 C 484.035156 391.464844 485.277344 393.171875 482.710938 394.117188 C 481.878906 394.425781 482.601562 395.015625 482.859375 395.429688 C 484.027344 397.28125 485.226562 399.109375 486.363281 400.976562 C 486.714844 401.550781 487.253906 402.3125 486.535156 402.886719 C 485.703125 403.546875 485.023438 402.765625 484.570312 402.214844 C 483.226562 400.59375 482.023438 398.863281 480.710938 397.21875 C 480.050781 396.390625 479.785156 395.214844 478.472656 394.675781 C 478.667969 397.101562 480.542969 398.585938 481.238281 400.597656 C 481.523438 401.410156 482.519531 402.234375 481.292969 403.03125 C 480.179688 403.757812 479.742188 402.609375 479.234375 402.070312 C 477.125 399.835938 475.632812 397.171875 474.066406 394.40625 C 472.460938 397.410156 471.609375 394.375 470.382812 393.988281 C 469.183594 395.378906 470.644531 397.292969 469.460938 398.683594 C 470.636719 392.5625 466.984375 387.996094 464.378906 383.117188 C 462.949219 380.445312 461.269531 377.910156 460.054688 375.121094 C 459.832031 373.324219 461.253906 372.496094 462.316406 371.570312 C 463.121094 370.867188 463.640625 370.371094 463.574219 369.136719 C 463.476562 367.363281 464.839844 366.785156 466.585938 367.097656 C 468.960938 367.519531 471.007812 368.761719 473.285156 369.386719 C 475.964844 373.546875 478.335938 377.886719 480.671875 382.242188 " fill-opacity="1" fill-rule="nonzero"/><path fill="#f3f01f" d="M 473.285156 369.386719 C 473.027344 369.859375 472.402344 370.179688 472.132812 369.917969 C 470.539062 368.371094 468.332031 368.507812 466.496094 367.679688 C 465.851562 367.390625 465.390625 367.195312 464.820312 367.617188 C 464.15625 368.109375 463.625 368.738281 464.09375 369.578125 C 464.746094 370.746094 464.53125 371.085938 463.207031 371.613281 C 461.761719 372.191406 460.824219 373.6875 460.054688 375.121094 C 458.300781 374.089844 456.730469 372.90625 454.417969 373.734375 C 453.03125 374.226562 451.859375 373.296875 451.246094 371.921875 C 450.84375 371.011719 450.40625 370.34375 449.175781 370.476562 C 448.34375 370.566406 442.90625 366.972656 442.453125 366.261719 C 441.777344 365.207031 441.675781 364.085938 442.101562 362.914062 C 443.421875 361.960938 444.78125 361.074219 446.332031 360.527344 C 447.703125 360.5 448.558594 359.5 449.570312 358.796875 C 450.027344 358.414062 450.539062 358.246094 451.132812 358.390625 C 451.472656 358.535156 451.679688 358.773438 451.667969 359.160156 C 451.324219 360.277344 450.058594 360.511719 449.253906 361.554688 C 452.316406 362.136719 454.261719 359.949219 456.664062 359.257812 C 458.382812 359.511719 457.691406 360.339844 457.117188 361.144531 C 456.890625 361.394531 456.632812 361.613281 456.367188 361.816406 C 455.625 362.324219 455.230469 362.921875 455.910156 363.75 C 456.359375 364.296875 456.484375 364.84375 456.039062 365.445312 C 455.742188 366.277344 454.269531 366.238281 454.550781 367.476562 C 455.285156 367.535156 455.882812 367.199219 456.46875 366.839844 C 456.832031 366.609375 457.207031 366.402344 457.644531 366.34375 C 458.460938 366.378906 458.957031 366.640625 458.5 367.566406 C 458.378906 367.742188 458.234375 367.90625 458.078125 368.050781 C 457.625 368.472656 457.097656 368.972656 457.738281 369.53125 C 458.363281 370.074219 458.8125 369.46875 459.207031 369.011719 C 461.597656 367.230469 464.046875 365.539062 466.765625 364.285156 C 467.535156 364.21875 467.964844 363.527344 468.625 363.261719 C 469.476562 363.613281 470.109375 364.277344 470.832031 364.808594 C 471.652344 366.335938 472.46875 367.863281 473.285156 369.386719 " fill-opacity="1" fill-rule="nonzero"/><g clip-path="url(#9a837b4653)"><path fill="#f5e519" d="M 478.871094 425.984375 C 479.007812 424.519531 480.105469 424.40625 481.121094 424.628906 C 483.386719 425.121094 484.964844 425.695312 486.015625 422.332031 C 486.757812 419.949219 489.632812 418.109375 491.808594 416.335938 C 493.648438 414.835938 495.195312 412.789062 497.761719 412.335938 C 498.742188 413.910156 498.101562 416.488281 495.996094 417.964844 C 492.277344 420.578125 489.152344 423.996094 484.984375 425.988281 C 483.367188 426.382812 481.890625 425.085938 480.261719 425.589844 C 479.800781 425.71875 479.335938 425.851562 478.871094 425.984375 " fill-opacity="1" fill-rule="nonzero"/></g><path fill="#f9d217" d="M 451.058594 358.675781 C 450.585938 358.835938 450.117188 358.992188 449.644531 359.152344 C 449.15625 359.308594 449.035156 359.101562 449.160156 358.65625 C 450.046875 357.292969 451.304688 356.507812 452.882812 356.105469 C 453.675781 355.902344 454.617188 355.875 455.105469 355.007812 C 455.902344 353.609375 456.945312 353.898438 458.074219 354.539062 C 458.875 354.988281 459.703125 355.382812 460.519531 355.804688 C 460.335938 358.152344 458.261719 358.625 456.710938 359.617188 C 454.722656 360.808594 452.761719 362.09375 450.390625 362.378906 C 449.6875 362.464844 448.6875 362.84375 448.367188 361.839844 C 448.101562 360.996094 448.960938 360.714844 449.5625 360.367188 C 450.226562 359.980469 450.875 359.554688 451.53125 359.148438 C 451.71875 358.9375 451.679688 358.746094 451.460938 358.589844 C 451.328125 358.496094 451.183594 358.535156 451.058594 358.675781 " fill-opacity="1" fill-rule="nonzero"/><path fill="#f9d417" d="M 456.242188 361.503906 C 456.398438 361.347656 456.558594 361.191406 456.71875 361.03125 C 457.726562 360.566406 458.074219 359.398438 459.007812 358.875 C 459.679688 358.496094 460.238281 357.636719 461.207031 358.21875 C 462.414062 358.78125 463.65625 359.195312 465.015625 359.078125 C 465.886719 358.738281 466.453125 359.078125 466.816406 359.871094 C 467.152344 361.621094 465.8125 362.621094 464.65625 362.519531 C 462.542969 362.335938 460.996094 363.609375 459.128906 363.914062 C 458.65625 363.972656 458.1875 363.957031 457.71875 363.914062 C 457.417969 363.898438 457.117188 363.875 456.820312 363.835938 C 456.175781 363.753906 455.335938 363.929688 455.148438 363.050781 C 454.976562 362.242188 455.722656 361.914062 456.242188 361.503906 " fill-opacity="1" fill-rule="nonzero"/><path fill="#f2f021" d="M 441.160156 413.285156 C 441.636719 413.914062 442.109375 414.539062 442.582031 415.167969 C 442.785156 415.390625 442.765625 415.59375 442.527344 415.777344 C 440.410156 413.894531 438.265625 412.226562 435.664062 410.832031 C 431.105469 408.390625 427.101562 404.878906 425.089844 399.753906 C 424.871094 399.238281 424.761719 398.722656 425.132812 398.222656 C 425.199219 398.257812 425.300781 398.277344 425.339844 398.332031 C 429.433594 404.5625 435.242188 408.984375 441.160156 413.285156 " fill-opacity="1" fill-rule="nonzero"/><path fill="#f2ef20" d="M 442.527344 415.777344 C 442.546875 415.574219 442.566406 415.371094 442.582031 415.167969 C 445.410156 417.222656 447.742188 419.964844 451.089844 421.296875 C 452.296875 421.78125 453.417969 422.175781 454.882812 421.921875 C 456.773438 421.59375 458.675781 422.523438 459.945312 423.902344 C 461.804688 425.921875 464.195312 426.542969 466.648438 426.871094 C 469.789062 427.289062 472.980469 427.871094 476.15625 426.980469 C 473.839844 428.5625 471.285156 428.207031 468.722656 427.929688 C 465.597656 427.597656 462.511719 427.203125 459.980469 425.082031 C 459.332031 424.636719 458.742188 424.125 458.148438 423.613281 C 457.304688 423.015625 456.335938 422.527344 455.335938 422.667969 C 451.734375 423.183594 449.054688 421.414062 446.488281 419.316406 C 445.117188 418.195312 443.585938 417.246094 442.527344 415.777344 " fill-opacity="1" fill-rule="nonzero"/><path fill="#eaee35" d="M 442.101562 362.914062 C 442.023438 365.34375 442.683594 367.242188 445.453125 367.722656 C 446.171875 367.84375 446.6875 368.339844 447.070312 368.980469 C 447.558594 369.796875 448.457031 370.265625 449.261719 370.121094 C 450.597656 369.878906 451.007812 370.480469 451.417969 371.542969 C 451.996094 373.042969 453.234375 373.882812 454.765625 373.292969 C 457.167969 372.371094 458.582031 373.648438 460.003906 375.160156 C 457.964844 374.644531 456.0625 373.335938 453.78125 374.179688 C 453.421875 374.3125 452.679688 374.140625 452.488281 373.859375 C 451.203125 371.960938 449.378906 370.964844 447.304688 370.117188 C 446.3125 369.710938 445.550781 368.796875 444.382812 368.378906 C 442.386719 367.667969 441.375 365.992188 441.585938 363.757812 C 441.617188 363.390625 441.609375 363 442.101562 362.914062 " fill-opacity="1" fill-rule="nonzero"/><path fill="#f1ef23" d="M 425.132812 398.222656 C 425.117188 398.734375 425.105469 399.242188 425.089844 399.753906 C 424.09375 397.984375 422.832031 396.539062 420.957031 395.578125 C 419.402344 394.777344 418.542969 393.566406 420.414062 392.085938 C 421.902344 394.195312 423.289062 396.382812 425.132812 398.222656 " fill-opacity="1" fill-rule="nonzero"/><path fill="#f5ee1b" d="M 461.207031 358.21875 C 459.375 358.625 458.539062 360.609375 456.71875 361.03125 C 456.558594 360.558594 458.171875 360.085938 456.710938 359.617188 C 457.652344 358.015625 459.734375 357.554688 460.519531 355.804688 C 461.398438 356.425781 460.875 357.441406 461.207031 358.21875 " fill-opacity="1" fill-rule="nonzero"/><path fill="#efef27" d="M 470.832031 364.808594 C 469.550781 365.15625 469.046875 364.242188 468.503906 363.382812 C 468.226562 363.253906 468.03125 363.039062 467.851562 362.808594 C 467.722656 362.65625 467.609375 362.492188 467.496094 362.328125 C 467.101562 361.730469 466.789062 361.101562 466.878906 360.347656 C 466.925781 360.132812 467.058594 360 467.273438 359.949219 C 468.40625 360.152344 468.292969 361.390625 468.960938 361.980469 C 469.710938 362.839844 470.679688 363.554688 470.832031 364.808594 " fill-opacity="1" fill-rule="nonzero"/><path fill="#ebef3a" d="M 468.960938 361.980469 C 468.335938 361.347656 467.710938 360.71875 467.085938 360.089844 C 466.445312 359.78125 466.308594 358.980469 465.679688 358.664062 C 467.21875 357.832031 468.292969 357.957031 468.523438 359.988281 C 468.597656 360.660156 468.8125 361.316406 468.960938 361.980469 " fill-opacity="1" fill-rule="nonzero"/><path fill="#f5e81a" d="M 449.160156 358.65625 C 449.320312 358.820312 449.484375 358.988281 449.644531 359.152344 C 448.597656 359.75 447.9375 361.277344 446.332031 360.527344 C 447.273438 359.902344 448.214844 359.28125 449.160156 358.65625 " fill-opacity="1" fill-rule="nonzero"/><path fill="#f5ec20" d="M 480.261719 425.589844 C 481.921875 424.742188 483.417969 425.796875 484.984375 425.988281 C 483.339844 426.675781 481.832031 425.765625 480.261719 425.589844 " fill-opacity="1" fill-rule="nonzero"/><path fill="#f7da19" d="M 465.679688 358.664062 C 466.570312 358.726562 466.773438 359.460938 467.085938 360.089844 C 466.902344 360.328125 466.757812 360.316406 466.609375 360.097656 C 466.109375 359.710938 465.789062 359.042969 465.015625 359.078125 C 465.238281 358.941406 465.457031 358.800781 465.679688 358.664062 " fill-opacity="1" fill-rule="nonzero"/><path fill="#f4ef1b" d="M 466.609375 360.097656 C 466.757812 360.09375 466.90625 360.09375 467.050781 360.097656 C 467.378906 360.882812 467.703125 361.664062 468.03125 362.445312 C 465.3125 364.125 462.5 365.652344 459.855469 367.453125 C 459.347656 367.800781 458.757812 368.121094 458.132812 367.625 C 458.371094 367.109375 458.488281 366.65625 457.65625 366.679688 C 457.804688 365.445312 459.101562 364.699219 459.078125 363.386719 C 460.488281 362.816406 462.148438 361.492188 463.246094 361.859375 C 464.839844 362.390625 465.433594 361.558594 466.335938 360.941406 C 466.53125 360.808594 466.523438 360.386719 466.609375 360.097656 " fill-opacity="1" fill-rule="nonzero"/><path fill="#f9d417" d="M 458.132812 367.625 C 460.527344 366.714844 462.390625 364.914062 464.628906 363.742188 C 465.714844 363.175781 466.707031 362.382812 468.03125 362.445312 C 468.667969 363.609375 467.917969 364.21875 467.085938 364.796875 C 464.378906 366.054688 461.871094 367.640625 459.542969 369.503906 C 458.789062 369.871094 457.941406 370.539062 457.25 369.636719 C 456.480469 368.636719 457.476562 368.148438 458.132812 367.621094 L 458.132812 367.625 " fill-opacity="1" fill-rule="nonzero"/><path fill="#f8d617" d="M 459.078125 363.386719 C 460.285156 365.207031 458.558594 365.765625 457.65625 366.679688 C 457.34375 366.839844 457.03125 366.996094 456.71875 367.152344 C 455.964844 367.546875 455.097656 367.664062 454.359375 368.09375 C 453.195312 368.09375 452.53125 367.777344 453.675781 366.714844 C 454.289062 366.140625 455.070312 365.742188 455.773438 365.269531 C 456.566406 364.804688 457.089844 364.074219 457.660156 363.386719 C 458.132812 363.386719 458.605469 363.386719 459.078125 363.386719 " fill-opacity="1" fill-rule="nonzero"/><path fill="#f5ee1b" d="M 457.660156 363.386719 C 458.222656 365.207031 456.648438 364.886719 455.773438 365.269531 C 455.980469 364.8125 455.902344 364.542969 455.5 364.121094 C 454.375 362.945312 454.480469 361.945312 456.242188 361.503906 C 454.179688 364.03125 456.9375 362.945312 457.660156 363.386719 " fill-opacity="1" fill-rule="nonzero"/><path fill="#f4ef1b" d="M 458.132812 367.621094 C 457.992188 368.25 456.933594 368.605469 457.453125 369.371094 C 458.011719 370.195312 458.851562 369.257812 459.542969 369.503906 C 459.152344 370.339844 458.476562 370.585938 457.625 370.34375 C 457.039062 370.175781 456.765625 369.71875 456.75 369.121094 C 456.722656 368.175781 457.203125 367.691406 458.132812 367.621094 " fill-opacity="1" fill-rule="nonzero"/><path fill="#f4ef1b" d="M 467.085938 364.796875 C 467.515625 364.058594 468.226562 363.433594 468.03125 362.445312 C 468.40625 362.648438 468.492188 362.996094 468.503906 363.382812 C 468.460938 364.28125 467.992188 364.757812 467.085938 364.796875 " fill-opacity="1" fill-rule="nonzero"/><path fill="#f4ef1b" d="M 454.359375 368.09375 C 454.972656 367.347656 455.792969 367.125 456.71875 367.152344 C 456.105469 367.902344 455.28125 368.121094 454.359375 368.09375 " fill-opacity="1" fill-rule="nonzero"/><path fill="#f5e81a" d="M 451.058594 358.675781 C 451.394531 358.257812 451.894531 358.003906 452.191406 358.515625 C 452.472656 358.996094 451.902344 359.082031 451.53125 359.148438 C 451.375 358.992188 451.214844 358.832031 451.058594 358.675781 " fill-opacity="1" fill-rule="nonzero"/><path fill="#e7ec1e" d="M 366.757812 405.988281 C 369.632812 401.964844 372.496094 397.929688 375.695312 394.152344 C 377.179688 394.628906 378.617188 395.257812 380.261719 394.902344 C 381.414062 394.652344 382.003906 395.492188 382.382812 396.382812 C 383.304688 398.53125 384.769531 400.003906 387.074219 400.644531 C 388.425781 401.023438 388.890625 402.289062 389.46875 403.398438 C 391.300781 406.910156 391.441406 407.015625 395.464844 406.613281 C 396.796875 406.476562 397.335938 407.089844 397.523438 408.273438 C 397.816406 410.128906 398.320312 411.949219 398.503906 413.828125 C 398.597656 414.78125 398.824219 415.699219 399.449219 416.445312 C 400.417969 417.613281 401.660156 418.308594 403.179688 417.800781 C 404.726562 417.28125 405.589844 416.105469 405.667969 414.433594 C 405.679688 414.199219 405.644531 413.960938 405.617188 413.730469 C 405.5 412.742188 404.890625 411.34375 405.898438 410.910156 C 407.070312 410.40625 407.347656 411.980469 407.875 412.738281 C 409.785156 415.511719 413.730469 416.480469 415.320312 412.203125 C 416.117188 410.835938 414.925781 408.933594 416.503906 407.78125 C 417.308594 407.972656 417.550781 408.675781 417.839844 409.304688 C 421.617188 417.480469 425.371094 425.671875 429.71875 433.570312 C 430.492188 434.972656 430.269531 435.894531 428.699219 436.484375 C 425.90625 437.53125 423.113281 438.566406 420.339844 439.65625 C 419.351562 440.046875 418.324219 440.054688 417.339844 439.703125 C 412.746094 438.066406 407.917969 437.332031 403.230469 436.035156 C 399.371094 434.972656 395.898438 433.339844 392.726562 430.957031 C 391.097656 429.730469 389.273438 428.796875 387.589844 427.648438 C 383.351562 424.914062 379.46875 421.730469 375.75 418.320312 C 373.875 416.597656 372.839844 414.304688 371.207031 412.441406 C 370.15625 410.636719 368.179688 409.589844 367.285156 407.652344 C 367.035156 407.113281 366.484375 406.6875 366.757812 405.988281 " fill-opacity="1" fill-rule="nonzero"/><path fill="#e9ee39" d="M 415.804688 412.585938 C 413.304688 417.492188 410.296875 417.054688 406.0625 411.152344 C 405.726562 411.847656 405.992188 412.488281 406.140625 413.152344 C 406.71875 415.753906 405.371094 418.125 403.066406 418.648438 C 400.910156 419.132812 398.171875 417.121094 397.957031 414.597656 C 397.777344 412.484375 397.089844 410.476562 396.960938 408.378906 C 396.878906 406.976562 396.359375 406.925781 395.160156 407.296875 C 392.292969 408.1875 390.792969 407.542969 389.515625 404.800781 C 388.570312 402.761719 387.613281 401.019531 385.097656 400.492188 C 383.351562 400.128906 382.652344 398.398438 382.007812 396.875 C 381.527344 395.738281 381.011719 395.210938 379.578125 395.5625 C 378.140625 395.917969 376.574219 395.75 375.695312 394.152344 C 379.511719 388.460938 383.734375 383.070312 387.933594 377.660156 C 389.214844 381.664062 392.808594 382.855469 396.148438 384.308594 C 397.007812 384.683594 397.542969 385.246094 397.996094 385.980469 C 398.667969 387.078125 399.636719 387.765625 400.914062 387.4375 C 402.925781 386.925781 404.554688 387.78125 406.234375 388.59375 C 406.449219 388.71875 406.636719 388.871094 406.808594 389.042969 C 409.921875 394.199219 412.828125 399.476562 415.617188 404.808594 C 416.945312 407.34375 415.796875 409.992188 415.804688 412.585938 " fill-opacity="1" fill-rule="nonzero"/><path fill="#f3f01f" d="M 387.503906 427.1875 C 390.367188 428.316406 392.722656 430.257812 395.21875 431.972656 C 399.59375 434.972656 404.75 435.742188 409.714844 437.054688 C 410.691406 437.3125 411.800781 437.269531 412.671875 437.710938 C 417.320312 440.074219 421.652344 438.871094 426.050781 436.914062 C 429.765625 435.265625 429.800781 435.398438 428.027344 431.839844 C 424.085938 423.941406 419.957031 416.125 416.730469 407.886719 C 417.921875 407.824219 419.027344 409.160156 420.367188 407.980469 C 420.683594 407.703125 421.257812 408.695312 421.5625 409.226562 C 422.578125 411 423.730469 412.6875 424.921875 414.34375 C 425.453125 415.085938 425.96875 415.921875 427.164062 416.167969 C 427.445312 414.492188 426.230469 413.449219 425.671875 412.175781 C 425.144531 410.96875 423.433594 409.445312 424.925781 408.527344 C 426.132812 407.785156 426.847656 409.917969 427.589844 410.925781 C 428.929688 412.738281 430.1875 414.609375 432.128906 416.34375 C 432.398438 415.085938 431.820312 414.421875 431.402344 413.742188 C 430.582031 412.40625 429.644531 411.144531 428.824219 409.804688 C 428.363281 409.054688 427.882812 408.246094 428.871094 407.535156 C 430.230469 406.554688 429.832031 405.359375 429.300781 404.175781 C 428.496094 402.382812 427.316406 400.792969 426.46875 399.019531 C 425.945312 397.921875 425.488281 396.847656 427.015625 396.144531 C 432.828125 406.109375 438.625 416.085938 444.109375 426.238281 C 440.625 428.96875 437.09375 431.648438 434.09375 434.941406 C 433.460938 435.628906 432.808594 436.269531 432.503906 437.207031 C 431.726562 439.570312 431.222656 439.839844 428.554688 439.308594 C 427.347656 439.070312 426.117188 438.441406 425.21875 439.886719 C 424.3125 440.21875 423.40625 440.550781 422.5 440.882812 C 416.304688 442.378906 410.472656 441.84375 405.34375 437.691406 C 403.925781 436.542969 402.441406 436.050781 400.597656 436.261719 C 397.894531 436.566406 395.796875 434.984375 393.816406 433.523438 C 392.132812 432.285156 390.417969 431.011719 389.042969 429.390625 C 388.5 428.679688 387.40625 428.347656 387.503906 427.1875 " fill-opacity="1" fill-rule="nonzero"/><path fill="#efef25" d="M 427.015625 396.144531 C 426.296875 397.058594 426.382812 397.875 427.027344 398.875 C 428.082031 400.515625 429.085938 402.222656 429.824219 404.019531 C 430.378906 405.367188 431.621094 407.074219 429.058594 408.019531 C 428.222656 408.328125 428.945312 408.917969 429.207031 409.332031 C 430.371094 411.183594 431.574219 413.011719 432.710938 414.878906 C 433.058594 415.453125 433.597656 416.214844 432.878906 416.785156 C 432.046875 417.445312 431.367188 416.664062 430.914062 416.117188 C 429.574219 414.496094 428.367188 412.765625 427.058594 411.121094 C 426.394531 410.292969 426.128906 409.117188 424.820312 408.574219 C 425.011719 411.003906 426.886719 412.488281 427.585938 414.5 C 427.867188 415.3125 428.867188 416.136719 427.636719 416.933594 C 426.523438 417.660156 426.089844 416.511719 425.578125 415.972656 C 423.472656 413.738281 421.976562 411.074219 420.410156 408.308594 C 418.804688 411.308594 417.953125 408.277344 416.730469 407.886719 C 415.527344 409.277344 416.992188 411.191406 415.804688 412.585938 C 416.980469 406.464844 413.328125 401.898438 410.722656 397.019531 C 409.296875 394.347656 407.613281 391.8125 406.402344 389.023438 C 406.175781 387.226562 407.597656 386.398438 408.660156 385.46875 C 409.464844 384.769531 409.984375 384.273438 409.917969 383.035156 C 409.820312 381.265625 411.183594 380.6875 412.929688 381 C 415.308594 381.421875 417.351562 382.664062 419.628906 383.289062 C 422.308594 387.449219 424.679688 391.789062 427.015625 396.144531 " fill-opacity="1" fill-rule="nonzero"/><path fill="#f3f01f" d="M 419.628906 383.289062 C 419.371094 383.761719 418.746094 384.082031 418.480469 383.820312 C 416.882812 382.273438 414.675781 382.410156 412.839844 381.582031 C 412.195312 381.292969 411.734375 381.09375 411.164062 381.519531 C 410.503906 382.011719 409.972656 382.640625 410.441406 383.480469 C 411.09375 384.648438 410.875 384.988281 409.550781 385.519531 C 408.109375 386.09375 407.167969 387.589844 406.402344 389.023438 C 404.648438 387.992188 403.078125 386.808594 400.761719 387.636719 C 399.375 388.128906 398.203125 387.199219 397.59375 385.824219 C 397.191406 384.914062 396.75 384.246094 395.523438 384.378906 C 394.6875 384.46875 389.25 380.875 388.796875 380.164062 C 388.121094 379.109375 388.015625 377.988281 388.445312 376.816406 C 389.765625 375.863281 391.125 374.976562 392.675781 374.429688 C 394.050781 374.402344 394.902344 373.402344 395.914062 372.699219 C 396.371094 372.3125 396.882812 372.144531 397.476562 372.296875 C 397.816406 372.4375 398.023438 372.675781 398.015625 373.0625 C 397.667969 374.179688 396.402344 374.414062 395.601562 375.457031 C 398.660156 376.039062 400.605469 373.851562 403.007812 373.160156 C 404.730469 373.414062 404.035156 374.242188 403.460938 375.046875 C 403.238281 375.296875 402.980469 375.515625 402.710938 375.71875 C 401.96875 376.226562 401.574219 376.824219 402.253906 377.652344 C 402.703125 378.199219 402.828125 378.746094 402.382812 379.347656 C 402.089844 380.179688 400.613281 380.140625 400.894531 381.378906 C 401.632812 381.4375 402.226562 381.101562 402.8125 380.742188 C 403.175781 380.511719 403.550781 380.304688 403.988281 380.246094 C 404.800781 380.28125 405.304688 380.542969 404.84375 381.46875 C 404.722656 381.644531 404.582031 381.804688 404.425781 381.953125 C 403.96875 382.371094 403.441406 382.875 404.082031 383.433594 C 404.707031 383.976562 405.15625 383.371094 405.550781 382.914062 C 407.941406 381.132812 410.390625 379.441406 413.109375 378.1875 C 413.878906 378.121094 414.308594 377.429688 414.972656 377.164062 C 415.820312 377.515625 416.453125 378.179688 417.175781 378.710938 C 417.996094 380.238281 418.8125 381.765625 419.628906 383.289062 " fill-opacity="1" fill-rule="nonzero"/><path fill="#f5e519" d="M 425.21875 439.886719 C 425.355469 438.421875 426.449219 438.308594 427.46875 438.53125 C 429.734375 439.023438 431.308594 439.597656 432.359375 436.234375 C 433.101562 433.851562 435.976562 432.011719 438.152344 430.238281 C 439.992188 428.738281 441.539062 426.691406 444.109375 426.238281 C 445.089844 427.8125 444.445312 430.390625 442.339844 431.867188 C 438.621094 434.480469 435.492188 437.898438 431.328125 439.890625 C 429.710938 440.285156 428.234375 438.988281 426.609375 439.492188 C 426.144531 439.625 425.679688 439.753906 425.21875 439.886719 " fill-opacity="1" fill-rule="nonzero"/><path fill="#f9d217" d="M 397.402344 372.578125 C 396.933594 372.734375 396.460938 372.894531 395.988281 373.054688 C 395.5 373.210938 395.378906 373.003906 395.503906 372.558594 C 396.390625 371.195312 397.648438 370.40625 399.226562 370.007812 C 400.019531 369.804688 400.960938 369.777344 401.453125 368.910156 C 402.246094 367.507812 403.289062 367.800781 404.421875 368.4375 C 405.21875 368.890625 406.046875 369.285156 406.867188 369.703125 C 406.679688 372.054688 404.605469 372.527344 403.058594 373.519531 C 401.066406 374.710938 399.105469 375.992188 396.734375 376.28125 C 396.03125 376.363281 395.03125 376.746094 394.714844 375.742188 C 394.441406 374.898438 395.304688 374.617188 395.902344 374.269531 C 396.570312 373.882812 397.21875 373.457031 397.875 373.050781 C 398.0625 372.835938 398.023438 372.648438 397.804688 372.492188 C 397.671875 372.398438 397.527344 372.4375 397.402344 372.578125 " fill-opacity="1" fill-rule="nonzero"/><path fill="#f9d417" d="M 402.585938 375.40625 C 402.746094 375.25 402.902344 375.089844 403.0625 374.933594 C 404.070312 374.46875 404.421875 373.300781 405.351562 372.777344 C 406.023438 372.398438 406.582031 371.539062 407.550781 372.121094 C 408.757812 372.683594 410 373.097656 411.359375 372.980469 C 412.230469 372.640625 412.796875 372.980469 413.164062 373.773438 C 413.496094 375.523438 412.15625 376.523438 411 376.421875 C 408.890625 376.238281 407.339844 377.511719 405.472656 377.816406 C 405.003906 377.875 404.53125 377.859375 404.0625 377.816406 C 403.761719 377.800781 403.460938 377.777344 403.164062 377.742188 C 402.519531 377.65625 401.679688 377.832031 401.496094 376.953125 C 401.324219 376.144531 402.066406 375.816406 402.585938 375.40625 " fill-opacity="1" fill-rule="nonzero"/><path fill="#f2f021" d="M 387.503906 427.1875 C 387.980469 427.816406 388.453125 428.441406 388.925781 429.070312 C 389.132812 429.292969 389.113281 429.496094 388.871094 429.675781 C 386.753906 427.796875 384.609375 426.128906 382.007812 424.734375 C 377.449219 422.292969 373.449219 418.78125 371.433594 413.65625 C 371.214844 413.136719 371.109375 412.625 371.476562 412.128906 C 371.546875 412.160156 371.644531 412.175781 371.683594 412.234375 C 375.777344 418.464844 381.585938 422.886719 387.503906 427.1875 " fill-opacity="1" fill-rule="nonzero"/><path fill="#f2ef20" d="M 388.871094 429.675781 C 388.890625 429.476562 388.90625 429.273438 388.925781 429.070312 C 391.753906 431.125 394.085938 433.867188 397.429688 435.199219 C 398.644531 435.683594 399.761719 436.078125 401.230469 435.824219 C 403.117188 435.496094 405.015625 436.425781 406.289062 437.804688 C 408.152344 439.824219 410.542969 440.445312 412.992188 440.773438 C 416.132812 441.191406 419.324219 441.773438 422.5 440.882812 C 420.183594 442.464844 417.632812 442.109375 415.066406 441.832031 C 411.941406 441.5 408.855469 441.105469 406.324219 438.984375 C 405.675781 438.539062 405.085938 438.027344 404.492188 437.515625 C 403.648438 436.917969 402.679688 436.429688 401.679688 436.570312 C 398.082031 437.085938 395.398438 435.316406 392.832031 433.21875 C 391.464844 432.097656 389.933594 431.148438 388.871094 429.675781 " fill-opacity="1" fill-rule="nonzero"/><path fill="#eaee35" d="M 388.445312 376.816406 C 388.367188 379.246094 389.027344 381.144531 391.796875 381.625 C 392.515625 381.746094 393.03125 382.242188 393.414062 382.886719 C 393.902344 383.695312 394.800781 384.171875 395.605469 384.023438 C 396.941406 383.78125 397.351562 384.382812 397.761719 385.445312 C 398.339844 386.945312 399.578125 387.785156 401.109375 387.195312 C 403.515625 386.273438 404.925781 387.550781 406.351562 389.0625 C 404.308594 388.546875 402.40625 387.238281 400.125 388.082031 C 399.769531 388.210938 399.023438 388.042969 398.835938 387.761719 C 397.546875 385.863281 395.722656 384.867188 393.648438 384.019531 C 392.65625 383.609375 391.898438 382.699219 390.726562 382.28125 C 388.730469 381.570312 387.71875 379.894531 387.933594 377.660156 C 387.960938 377.292969 387.953125 376.902344 388.445312 376.816406 " fill-opacity="1" fill-rule="nonzero"/><path fill="#f1ef23" d="M 371.476562 412.128906 C 371.460938 412.636719 371.449219 413.144531 371.433594 413.65625 C 370.4375 411.886719 369.179688 410.441406 367.300781 409.480469 C 365.746094 408.679688 364.882812 407.46875 366.757812 405.988281 C 368.246094 408.097656 369.636719 410.285156 371.476562 412.128906 " fill-opacity="1" fill-rule="nonzero"/><path fill="#f5ee1b" d="M 407.550781 372.121094 C 405.71875 372.527344 404.882812 374.515625 403.0625 374.933594 C 402.90625 374.460938 404.519531 373.984375 403.058594 373.519531 C 403.996094 371.917969 406.078125 371.457031 406.867188 369.703125 C 407.742188 370.324219 407.21875 371.34375 407.550781 372.121094 " fill-opacity="1" fill-rule="nonzero"/><path fill="#efef27" d="M 417.175781 378.710938 C 415.898438 379.058594 415.390625 378.140625 414.847656 377.285156 C 414.574219 377.15625 414.378906 376.941406 414.195312 376.707031 C 414.066406 376.558594 413.953125 376.394531 413.839844 376.230469 C 413.445312 375.632812 413.132812 375.003906 413.222656 374.25 C 413.269531 374.035156 413.402344 373.902344 413.617188 373.851562 C 414.75 374.054688 414.636719 375.292969 415.304688 375.882812 C 416.058594 376.742188 417.023438 377.457031 417.175781 378.710938 " fill-opacity="1" fill-rule="nonzero"/><path fill="#ebef3a" d="M 415.304688 375.882812 C 414.683594 375.25 414.054688 374.621094 413.429688 373.992188 C 412.789062 373.683594 412.652344 372.882812 412.023438 372.566406 C 413.566406 371.734375 414.636719 371.855469 414.867188 373.890625 C 414.945312 374.5625 415.15625 375.21875 415.304688 375.882812 " fill-opacity="1" fill-rule="nonzero"/><path fill="#f5e81a" d="M 395.503906 372.558594 C 395.667969 372.722656 395.828125 372.890625 395.988281 373.054688 C 394.945312 373.652344 394.285156 375.179688 392.675781 374.429688 C 393.617188 373.808594 394.5625 373.183594 395.503906 372.558594 " fill-opacity="1" fill-rule="nonzero"/><path fill="#f5ec20" d="M 426.609375 439.492188 C 428.265625 438.644531 429.761719 439.695312 431.328125 439.890625 C 429.6875 440.578125 428.179688 439.667969 426.609375 439.492188 " fill-opacity="1" fill-rule="nonzero"/><path fill="#f7da19" d="M 412.023438 372.566406 C 412.914062 372.628906 413.117188 373.363281 413.429688 373.992188 C 413.25 374.226562 413.097656 374.214844 412.953125 374 C 412.453125 373.613281 412.132812 372.945312 411.363281 372.980469 C 411.582031 372.84375 411.804688 372.703125 412.023438 372.566406 " fill-opacity="1" fill-rule="nonzero"/><path fill="#f4ef1b" d="M 412.953125 374 C 413.101562 373.996094 413.25 373.996094 413.398438 374 C 413.722656 374.78125 414.046875 375.566406 414.375 376.347656 C 411.65625 378.027344 408.84375 379.554688 406.199219 381.355469 C 405.691406 381.703125 405.105469 382.023438 404.476562 381.527344 C 404.71875 381.011719 404.832031 380.558594 404 380.582031 C 404.152344 379.347656 405.449219 378.601562 405.421875 377.289062 C 406.832031 376.71875 408.492188 375.394531 409.589844 375.761719 C 411.183594 376.292969 411.777344 375.460938 412.683594 374.84375 C 412.875 374.710938 412.867188 374.289062 412.953125 374 " fill-opacity="1" fill-rule="nonzero"/><path fill="#f9d417" d="M 404.476562 381.527344 C 406.871094 380.617188 408.734375 378.816406 410.972656 377.644531 C 412.058594 377.078125 413.050781 376.28125 414.375 376.347656 C 415.011719 377.511719 414.261719 378.121094 413.429688 378.699219 C 410.71875 379.957031 408.21875 381.539062 405.886719 383.40625 C 405.136719 383.773438 404.285156 384.441406 403.59375 383.539062 C 402.824219 382.539062 403.824219 382.050781 404.476562 381.527344 " fill-opacity="1" fill-rule="nonzero"/><path fill="#f8d617" d="M 405.421875 377.289062 C 406.628906 379.109375 404.902344 379.667969 404 380.582031 C 403.6875 380.742188 403.375 380.898438 403.0625 381.054688 C 402.308594 381.449219 401.441406 381.566406 400.703125 381.996094 C 399.539062 381.996094 398.875 381.679688 400.019531 380.617188 C 400.632812 380.042969 401.414062 379.644531 402.117188 379.171875 C 402.910156 378.707031 403.433594 377.976562 404.003906 377.289062 C 404.476562 377.289062 404.949219 377.289062 405.421875 377.289062 " fill-opacity="1" fill-rule="nonzero"/><path fill="#f5ee1b" d="M 404.003906 377.289062 C 404.566406 379.109375 402.992188 378.789062 402.117188 379.171875 C 402.324219 378.714844 402.246094 378.445312 401.839844 378.023438 C 400.71875 376.847656 400.824219 375.847656 402.585938 375.40625 C 400.527344 377.933594 403.28125 376.847656 404.003906 377.289062 " fill-opacity="1" fill-rule="nonzero"/><path fill="#f4ef1b" d="M 404.476562 381.527344 C 404.335938 382.152344 403.277344 382.507812 403.800781 383.273438 C 404.359375 384.097656 405.195312 383.160156 405.886719 383.40625 C 405.496094 384.242188 404.820312 384.488281 403.972656 384.246094 C 403.382812 384.078125 403.113281 383.621094 403.09375 383.023438 C 403.066406 382.078125 403.546875 381.59375 404.476562 381.527344 " fill-opacity="1" fill-rule="nonzero"/><path fill="#f4ef1b" d="M 413.429688 378.699219 C 413.859375 377.960938 414.570312 377.335938 414.375 376.347656 C 414.753906 376.550781 414.835938 376.898438 414.847656 377.285156 C 414.804688 378.183594 414.335938 378.660156 413.429688 378.699219 " fill-opacity="1" fill-rule="nonzero"/><path fill="#f4ef1b" d="M 400.703125 381.996094 C 401.316406 381.25 402.136719 381.027344 403.0625 381.054688 C 402.449219 381.804688 401.625 382.023438 400.703125 381.996094 " fill-opacity="1" fill-rule="nonzero"/><path fill="#f5e81a" d="M 397.402344 372.578125 C 397.738281 372.160156 398.238281 371.90625 398.535156 372.417969 C 398.816406 372.898438 398.25 372.984375 397.875 373.050781 C 397.71875 372.894531 397.5625 372.734375 397.402344 372.578125 " fill-opacity="1" fill-rule="nonzero"/><path fill="#e7ec1e" d="M 313.101562 419.890625 C 315.972656 415.867188 318.839844 411.832031 322.042969 408.054688 C 323.523438 408.53125 324.964844 409.160156 326.605469 408.804688 C 327.757812 408.554688 328.347656 409.394531 328.730469 410.285156 C 329.648438 412.433594 331.113281 413.90625 333.417969 414.546875 C 334.773438 414.925781 335.234375 416.191406 335.8125 417.300781 C 337.648438 420.8125 337.789062 420.917969 341.808594 420.511719 C 343.140625 420.378906 343.683594 420.992188 343.867188 422.171875 C 344.160156 424.03125 344.664062 425.851562 344.847656 427.730469 C 344.941406 428.679688 345.171875 429.601562 345.792969 430.347656 C 346.761719 431.515625 348.003906 432.207031 349.523438 431.699219 C 351.070312 431.183594 351.933594 430.007812 352.015625 428.335938 C 352.023438 428.097656 351.988281 427.867188 351.960938 427.632812 C 351.84375 426.644531 351.234375 425.246094 352.242188 424.8125 C 353.414062 424.308594 353.691406 425.882812 354.214844 426.644531 C 356.125 429.414062 360.078125 430.382812 361.664062 426.101562 C 362.460938 424.738281 361.269531 422.835938 362.847656 421.683594 C 363.65625 421.875 363.898438 422.578125 364.1875 423.207031 C 367.960938 431.382812 371.714844 439.570312 376.066406 447.46875 C 376.835938 448.871094 376.613281 449.796875 375.042969 450.386719 C 372.253906 451.433594 369.457031 452.46875 366.683594 453.558594 C 365.699219 453.945312 364.671875 453.953125 363.683594 453.601562 C 359.089844 451.96875 354.261719 451.234375 349.574219 449.9375 C 345.714844 448.871094 342.242188 447.242188 339.074219 444.859375 C 337.441406 443.632812 335.617188 442.699219 333.9375 441.550781 C 329.695312 438.816406 325.8125 435.632812 322.097656 432.222656 C 320.21875 430.5 319.183594 428.207031 317.550781 426.34375 C 316.503906 424.535156 314.527344 423.492188 313.628906 421.554688 C 313.378906 421.019531 312.828125 420.589844 313.101562 419.890625 " fill-opacity="1" fill-rule="nonzero"/><path fill="#e9ee39" d="M 362.148438 426.488281 C 359.652344 431.394531 356.640625 430.957031 352.40625 425.054688 C 352.074219 425.75 352.332031 426.390625 352.484375 427.054688 C 353.0625 429.65625 351.71875 432.027344 349.410156 432.550781 C 347.253906 433.035156 344.515625 431.023438 344.300781 428.5 C 344.121094 426.386719 343.433594 424.378906 343.304688 422.28125 C 343.222656 420.878906 342.703125 420.828125 341.503906 421.199219 C 338.636719 422.089844 337.136719 421.445312 335.863281 418.699219 C 334.914062 416.664062 333.957031 414.917969 331.441406 414.394531 C 329.695312 414.03125 329 412.300781 328.351562 410.777344 C 327.871094 409.640625 327.355469 409.109375 325.921875 409.464844 C 324.488281 409.820312 322.921875 409.652344 322.042969 408.054688 C 325.855469 402.363281 330.078125 396.972656 334.273438 391.5625 C 335.558594 395.566406 339.152344 396.757812 342.492188 398.210938 C 343.351562 398.582031 343.886719 399.148438 344.339844 399.882812 C 345.011719 400.980469 345.984375 401.667969 347.257812 401.339844 C 349.269531 400.828125 350.898438 401.683594 352.578125 402.496094 C 352.792969 402.621094 352.980469 402.773438 353.152344 402.945312 C 356.265625 408.101562 359.171875 413.375 361.964844 418.710938 C 363.289062 421.246094 362.140625 423.894531 362.148438 426.488281 " fill-opacity="1" fill-rule="nonzero"/><path fill="#f3f01f" d="M 333.851562 441.089844 C 336.710938 442.21875 339.066406 444.160156 341.5625 445.875 C 345.9375 448.871094 351.09375 449.644531 356.0625 450.957031 C 357.039062 451.214844 358.144531 451.171875 359.015625 451.613281 C 363.664062 453.972656 367.996094 452.773438 372.394531 450.816406 C 376.113281 449.167969 376.144531 449.300781 374.371094 445.742188 C 370.429688 437.839844 366.304688 430.027344 363.074219 421.792969 C 364.269531 421.726562 365.375 423.0625 366.714844 421.878906 C 367.027344 421.605469 367.601562 422.597656 367.90625 423.128906 C 368.921875 424.902344 370.074219 426.589844 371.265625 428.242188 C 371.800781 428.988281 372.3125 429.824219 373.507812 430.070312 C 373.789062 428.394531 372.574219 427.351562 372.015625 426.078125 C 371.488281 424.871094 369.78125 423.347656 371.269531 422.429688 C 372.480469 421.6875 373.191406 423.820312 373.933594 424.828125 C 375.273438 426.644531 376.535156 428.511719 378.472656 430.246094 C 378.742188 428.988281 378.164062 428.324219 377.75 427.644531 C 376.929688 426.308594 375.988281 425.046875 375.167969 423.707031 C 374.707031 422.957031 374.230469 422.148438 375.214844 421.4375 C 376.570312 420.457031 376.179688 419.261719 375.644531 418.078125 C 374.84375 416.285156 373.660156 414.695312 372.8125 412.921875 C 372.289062 411.824219 371.832031 410.75 373.359375 410.046875 C 379.175781 420.011719 384.96875 429.988281 390.453125 440.136719 C 386.96875 442.871094 383.4375 445.550781 380.4375 448.84375 C 379.808594 449.53125 379.152344 450.171875 378.847656 451.109375 C 378.070312 453.472656 377.566406 453.742188 374.898438 453.210938 C 373.695312 452.972656 372.460938 452.34375 371.5625 453.789062 C 370.65625 454.121094 369.75 454.453125 368.84375 454.785156 C 362.648438 456.277344 356.816406 455.746094 351.6875 451.59375 C 350.269531 450.445312 348.785156 449.953125 346.941406 450.164062 C 344.242188 450.46875 342.144531 448.886719 340.15625 447.425781 C 338.476562 446.1875 336.765625 444.914062 335.386719 443.292969 C 334.84375 442.582031 333.75 442.25 333.851562 441.089844 " fill-opacity="1" fill-rule="nonzero"/><path fill="#efef25" d="M 373.359375 410.046875 C 372.640625 410.960938 372.726562 411.777344 373.371094 412.777344 C 374.425781 414.417969 375.429688 416.125 376.167969 417.921875 C 376.722656 419.269531 377.96875 420.976562 375.402344 421.921875 C 374.566406 422.230469 375.289062 422.820312 375.550781 423.234375 C 376.714844 425.085938 377.917969 426.914062 379.054688 428.78125 C 379.402344 429.355469 379.945312 430.117188 379.222656 430.6875 C 378.390625 431.347656 377.710938 430.566406 377.257812 430.019531 C 375.917969 428.398438 374.710938 426.667969 373.402344 425.023438 C 372.742188 424.191406 372.472656 423.019531 371.164062 422.476562 C 371.355469 424.90625 373.230469 426.390625 373.929688 428.402344 C 374.210938 429.214844 375.210938 430.039062 373.984375 430.835938 C 372.867188 431.5625 372.433594 430.414062 371.921875 429.875 C 369.816406 427.640625 368.324219 424.976562 366.757812 422.210938 C 365.148438 425.210938 364.296875 422.179688 363.074219 421.792969 C 361.871094 423.179688 363.335938 425.09375 362.148438 426.488281 C 363.324219 420.367188 359.675781 415.800781 357.066406 410.921875 C 355.640625 408.25 353.957031 405.714844 352.746094 402.925781 C 352.519531 401.128906 353.945312 400.300781 355.003906 399.371094 C 355.808594 398.671875 356.328125 398.175781 356.261719 396.9375 C 356.164062 395.167969 357.527344 394.589844 359.273438 394.902344 C 361.652344 395.324219 363.695312 396.566406 365.972656 397.191406 C 368.65625 401.351562 371.023438 405.691406 373.359375 410.046875 " fill-opacity="1" fill-rule="nonzero"/><path fill="#f3f01f" d="M 365.972656 397.191406 C 365.71875 397.664062 365.089844 397.984375 364.824219 397.722656 C 363.230469 396.175781 361.019531 396.3125 359.183594 395.484375 C 358.539062 395.195312 358.082031 394.996094 357.511719 395.421875 C 356.847656 395.914062 356.3125 396.542969 356.785156 397.382812 C 357.4375 398.550781 357.222656 398.890625 355.894531 399.417969 C 354.453125 399.996094 353.511719 401.492188 352.746094 402.925781 C 350.992188 401.894531 349.421875 400.710938 347.105469 401.539062 C 345.71875 402.03125 344.546875 401.101562 343.9375 399.726562 C 343.535156 398.816406 343.097656 398.144531 341.867188 398.28125 C 341.035156 398.371094 335.597656 394.777344 335.140625 394.066406 C 334.464844 393.011719 334.363281 391.890625 334.789062 390.71875 C 336.109375 389.765625 337.46875 388.878906 339.019531 388.332031 C 340.390625 388.304688 341.246094 387.304688 342.261719 386.605469 C 342.714844 386.214844 343.226562 386.046875 343.820312 386.195312 C 344.160156 386.339844 344.367188 386.578125 344.359375 386.964844 C 344.011719 388.082031 342.746094 388.316406 341.945312 389.359375 C 345.003906 389.941406 346.953125 387.753906 349.355469 387.0625 C 351.074219 387.316406 350.378906 388.144531 349.804688 388.945312 C 349.578125 389.199219 349.324219 389.417969 349.054688 389.621094 C 348.316406 390.128906 347.921875 390.726562 348.601562 391.554688 C 349.050781 392.101562 349.171875 392.648438 348.726562 393.25 C 348.433594 394.082031 346.957031 394.042969 347.238281 395.28125 C 347.976562 395.339844 348.570312 395.003906 349.15625 394.644531 C 349.523438 394.414062 349.898438 394.207031 350.332031 394.148438 C 351.148438 394.183594 351.648438 394.441406 351.1875 395.371094 C 351.066406 395.546875 350.925781 395.710938 350.769531 395.855469 C 350.3125 396.273438 349.785156 396.777344 350.429688 397.332031 C 351.050781 397.875 351.5 397.273438 351.898438 396.816406 C 354.289062 395.035156 356.734375 393.34375 359.453125 392.089844 C 360.222656 392.023438 360.652344 391.332031 361.316406 391.066406 C 362.167969 391.417969 362.796875 392.082031 363.523438 392.613281 C 364.339844 394.140625 365.15625 395.664062 365.972656 397.191406 " fill-opacity="1" fill-rule="nonzero"/><path fill="#f5e519" d="M 371.5625 453.789062 C 371.699219 452.324219 372.796875 452.210938 373.8125 452.433594 C 376.074219 452.925781 377.652344 453.5 378.703125 450.136719 C 379.449219 447.753906 382.324219 445.914062 384.496094 444.136719 C 386.335938 442.636719 387.886719 440.59375 390.453125 440.136719 C 391.433594 441.710938 390.789062 444.292969 388.683594 445.769531 C 384.964844 448.378906 381.839844 451.800781 377.671875 453.792969 C 376.054688 454.1875 374.582031 452.890625 372.953125 453.394531 C 372.488281 453.523438 372.023438 453.65625 371.5625 453.789062 " fill-opacity="1" fill-rule="nonzero"/><path fill="#f9d217" d="M 343.746094 386.480469 C 343.277344 386.640625 342.804688 386.796875 342.335938 386.957031 C 341.84375 387.113281 341.726562 386.90625 341.847656 386.460938 C 342.738281 385.097656 343.992188 384.308594 345.570312 383.910156 C 346.363281 383.707031 347.308594 383.679688 347.796875 382.8125 C 348.589844 381.410156 349.636719 381.703125 350.765625 382.339844 C 351.566406 382.792969 352.394531 383.1875 353.210938 383.605469 C 353.027344 385.957031 350.953125 386.429688 349.402344 387.421875 C 347.410156 388.613281 345.449219 389.894531 343.078125 390.183594 C 342.375 390.265625 341.375 390.648438 341.058594 389.644531 C 340.789062 388.800781 341.648438 388.519531 342.25 388.171875 C 342.917969 387.785156 343.566406 387.359375 344.222656 386.953125 C 344.40625 386.742188 344.367188 386.550781 344.148438 386.394531 C 344.015625 386.296875 343.875 386.339844 343.746094 386.480469 " fill-opacity="1" fill-rule="nonzero"/><path fill="#f9d417" d="M 348.929688 389.308594 C 349.089844 389.152344 349.246094 388.992188 349.40625 388.835938 C 350.414062 388.371094 350.765625 387.203125 351.695312 386.679688 C 352.367188 386.300781 352.925781 385.441406 353.894531 386.019531 C 355.101562 386.585938 356.34375 387 357.707031 386.882812 C 358.574219 386.542969 359.140625 386.882812 359.507812 387.675781 C 359.84375 389.425781 358.5 390.425781 357.34375 390.324219 C 355.234375 390.140625 353.683594 391.414062 351.816406 391.71875 C 351.347656 391.773438 350.875 391.761719 350.40625 391.714844 C 350.105469 391.703125 349.804688 391.679688 349.507812 391.640625 C 348.867188 391.558594 348.023438 391.734375 347.835938 390.855469 C 347.667969 390.046875 348.410156 389.71875 348.929688 389.308594 " fill-opacity="1" fill-rule="nonzero"/><path fill="#f2f021" d="M 333.851562 441.089844 C 334.324219 441.71875 334.800781 442.34375 335.273438 442.972656 C 335.476562 443.195312 335.457031 443.398438 335.214844 443.578125 C 333.097656 441.699219 330.953125 440.03125 328.355469 438.636719 C 323.792969 436.195312 319.792969 432.683594 317.777344 427.554688 C 317.5625 427.042969 317.453125 426.527344 317.820312 426.027344 C 317.890625 426.0625 317.988281 426.078125 318.027344 426.136719 C 322.121094 432.367188 327.929688 436.789062 333.851562 441.089844 " fill-opacity="1" fill-rule="nonzero"/><g clip-path="url(#faa18c6846)"><path fill="#f2ef20" d="M 335.214844 443.578125 C 335.234375 443.378906 335.253906 443.175781 335.273438 442.972656 C 338.097656 445.027344 340.429688 447.765625 343.777344 449.101562 C 344.988281 449.585938 346.105469 449.980469 347.574219 449.726562 C 349.464844 449.398438 351.363281 450.328125 352.632812 451.707031 C 354.496094 453.726562 356.886719 454.347656 359.335938 454.675781 C 362.476562 455.09375 365.667969 455.675781 368.84375 454.785156 C 366.527344 456.367188 363.976562 456.007812 361.410156 455.734375 C 358.285156 455.402344 355.199219 455.007812 352.667969 452.886719 C 352.019531 452.441406 351.429688 451.929688 350.835938 451.417969 C 349.992188 450.820312 349.023438 450.332031 348.023438 450.472656 C 344.425781 450.988281 341.742188 449.21875 339.175781 447.121094 C 337.804688 446 336.277344 445.050781 335.214844 443.578125 " fill-opacity="1" fill-rule="nonzero"/></g><path fill="#eaee35" d="M 334.789062 390.71875 C 334.710938 393.148438 335.375 395.046875 338.140625 395.527344 C 338.859375 395.648438 339.375 396.144531 339.761719 396.785156 C 340.25 397.597656 341.144531 398.070312 341.949219 397.925781 C 343.285156 397.683594 343.699219 398.285156 344.105469 399.347656 C 344.683594 400.847656 345.921875 401.6875 347.457031 401.097656 C 349.859375 400.175781 351.273438 401.453125 352.695312 402.964844 C 350.65625 402.449219 348.753906 401.136719 346.46875 401.984375 C 346.113281 402.113281 345.371094 401.945312 345.175781 401.664062 C 343.890625 399.765625 342.066406 398.769531 339.996094 397.921875 C 339 397.515625 338.242188 396.601562 337.070312 396.1875 C 335.078125 395.472656 334.0625 393.796875 334.273438 391.5625 C 334.304688 391.195312 334.296875 390.804688 334.789062 390.71875 " fill-opacity="1" fill-rule="nonzero"/><path fill="#f1ef23" d="M 317.820312 426.027344 C 317.808594 426.539062 317.792969 427.046875 317.777344 427.554688 C 316.78125 425.789062 315.523438 424.34375 313.648438 423.382812 C 312.089844 422.582031 311.230469 421.371094 313.101562 419.890625 C 314.59375 422 315.980469 424.1875 317.820312 426.027344 " fill-opacity="1" fill-rule="nonzero"/><path fill="#f5ee1b" d="M 353.894531 386.019531 C 352.066406 386.429688 351.226562 388.414062 349.40625 388.835938 C 349.25 388.363281 350.863281 387.890625 349.402344 387.421875 C 350.339844 385.820312 352.421875 385.359375 353.210938 383.605469 C 354.085938 384.226562 353.566406 385.246094 353.894531 386.019531 " fill-opacity="1" fill-rule="nonzero"/><path fill="#efef27" d="M 363.523438 392.613281 C 362.242188 392.960938 361.734375 392.042969 361.191406 391.1875 C 360.917969 391.058594 360.722656 390.84375 360.539062 390.609375 C 360.410156 390.460938 360.296875 390.296875 360.1875 390.132812 C 359.789062 389.53125 359.476562 388.90625 359.570312 388.152344 C 359.617188 387.9375 359.746094 387.804688 359.960938 387.753906 C 361.097656 387.953125 360.980469 389.195312 361.652344 389.785156 C 362.402344 390.644531 363.367188 391.359375 363.523438 392.613281 " fill-opacity="1" fill-rule="nonzero"/><path fill="#ebef3a" d="M 361.652344 389.785156 C 361.023438 389.152344 360.398438 388.523438 359.773438 387.894531 C 359.132812 387.585938 359 386.785156 358.367188 386.46875 C 359.910156 385.636719 360.984375 385.757812 361.210938 387.792969 C 361.285156 388.464844 361.5 389.121094 361.652344 389.785156 " fill-opacity="1" fill-rule="nonzero"/><path fill="#f5e81a" d="M 341.847656 386.460938 C 342.011719 386.625 342.171875 386.792969 342.335938 386.957031 C 341.289062 387.554688 340.628906 389.082031 339.019531 388.332031 C 339.960938 387.707031 340.90625 387.085938 341.847656 386.460938 " fill-opacity="1" fill-rule="nonzero"/><path fill="#f5ec20" d="M 372.953125 453.394531 C 374.609375 452.546875 376.105469 453.601562 377.671875 453.792969 C 376.03125 454.480469 374.523438 453.570312 372.953125 453.394531 " fill-opacity="1" fill-rule="nonzero"/><path fill="#f7da19" d="M 358.367188 386.46875 C 359.257812 386.53125 359.460938 387.265625 359.773438 387.894531 C 359.589844 388.128906 359.445312 388.121094 359.296875 387.898438 C 358.796875 387.515625 358.476562 386.847656 357.707031 386.882812 C 357.925781 386.746094 358.148438 386.605469 358.367188 386.46875 " fill-opacity="1" fill-rule="nonzero"/><path fill="#f4ef1b" d="M 359.296875 387.898438 C 359.445312 387.898438 359.59375 387.898438 359.742188 387.902344 C 360.066406 388.6875 360.394531 389.46875 360.71875 390.246094 C 358 391.929688 355.191406 393.457031 352.542969 395.257812 C 352.035156 395.605469 351.449219 395.925781 350.820312 395.429688 C 351.058594 394.914062 351.175781 394.460938 350.347656 394.484375 C 350.496094 393.25 351.789062 392.503906 351.765625 391.191406 C 353.175781 390.621094 354.839844 389.296875 355.933594 389.664062 C 357.53125 390.195312 358.121094 389.363281 359.027344 388.746094 C 359.21875 388.613281 359.214844 388.191406 359.296875 387.898438 " fill-opacity="1" fill-rule="nonzero"/><path fill="#f9d417" d="M 350.820312 395.429688 C 353.214844 394.519531 355.078125 392.71875 357.320312 391.546875 C 358.40625 390.980469 359.394531 390.183594 360.71875 390.246094 C 361.355469 391.414062 360.609375 392.023438 359.777344 392.601562 C 357.066406 393.859375 354.5625 395.441406 352.234375 397.308594 C 351.480469 397.675781 350.628906 398.34375 349.9375 397.441406 C 349.167969 396.441406 350.167969 395.953125 350.820312 395.429688 " fill-opacity="1" fill-rule="nonzero"/><path fill="#f8d617" d="M 351.765625 391.191406 C 352.972656 393.011719 351.246094 393.570312 350.347656 394.484375 C 350.03125 394.640625 349.71875 394.800781 349.40625 394.957031 C 348.652344 395.351562 347.789062 395.46875 347.046875 395.898438 C 345.886719 395.898438 345.21875 395.582031 346.363281 394.519531 C 346.980469 393.945312 347.757812 393.546875 348.464844 393.074219 C 349.253906 392.609375 349.78125 391.878906 350.347656 391.191406 C 350.820312 391.191406 351.292969 391.191406 351.765625 391.191406 " fill-opacity="1" fill-rule="nonzero"/><path fill="#f5ee1b" d="M 350.347656 391.191406 C 350.914062 393.007812 349.335938 392.691406 348.464844 393.074219 C 348.667969 392.617188 348.589844 392.347656 348.1875 391.925781 C 347.0625 390.75 347.167969 389.75 348.929688 389.308594 C 346.871094 391.835938 349.625 390.75 350.347656 391.191406 " fill-opacity="1" fill-rule="nonzero"/><path fill="#f4ef1b" d="M 350.820312 395.429688 C 350.679688 396.054688 349.625 396.410156 350.140625 397.175781 C 350.703125 398 351.539062 397.0625 352.234375 397.308594 C 351.839844 398.144531 351.167969 398.390625 350.316406 398.148438 C 349.730469 397.980469 349.457031 397.523438 349.4375 396.925781 C 349.410156 395.980469 349.890625 395.496094 350.820312 395.429688 " fill-opacity="1" fill-rule="nonzero"/><path fill="#f4ef1b" d="M 359.777344 392.601562 C 360.203125 391.863281 360.917969 391.238281 360.71875 390.25 C 361.097656 390.453125 361.183594 390.800781 361.191406 391.1875 C 361.148438 392.085938 360.679688 392.5625 359.777344 392.601562 " fill-opacity="1" fill-rule="nonzero"/><path fill="#f4ef1b" d="M 347.046875 395.898438 C 347.660156 395.152344 348.484375 394.929688 349.40625 394.957031 C 348.792969 395.707031 347.96875 395.925781 347.046875 395.898438 " fill-opacity="1" fill-rule="nonzero"/><path fill="#f5e81a" d="M 343.746094 386.480469 C 344.082031 386.0625 344.582031 385.804688 344.882812 386.320312 C 345.160156 386.800781 344.59375 386.882812 344.222656 386.953125 C 344.0625 386.796875 343.90625 386.636719 343.746094 386.480469 " fill-opacity="1" fill-rule="nonzero"/></svg>