<svg xmlns="http://www.w3.org/2000/svg" xmlns:xlink="http://www.w3.org/1999/xlink" width="1080" zoomAndPan="magnify" viewBox="0 0 810 809.999993" height="1080" preserveAspectRatio="xMidYMid meet" version="1.0"><defs><clipPath id="f6126f1866"><path d="M 371.128906 368.394531 L 442.382812 368.394531 L 442.382812 441.574219 L 371.128906 441.574219 Z M 371.128906 368.394531 " clip-rule="nonzero"/></clipPath><clipPath id="00b80e063d"><path d="M 407.460938 441.511719 C 403.507812 441.511719 399.488281 440.835938 395.558594 439.414062 C 377.390625 432.847656 366.601562 409.664062 373.175781 391.519531 C 378.332031 377.304688 391.761719 368.46875 406.070312 368.46875 C 410.023438 368.46875 414.042969 369.140625 417.976562 370.5625 C 436.140625 377.132812 446.933594 400.316406 440.355469 418.457031 C 435.203125 432.671875 421.773438 441.511719 407.460938 441.511719 M 383.875 388.238281 C 382.703125 388.238281 381.503906 388.746094 380.542969 389.957031 C 380.203125 390.382812 379.886719 390.828125 379.585938 391.292969 C 375.664062 397.359375 375.605469 403.648438 379.152344 409.9375 C 379.175781 409.980469 379.199219 410.023438 379.222656 410.066406 C 379.835938 411.132812 380.824219 411.597656 381.800781 411.597656 C 383.515625 411.597656 385.210938 410.179688 384.859375 408.058594 C 384.277344 404.527344 384.589844 400.402344 387.058594 396.214844 C 387.242188 395.90625 387.429688 395.605469 387.625 395.320312 C 389.957031 391.882812 387.015625 388.238281 383.875 388.238281 M 393.800781 376.855469 C 393.246094 376.855469 392.660156 376.988281 392.070312 377.296875 C 389.800781 378.472656 387.789062 380.222656 386.292969 382.578125 C 383.9375 386.292969 386.871094 388.714844 389.6875 388.714844 C 391.03125 388.714844 392.34375 388.167969 393.050781 386.949219 C 393.921875 385.4375 394.976562 384.207031 396.148438 383.214844 C 398.910156 380.867188 396.816406 376.855469 393.800781 376.855469 " clip-rule="nonzero"/></clipPath><clipPath id="a62cf35be9"><path d="M 407.460938 441.511719 C 403.507812 441.511719 399.488281 440.835938 395.558594 439.414062 C 377.390625 432.847656 366.601562 409.664062 373.175781 391.519531 C 378.332031 377.304688 391.761719 368.46875 406.070312 368.46875 C 410.023438 368.46875 414.042969 369.140625 417.976562 370.5625 C 436.140625 377.132812 446.933594 400.316406 440.355469 418.457031 C 435.203125 432.671875 421.773438 441.511719 407.460938 441.511719 M 383.875 388.238281 C 382.703125 388.238281 381.503906 388.746094 380.542969 389.957031 C 380.203125 390.382812 379.886719 390.828125 379.585938 391.292969 C 375.664062 397.359375 375.605469 403.648438 379.152344 409.9375 C 379.175781 409.980469 379.199219 410.023438 379.222656 410.066406 C 379.835938 411.132812 380.824219 411.597656 381.800781 411.597656 C 383.515625 411.597656 385.210938 410.179688 384.859375 408.058594 C 384.277344 404.527344 384.589844 400.402344 387.058594 396.214844 C 387.242188 395.90625 387.429688 395.605469 387.625 395.320312 C 389.957031 391.882812 387.015625 388.238281 383.875 388.238281 M 393.800781 376.855469 C 393.246094 376.855469 392.660156 376.988281 392.070312 377.296875 C 389.800781 378.472656 387.789062 380.222656 386.292969 382.578125 C 383.9375 386.292969 386.871094 388.714844 389.6875 388.714844 C 391.03125 388.714844 392.34375 388.167969 393.050781 386.949219 C 393.921875 385.4375 394.976562 384.207031 396.148438 383.214844 C 398.910156 380.867188 396.816406 376.855469 393.800781 376.855469 " clip-rule="nonzero"/></clipPath><clipPath id="33768a4df3"><path d="M 375.910156 342.789062 L 343.191406 433.046875 L 437.625 467.191406 L 470.339844 376.933594 Z M 375.910156 342.789062 " clip-rule="nonzero"/></clipPath><radialGradient gradientTransform="matrix(0.940863, 0.3402, -0.340625, 0.939689, 406.76733, 404.990367)" gradientUnits="userSpaceOnUse" r="36.177463" cx="0" id="2576c911a3" cy="0" fx="0" fy="0"><stop stop-opacity="1" stop-color="rgb(100%, 80.799866%, 20.399475%)" offset="0"/><stop stop-opacity="1" stop-color="rgb(99.899292%, 80.699158%, 20.399475%)" offset="0.25"/><stop stop-opacity="1" stop-color="rgb(99.711609%, 80.511475%, 20.399475%)" offset="0.34375"/><stop stop-opacity="1" stop-color="rgb(99.610901%, 80.245972%, 20.233154%)" offset="0.425781"/><stop stop-opacity="1" stop-color="rgb(99.598694%, 79.888916%, 20.033264%)" offset="0.496094"/><stop stop-opacity="1" stop-color="rgb(99.598694%, 79.655457%, 19.999695%)" offset="0.527344"/><stop stop-opacity="1" stop-color="rgb(99.458313%, 79.457092%, 19.999695%)" offset="0.554688"/><stop stop-opacity="1" stop-color="rgb(99.258423%, 79.122925%, 19.999695%)" offset="0.582031"/><stop stop-opacity="1" stop-color="rgb(99.198914%, 78.829956%, 19.9646%)" offset="0.605469"/><stop stop-opacity="1" stop-color="rgb(99.198914%, 78.631592%, 19.831848%)" offset="0.617188"/><stop stop-opacity="1" stop-color="rgb(99.078369%, 78.346252%, 19.667053%)" offset="0.628906"/><stop stop-opacity="1" stop-color="rgb(98.878479%, 78.079224%, 19.599915%)" offset="0.648438"/><stop stop-opacity="1" stop-color="rgb(98.799133%, 77.905273%, 19.599915%)" offset="0.667969"/><stop stop-opacity="1" stop-color="rgb(98.799133%, 77.703857%, 19.599915%)" offset="0.675781"/><stop stop-opacity="1" stop-color="rgb(98.701477%, 77.52533%, 19.599915%)" offset="0.683594"/><stop stop-opacity="1" stop-color="rgb(98.501587%, 77.323914%, 19.546509%)" offset="0.691406"/><stop stop-opacity="1" stop-color="rgb(98.399353%, 77.046204%, 19.345093%)" offset="0.699219"/><stop stop-opacity="1" stop-color="rgb(98.399353%, 76.808167%, 19.198608%)" offset="0.714844"/><stop stop-opacity="1" stop-color="rgb(98.300171%, 76.608276%, 19.198608%)" offset="0.722656"/><stop stop-opacity="1" stop-color="rgb(98.100281%, 76.391602%, 19.198608%)" offset="0.730469"/><stop stop-opacity="1" stop-color="rgb(97.999573%, 76.089478%, 19.198608%)" offset="0.738281"/><stop stop-opacity="1" stop-color="rgb(97.999573%, 75.796509%, 19.100952%)" offset="0.746094"/><stop stop-opacity="1" stop-color="rgb(97.999573%, 75.698853%, 18.90564%)" offset="0.753906"/><stop stop-opacity="1" stop-color="rgb(97.999573%, 75.512695%, 18.803406%)" offset="0.757812"/><stop stop-opacity="1" stop-color="rgb(97.817993%, 75.312805%, 18.798828%)" offset="0.761719"/><stop stop-opacity="1" stop-color="rgb(97.618103%, 75.299072%, 18.798828%)" offset="0.765625"/><stop stop-opacity="1" stop-color="rgb(97.599792%, 75.099182%, 18.798828%)" offset="0.769531"/><stop stop-opacity="1" stop-color="rgb(97.599792%, 74.899292%, 18.798828%)" offset="0.773438"/><stop stop-opacity="1" stop-color="rgb(97.599792%, 74.887085%, 18.798828%)" offset="0.777344"/><stop stop-opacity="1" stop-color="rgb(97.593689%, 74.687195%, 18.798828%)" offset="0.78125"/><stop stop-opacity="1" stop-color="rgb(97.442627%, 74.49646%, 18.798828%)" offset="0.785156"/><stop stop-opacity="1" stop-color="rgb(97.299194%, 74.298096%, 18.798828%)" offset="0.789062"/><stop stop-opacity="1" stop-color="rgb(97.299194%, 74.101257%, 18.605042%)" offset="0.792969"/><stop stop-opacity="1" stop-color="rgb(97.299194%, 74.099731%, 18.405151%)" offset="0.796875"/><stop stop-opacity="1" stop-color="rgb(97.299194%, 73.9151%, 18.399048%)" offset="0.800781"/><stop stop-opacity="1" stop-color="rgb(97.299194%, 73.71521%, 18.399048%)" offset="0.804688"/><stop stop-opacity="1" stop-color="rgb(97.123718%, 73.524475%, 18.399048%)" offset="0.808594"/><stop stop-opacity="1" stop-color="rgb(96.923828%, 73.313904%, 18.399048%)" offset="0.8125"/><stop stop-opacity="1" stop-color="rgb(96.893311%, 73.083496%, 18.392944%)" offset="0.816406"/><stop stop-opacity="1" stop-color="rgb(96.69342%, 72.692871%, 18.193054%)" offset="0.824219"/><stop stop-opacity="1" stop-color="rgb(96.499634%, 72.351074%, 17.999268%)" offset="0.832031"/><stop stop-opacity="1" stop-color="rgb(96.499634%, 72.013855%, 17.999268%)" offset="0.839844"/><stop stop-opacity="1" stop-color="rgb(96.321106%, 71.633911%, 17.999268%)" offset="0.84375"/><stop stop-opacity="1" stop-color="rgb(96.121216%, 71.3974%, 17.799377%)" offset="0.851562"/><stop stop-opacity="1" stop-color="rgb(96.099854%, 71.160889%, 17.599487%)" offset="0.855469"/><stop stop-opacity="1" stop-color="rgb(96.089172%, 70.785522%, 17.599487%)" offset="0.863281"/><stop stop-opacity="1" stop-color="rgb(95.889282%, 70.594788%, 17.599487%)" offset="0.867188"/><stop stop-opacity="1" stop-color="rgb(95.698547%, 70.394897%, 17.599487%)" offset="0.871094"/><stop stop-opacity="1" stop-color="rgb(95.698547%, 70.004272%, 17.599487%)" offset="0.875"/><stop stop-opacity="1" stop-color="rgb(95.698547%, 69.804382%, 17.456055%)" offset="0.878906"/><stop stop-opacity="1" stop-color="rgb(95.51239%, 69.613647%, 17.304993%)" offset="0.882812"/><stop stop-opacity="1" stop-color="rgb(95.3125%, 69.232178%, 17.298889%)" offset="0.886719"/><stop stop-opacity="1" stop-color="rgb(95.298767%, 69.017029%, 17.298889%)" offset="0.890625"/><stop stop-opacity="1" stop-color="rgb(95.277405%, 68.777466%, 17.298889%)" offset="0.894531"/><stop stop-opacity="1" stop-color="rgb(95.077515%, 68.377686%, 17.282104%)" offset="0.898438"/><stop stop-opacity="1" stop-color="rgb(94.898987%, 68.186951%, 17.082214%)" offset="0.902344"/><stop stop-opacity="1" stop-color="rgb(94.891357%, 67.980957%, 16.899109%)" offset="0.90625"/><stop stop-opacity="1" stop-color="rgb(94.691467%, 67.642212%, 16.899109%)" offset="0.910156"/><stop stop-opacity="1" stop-color="rgb(94.499207%, 67.304993%, 16.899109%)" offset="0.917969"/><stop stop-opacity="1" stop-color="rgb(94.499207%, 66.915894%, 16.7099%)" offset="0.921875"/><stop stop-opacity="1" stop-color="rgb(94.314575%, 66.525269%, 16.51001%)" offset="0.925781"/><stop stop-opacity="1" stop-color="rgb(94.114685%, 66.139221%, 16.499329%)" offset="0.929688"/><stop stop-opacity="1" stop-color="rgb(93.899536%, 65.70282%, 16.477966%)" offset="0.9375"/><stop stop-opacity="1" stop-color="rgb(93.699646%, 65.263367%, 16.278076%)" offset="0.941406"/><stop stop-opacity="1" stop-color="rgb(93.687439%, 64.883423%, 16.099548%)" offset="0.945312"/><stop stop-opacity="1" stop-color="rgb(93.487549%, 64.692688%, 16.099548%)" offset="0.949219"/><stop stop-opacity="1" stop-color="rgb(93.299866%, 64.491272%, 16.098022%)" offset="0.953125"/><stop stop-opacity="1" stop-color="rgb(93.299866%, 64.100647%, 15.901184%)" offset="0.957031"/><stop stop-opacity="1" stop-color="rgb(93.107605%, 63.710022%, 15.70282%)" offset="0.960938"/><stop stop-opacity="1" stop-color="rgb(92.906189%, 63.319397%, 15.699768%)" offset="0.964844"/><stop stop-opacity="1" stop-color="rgb(92.89856%, 62.928772%, 15.699768%)" offset="0.96875"/><stop stop-opacity="1" stop-color="rgb(92.720032%, 62.582397%, 15.52124%)" offset="0.972656"/><stop stop-opacity="1" stop-color="rgb(92.503357%, 62.191772%, 15.32135%)" offset="0.976562"/><stop stop-opacity="1" stop-color="rgb(92.330933%, 61.756897%, 15.299988%)" offset="0.980469"/><stop stop-opacity="1" stop-color="rgb(92.199707%, 61.366272%, 15.284729%)" offset="0.984375"/><stop stop-opacity="1" stop-color="rgb(92.189026%, 60.975647%, 15.084839%)" offset="0.988281"/><stop stop-opacity="1" stop-color="rgb(91.989136%, 60.5896%, 14.898682%)" offset="0.992188"/><stop stop-opacity="1" stop-color="rgb(91.799927%, 60.398865%, 14.898682%)" offset="1"/></radialGradient><clipPath id="ead4d6acf0"><path d="M 376.4375 388.078125 L 388.5625 388.078125 L 388.5625 411.796875 L 376.4375 411.796875 Z M 376.4375 388.078125 " clip-rule="nonzero"/></clipPath><clipPath id="4b7d01bbd6"><path d="M 381.800781 411.597656 C 380.824219 411.597656 379.835938 411.132812 379.222656 410.066406 C 379.199219 410.023438 379.175781 409.980469 379.152344 409.9375 C 375.605469 403.648438 375.664062 397.359375 379.585938 391.292969 C 379.886719 390.828125 380.203125 390.382812 380.542969 389.957031 C 381.503906 388.746094 382.703125 388.238281 383.875 388.238281 C 387.015625 388.238281 389.957031 391.882812 387.625 395.320312 C 387.429688 395.605469 387.242188 395.90625 387.058594 396.214844 C 384.589844 400.402344 384.277344 404.527344 384.859375 408.058594 C 385.210938 410.179688 383.515625 411.597656 381.800781 411.597656 " clip-rule="nonzero"/></clipPath><clipPath id="46ff1b4b07"><path d="M 381.800781 411.597656 C 380.824219 411.597656 379.835938 411.132812 379.222656 410.066406 C 379.199219 410.023438 379.175781 409.980469 379.152344 409.9375 C 375.605469 403.648438 375.664062 397.359375 379.585938 391.292969 C 379.886719 390.828125 380.203125 390.382812 380.542969 389.957031 C 381.503906 388.746094 382.703125 388.238281 383.875 388.238281 C 387.015625 388.238281 389.957031 391.882812 387.625 395.320312 C 387.429688 395.605469 387.242188 395.90625 387.058594 396.214844 C 384.589844 400.402344 384.277344 404.527344 384.859375 408.058594 C 385.210938 410.179688 383.515625 411.597656 381.800781 411.597656 " clip-rule="nonzero"/></clipPath><clipPath id="8ec2014712"><path d="M 377.269531 383.652344 L 368.117188 408.890625 L 388.296875 416.1875 L 397.445312 390.945312 Z M 377.269531 383.652344 " clip-rule="nonzero"/></clipPath><radialGradient gradientTransform="matrix(0.940863, 0.3402, -0.340625, 0.939689, 406.76733, 404.990367)" gradientUnits="userSpaceOnUse" r="36.177463" cx="0" id="7c96b128b0" cy="0" fx="0" fy="0"><stop stop-opacity="1" stop-color="rgb(100%, 95.198059%, 79.998779%)" offset="0"/><stop stop-opacity="1" stop-color="rgb(100%, 95.024109%, 79.998779%)" offset="0.25"/><stop stop-opacity="1" stop-color="rgb(99.874878%, 94.798279%, 79.998779%)" offset="0.4375"/><stop stop-opacity="1" stop-color="rgb(99.673462%, 94.514465%, 79.93927%)" offset="0.578125"/><stop stop-opacity="1" stop-color="rgb(99.598694%, 94.239807%, 79.73938%)" offset="0.683594"/><stop stop-opacity="1" stop-color="rgb(99.546814%, 94.047546%, 79.598999%)" offset="0.722656"/><stop stop-opacity="1" stop-color="rgb(99.346924%, 93.817139%, 79.598999%)" offset="0.753906"/><stop stop-opacity="1" stop-color="rgb(99.198914%, 93.469238%, 79.598999%)" offset="0.78125"/><stop stop-opacity="1" stop-color="rgb(99.198914%, 93.258667%, 79.598999%)" offset="0.808594"/><stop stop-opacity="1" stop-color="rgb(99.198914%, 93.139648%, 79.598999%)" offset="0.832031"/><stop stop-opacity="1" stop-color="rgb(99.198914%, 92.984009%, 79.598999%)" offset="0.839844"/><stop stop-opacity="1" stop-color="rgb(99.099731%, 92.802429%, 79.499817%)" offset="0.847656"/><stop stop-opacity="1" stop-color="rgb(98.899841%, 92.599487%, 79.299927%)" offset="0.855469"/><stop stop-opacity="1" stop-color="rgb(98.799133%, 92.34314%, 79.199219%)" offset="0.871094"/><stop stop-opacity="1" stop-color="rgb(98.797607%, 91.992188%, 79.199219%)" offset="0.902344"/><stop stop-opacity="1" stop-color="rgb(98.602295%, 91.603088%, 79.199219%)" offset="0.914062"/><stop stop-opacity="1" stop-color="rgb(98.402405%, 91.400146%, 79.194641%)" offset="0.933594"/><stop stop-opacity="1" stop-color="rgb(98.399353%, 91.197205%, 78.996277%)" offset="0.949219"/><stop stop-opacity="1" stop-color="rgb(98.399353%, 90.80658%, 78.799438%)" offset="0.960938"/><stop stop-opacity="1" stop-color="rgb(98.298645%, 90.504456%, 78.799438%)" offset="0.96875"/><stop stop-opacity="1" stop-color="rgb(98.098755%, 90.298462%, 78.799438%)" offset="0.976562"/><stop stop-opacity="1" stop-color="rgb(97.999573%, 90.19928%, 78.799438%)" offset="1"/></radialGradient><clipPath id="45fda60404"><path d="M 385.28125 376.722656 L 397.660156 376.722656 L 397.660156 388.832031 L 385.28125 388.832031 Z M 385.28125 376.722656 " clip-rule="nonzero"/></clipPath><clipPath id="556ed7a2d6"><path d="M 389.6875 388.714844 C 386.871094 388.714844 383.9375 386.292969 386.292969 382.578125 C 387.789062 380.222656 389.800781 378.472656 392.070312 377.296875 C 392.660156 376.988281 393.246094 376.855469 393.800781 376.855469 C 396.816406 376.855469 398.910156 380.867188 396.148438 383.214844 C 394.976562 384.207031 393.921875 385.4375 393.050781 386.949219 C 392.34375 388.167969 391.03125 388.714844 389.6875 388.714844 " clip-rule="nonzero"/></clipPath><clipPath id="71f5b7b13f"><path d="M 389.6875 388.714844 C 386.871094 388.714844 383.9375 386.292969 386.292969 382.578125 C 387.789062 380.222656 389.800781 378.472656 392.070312 377.296875 C 392.660156 376.988281 393.246094 376.855469 393.800781 376.855469 C 396.816406 376.855469 398.910156 380.867188 396.148438 383.214844 C 394.976562 384.207031 393.921875 385.4375 393.050781 386.949219 C 392.34375 388.167969 391.03125 388.714844 389.6875 388.714844 " clip-rule="nonzero"/></clipPath><clipPath id="dbd98141c0"><path d="M 385.671875 372.066406 L 380.136719 387.339844 L 397.175781 393.503906 L 402.710938 378.230469 Z M 385.671875 372.066406 " clip-rule="nonzero"/></clipPath><radialGradient gradientTransform="matrix(0.940863, 0.3402, -0.340625, 0.939689, 406.76733, 404.990367)" gradientUnits="userSpaceOnUse" r="36.177463" cx="0" id="6be59ba62f" cy="0" fx="0" fy="0"><stop stop-opacity="1" stop-color="rgb(100%, 95.198059%, 79.998779%)" offset="0"/><stop stop-opacity="1" stop-color="rgb(100%, 95.024109%, 79.998779%)" offset="0.25"/><stop stop-opacity="1" stop-color="rgb(99.874878%, 94.798279%, 79.998779%)" offset="0.4375"/><stop stop-opacity="1" stop-color="rgb(99.673462%, 94.514465%, 79.93927%)" offset="0.578125"/><stop stop-opacity="1" stop-color="rgb(99.598694%, 94.239807%, 79.73938%)" offset="0.683594"/><stop stop-opacity="1" stop-color="rgb(99.546814%, 94.047546%, 79.598999%)" offset="0.722656"/><stop stop-opacity="1" stop-color="rgb(99.346924%, 93.817139%, 79.598999%)" offset="0.753906"/><stop stop-opacity="1" stop-color="rgb(99.198914%, 93.469238%, 79.598999%)" offset="0.78125"/><stop stop-opacity="1" stop-color="rgb(99.198914%, 93.258667%, 79.598999%)" offset="0.808594"/><stop stop-opacity="1" stop-color="rgb(99.198914%, 93.139648%, 79.598999%)" offset="0.832031"/><stop stop-opacity="1" stop-color="rgb(99.198914%, 92.984009%, 79.598999%)" offset="0.839844"/><stop stop-opacity="1" stop-color="rgb(99.099731%, 92.802429%, 79.499817%)" offset="0.847656"/><stop stop-opacity="1" stop-color="rgb(98.899841%, 92.599487%, 79.299927%)" offset="0.855469"/><stop stop-opacity="1" stop-color="rgb(98.799133%, 92.34314%, 79.199219%)" offset="0.871094"/><stop stop-opacity="1" stop-color="rgb(98.797607%, 91.992188%, 79.199219%)" offset="0.902344"/><stop stop-opacity="1" stop-color="rgb(98.602295%, 91.603088%, 79.199219%)" offset="0.914062"/><stop stop-opacity="1" stop-color="rgb(98.402405%, 91.400146%, 79.194641%)" offset="0.933594"/><stop stop-opacity="1" stop-color="rgb(98.399353%, 91.197205%, 78.996277%)" offset="0.949219"/><stop stop-opacity="1" stop-color="rgb(98.399353%, 90.80658%, 78.799438%)" offset="0.960938"/><stop stop-opacity="1" stop-color="rgb(98.298645%, 90.504456%, 78.799438%)" offset="0.96875"/><stop stop-opacity="1" stop-color="rgb(98.098755%, 90.298462%, 78.799438%)" offset="0.976562"/><stop stop-opacity="1" stop-color="rgb(97.999573%, 90.19928%, 78.799438%)" offset="1"/></radialGradient></defs><path fill="#e6e0c8" d="M 497.523438 412.628906 C 495.820312 397.347656 482.253906 400.796875 474.925781 381.933594 C 468.738281 366.023438 479.316406 356.449219 470.164062 342.078125 C 462.589844 330.1875 452.691406 327 443.1875 328.039062 C 429.527344 329.53125 422.570312 343.058594 402.199219 324.765625 C 387.082031 311.1875 368.914062 312.886719 356.1875 324.238281 C 344.332031 334.8125 340.074219 342.933594 338.328125 356.332031 C 335.917969 374.808594 344.25 382.546875 337.800781 397.144531 C 326.855469 421.902344 311.246094 423.902344 316.648438 444.421875 C 324.367188 473.757812 349.488281 467.492188 362.230469 473.140625 C 376.734375 479.566406 376.875 485.972656 389.441406 492.050781 C 402.941406 498.582031 422.445312 498.433594 435.183594 489.277344 C 447.605469 480.347656 441.792969 471.339844 456.027344 458.222656 C 468.875 446.382812 477.808594 449.855469 488.089844 437.035156 C 491.183594 433.175781 498.761719 423.726562 497.523438 412.628906 " fill-opacity="1" fill-rule="nonzero"/><path fill="#ce9d7c" d="M 495.1875 412.464844 C 493.53125 397.59375 480.328125 400.949219 473.195312 382.59375 C 467.175781 367.109375 477.46875 357.792969 468.5625 343.804688 C 461.191406 332.234375 451.558594 329.132812 442.308594 330.144531 C 429.015625 331.597656 422.246094 344.761719 402.421875 326.957031 C 387.710938 313.746094 370.027344 315.398438 357.644531 326.445312 C 346.105469 336.734375 341.964844 344.640625 340.261719 357.679688 C 337.917969 375.65625 346.027344 383.1875 339.75 397.394531 C 329.097656 421.488281 313.910156 423.433594 319.164062 443.40625 C 326.675781 471.953125 351.125 465.855469 363.523438 471.351562 C 377.640625 477.609375 377.773438 483.84375 390.007812 489.757812 C 403.140625 496.109375 422.125 495.96875 434.523438 487.054688 C 446.609375 478.367188 440.949219 469.601562 454.804688 456.835938 C 467.308594 445.3125 476 448.691406 486.007812 436.214844 C 489.015625 432.460938 496.390625 423.265625 495.1875 412.464844 " fill-opacity="1" fill-rule="nonzero"/><path fill="#f8f7f4" d="M 494.28125 412.398438 C 492.640625 397.6875 479.578125 401.007812 472.523438 382.851562 C 466.566406 367.53125 476.75 358.3125 467.9375 344.476562 C 460.648438 333.03125 451.117188 329.960938 441.96875 330.964844 C 428.816406 332.398438 422.117188 345.425781 402.507812 327.808594 C 387.953125 314.742188 370.460938 316.375 358.207031 327.304688 C 346.796875 337.480469 342.699219 345.300781 341.015625 358.203125 C 338.695312 375.988281 346.71875 383.4375 340.507812 397.492188 C 329.96875 421.328125 314.945312 423.253906 320.144531 443.011719 C 327.574219 471.25 351.761719 465.21875 364.027344 470.65625 C 377.992188 476.847656 378.125 483.011719 390.226562 488.863281 C 403.21875 495.148438 422 495.007812 434.261719 486.191406 C 446.21875 477.597656 440.625 468.925781 454.328125 456.296875 C 466.699219 444.898438 475.296875 448.242188 485.199219 435.894531 C 488.175781 432.183594 495.46875 423.085938 494.28125 412.398438 " fill-opacity="1" fill-rule="nonzero"/><path fill="#fffefd" d="M 394.269531 330.855469 L 394.242188 330.835938 C 384.027344 321.660156 371.75 322.808594 363.152344 330.476562 C 355.140625 337.621094 352.265625 343.113281 351.082031 352.167969 L 351.074219 352.222656 C 350.898438 353.59375 352.691406 354.277344 353.484375 353.144531 C 357.425781 347.507812 362.378906 341.734375 369.476562 337.875 C 377.46875 333.53125 385.960938 332.554688 393.546875 332.6875 C 394.523438 332.703125 394.992188 331.507812 394.269531 330.855469 " fill-opacity="1" fill-rule="nonzero"/><path fill="#eaeaea" d="M 436.046875 465.5625 C 427.621094 479.273438 420.101562 480.628906 413.40625 482.171875 C 404.457031 484.234375 395.332031 480.902344 386.78125 476.714844 C 385.9375 476.304688 385.277344 477.6875 385.980469 478.3125 C 388.527344 480.554688 390.914062 482.773438 395.546875 484.847656 C 405.554688 489.320312 420.769531 489.699219 428.992188 481.464844 C 434.308594 476.136719 434.957031 472.222656 437.40625 466.660156 C 437.789062 465.792969 436.539062 464.761719 436.046875 465.5625 " fill-opacity="1" fill-rule="nonzero"/><path fill="#eaeaea" d="M 481.886719 404.8125 C 486.132812 416.082031 483.480469 421.144531 481.316406 425.808594 C 478.425781 432.039062 472.261719 435.894531 465.855469 439.019531 C 465.226562 439.328125 465.742188 440.355469 466.433594 440.222656 C 468.929688 439.753906 471.339844 439.363281 474.695312 437.578125 C 481.941406 433.726562 489.152344 424.917969 488.058594 416.28125 C 487.347656 410.695312 485.328125 408.511719 483.160156 404.511719 C 482.824219 403.890625 481.640625 404.152344 481.886719 404.8125 " fill-opacity="1" fill-rule="nonzero"/><path fill="#f2ece2" d="M 366.023438 438.441406 C 360.554688 439.265625 356.585938 443.015625 357.15625 446.824219 C 357.730469 450.632812 362.628906 453.050781 368.101562 452.230469 C 373.570312 451.410156 377.542969 447.65625 376.96875 443.851562 C 376.394531 440.042969 371.496094 437.621094 366.023438 438.441406 " fill-opacity="1" fill-rule="nonzero"/><path fill="#fdfdfd" d="M 376.96875 443.851562 C 376.890625 443.34375 376.738281 442.863281 376.519531 442.414062 C 376.730469 446.0625 373.199219 448.804688 367.941406 449.59375 C 363.195312 450.304688 358.546875 449.332031 357.113281 446.378906 C 357.121094 446.527344 357.132812 446.675781 357.15625 446.824219 C 357.730469 450.632812 362.628906 453.050781 368.101562 452.230469 C 373.570312 451.410156 377.542969 447.65625 376.96875 443.851562 " fill-opacity="1" fill-rule="nonzero"/><path fill="#f2ece2" d="M 441.980469 355.539062 C 436.511719 356.363281 432.542969 360.113281 433.113281 363.921875 C 433.6875 367.730469 438.585938 370.152344 444.058594 369.328125 C 449.527344 368.507812 453.496094 364.757812 452.925781 360.949219 C 452.351562 357.140625 447.453125 354.71875 441.980469 355.539062 " fill-opacity="1" fill-rule="nonzero"/><path fill="#fdfdfd" d="M 452.925781 360.949219 C 452.847656 360.445312 452.695312 359.964844 452.476562 359.511719 C 452.6875 363.160156 449.992188 364.957031 444.511719 366.492188 C 439.890625 367.789062 434.503906 366.429688 433.070312 363.476562 C 433.078125 363.625 433.09375 363.773438 433.113281 363.921875 C 433.6875 367.730469 438.585938 370.152344 444.058594 369.328125 C 449.527344 368.507812 453.496094 364.757812 452.925781 360.949219 " fill-opacity="1" fill-rule="nonzero"/><path fill="#f2ece2" d="M 366.175781 358.683594 C 360.703125 359.503906 356.734375 363.257812 357.304688 367.066406 C 357.878906 370.871094 362.777344 373.292969 368.25 372.472656 C 373.71875 371.652344 377.6875 367.898438 377.117188 364.089844 C 376.542969 360.285156 371.644531 357.863281 366.175781 358.683594 " fill-opacity="1" fill-rule="nonzero"/><path fill="#fdfdfd" d="M 377.117188 364.089844 C 377.039062 363.585938 376.886719 363.105469 376.667969 362.65625 C 376.878906 366.304688 373.433594 369.089844 368.179688 369.878906 C 363.433594 370.59375 358.695312 369.574219 357.261719 366.617188 C 357.269531 366.769531 357.285156 366.917969 357.304688 367.066406 C 357.878906 370.871094 362.777344 373.292969 368.25 372.472656 C 373.71875 371.652344 377.6875 367.898438 377.117188 364.089844 " fill-opacity="1" fill-rule="nonzero"/><path fill="#f2ece2" d="M 430.296875 346.410156 C 427.980469 346.757812 426.300781 348.347656 426.542969 349.960938 C 426.785156 351.574219 428.859375 352.597656 431.175781 352.25 C 433.492188 351.902344 435.171875 350.3125 434.933594 348.699219 C 434.6875 347.089844 432.613281 346.0625 430.296875 346.410156 " fill-opacity="1" fill-rule="nonzero"/><path fill="#fdfdfd" d="M 434.933594 348.699219 C 434.898438 348.488281 434.832031 348.285156 434.742188 348.09375 C 434.832031 349.636719 433.191406 351.117188 430.96875 351.453125 C 428.957031 351.753906 427.132812 351.023438 426.523438 349.769531 C 426.527344 349.835938 426.53125 349.898438 426.542969 349.960938 C 426.785156 351.574219 428.859375 352.597656 431.175781 352.25 C 433.492188 351.902344 435.171875 350.3125 434.933594 348.699219 " fill-opacity="1" fill-rule="nonzero"/><path fill="#f2ece2" d="M 364.988281 379.273438 C 362.671875 379.621094 360.992188 381.210938 361.234375 382.824219 C 361.476562 384.4375 363.550781 385.460938 365.867188 385.113281 C 368.183594 384.765625 369.867188 383.175781 369.625 381.5625 C 369.378906 379.953125 367.304688 378.925781 364.988281 379.273438 " fill-opacity="1" fill-rule="nonzero"/><path fill="#fdfdfd" d="M 369.625 381.5625 C 369.589844 381.351562 369.527344 381.148438 369.433594 380.957031 C 369.523438 382.5 367.882812 383.980469 365.660156 384.316406 C 363.652344 384.617188 361.824219 383.886719 361.214844 382.632812 C 361.21875 382.695312 361.226562 382.761719 361.234375 382.824219 C 361.476562 384.4375 363.550781 385.460938 365.867188 385.113281 C 368.183594 384.765625 369.867188 383.175781 369.625 381.5625 " fill-opacity="1" fill-rule="nonzero"/><path fill="#f2ece2" d="M 348.496094 429.519531 C 346.179688 429.867188 344.5 431.457031 344.742188 433.070312 C 344.984375 434.679688 347.058594 435.707031 349.375 435.359375 C 351.691406 435.011719 353.375 433.421875 353.128906 431.8125 C 352.886719 430.199219 350.8125 429.171875 348.496094 429.519531 " fill-opacity="1" fill-rule="nonzero"/><path fill="#fdfdfd" d="M 353.128906 431.8125 C 353.097656 431.597656 353.03125 431.394531 352.941406 431.203125 C 353.03125 432.746094 351.390625 434.226562 349.164062 434.5625 C 347.15625 434.863281 345.332031 434.132812 344.722656 432.878906 C 344.726562 432.945312 344.734375 433.007812 344.742188 433.070312 C 344.984375 434.679688 347.058594 435.707031 349.375 435.359375 C 351.691406 435.011719 353.375 433.421875 353.128906 431.8125 " fill-opacity="1" fill-rule="nonzero"/><path fill="#f2ece2" d="M 419.792969 464.488281 C 416.558594 464.972656 414.214844 467.191406 414.550781 469.441406 C 414.890625 471.691406 417.785156 473.121094 421.015625 472.636719 C 424.25 472.152344 426.597656 469.933594 426.257812 467.683594 C 425.917969 465.433594 423.023438 464.003906 419.792969 464.488281 " fill-opacity="1" fill-rule="nonzero"/><path fill="#fdfdfd" d="M 426.257812 467.683594 C 426.214844 467.386719 426.121094 467.101562 425.992188 466.835938 C 426.117188 468.992188 423.832031 471.058594 420.726562 471.523438 C 417.921875 471.945312 415.375 470.925781 414.523438 469.179688 C 414.53125 469.265625 414.539062 469.355469 414.550781 469.441406 C 414.890625 471.691406 417.785156 473.121094 421.015625 472.636719 C 424.25 472.152344 426.597656 469.933594 426.257812 467.683594 " fill-opacity="1" fill-rule="nonzero"/><path fill="#f2ece2" d="M 412.472656 451.433594 C 409.992188 451.804688 408.1875 453.507812 408.449219 455.234375 C 408.710938 456.964844 410.933594 458.0625 413.414062 457.691406 C 415.898438 457.316406 417.699219 455.613281 417.441406 453.886719 C 417.179688 452.160156 414.957031 451.058594 412.472656 451.433594 " fill-opacity="1" fill-rule="nonzero"/><path fill="#fdfdfd" d="M 417.441406 453.886719 C 417.40625 453.65625 417.335938 453.441406 417.238281 453.234375 C 417.332031 454.890625 415.59375 456.148438 413.207031 456.503906 C 411.054688 456.828125 409.082031 456.375 408.429688 455.035156 C 408.433594 455.101562 408.4375 455.167969 408.449219 455.234375 C 408.710938 456.964844 410.933594 458.0625 413.414062 457.691406 C 415.898438 457.316406 417.699219 455.613281 417.441406 453.886719 " fill-opacity="1" fill-rule="nonzero"/><path fill="#f2ece2" d="M 460.460938 410.222656 C 457.738281 410.628906 455.765625 412.496094 456.050781 414.390625 C 456.335938 416.28125 458.773438 417.484375 461.492188 417.078125 C 464.210938 416.667969 466.183594 414.804688 465.898438 412.910156 C 465.613281 411.019531 463.179688 409.816406 460.460938 410.222656 " fill-opacity="1" fill-rule="nonzero"/><path fill="#fdfdfd" d="M 465.898438 412.910156 C 465.863281 412.660156 465.785156 412.421875 465.675781 412.195312 C 465.78125 414.011719 462.871094 415.882812 461.148438 415.867188 C 458.765625 415.851562 456.742188 415.636719 456.027344 414.167969 C 456.03125 414.242188 456.039062 414.316406 456.050781 414.390625 C 456.335938 416.28125 458.773438 417.484375 461.492188 417.078125 C 464.210938 416.667969 466.183594 414.804688 465.898438 412.910156 " fill-opacity="1" fill-rule="nonzero"/><path fill="#f2ece2" d="M 462.261719 422.246094 C 460.617188 422.492188 459.421875 423.621094 459.59375 424.765625 C 459.765625 425.914062 461.238281 426.640625 462.886719 426.394531 C 464.53125 426.148438 465.726562 425.019531 465.554688 423.871094 C 465.382812 422.726562 463.90625 422 462.261719 422.246094 " fill-opacity="1" fill-rule="nonzero"/><path fill="#fdfdfd" d="M 465.554688 423.871094 C 465.53125 423.71875 465.484375 423.578125 465.417969 423.441406 C 465.484375 424.539062 464.316406 425.589844 462.738281 425.828125 C 461.308594 426.042969 460.011719 425.523438 459.578125 424.632812 C 459.582031 424.675781 459.585938 424.722656 459.59375 424.765625 C 459.765625 425.914062 461.238281 426.640625 462.886719 426.394531 C 464.53125 426.148438 465.726562 425.019531 465.554688 423.871094 " fill-opacity="1" fill-rule="nonzero"/><path fill="#fdfdfd" d="M 417.976562 370.570312 C 424.050781 372.765625 429.300781 376.824219 433.351562 381.925781 C 429.117188 375.753906 423.25 370.804688 416.296875 368.292969 C 398.128906 361.722656 378.070312 371.105469 371.496094 389.25 C 367.117188 401.324219 370.4375 415.632812 378.503906 425.789062 C 371.675781 415.84375 369.117188 402.726562 373.175781 391.527344 C 379.753906 373.386719 399.8125 364 417.976562 370.570312 " fill-opacity="1" fill-rule="nonzero"/><path fill="#fdfdfd" d="M 440.742188 416.945312 C 442.738281 410.808594 442.757812 404.179688 441.214844 397.855469 C 443.488281 404.980469 443.792969 412.644531 441.507812 419.667969 C 435.539062 438.019531 415.808594 448.066406 397.433594 442.105469 C 385.203125 438.136719 375.9375 426.734375 372.867188 414.140625 C 376.535156 425.625 385.324219 435.699219 396.667969 439.378906 C 415.039062 445.339844 434.773438 435.296875 440.742188 416.945312 " fill-opacity="1" fill-rule="nonzero"/><g clip-path="url(#f6126f1866)"><g clip-path="url(#00b80e063d)"><g clip-path="url(#a62cf35be9)"><g clip-path="url(#33768a4df3)"><path fill="url(#2576c911a3)" d="M 379.386719 345.691406 L 347.722656 433.046875 L 434.125 464.289062 L 465.789062 376.933594 Z M 379.386719 345.691406 " fill-rule="nonzero"/></g></g></g></g><g clip-path="url(#ead4d6acf0)"><g clip-path="url(#4b7d01bbd6)"><g clip-path="url(#46ff1b4b07)"><g clip-path="url(#8ec2014712)"><path fill="url(#7c96b128b0)" d="M 377.84375 384.363281 L 368.949219 408.890625 L 387.160156 415.476562 L 396.050781 390.945312 Z M 377.84375 384.363281 " fill-rule="nonzero"/></g></g></g></g><g clip-path="url(#45fda60404)"><g clip-path="url(#556ed7a2d6)"><g clip-path="url(#71f5b7b13f)"><g clip-path="url(#dbd98141c0)"><path fill="url(#6be59ba62f)" d="M 386.714844 372.898438 L 381.480469 387.339844 L 396.226562 392.671875 L 401.460938 378.230469 Z M 386.714844 372.898438 " fill-rule="nonzero"/></g></g></g></g></svg>