<svg xmlns="http://www.w3.org/2000/svg" xmlns:xlink="http://www.w3.org/1999/xlink" width="1080" zoomAndPan="magnify" viewBox="0 0 810 809.999993" height="1080" preserveAspectRatio="xMidYMid meet" version="1.0"><defs><clipPath id="71650efa42"><path d="M 311.25 389 L 370 389 L 370 431 L 311.25 431 Z M 311.25 389 " clip-rule="nonzero"/></clipPath><clipPath id="932acd1368"><path d="M 491.105469 371.484375 L 498.652344 371.484375 L 498.652344 380.136719 L 491.105469 380.136719 Z M 491.105469 371.484375 " clip-rule="nonzero"/></clipPath><clipPath id="a32257e8d7"><path d="M 497.3125 372.308594 L 498.652344 372.308594 L 498.652344 376 L 497.3125 376 Z M 497.3125 372.308594 " clip-rule="nonzero"/></clipPath><clipPath id="02e08cae90"><path d="M 495 376 L 498.75 376 L 498.75 380 L 495 380 Z M 495 376 " clip-rule="nonzero"/></clipPath><clipPath id="15e5dda5ce"><path d="M 435 406 L 492 406 L 492 438.234375 L 435 438.234375 Z M 435 406 " clip-rule="nonzero"/></clipPath><clipPath id="d690fc1c3d"><path d="M 435 407 L 492 407 L 492 438.234375 L 435 438.234375 Z M 435 407 " clip-rule="nonzero"/></clipPath><clipPath id="03add69d5c"><path d="M 409 403 L 440 403 L 440 438.234375 L 409 438.234375 Z M 409 403 " clip-rule="nonzero"/></clipPath><clipPath id="a335532034"><path d="M 487 401.152344 L 498.652344 401.152344 L 498.652344 409.804688 L 487 409.804688 Z M 487 401.152344 " clip-rule="nonzero"/></clipPath><clipPath id="e9d7ceba62"><path d="M 494 402 L 498.75 402 L 498.75 406 L 494 406 Z M 494 402 " clip-rule="nonzero"/></clipPath></defs><g clip-path="url(#71650efa42)"><path fill="#c4cb7c" d="M 369.355469 421.507812 C 369.300781 421.960938 369.242188 422.421875 369.109375 422.855469 C 369.027344 423.136719 368.914062 423.40625 368.757812 423.65625 C 368.378906 424.246094 367.777344 424.652344 367.179688 425.023438 C 360.308594 429.253906 351.847656 429.972656 343.953125 430.328125 C 343.566406 430.34375 343.183594 430.359375 342.800781 430.371094 C 341.824219 430.40625 340.847656 430.425781 339.867188 430.445312 C 336.472656 430.515625 333.027344 430.417969 329.65625 429.984375 C 323.625 429.214844 317.46875 426.464844 314.382812 421.25 C 312.601562 418.238281 311.988281 414.683594 311.722656 411.199219 C 311.488281 408.175781 311.375 404.773438 311.917969 401.664062 C 312.054688 400.90625 312.226562 400.164062 312.445312 399.449219 C 313.472656 396.113281 315.324219 393.035156 317.792969 390.558594 C 318.285156 390.0625 318.804688 389.589844 319.34375 389.148438 C 319.566406 389.222656 319.792969 389.296875 320.019531 389.371094 C 319.820312 389.664062 319.613281 389.949219 319.398438 390.234375 C 318.355469 391.648438 317.214844 393.027344 316.558594 394.664062 C 315.640625 396.792969 314.964844 399.027344 314.542969 401.308594 C 314.527344 401.382812 314.515625 401.460938 314.503906 401.539062 C 313.671875 406.21875 313.96875 410.953125 315.246094 415.523438 C 315.707031 417.085938 316.308594 418.636719 317.296875 419.933594 C 318.066406 420.941406 319.050781 421.765625 320.089844 422.5 C 325.601562 426.390625 332.679688 427.65625 339.410156 427.027344 C 346.136719 426.394531 352.582031 424.007812 358.6875 421.125 C 361.242188 419.925781 363.953125 418.421875 364.992188 415.804688 C 365.636719 414.179688 367.945312 414.894531 368.855469 416.390625 C 369.761719 417.886719 369.574219 419.773438 369.355469 421.507812 " fill-opacity="1" fill-rule="nonzero"/><path fill="#9d9936" d="M 369.15625 422.511719 C 369.140625 422.625 369.125 422.742188 369.109375 422.855469 C 369.027344 423.136719 368.914062 423.40625 368.757812 423.65625 C 368.378906 424.246094 367.777344 424.652344 367.179688 425.023438 C 360.308594 429.253906 351.847656 429.972656 343.953125 430.328125 C 343.566406 430.34375 343.183594 430.359375 342.800781 430.371094 C 341.824219 430.40625 340.847656 430.425781 339.867188 430.445312 C 336.472656 430.515625 333.027344 430.417969 329.65625 429.984375 C 323.625 429.214844 317.46875 426.464844 314.382812 421.25 C 312.601562 418.238281 311.988281 414.683594 311.722656 411.199219 C 311.488281 408.175781 311.375 404.773438 311.917969 401.664062 C 312.011719 401.253906 312.121094 400.847656 312.242188 400.453125 C 313.269531 397.117188 315.125 394.039062 317.589844 391.5625 C 318.085938 391.066406 319.019531 390.316406 319.558594 389.871094 C 319.644531 389.902344 319.558594 389.972656 319.398438 390.234375 C 318.355469 391.648438 317.214844 393.027344 316.558594 394.664062 C 315.640625 396.792969 314.964844 399.027344 314.542969 401.308594 C 314.453125 401.714844 314.375 402.128906 314.300781 402.539062 C 313.472656 407.21875 313.769531 411.957031 315.042969 416.523438 C 315.507812 418.089844 316.109375 419.636719 317.097656 420.933594 C 317.867188 421.941406 318.851562 422.769531 319.886719 423.503906 C 325.402344 427.394531 332.480469 428.660156 339.207031 428.027344 C 345.9375 427.398438 352.378906 425.007812 358.488281 422.128906 C 361.039062 420.925781 363.753906 419.425781 364.789062 416.808594 C 365.433594 415.183594 367.742188 415.898438 368.652344 417.394531 C 369.558594 418.890625 369.371094 420.777344 369.15625 422.511719 " fill-opacity="1" fill-rule="nonzero"/></g><path fill="#998932" d="M 324.742188 387.730469 C 324.554688 388.171875 323.996094 388.394531 323.59375 388.59375 C 323.113281 388.835938 322.730469 389.105469 322.304688 389.445312 C 322.195312 389.53125 322.082031 389.617188 321.957031 389.667969 C 321.734375 389.75 321.492188 389.71875 321.261719 389.742188 C 320.929688 389.773438 320.625 389.929688 320.3125 390.023438 C 319.996094 390.121094 319.628906 390.15625 319.351562 389.976562 C 319.175781 389.859375 318.980469 389.65625 318.796875 389.757812 C 318.996094 389.300781 318.890625 388.929688 318.675781 388.515625 C 318.457031 388.085938 318.125 387.722656 317.925781 387.28125 C 317.675781 386.726562 317.640625 386.082031 317.828125 385.503906 C 317.914062 385.242188 318.078125 384.980469 318.296875 384.824219 C 318.433594 384.730469 318.59375 384.679688 318.765625 384.703125 C 319.027344 384.738281 319.238281 384.9375 319.496094 384.996094 C 319.902344 385.089844 320.296875 384.8125 320.707031 384.730469 C 321 384.667969 321.304688 384.714844 321.574219 384.847656 C 321.609375 384.867188 321.648438 384.886719 321.683594 384.910156 C 321.882812 385.03125 322.050781 385.199219 322.164062 385.402344 C 322.222656 385.511719 322.269531 385.632812 322.359375 385.71875 C 322.445312 385.796875 322.554688 385.835938 322.664062 385.871094 C 323.171875 386.027344 323.714844 386.105469 324.167969 386.386719 C 324.277344 386.460938 324.382812 386.546875 324.472656 386.644531 C 324.476562 386.644531 324.476562 386.644531 324.476562 386.648438 C 324.75 386.949219 324.898438 387.363281 324.742188 387.730469 " fill-opacity="1" fill-rule="nonzero"/><path fill="#988733" d="M 407.695312 409.957031 C 407.203125 413.738281 405.75 417.390625 403.507812 420.480469 C 401.53125 423.199219 398.988281 425.453125 396.390625 427.59375 C 395.0625 428.691406 393.703125 429.773438 392.207031 430.640625 C 388.457031 432.816406 383.890625 433.550781 379.644531 432.660156 C 377.9375 432.296875 376.386719 431.636719 374.9375 430.785156 C 373.304688 429.828125 371.800781 428.628906 370.359375 427.34375 C 369.210938 426.316406 367.800781 425.378906 367.445312 423.816406 C 367.15625 422.550781 367.597656 421.109375 367.332031 419.886719 C 367.179688 419.164062 366.765625 417.667969 366.378906 417.105469 C 365.882812 416.386719 364.824219 416.242188 365.015625 415.089844 C 365.042969 414.933594 365.070312 414.777344 365.105469 414.621094 C 365.992188 410.5 369.746094 405.46875 373.195312 403.367188 C 377.09375 400.992188 382.042969 401.484375 386.550781 402.242188 C 386.855469 402.292969 387.160156 402.347656 387.464844 402.398438 C 394.132812 403.558594 400.785156 405.195312 406.804688 408.265625 C 407.109375 408.425781 407.433594 408.601562 407.601562 408.90625 C 407.773438 409.21875 407.742188 409.601562 407.695312 409.957031 " fill-opacity="1" fill-rule="nonzero"/><path fill="#bec280" d="M 375.910156 404.359375 C 379.164062 402.820312 383.078125 402.527344 386.394531 403.933594 C 386.824219 404.117188 387.308594 404.441406 387.261719 404.902344 C 387.21875 405.316406 386.769531 405.550781 386.375 405.691406 C 383.621094 406.675781 380.644531 406.800781 377.773438 407.375 C 374.90625 407.953125 371.949219 409.121094 370.320312 411.542969 C 369.898438 412.167969 368.507812 413.625 368.023438 412.160156 C 367.800781 411.492188 369.472656 409.796875 369.851562 409.316406 C 371.488281 407.253906 373.515625 405.492188 375.910156 404.359375 " fill-opacity="1" fill-rule="nonzero"/><path fill="#c0c781" d="M 387.371094 410.402344 C 388.808594 409.929688 390.347656 409.515625 391.820312 409.867188 C 393.292969 410.214844 394.628906 411.585938 394.40625 413.074219 C 394.296875 413.816406 393.832031 414.464844 393.289062 414.980469 C 391.273438 416.910156 388.292969 417.339844 385.515625 417.675781 C 380.695312 418.261719 375.871094 418.84375 371.050781 419.429688 C 375.820312 415.285156 381.308594 412.390625 387.371094 410.402344 " fill-opacity="1" fill-rule="nonzero"/><path fill="#665c20" d="M 407.695312 409.957031 C 407.203125 413.738281 405.75 417.390625 403.507812 420.480469 C 401.53125 423.199219 398.988281 425.453125 396.390625 427.59375 C 395.0625 428.691406 393.703125 429.773438 392.207031 430.640625 C 388.457031 432.816406 383.890625 433.550781 379.644531 432.660156 C 377.9375 432.296875 376.386719 431.636719 374.9375 430.785156 C 383.460938 429.964844 391.671875 426.101562 397.683594 420.023438 C 398.269531 419.433594 398.867188 418.753906 398.929688 417.925781 C 398.996094 417.09375 398.894531 416.1875 398.101562 416.445312 C 399.039062 414.691406 399.324219 412.710938 398.789062 410.796875 C 398.328125 409.15625 396.8125 407.972656 395.183594 407.441406 C 393.554688 406.910156 391.761719 406.699219 390.046875 406.71875 C 390.835938 406.179688 390.9375 405.183594 390.4375 404.367188 C 389.9375 403.550781 389.046875 403.066406 388.167969 402.683594 C 387.9375 402.585938 387.703125 402.488281 387.464844 402.398438 C 394.132812 403.558594 400.785156 405.195312 406.804688 408.265625 C 407.109375 408.425781 407.433594 408.601562 407.601562 408.90625 C 407.773438 409.21875 407.742188 409.601562 407.695312 409.957031 " fill-opacity="1" fill-rule="nonzero"/><path fill="#9c9740" d="M 367.753906 415.660156 C 371.828125 411.050781 377.121094 408.777344 382.980469 407.28125 C 386.433594 406.378906 389.988281 405.734375 393.570312 405.699219 C 397.554688 405.65625 401.6875 406.414062 405.09375 408.535156 C 403.539062 407.972656 401.941406 407.558594 400.316406 407.3125 C 394.636719 406.464844 388.90625 407.46875 383.371094 408.8125 C 377.628906 410.136719 372.5 412.015625 367.753906 415.660156 " fill-opacity="1" fill-rule="nonzero"/><path fill="#9c9740" d="M 368.167969 423.492188 C 369.472656 423.230469 370.820312 423.375 372.136719 423.386719 C 383.105469 423.644531 393.386719 418.921875 402.390625 413.039062 C 403.863281 412.097656 405.320312 411.121094 406.792969 410.152344 C 405.542969 411.390625 404.222656 412.5625 402.859375 413.679688 C 394.058594 420.917969 382.34375 426 370.777344 423.792969 C 369.914062 423.640625 369.054688 423.492188 368.167969 423.492188 " fill-opacity="1" fill-rule="nonzero"/><path fill="#82762b" d="M 321.574219 384.847656 C 321.378906 384.859375 321.179688 384.878906 321.011719 384.976562 C 320.773438 385.113281 320.644531 385.382812 320.433594 385.550781 C 320.109375 385.8125 319.585938 385.785156 319.292969 385.492188 C 319.148438 385.351562 319.0625 385.167969 318.929688 385.019531 C 318.796875 384.871094 318.589844 384.753906 318.402344 384.824219 C 318.371094 384.835938 318.332031 384.835938 318.296875 384.824219 C 318.433594 384.730469 318.59375 384.679688 318.765625 384.703125 C 319.027344 384.738281 319.238281 384.9375 319.496094 384.996094 C 319.902344 385.089844 320.296875 384.8125 320.707031 384.730469 C 321 384.667969 321.304688 384.714844 321.574219 384.847656 " fill-opacity="1" fill-rule="nonzero"/><path fill="#82762b" d="M 324.472656 386.644531 C 324.421875 386.621094 324.367188 386.59375 324.3125 386.574219 C 324.058594 386.476562 323.773438 386.539062 323.511719 386.621094 C 323.25 386.707031 322.988281 386.808594 322.714844 386.789062 C 322.269531 386.757812 321.882812 386.355469 321.871094 385.914062 C 321.863281 385.730469 321.914062 385.546875 321.910156 385.363281 C 321.910156 385.179688 321.839844 385.109375 321.726562 384.96875 C 321.71875 384.960938 321.710938 384.953125 321.703125 384.941406 C 321.695312 384.929688 321.691406 384.921875 321.683594 384.910156 C 321.882812 385.03125 322.050781 385.199219 322.164062 385.402344 C 322.222656 385.511719 322.269531 385.632812 322.359375 385.71875 C 322.445312 385.796875 322.554688 385.835938 322.664062 385.871094 C 323.171875 386.027344 323.714844 386.105469 324.167969 386.386719 C 324.277344 386.460938 324.382812 386.546875 324.472656 386.644531 " fill-opacity="1" fill-rule="nonzero"/><path fill="#c4cb7c" d="M 492.683594 375.21875 C 492.640625 375.457031 492.554688 375.691406 492.449219 375.921875 C 492.253906 376.367188 492.007812 376.804688 491.925781 377.257812 C 484.003906 377.171875 475.976562 377.09375 468.296875 379.035156 C 465.105469 379.84375 462.011719 380.988281 458.851562 381.902344 C 455.871094 382.761719 452.832031 383.414062 449.855469 384.292969 C 444.117188 386 438.632812 388.578125 433.664062 391.910156 C 433.488281 392.027344 433.296875 392.152344 433.085938 392.140625 C 432.90625 392.132812 432.75 392.03125 432.605469 391.925781 C 431.398438 391.027344 430.949219 389.472656 431.085938 387.902344 C 431.207031 386.507812 431.796875 385.101562 432.734375 384.144531 C 439.648438 384.136719 446.558594 382.929688 453.0625 380.597656 C 455.8125 379.613281 458.488281 378.429688 461.277344 377.574219 C 464.617188 376.550781 468.078125 376.007812 471.527344 375.464844 C 473.699219 375.125 475.875 374.785156 478.074219 374.742188 C 480.367188 374.699219 482.652344 374.980469 484.941406 375.117188 C 487.519531 375.273438 490.101562 375.246094 492.683594 375.21875 " fill-opacity="1" fill-rule="nonzero"/><path fill="#9d9936" d="M 492.449219 375.921875 C 492.253906 376.367188 492.007812 376.804688 491.925781 377.257812 C 484.003906 377.171875 475.976562 377.09375 468.296875 379.035156 C 465.105469 379.84375 462.011719 380.988281 458.851562 381.902344 C 455.871094 382.761719 452.832031 383.414062 449.855469 384.292969 C 444.117188 386 438.632812 388.578125 433.664062 391.910156 C 433.488281 392.027344 433.296875 392.152344 433.085938 392.140625 C 432.90625 392.132812 432.75 392.03125 432.605469 391.925781 C 431.398438 391.027344 430.949219 389.472656 431.085938 387.902344 C 431.3125 386.75 431.851562 385.644531 432.632812 384.847656 C 439.546875 384.839844 446.457031 383.632812 452.964844 381.300781 C 455.710938 380.316406 458.390625 379.132812 461.179688 378.277344 C 464.515625 377.253906 467.976562 376.707031 471.425781 376.167969 C 473.597656 375.828125 475.777344 375.488281 477.972656 375.445312 C 480.265625 375.402344 482.550781 375.683594 484.839844 375.820312 C 487.375 375.972656 489.914062 375.949219 492.449219 375.921875 " fill-opacity="1" fill-rule="nonzero"/><path fill="#988733" d="M 434.898438 390.5 C 434.417969 393.058594 431.945312 394.832031 429.996094 396.304688 C 429.46875 396.699219 428.933594 397.085938 428.390625 397.457031 C 427.113281 398.335938 425.792969 399.15625 424.445312 399.925781 C 419.25 402.898438 413.300781 404.597656 407.300781 404.675781 C 405.554688 404.699219 403.785156 404.589844 402.113281 404.082031 C 400.105469 403.476562 398.324219 402.324219 396.726562 400.996094 C 395.679688 400.125 392.855469 398.164062 392.886719 396.664062 C 392.894531 396.3125 393.046875 395.976562 393.203125 395.65625 C 394.246094 393.488281 395.542969 391.441406 397.054688 389.5625 C 399.449219 386.589844 402.375 383.996094 405.703125 382.117188 C 405.992188 381.949219 406.285156 381.792969 406.578125 381.640625 C 407.421875 381.203125 408.285156 380.816406 409.175781 380.472656 C 414.511719 378.4375 420.347656 379.839844 425.554688 381.582031 C 427.679688 382.292969 429.878906 382.703125 432.027344 383.371094 C 432.382812 383.480469 432.746094 383.597656 433.027344 383.84375 C 433.304688 384.089844 433.476562 384.496094 433.339844 384.839844 C 433.226562 385.125 432.9375 385.300781 432.75 385.546875 C 432.285156 386.164062 432.589844 387.117188 433.203125 387.59375 C 433.554688 387.863281 433.980469 388.027344 434.304688 388.324219 C 434.886719 388.855469 435.042969 389.726562 434.898438 390.5 " fill-opacity="1" fill-rule="nonzero"/><path fill="#665c20" d="M 428.390625 397.457031 C 427.113281 398.335938 425.792969 399.15625 424.445312 399.925781 C 419.25 402.898438 413.300781 404.597656 407.300781 404.675781 C 405.554688 404.699219 403.785156 404.589844 402.113281 404.082031 C 400.105469 403.476562 398.324219 402.324219 396.726562 400.996094 C 395.679688 400.125 392.855469 398.164062 392.886719 396.664062 C 392.894531 396.3125 393.046875 395.976562 393.203125 395.65625 C 394.246094 393.488281 395.542969 391.441406 397.054688 389.5625 C 399.449219 386.589844 402.375 383.996094 405.703125 382.117188 C 405.664062 382.167969 405.625 382.222656 405.585938 382.273438 C 405.007812 383.054688 404.425781 383.851562 404.136719 384.777344 C 403.851562 385.699219 403.917969 386.789062 404.546875 387.523438 C 405.652344 388.808594 407.703125 388.402344 409.320312 387.886719 C 407.308594 389.371094 405.070312 391.308594 405.277344 393.792969 C 405.355469 394.738281 405.792969 395.617188 406.347656 396.386719 C 407.261719 397.648438 408.359375 399.050781 409.785156 399.699219 C 409.078125 400.703125 410.46875 401.710938 411.089844 401.804688 C 415.949219 402.542969 421.042969 399.746094 425.75 398.339844 C 426.636719 398.074219 427.53125 397.800781 428.390625 397.457031 " fill-opacity="1" fill-rule="nonzero"/><path fill="#9c9740" d="M 431.648438 386.191406 C 426.71875 386.46875 421.753906 386.050781 416.867188 386.816406 C 416.578125 386.863281 416.003906 386.957031 415.71875 387.003906 C 415.394531 387.066406 414.910156 387.175781 414.578125 387.242188 C 409.433594 388.363281 404.578125 390.621094 400.308594 393.6875 C 399.035156 394.617188 397.816406 395.617188 396.613281 396.671875 C 397.554688 395.382812 398.636719 394.191406 399.800781 393.082031 C 402.761719 390.339844 406.320312 388.191406 410.132812 386.839844 C 412.425781 386.007812 414.835938 385.476562 417.261719 385.222656 C 422.089844 384.75 426.890625 385.472656 431.648438 386.191406 " fill-opacity="1" fill-rule="nonzero"/><path fill="#9c9740" d="M 432.882812 391.089844 C 424.863281 398.71875 412.679688 401.992188 401.859375 399.722656 C 400.742188 399.5 399.632812 399.171875 398.539062 398.863281 C 399.667969 398.914062 400.816406 399.050781 401.945312 399.101562 C 411.640625 399.75 421.453125 397.507812 429.9375 392.796875 C 430.894531 392.289062 431.949219 391.632812 432.882812 391.089844 " fill-opacity="1" fill-rule="nonzero"/><path fill="#bec280" d="M 413.609375 382.125 C 412.523438 382.355469 411.40625 382.816406 410.792969 383.742188 C 410.675781 383.917969 410.578125 384.117188 410.613281 384.324219 C 410.675781 384.691406 411.097656 384.859375 411.460938 384.941406 C 415.644531 385.875 419.984375 383.835938 424.238281 384.371094 C 424.464844 384.402344 424.800781 384.328125 424.753906 384.105469 C 424.738281 384.027344 424.671875 383.972656 424.613281 383.921875 C 423.246094 382.804688 421.320312 382.601562 419.625 382.273438 C 417.648438 381.890625 415.597656 381.707031 413.609375 382.125 " fill-opacity="1" fill-rule="nonzero"/><path fill="#c0c781" d="M 415.261719 389.574219 C 414.292969 389.902344 413.316406 390.3125 412.605469 391.046875 C 411.894531 391.777344 411.5 392.902344 411.882812 393.847656 C 412.167969 394.554688 412.835938 395.058594 413.566406 395.289062 C 414.292969 395.519531 415.078125 395.507812 415.839844 395.417969 C 418.203125 395.144531 420.421875 394.164062 422.523438 393.054688 C 424.628906 391.941406 426.660156 390.6875 428.859375 389.789062 C 429.191406 389.652344 430.511719 389.363281 430.335938 388.757812 C 430.296875 388.625 430.160156 388.546875 430.035156 388.484375 C 429.417969 388.171875 428.96875 387.941406 428.277344 387.902344 C 427.386719 387.855469 426.457031 387.960938 425.566406 388 C 423.34375 388.09375 421.117188 388.253906 418.921875 388.648438 C 417.683594 388.875 416.457031 389.171875 415.261719 389.574219 " fill-opacity="1" fill-rule="nonzero"/><g clip-path="url(#932acd1368)"><path fill="#998932" d="M 498.617188 375.703125 C 498.617188 375.738281 498.613281 375.773438 498.609375 375.8125 C 498.578125 376.089844 498.449219 376.355469 498.257812 376.5625 C 498.171875 376.652344 498.074219 376.730469 497.964844 376.796875 C 497.648438 376.980469 497.238281 377.074219 496.964844 377.320312 C 496.636719 377.609375 496.457031 378.0625 496.367188 378.484375 C 496.257812 379.011719 496.238281 379.71875 495.824219 379.988281 C 495.675781 380.089844 495.46875 380.128906 495.1875 380.078125 C 494.867188 380.019531 494.578125 379.847656 494.296875 379.679688 C 493.304688 379.082031 492.09375 378.578125 491.414062 377.613281 C 491.34375 377.511719 491.269531 377.394531 491.296875 377.277344 C 491.304688 377.222656 491.339844 377.167969 491.375 377.121094 C 491.53125 376.910156 491.703125 376.75 491.832031 376.519531 C 491.996094 376.226562 492.085938 375.902344 492.089844 375.5625 C 492.09375 375.257812 492.007812 374.941406 492.117188 374.660156 C 492.183594 374.488281 492.308594 374.351562 492.433594 374.21875 C 492.433594 374.121094 492.808594 373.820312 492.882812 373.742188 C 493.015625 373.605469 493.140625 373.457031 493.273438 373.320312 C 493.5625 373.035156 493.878906 372.785156 494.214844 372.558594 C 494.867188 372.125 495.589844 371.789062 496.351562 371.601562 C 496.886719 371.464844 497.484375 371.40625 497.972656 371.660156 C 498.195312 371.773438 498.488281 372.078125 498.578125 372.378906 C 498.609375 372.484375 498.617188 372.589844 498.585938 372.6875 C 498.53125 372.855469 498.308594 373.011719 498.222656 373.1875 C 498.109375 373.40625 498.046875 373.648438 498.046875 373.894531 C 498.042969 374.578125 498.625 375.042969 498.617188 375.703125 " fill-opacity="1" fill-rule="nonzero"/></g><g clip-path="url(#a32257e8d7)"><path fill="#82762b" d="M 498.617188 375.703125 C 498.589844 375.667969 498.566406 375.628906 498.542969 375.59375 C 498.269531 375.175781 497.734375 374.972656 497.476562 374.539062 C 497.210938 374.09375 497.320312 373.503906 497.625 373.085938 C 497.804688 372.84375 498.183594 372.542969 498.578125 372.378906 C 498.609375 372.484375 498.617188 372.589844 498.585938 372.6875 C 498.53125 372.855469 498.308594 373.011719 498.222656 373.1875 C 498.109375 373.40625 498.046875 373.648438 498.046875 373.894531 C 498.042969 374.578125 498.625 375.042969 498.617188 375.703125 " fill-opacity="1" fill-rule="nonzero"/></g><g clip-path="url(#02e08cae90)"><path fill="#82762b" d="M 498.257812 376.5625 C 498.171875 376.652344 498.074219 376.730469 497.964844 376.796875 C 497.648438 376.980469 497.238281 377.074219 496.964844 377.320312 C 496.636719 377.609375 496.457031 378.0625 496.367188 378.484375 C 496.257812 379.011719 496.238281 379.71875 495.824219 379.988281 C 495.804688 379.945312 495.785156 379.898438 495.765625 379.855469 C 495.523438 379.3125 495.289062 378.71875 495.421875 378.140625 C 495.554688 377.53125 496.078125 377.066406 496.65625 376.835938 C 497.058594 376.679688 497.488281 376.621094 497.914062 376.59375 C 498.015625 376.589844 498.132812 376.570312 498.257812 376.5625 " fill-opacity="1" fill-rule="nonzero"/></g><g clip-path="url(#15e5dda5ce)"><path fill="#c4cb7c" d="M 491.460938 408.847656 C 491.363281 408.96875 491.265625 409.085938 491.164062 409.203125 C 489.285156 411.421875 486.980469 413.25 484.644531 414.996094 C 470.625 425.441406 454.707031 433.351562 437.898438 438.234375 C 436.480469 437.726562 435.175781 435.707031 435.210938 434.179688 C 435.210938 434.136719 435.214844 434.09375 435.21875 434.050781 C 435.332031 432.515625 436.5625 431.125 438.082031 430.824219 C 438.914062 430.660156 439.394531 432.125 440.453125 432.242188 C 441.15625 432.316406 441.859375 432.132812 442.539062 431.945312 C 445.464844 431.144531 448.371094 430.285156 451.261719 429.367188 C 457.230469 427.46875 463.144531 425.296875 468.675781 422.335938 C 474.421875 419.257812 479.582031 415.253906 484.6875 411.246094 C 486.5 409.820312 488.34375 408.363281 489.621094 406.449219 C 490.398438 407.09375 490.988281 407.964844 491.460938 408.847656 " fill-opacity="1" fill-rule="nonzero"/></g><g clip-path="url(#d690fc1c3d)"><path fill="#9d9936" d="M 491.164062 409.203125 C 489.285156 411.421875 486.980469 413.25 484.644531 414.996094 C 470.625 425.441406 454.707031 433.351562 437.898438 438.234375 C 436.480469 437.726562 435.175781 435.707031 435.210938 434.179688 C 435.546875 432.882812 436.65625 431.789062 437.980469 431.527344 C 438.8125 431.363281 439.292969 432.828125 440.355469 432.941406 C 441.054688 433.019531 441.757812 432.835938 442.4375 432.648438 C 445.363281 431.847656 448.269531 430.988281 451.160156 430.070312 C 457.128906 428.171875 463.046875 426 468.578125 423.039062 C 474.324219 419.960938 479.480469 415.957031 484.585938 411.949219 C 486.398438 410.523438 488.242188 409.066406 489.523438 407.152344 C 490.195312 407.710938 490.726562 408.441406 491.164062 409.203125 " fill-opacity="1" fill-rule="nonzero"/></g><g clip-path="url(#03add69d5c)"><path fill="#988733" d="M 439.027344 431.957031 C 438.703125 432.480469 437.9375 432.539062 437.519531 432.992188 C 436.8125 433.757812 437.53125 434.851562 437.933594 435.582031 C 438.179688 436.019531 438.453125 436.472656 438.570312 436.964844 C 438.679688 437.40625 438.480469 438.160156 437.949219 438.21875 C 437.742188 438.242188 437.53125 438.183594 437.332031 438.128906 C 433.375 437.058594 429.324219 436.488281 425.4375 435.125 C 425.070312 434.996094 424.703125 434.859375 424.339844 434.722656 C 423.925781 434.5625 423.515625 434.398438 423.105469 434.222656 C 418.257812 432.15625 413.769531 428.847656 411.261719 424.226562 C 408.753906 419.605469 408.550781 413.566406 411.59375 409.273438 C 415.585938 403.644531 424.46875 401.832031 429.910156 406.359375 C 432.054688 408.144531 433.582031 410.578125 434.65625 413.148438 C 434.9375 413.816406 435.1875 414.492188 435.421875 415.179688 C 436.191406 417.480469 436.714844 419.863281 437.238281 422.234375 C 437.851562 425.03125 438.46875 427.832031 439.082031 430.628906 C 439.179688 431.074219 439.269531 431.570312 439.027344 431.957031 " fill-opacity="1" fill-rule="nonzero"/></g><path fill="#665c20" d="M 435.421875 415.179688 C 434.902344 414.25 434.3125 413.359375 433.679688 412.5 C 432.929688 411.484375 432.019531 410.449219 430.78125 410.199219 C 429.542969 409.945312 427.914062 410.820312 428.164062 412.058594 C 426.917969 411.40625 425.589844 410.738281 424.183594 410.820312 C 423.5625 410.855469 422.960938 411.042969 422.371094 411.234375 C 421.726562 411.449219 421.085938 411.679688 420.515625 412.042969 C 419.484375 412.699219 418.746094 413.761719 418.378906 414.921875 C 418.015625 416.085938 417.984375 417.277344 418.214844 418.472656 C 417.058594 417.886719 415.722656 419.121094 415.4375 420.15625 C 415.183594 421.089844 415.378906 422.085938 415.660156 423.011719 C 417.078125 427.757812 420.40625 431.578125 424.339844 434.722656 C 423.925781 434.5625 423.515625 434.398438 423.105469 434.222656 C 418.257812 432.15625 413.769531 428.847656 411.261719 424.226562 C 408.753906 419.605469 408.550781 413.566406 411.59375 409.273438 C 415.585938 403.644531 424.46875 401.832031 429.910156 406.359375 C 432.054688 408.144531 433.582031 410.578125 434.65625 413.148438 C 434.9375 413.816406 435.1875 414.492188 435.421875 415.179688 " fill-opacity="1" fill-rule="nonzero"/><path fill="#9c9740" d="M 420.441406 404.46875 C 429.363281 408.949219 434.386719 419.589844 436.335938 428.9375 C 436.550781 429.945312 436.746094 430.953125 436.90625 431.96875 C 436.355469 430.710938 435.859375 429.433594 435.359375 428.164062 C 432 419.417969 427.828125 410.566406 420.441406 404.46875 " fill-opacity="1" fill-rule="nonzero"/><path fill="#9c9740" d="M 412.914062 409.253906 C 418.570312 417.820312 423.816406 427.847656 432.75 433.421875 C 433.535156 433.917969 434.382812 434.363281 435.226562 434.777344 C 435.742188 435.023438 436.261719 435.246094 436.789062 435.472656 C 435.277344 435.21875 433.792969 434.753906 432.378906 434.117188 C 422.953125 429.894531 416.5 418.511719 412.914062 409.253906 " fill-opacity="1" fill-rule="nonzero"/><path fill="#c0c781" d="M 430.269531 419.53125 C 432.007812 423.101562 433.695312 426.695312 435.332031 430.3125 C 435.0625 430.445312 434.753906 430.234375 434.527344 430.03125 C 433.097656 428.757812 431.773438 427.378906 430.445312 426 C 429.507812 425.023438 428.566406 424.046875 427.628906 423.070312 C 426.835938 422.246094 426.039062 421.417969 425.367188 420.492188 C 424.671875 419.535156 424.109375 418.484375 423.707031 417.375 C 423.402344 416.53125 423.183594 415.609375 423.402344 414.734375 C 423.589844 413.972656 424.371094 413.011719 425.230469 412.972656 C 426.0625 412.9375 426.808594 413.972656 427.285156 414.539062 C 428.539062 416.03125 429.421875 417.789062 430.269531 419.53125 " fill-opacity="1" fill-rule="nonzero"/><path fill="#c0c781" d="M 435.566406 423.78125 C 435.757812 424.28125 436.050781 424.867188 436.589844 424.921875 C 436.785156 424.484375 436.746094 423.984375 436.699219 423.511719 C 436.402344 420.699219 435.75 417.925781 434.761719 415.277344 C 434.476562 414.511719 434.152344 413.742188 433.605469 413.140625 C 433.265625 412.765625 432.734375 412.445312 432.273438 412.65625 C 431.953125 412.804688 431.785156 413.175781 431.773438 413.53125 C 431.753906 414.316406 432.265625 415.179688 432.542969 415.898438 C 432.878906 416.78125 433.21875 417.664062 433.558594 418.546875 C 434.230469 420.292969 434.898438 422.039062 435.566406 423.78125 " fill-opacity="1" fill-rule="nonzero"/><g clip-path="url(#a335532034)"><path fill="#998932" d="M 498.222656 407.523438 C 497.878906 407.964844 497.425781 408.34375 496.882812 408.496094 C 496.222656 408.683594 495.542969 408.539062 494.867188 408.550781 C 494.144531 408.566406 493.40625 408.765625 492.757812 409.074219 C 492.414062 409.238281 492.085938 409.4375 491.714844 409.527344 C 491.082031 409.679688 490.660156 409.367188 490.277344 408.902344 C 490.113281 408.703125 489.992188 408.464844 489.796875 408.292969 C 489.183594 407.75 488.355469 408.152344 487.753906 407.558594 C 487.210938 407.023438 487.035156 406.210938 487.125 405.492188 C 487.164062 405.152344 487.179688 404.8125 487.199219 404.480469 C 487.234375 403.878906 487.292969 403.285156 487.574219 402.710938 C 487.890625 402.066406 488.519531 401.527344 489.203125 401.398438 C 489.453125 401.351562 489.714844 401.359375 489.964844 401.433594 C 490.347656 401.550781 490.667969 401.804688 491.023438 401.992188 C 491.511719 402.253906 492.066406 402.390625 492.617188 402.378906 C 493.023438 402.375 493.421875 402.292969 493.828125 402.292969 C 493.957031 402.289062 494.089844 402.300781 494.21875 402.320312 C 494.492188 402.367188 494.753906 402.46875 494.949219 402.65625 C 494.953125 402.660156 494.957031 402.664062 494.957031 402.664062 C 495.238281 402.9375 495.347656 403.34375 495.589844 403.652344 C 495.875 404.023438 496.324219 404.230469 496.761719 404.398438 C 497.203125 404.5625 497.660156 404.710938 498.027344 405.003906 C 498.042969 405.015625 498.054688 405.027344 498.066406 405.039062 C 498.839844 405.695312 498.808594 406.765625 498.222656 407.523438 " fill-opacity="1" fill-rule="nonzero"/></g><path fill="#82762b" d="M 494.21875 402.320312 C 493.484375 402.945312 492.488281 403.265625 491.535156 403.125 C 490.863281 403.027344 490.230469 402.695312 489.753906 402.207031 C 489.542969 401.988281 489.296875 401.703125 489.203125 401.398438 C 489.453125 401.351562 489.714844 401.359375 489.964844 401.433594 C 490.347656 401.550781 490.667969 401.804688 491.023438 401.992188 C 491.511719 402.253906 492.066406 402.390625 492.617188 402.378906 C 493.023438 402.375 493.421875 402.292969 493.828125 402.292969 C 493.957031 402.289062 494.089844 402.300781 494.21875 402.320312 " fill-opacity="1" fill-rule="nonzero"/><g clip-path="url(#e9d7ceba62)"><path fill="#82762b" d="M 498.066406 405.039062 C 497.457031 405.347656 496.734375 405.441406 496.066406 405.28125 C 495.890625 405.238281 495.710938 405.175781 495.570312 405.0625 C 495.457031 404.96875 495.375 404.847656 495.300781 404.722656 C 495.007812 404.222656 494.738281 403.3125 494.957031 402.664062 C 495.238281 402.9375 495.347656 403.34375 495.589844 403.652344 C 495.875 404.023438 496.324219 404.230469 496.761719 404.398438 C 497.203125 404.5625 497.660156 404.710938 498.027344 405.003906 C 498.042969 405.015625 498.054688 405.027344 498.066406 405.039062 " fill-opacity="1" fill-rule="nonzero"/></g></svg>