<svg xmlns="http://www.w3.org/2000/svg" xmlns:xlink="http://www.w3.org/1999/xlink" width="1080" zoomAndPan="magnify" viewBox="0 0 810 809.999993" height="1080" preserveAspectRatio="xMidYMid meet" version="1.0"><defs><clipPath id="023f38414e"><path d="M 436 407 L 498.75 407 L 498.75 470 L 436 470 Z M 436 407 " clip-rule="nonzero"/></clipPath></defs><g clip-path="url(#023f38414e)"><path fill="#e3dbce" d="M 448.902344 466.136719 C 451.121094 467.238281 453.519531 467.945312 455.949219 468.457031 C 467.558594 470.921875 480.019531 468.933594 490.410156 463.199219 C 491.75 462.460938 493.085938 461.636719 494.039062 460.441406 C 494.792969 459.492188 495.269531 458.355469 495.726562 457.230469 C 496.859375 454.457031 497.964844 451.625 498.28125 448.648438 C 498.578125 445.917969 498.203125 443.167969 497.828125 440.449219 C 496.585938 431.398438 495.386719 421.125 494.144531 412.078125 C 494.03125 411.238281 493.867188 411.613281 493.523438 410.839844 C 492.800781 409.222656 491.148438 408.160156 489.421875 407.761719 C 487.695312 407.367188 485.886719 407.558594 484.144531 407.878906 C 478.984375 408.832031 474.109375 410.914062 469.386719 413.199219 C 460.128906 417.683594 451.113281 423.160156 444.484375 431.015625 C 443.121094 432.632812 441.851562 434.363281 441.074219 436.332031 C 440.148438 438.675781 439.960938 441.238281 439.472656 443.714844 C 438.96875 446.246094 438.140625 448.707031 437.75 451.257812 C 437.414062 453.464844 437.605469 455.441406 438.140625 457.585938 C 438.238281 457.980469 436.015625 457.382812 436.183594 457.753906 C 437.042969 459.683594 441.578125 461.488281 443.234375 462.605469 C 445.078125 463.851562 446.902344 465.144531 448.902344 466.136719 " fill-opacity="1" fill-rule="nonzero"/></g><path fill="#f1eee9" d="M 443.441406 413.789062 C 440.265625 417.773438 437.539062 422.011719 434.914062 426.371094 C 432.3125 430.699219 430.320312 435.386719 428.125 439.945312 C 427.214844 441.839844 426.582031 443.265625 426.804688 445.453125 C 426.996094 447.328125 427.648438 449.164062 428.535156 450.824219 C 431.910156 457.160156 438.671875 461.570312 445.84375 462.105469 C 455.21875 462.804688 463.933594 457.359375 471.070312 451.246094 C 475.75 447.242188 480.09375 442.851562 484.054688 438.136719 C 487.757812 433.726562 491.171875 428.941406 493.058594 423.5 C 494.945312 418.058594 495.175781 411.851562 492.652344 406.671875 C 489.761719 400.730469 483.46875 396.820312 476.910156 395.953125 C 470.347656 395.085938 463.617188 397.003906 457.945312 400.40625 C 452.269531 403.808594 447.5625 408.617188 443.441406 413.789062 " fill-opacity="1" fill-rule="nonzero"/><path fill="#e3dbce" d="M 442.875 453.40625 C 444.285156 451.601562 446.132812 450.117188 448.199219 449.128906 C 446.417969 450.449219 444.546875 451.953125 442.875 453.40625 " fill-opacity="1" fill-rule="nonzero"/><path fill="#e3dbce" d="M 457.601562 449.457031 C 459.277344 447.046875 461.132812 444.757812 463.152344 442.625 C 461.476562 445.035156 459.617188 447.320312 457.601562 449.457031 " fill-opacity="1" fill-rule="nonzero"/><path fill="#e3dbce" d="M 473.71875 428.0625 C 475.871094 425.15625 478.277344 422.003906 480.515625 419.164062 C 478.5625 422.351562 476.28125 425.339844 473.71875 428.0625 " fill-opacity="1" fill-rule="nonzero"/><path fill="#e3dbce" d="M 479.351562 431.304688 C 480.304688 429.78125 481.535156 428.421875 482.964844 427.328125 C 481.847656 428.730469 480.640625 430.054688 479.351562 431.304688 " fill-opacity="1" fill-rule="nonzero"/><path fill="#e3dbce" d="M 476.839844 407.730469 C 477.578125 406.257812 478.511719 404.890625 479.609375 403.664062 C 478.875 405.136719 477.9375 406.503906 476.839844 407.730469 " fill-opacity="1" fill-rule="nonzero"/><path fill="#c9c2b7" d="M 491.269531 437.277344 C 490.398438 439.179688 489.199219 440.9375 487.746094 442.441406 C 488.851562 440.671875 490.023438 438.957031 491.269531 437.277344 " fill-opacity="1" fill-rule="nonzero"/><path fill="#c9c2b7" d="M 490.832031 448.308594 C 488.96875 451.175781 486.835938 453.867188 484.46875 456.335938 C 486.5 453.585938 488.621094 450.914062 490.832031 448.308594 " fill-opacity="1" fill-rule="nonzero"/><path fill="#c9c2b7" d="M 478.519531 454.285156 C 475.824219 456.671875 472.984375 458.898438 470.019531 460.941406 C 472.714844 458.550781 475.554688 456.328125 478.519531 454.285156 " fill-opacity="1" fill-rule="nonzero"/><path fill="#e3dbce" d="M 452.984375 389.746094 C 453.070312 389.71875 453.160156 389.699219 453.25 389.683594 C 453.882812 389.585938 453.644531 389.332031 454.273438 389.476562 C 460.054688 390.808594 468.144531 393.007812 471.867188 398.035156 C 473.414062 400.121094 474.226562 402.667969 474.699219 405.21875 C 475.738281 410.816406 475.242188 416.691406 473.28125 422.035156 C 471.199219 427.714844 467.554688 432.679688 463.703125 437.347656 C 455.398438 447.414062 445.125 456.9375 432.292969 459.390625 C 428.855469 460.046875 425.195312 460.148438 421.957031 458.824219 C 417.492188 456.996094 414.480469 452.773438 410.347656 450.292969 C 408.804688 449.367188 407.089844 448.667969 405.8125 447.40625 C 404.535156 446.140625 403.828125 444.035156 404.804688 442.53125 C 405.621094 441.28125 405.820312 440.046875 406.707031 438.851562 C 411.375 432.585938 416.84375 426.964844 422.296875 421.367188 C 428.605469 414.886719 434.9375 408.386719 441.980469 402.707031 C 443.46875 401.507812 445.003906 400.328125 446.179688 398.820312 C 446.738281 398.105469 447.203125 397.324219 447.699219 396.566406 C 448.609375 395.175781 449.480469 393.765625 450.457031 392.425781 C 451.101562 391.539062 451.863281 390.105469 452.984375 389.746094 " fill-opacity="1" fill-rule="nonzero"/><path fill="#f1eee9" d="M 406.011719 448.117188 C 409.148438 450.304688 412.972656 451.355469 416.789062 451.671875 C 428.324219 452.621094 439.652344 447.03125 448.019531 439.042969 C 451.464844 435.75 454.5 432.0625 457.53125 428.386719 C 459.597656 425.871094 461.679688 423.339844 463.265625 420.5 C 464.707031 417.929688 465.722656 415.132812 466.429688 412.273438 C 467.507812 407.902344 467.839844 403.164062 466.125 399.003906 C 463.765625 393.273438 457.757812 389.585938 451.605469 388.792969 C 445.453125 388 439.210938 389.734375 433.605469 392.382812 C 425.058594 396.421875 417.667969 402.652344 411.882812 410.089844 C 408.945312 413.863281 406.414062 417.945312 404.316406 422.238281 C 402.53125 425.890625 400.367188 430.117188 400.058594 434.226562 C 399.640625 439.839844 401.242188 444.789062 406.011719 448.117188 " fill-opacity="1" fill-rule="nonzero"/><path fill="#e3dbce" d="M 438.761719 438.355469 C 439.964844 437.027344 441.335938 435.84375 442.828125 434.847656 C 441.621094 436.179688 440.253906 437.359375 438.761719 438.355469 " fill-opacity="1" fill-rule="nonzero"/><path fill="#e3dbce" d="M 423.082031 443.757812 C 424.65625 442.113281 426.386719 440.621094 428.25 439.3125 C 426.675781 440.957031 424.941406 442.445312 423.082031 443.757812 " fill-opacity="1" fill-rule="nonzero"/><path fill="#e3dbce" d="M 447.804688 423.203125 C 449.039062 421.285156 450.542969 419.539062 452.261719 418.046875 C 450.863281 419.839844 449.378906 421.558594 447.804688 423.203125 " fill-opacity="1" fill-rule="nonzero"/><path fill="#e3dbce" d="M 453.480469 404.855469 C 455.601562 402.566406 457.550781 400.136719 459.328125 397.570312 C 457.925781 400.371094 455.910156 402.878906 453.480469 404.855469 " fill-opacity="1" fill-rule="nonzero"/><path fill="#c9c2b7" d="M 470.914062 409.359375 C 470.960938 410.792969 470.789062 412.230469 470.398438 413.609375 C 470.351562 412.175781 470.527344 410.738281 470.914062 409.359375 " fill-opacity="1" fill-rule="nonzero"/><path fill="#c9c2b7" d="M 468.441406 425 C 466.761719 427.917969 464.898438 430.726562 462.855469 433.40625 C 464.53125 430.484375 466.398438 427.675781 468.441406 425 " fill-opacity="1" fill-rule="nonzero"/><path fill="#c9c2b7" d="M 453.082031 440.277344 C 451.257812 442.277344 449.273438 444.132812 447.148438 445.8125 C 448.972656 443.8125 450.960938 441.960938 453.082031 440.277344 " fill-opacity="1" fill-rule="nonzero"/><path fill="#c9c2b7" d="M 427.84375 455.148438 C 429.757812 454.492188 431.742188 454.035156 433.75 453.804688 C 431.839844 454.464844 429.855469 454.914062 427.84375 455.148438 " fill-opacity="1" fill-rule="nonzero"/><path fill="#f1eee9" d="M 394.496094 381.335938 C 394.835938 380.726562 395.1875 380.121094 395.558594 379.523438 C 400.117188 372.109375 404.675781 364.695312 409.238281 357.285156 C 407.121094 354.410156 403.84375 352.652344 400.679688 350.996094 C 393.21875 347.078125 386.140625 342.222656 377.714844 340.757812 C 367.054688 338.90625 354.613281 340.949219 344.636719 344.871094 C 337.851562 347.539062 331.226562 350.933594 325.953125 355.960938 C 318.898438 362.691406 314.679688 372.035156 313.078125 381.644531 C 311.40625 391.671875 312.109375 404.730469 317.519531 413.632812 C 321.449219 420.101562 326.894531 423.484375 334.261719 425.097656 C 340.660156 426.5 347.609375 427.246094 354.199219 426.992188 C 357.574219 426.863281 361.015625 426.636719 364.34375 426.453125 C 367.15625 426.300781 370.121094 424.964844 371.746094 422.617188 C 374.222656 419.035156 375.628906 414.875 377.769531 411.105469 C 380 407.171875 383.210938 404.570312 385.246094 400.453125 C 385.246094 398.996094 387.230469 396.308594 387.863281 394.949219 C 388.726562 393.105469 389.578125 391.257812 390.464844 389.425781 C 391.792969 386.6875 393.03125 383.96875 394.496094 381.335938 " fill-opacity="1" fill-rule="nonzero"/><path fill="#e3dbce" d="M 425.84375 379.738281 C 424.53125 375.511719 422.277344 371.46875 420.082031 368.167969 C 418.09375 365.179688 416.082031 362.160156 413.46875 359.699219 C 409.957031 356.390625 405.636719 354.300781 401.457031 351.933594 C 388.808594 344.773438 374.800781 345.03125 361.496094 349.976562 C 353.722656 352.871094 345.855469 356.71875 341.03125 363.460938 C 335.847656 370.699219 334.980469 380.089844 334.714844 388.984375 C 334.511719 395.785156 334.574219 402.714844 336.566406 409.21875 C 338.558594 415.726562 342.742188 421.847656 348.90625 424.75 C 354.640625 427.453125 361.214844 426.722656 367.378906 426.789062 C 374.828125 426.867188 382.289062 426.429688 389.675781 425.476562 C 395.882812 424.675781 402.167969 423.46875 407.636719 420.4375 C 410.449219 418.882812 412.988281 416.871094 415.394531 414.738281 C 418.777344 411.738281 421.992188 408.382812 423.84375 404.257812 C 424.933594 401.824219 425.515625 399.203125 426.085938 396.601562 C 426.6875 393.875 427.277344 391.484375 427.074219 388.714844 C 426.96875 387.292969 427.015625 385.863281 426.859375 384.441406 C 426.691406 382.933594 425.84375 381.207031 425.84375 379.738281 " fill-opacity="1" fill-rule="nonzero"/><path fill="#c9c2b7" d="M 352.492188 362.40625 C 356.214844 361.804688 359.996094 361.53125 363.765625 361.601562 C 360.078125 361.964844 356.199219 362.238281 352.492188 362.40625 " fill-opacity="1" fill-rule="nonzero"/><path fill="#c9c2b7" d="M 373.9375 367.53125 C 376.980469 366.957031 380.089844 366.707031 383.183594 366.792969 C 380.109375 367.148438 377.03125 367.390625 373.9375 367.53125 " fill-opacity="1" fill-rule="nonzero"/><path fill="#c9c2b7" d="M 396.867188 371.03125 C 399.746094 370.628906 402.652344 370.441406 405.558594 370.480469 C 402.679688 370.882812 399.773438 371.066406 396.867188 371.03125 " fill-opacity="1" fill-rule="nonzero"/><path fill="#c9c2b7" d="M 391.683594 362.136719 C 393.539062 361.613281 395.503906 361.445312 397.421875 361.652344 C 395.574219 361.878906 393.542969 362.050781 391.683594 362.136719 " fill-opacity="1" fill-rule="nonzero"/><path fill="#c9c2b7" d="M 352.484375 377.097656 C 353.664062 376.691406 354.980469 376.640625 356.1875 376.960938 C 354.949219 377.082031 353.722656 377.125 352.484375 377.097656 " fill-opacity="1" fill-rule="nonzero"/><path fill="#c9c2b7" d="M 370.980469 377.652344 C 373.0625 377.371094 375.171875 377.304688 377.265625 377.460938 C 375.183594 377.746094 373.074219 377.804688 370.980469 377.652344 " fill-opacity="1" fill-rule="nonzero"/><path fill="#c9c2b7" d="M 358.402344 387.261719 C 360.53125 386.855469 362.703125 386.664062 364.875 386.699219 C 362.742188 387.105469 360.570312 387.289062 358.402344 387.261719 " fill-opacity="1" fill-rule="nonzero"/><path fill="#c9c2b7" d="M 380.40625 382.449219 C 382.785156 382.007812 385.203125 381.78125 387.625 381.777344 C 385.246094 382.21875 382.828125 382.445312 380.40625 382.449219 " fill-opacity="1" fill-rule="nonzero"/><path fill="#c9c2b7" d="M 343.597656 384.835938 C 345.335938 384.121094 347.347656 384.007812 349.15625 384.53125 C 347.289062 384.449219 345.445312 384.550781 343.597656 384.835938 " fill-opacity="1" fill-rule="nonzero"/><path fill="#c9c2b7" d="M 347.121094 394.652344 C 350.007812 393.921875 353.050781 393.742188 356 394.128906 C 353.113281 394.179688 349.992188 394.359375 347.121094 394.652344 " fill-opacity="1" fill-rule="nonzero"/><path fill="#c9c2b7" d="M 364.878906 400.398438 C 366.074219 400.054688 367.332031 399.921875 368.574219 400.019531 C 367.375 400.359375 366.121094 400.488281 364.878906 400.398438 " fill-opacity="1" fill-rule="nonzero"/><path fill="#c9c2b7" d="M 354.335938 404.832031 C 355.613281 404.3125 357.035156 404.117188 358.40625 404.277344 C 357.058594 404.554688 355.707031 404.738281 354.335938 404.832031 " fill-opacity="1" fill-rule="nonzero"/><path fill="#c9c2b7" d="M 363.398438 411.65625 C 365.558594 411.101562 367.84375 410.976562 370.054688 411.296875 C 367.832031 411.414062 365.621094 411.535156 363.398438 411.65625 " fill-opacity="1" fill-rule="nonzero"/><path fill="#c9c2b7" d="M 384.109375 397.449219 C 387.042969 397.03125 390.035156 396.964844 392.984375 397.269531 C 390.121094 397.402344 386.976562 397.464844 384.109375 397.449219 " fill-opacity="1" fill-rule="nonzero"/><path fill="#c9c2b7" d="M 410.167969 381.894531 C 412.21875 381.109375 414.46875 380.804688 416.652344 381.027344 C 414.476562 381.25 412.328125 381.535156 410.167969 381.894531 " fill-opacity="1" fill-rule="nonzero"/><path fill="#e3dbce" d="M 339.148438 351.59375 C 337.105469 352.757812 334.976562 354.148438 333.089844 355.550781 C 334.746094 353.773438 336.855469 352.398438 339.148438 351.59375 " fill-opacity="1" fill-rule="nonzero"/><path fill="#e3dbce" d="M 337.308594 360.316406 C 335.648438 362.410156 334.296875 364.703125 333.261719 367.164062 C 333.875 364.550781 335.316406 362.113281 337.308594 360.316406 " fill-opacity="1" fill-rule="nonzero"/><path fill="#e3dbce" d="M 325.984375 368.40625 C 324.003906 371.285156 322.597656 374.480469 321.804688 377.875 C 322.15625 374.398438 323.652344 371.011719 325.984375 368.40625 " fill-opacity="1" fill-rule="nonzero"/><path fill="#e3dbce" d="M 317.902344 393.382812 C 318.035156 396.421875 318.347656 399.429688 318.839844 402.429688 C 317.914062 399.523438 317.59375 396.414062 317.902344 393.382812 " fill-opacity="1" fill-rule="nonzero"/><path fill="#e3dbce" d="M 329.933594 387.472656 C 329.878906 390.433594 329.878906 393.378906 329.933594 396.335938 C 329.441406 393.414062 329.441406 390.398438 329.933594 387.472656 " fill-opacity="1" fill-rule="nonzero"/><path fill="#e3dbce" d="M 326.832031 403.71875 C 327.261719 406.148438 327.980469 408.496094 328.988281 410.75 C 327.585938 408.703125 326.820312 406.199219 326.832031 403.71875 " fill-opacity="1" fill-rule="nonzero"/><path fill="#e3dbce" d="M 375.226562 441.1875 C 378.433594 445.347656 383.230469 448.101562 388.292969 449.519531 C 393.355469 450.9375 398.695312 451.101562 403.941406 450.777344 C 410.050781 450.398438 416.257812 449.324219 421.605469 446.347656 C 425.652344 444.09375 429.039062 440.847656 432.378906 437.636719 C 437.277344 432.925781 442.238281 428.136719 445.730469 422.300781 C 446.59375 420.859375 447.371094 419.335938 447.699219 417.6875 C 448.066406 415.851562 447.859375 413.957031 447.617188 412.101562 C 446.871094 406.347656 445.675781 399.996094 442.585938 395.082031 C 442.1875 394.445312 441.78125 394.296875 441.148438 393.886719 C 440.390625 393.398438 439.457031 393.28125 438.554688 393.222656 C 428.964844 392.570312 419.683594 396.378906 410.914062 400.304688 C 405.941406 402.527344 400.941406 404.847656 396.699219 408.265625 C 393.601562 410.765625 390.980469 413.792969 388.382812 416.800781 C 384.882812 420.847656 381.378906 424.898438 378.070312 429.105469 C 376.472656 431.136719 371.792969 431.253906 370.617188 433.5625 C 369.386719 435.96875 373.722656 439.238281 375.226562 441.1875 " fill-opacity="1" fill-rule="nonzero"/><path fill="#f1eee9" d="M 441.242188 408.269531 C 442.613281 405.078125 444.683594 399.144531 442.988281 395.757812 C 440.628906 391.03125 436.019531 388.078125 431.238281 386.121094 C 416.203125 379.96875 397.472656 391.128906 387.050781 401.699219 C 383.605469 405.191406 380.582031 409.09375 377 412.449219 C 375.519531 413.839844 373.925781 415.152344 372.765625 416.824219 C 370.355469 420.304688 367.578125 425.453125 367.835938 429.785156 C 368.054688 433.476562 370.554688 436.761719 373.699219 438.71875 C 376.84375 440.667969 380.570312 441.46875 384.25 441.898438 C 392.777344 442.894531 402.132812 442.269531 410.25 439.304688 C 413.246094 438.210938 416.105469 435.75 418.847656 434.0625 C 422.457031 431.847656 425.894531 429.324219 428.832031 426.265625 C 430.796875 424.21875 432.515625 421.957031 434.203125 419.675781 C 436.867188 416.078125 439.480469 412.386719 441.242188 408.269531 " fill-opacity="1" fill-rule="nonzero"/><path fill="#e3dbce" d="M 375.320312 425.003906 C 376.796875 422.617188 378.640625 420.445312 380.761719 418.605469 C 379.015625 420.683594 377.089844 422.945312 375.320312 425.003906 " fill-opacity="1" fill-rule="nonzero"/><path fill="#e3dbce" d="M 388.125 420.417969 C 390.320312 417.703125 392.683594 415.128906 395.203125 412.710938 C 393.007812 415.425781 390.640625 418 388.125 420.417969 " fill-opacity="1" fill-rule="nonzero"/><path fill="#e3dbce" d="M 398.292969 403.976562 C 399.664062 402.71875 401.171875 401.359375 402.570312 400.125 C 401.453125 401.699219 399.972656 403.027344 398.292969 403.976562 " fill-opacity="1" fill-rule="nonzero"/><path fill="#e3dbce" d="M 413.652344 408.796875 C 414.78125 407.238281 416.085938 405.8125 417.535156 404.550781 C 416.410156 406.105469 415.105469 407.535156 413.652344 408.796875 " fill-opacity="1" fill-rule="nonzero"/><path fill="#e3dbce" d="M 413.992188 398.792969 C 415.011719 397.535156 416.203125 396.421875 417.523438 395.484375 C 416.503906 396.742188 415.3125 397.855469 413.992188 398.792969 " fill-opacity="1" fill-rule="nonzero"/><path fill="#e3dbce" d="M 426.601562 403.445312 C 428.347656 400.976562 430.265625 398.632812 432.351562 396.441406 C 430.609375 398.914062 428.683594 401.253906 426.601562 403.445312 " fill-opacity="1" fill-rule="nonzero"/><path fill="#e3dbce" d="M 421.429688 415.820312 C 419.984375 418.121094 418.234375 420.242188 416.242188 422.089844 C 417.855469 420.015625 419.695312 417.792969 421.429688 415.820312 " fill-opacity="1" fill-rule="nonzero"/><path fill="#e3dbce" d="M 404.289062 420.136719 C 402.410156 422.507812 400.554688 424.886719 398.703125 427.28125 C 400.191406 424.640625 402.085938 422.21875 404.289062 420.136719 " fill-opacity="1" fill-rule="nonzero"/><path fill="#e3dbce" d="M 390.359375 426.34375 C 388.957031 427.910156 387.605469 429.5 386.28125 431.136719 C 387.238281 429.253906 388.65625 427.589844 390.359375 426.34375 " fill-opacity="1" fill-rule="nonzero"/><path fill="#c9c2b7" d="M 438.9375 421.5 C 437.734375 423.539062 436.1875 425.378906 434.378906 426.90625 C 435.820312 425.132812 437.433594 423.222656 438.9375 421.5 " fill-opacity="1" fill-rule="nonzero"/><path fill="#c9c2b7" d="M 392.757812 445.941406 C 395.21875 445.980469 397.882812 445.902344 400.335938 445.714844 C 397.871094 446.339844 395.253906 446.417969 392.757812 445.941406 " fill-opacity="1" fill-rule="nonzero"/><path fill="#c9c2b7" d="M 418.09375 441.855469 C 420.230469 440.429688 422.320312 438.957031 424.382812 437.421875 C 422.609375 439.289062 420.449219 440.808594 418.09375 441.855469 " fill-opacity="1" fill-rule="nonzero"/></svg>