<svg xmlns="http://www.w3.org/2000/svg" xmlns:xlink="http://www.w3.org/1999/xlink" width="1080" zoomAndPan="magnify" viewBox="0 0 810 809.999993" height="1080" preserveAspectRatio="xMidYMid meet" version="1.0"><path fill="#837c23" d="M 397.078125 398.742188 C 415.171875 401.578125 430.628906 389.089844 431.605469 370.847656 C 432.578125 352.609375 418.703125 335.523438 400.609375 332.6875 C 382.515625 329.851562 367.058594 342.339844 366.082031 360.582031 C 365.109375 378.820312 378.984375 395.90625 397.078125 398.742188 " fill-opacity="1" fill-rule="nonzero"/><path fill="#cfcca1" d="M 397.078125 398.742188 C 397.070312 398.742188 397.0625 398.738281 397.054688 398.738281 C 397.0625 398.738281 397.070312 398.742188 397.078125 398.742188 M 397.035156 398.734375 C 397.03125 398.734375 397.03125 398.734375 397.027344 398.734375 C 397.027344 398.734375 397.03125 398.734375 397.035156 398.734375 M 397.015625 398.734375 C 397.011719 398.730469 397.007812 398.730469 397.003906 398.730469 C 397.007812 398.730469 397.011719 398.730469 397.015625 398.734375 M 396.992188 398.730469 C 396.988281 398.730469 396.980469 398.726562 396.976562 398.726562 C 396.980469 398.726562 396.988281 398.730469 396.992188 398.730469 M 396.964844 398.722656 C 396.964844 398.722656 396.960938 398.722656 396.960938 398.722656 C 396.960938 398.722656 396.960938 398.722656 396.964844 398.722656 M 396.9375 398.71875 C 396.9375 398.71875 396.929688 398.71875 396.929688 398.71875 C 396.929688 398.71875 396.9375 398.71875 396.9375 398.71875 M 396.914062 398.714844 C 396.910156 398.714844 396.90625 398.714844 396.902344 398.714844 C 396.902344 398.714844 396.90625 398.714844 396.90625 398.714844 C 396.910156 398.714844 396.910156 398.714844 396.914062 398.714844 M 396.886719 398.710938 C 396.886719 398.710938 396.886719 398.710938 396.882812 398.710938 L 396.886719 398.710938 M 396.863281 398.707031 C 396.859375 398.707031 396.855469 398.707031 396.855469 398.707031 C 396.855469 398.707031 396.859375 398.707031 396.863281 398.707031 M 396.773438 398.695312 C 396.773438 398.691406 396.765625 398.691406 396.765625 398.691406 C 396.769531 398.691406 396.769531 398.691406 396.773438 398.695312 M 396.746094 398.6875 C 396.742188 398.6875 396.742188 398.6875 396.738281 398.6875 L 396.742188 398.6875 C 396.742188 398.6875 396.742188 398.6875 396.746094 398.6875 M 396.699219 398.679688 C 396.695312 398.679688 396.691406 398.679688 396.691406 398.679688 C 396.691406 398.679688 396.695312 398.679688 396.699219 398.679688 " fill-opacity="1" fill-rule="nonzero"/><path fill="#6a601f" d="M 397.078125 398.742188 C 397.070312 398.742188 397.0625 398.738281 397.054688 398.738281 C 397.050781 398.738281 397.046875 398.738281 397.042969 398.738281 C 397.054688 398.738281 397.066406 398.742188 397.078125 398.742188 M 397.035156 398.734375 C 397.03125 398.734375 397.027344 398.734375 397.027344 398.734375 C 397.023438 398.734375 397.019531 398.734375 397.015625 398.734375 C 397.011719 398.730469 397.007812 398.730469 397.003906 398.730469 C 397.011719 398.730469 397.023438 398.734375 397.035156 398.734375 M 396.992188 398.730469 C 396.988281 398.730469 396.980469 398.726562 396.976562 398.726562 C 396.972656 398.726562 396.96875 398.726562 396.964844 398.722656 C 396.972656 398.726562 396.980469 398.726562 396.992188 398.730469 M 396.949219 398.722656 C 396.945312 398.71875 396.941406 398.71875 396.9375 398.71875 C 396.9375 398.71875 396.929688 398.71875 396.929688 398.71875 C 396.925781 398.71875 396.925781 398.71875 396.925781 398.71875 C 396.933594 398.71875 396.941406 398.71875 396.949219 398.722656 M 396.90625 398.714844 C 396.90625 398.714844 396.902344 398.714844 396.902344 398.714844 C 396.898438 398.714844 396.894531 398.710938 396.886719 398.710938 C 396.890625 398.710938 396.898438 398.714844 396.90625 398.714844 M 396.867188 398.707031 C 396.867188 398.707031 396.867188 398.707031 396.863281 398.707031 C 396.859375 398.707031 396.855469 398.707031 396.855469 398.707031 C 396.851562 398.707031 396.847656 398.707031 396.847656 398.703125 C 396.855469 398.707031 396.859375 398.707031 396.867188 398.707031 M 396.824219 398.703125 C 396.820312 398.699219 396.8125 398.699219 396.808594 398.699219 C 396.8125 398.699219 396.820312 398.699219 396.824219 398.703125 M 396.78125 398.695312 C 396.777344 398.695312 396.777344 398.695312 396.773438 398.695312 C 396.769531 398.691406 396.769531 398.691406 396.765625 398.691406 C 396.769531 398.691406 396.773438 398.695312 396.78125 398.695312 M 396.742188 398.6875 L 396.738281 398.6875 C 396.738281 398.6875 396.734375 398.6875 396.734375 398.6875 C 396.738281 398.6875 396.738281 398.6875 396.742188 398.6875 M 396.699219 398.679688 C 396.695312 398.679688 396.691406 398.679688 396.691406 398.679688 C 396.691406 398.679688 396.695312 398.679688 396.699219 398.679688 M 396.574219 398.660156 L 396.574219 398.660156 M 393.320312 397.933594 C 393.320312 397.933594 393.320312 397.933594 393.316406 397.933594 C 393.320312 397.933594 393.320312 397.933594 393.320312 397.933594 M 393.25 397.917969 C 393.246094 397.917969 393.246094 397.914062 393.242188 397.914062 C 393.246094 397.914062 393.25 397.917969 393.25 397.917969 M 393.207031 397.90625 C 393.207031 397.902344 393.199219 397.902344 393.199219 397.902344 C 393.199219 397.902344 393.207031 397.902344 393.207031 397.90625 M 393.167969 397.894531 C 393.164062 397.890625 393.15625 397.890625 393.152344 397.890625 C 393.15625 397.890625 393.164062 397.890625 393.167969 397.894531 M 393.136719 397.882812 C 393.128906 397.882812 393.121094 397.878906 393.113281 397.878906 C 393.121094 397.878906 393.128906 397.882812 393.136719 397.882812 M 393.09375 397.871094 C 393.089844 397.871094 393.082031 397.867188 393.074219 397.867188 C 393.082031 397.867188 393.089844 397.871094 393.09375 397.871094 M 393.058594 397.863281 C 393.050781 397.859375 393.042969 397.859375 393.035156 397.855469 C 393.042969 397.859375 393.050781 397.859375 393.058594 397.863281 M 393.023438 397.851562 C 393.011719 397.851562 393 397.847656 392.992188 397.84375 C 393 397.847656 393.011719 397.851562 393.023438 397.851562 M 392.984375 397.839844 C 392.972656 397.835938 392.964844 397.835938 392.953125 397.832031 C 392.964844 397.835938 392.972656 397.839844 392.984375 397.839844 M 392.949219 397.832031 C 392.9375 397.828125 392.925781 397.824219 392.914062 397.820312 C 392.925781 397.824219 392.9375 397.828125 392.949219 397.832031 M 392.910156 397.820312 C 392.894531 397.816406 392.886719 397.8125 392.875 397.808594 C 392.886719 397.8125 392.898438 397.816406 392.910156 397.820312 M 392.871094 397.808594 C 392.84375 397.800781 392.820312 397.792969 392.796875 397.785156 C 392.820312 397.792969 392.84375 397.800781 392.871094 397.808594 M 392.792969 397.785156 C 386.636719 395.996094 381.117188 392.539062 376.71875 388.011719 C 376.714844 388.007812 376.714844 388.007812 376.714844 388.007812 C 381.117188 392.539062 386.636719 395.996094 392.792969 397.785156 M 400.476562 394.824219 C 398.808594 394.824219 397.109375 394.695312 395.382812 394.421875 C 386.101562 392.96875 377.929688 387.761719 372.304688 380.570312 C 372.050781 380.226562 371.792969 379.886719 371.527344 379.546875 C 370.066406 377.542969 368.792969 375.398438 367.746094 373.148438 C 368.128906 374.339844 368.570312 375.507812 369.070312 376.652344 C 369.070312 376.652344 369.070312 376.648438 369.066406 376.648438 C 367.539062 373.152344 366.542969 369.417969 366.1875 365.578125 C 371.175781 376.765625 381.632812 385.472656 394.089844 387.425781 C 395.8125 387.695312 397.515625 387.828125 399.183594 387.828125 C 415 387.828125 427.730469 376.035156 428.613281 359.535156 C 428.699219 357.992188 428.671875 356.460938 428.546875 354.941406 C 429.628906 358.660156 430.121094 362.570312 429.910156 366.53125 C 429.027344 383.03125 416.292969 394.824219 400.476562 394.824219 M 428.515625 354.550781 C 428.511719 354.542969 428.511719 354.539062 428.511719 354.535156 C 428.511719 354.539062 428.511719 354.542969 428.515625 354.550781 " fill-opacity="1" fill-rule="nonzero"/><path fill="#cfcca1" d="M 397.042969 398.738281 C 397.039062 398.738281 397.035156 398.738281 397.035156 398.734375 C 397.039062 398.738281 397.039062 398.738281 397.042969 398.738281 M 397 398.730469 C 396.996094 398.730469 396.996094 398.730469 396.992188 398.730469 C 396.996094 398.730469 396.996094 398.730469 397 398.730469 M 396.960938 398.722656 C 396.957031 398.722656 396.953125 398.722656 396.953125 398.722656 C 396.953125 398.722656 396.960938 398.722656 396.960938 398.722656 M 396.921875 398.71875 C 396.917969 398.714844 396.914062 398.714844 396.914062 398.714844 C 396.917969 398.714844 396.917969 398.71875 396.921875 398.71875 M 396.882812 398.710938 C 396.878906 398.710938 396.875 398.710938 396.871094 398.710938 C 396.871094 398.710938 396.875 398.710938 396.878906 398.710938 C 396.878906 398.710938 396.878906 398.710938 396.882812 398.710938 M 396.839844 398.703125 C 396.835938 398.703125 396.832031 398.703125 396.824219 398.703125 C 396.828125 398.703125 396.832031 398.703125 396.835938 398.703125 C 396.835938 398.703125 396.839844 398.703125 396.839844 398.703125 M 396.804688 398.699219 C 396.800781 398.695312 396.792969 398.695312 396.789062 398.695312 C 396.792969 398.695312 396.792969 398.695312 396.796875 398.695312 C 396.800781 398.695312 396.804688 398.699219 396.804688 398.699219 M 396.761719 398.691406 C 396.757812 398.691406 396.75 398.6875 396.746094 398.6875 C 396.746094 398.6875 396.75 398.6875 396.75 398.6875 C 396.753906 398.691406 396.757812 398.691406 396.761719 398.691406 M 396.726562 398.6875 C 396.722656 398.683594 396.714844 398.683594 396.707031 398.683594 C 396.710938 398.683594 396.710938 398.683594 396.714844 398.683594 C 396.71875 398.683594 396.722656 398.683594 396.722656 398.683594 C 396.722656 398.683594 396.726562 398.6875 396.726562 398.6875 M 396.683594 398.679688 C 396.675781 398.675781 396.667969 398.675781 396.660156 398.675781 C 396.660156 398.675781 396.664062 398.675781 396.664062 398.675781 C 396.667969 398.675781 396.671875 398.675781 396.675781 398.675781 C 396.675781 398.675781 396.679688 398.679688 396.683594 398.679688 M 396.648438 398.671875 L 396.648438 398.671875 M 396.648438 398.671875 C 396.625 398.667969 396.601562 398.664062 396.578125 398.660156 C 396.585938 398.660156 396.589844 398.664062 396.59375 398.664062 C 396.597656 398.664062 396.597656 398.664062 396.597656 398.664062 C 396.605469 398.664062 396.609375 398.664062 396.617188 398.667969 C 396.617188 398.667969 396.621094 398.667969 396.625 398.667969 C 396.628906 398.667969 396.632812 398.671875 396.640625 398.671875 C 396.640625 398.671875 396.644531 398.671875 396.648438 398.671875 M 396.570312 398.660156 C 396.546875 398.65625 396.523438 398.652344 396.5 398.648438 C 396.503906 398.648438 396.503906 398.648438 396.503906 398.648438 C 396.527344 398.652344 396.550781 398.65625 396.570312 398.660156 M 396.492188 398.644531 C 396.46875 398.640625 396.445312 398.636719 396.417969 398.632812 C 396.421875 398.632812 396.425781 398.632812 396.429688 398.632812 C 396.429688 398.632812 396.429688 398.632812 396.433594 398.636719 C 396.4375 398.636719 396.445312 398.636719 396.453125 398.636719 C 396.453125 398.636719 396.457031 398.636719 396.457031 398.636719 C 396.464844 398.640625 396.46875 398.640625 396.476562 398.644531 C 396.476562 398.644531 396.480469 398.644531 396.480469 398.644531 C 396.484375 398.644531 396.488281 398.644531 396.492188 398.644531 M 396.417969 398.632812 C 395.863281 398.535156 395.316406 398.425781 394.769531 398.300781 C 395.234375 398.40625 395.699219 398.5 396.167969 398.585938 C 396.175781 398.589844 396.183594 398.589844 396.191406 398.589844 C 396.246094 398.601562 396.300781 398.613281 396.355469 398.621094 C 396.359375 398.621094 396.359375 398.621094 396.359375 398.621094 C 396.367188 398.621094 396.371094 398.625 396.378906 398.625 C 396.382812 398.625 396.382812 398.625 396.382812 398.625 C 396.390625 398.628906 396.398438 398.628906 396.402344 398.628906 C 396.40625 398.628906 396.40625 398.628906 396.410156 398.628906 C 396.410156 398.628906 396.414062 398.628906 396.417969 398.632812 M 394.769531 398.296875 C 394.746094 398.292969 394.71875 398.285156 394.695312 398.28125 C 394.71875 398.285156 394.746094 398.292969 394.769531 398.296875 M 394.691406 398.28125 C 394.667969 398.277344 394.644531 398.269531 394.621094 398.265625 C 394.644531 398.269531 394.667969 398.277344 394.691406 398.28125 M 394.613281 398.261719 C 394.585938 398.257812 394.566406 398.253906 394.542969 398.246094 C 394.566406 398.253906 394.589844 398.257812 394.613281 398.261719 M 394.53125 398.246094 C 394.519531 398.242188 394.503906 398.238281 394.492188 398.234375 C 394.503906 398.238281 394.519531 398.242188 394.53125 398.246094 M 394.484375 398.234375 C 394.480469 398.230469 394.472656 398.230469 394.464844 398.226562 C 394.472656 398.230469 394.480469 398.230469 394.484375 398.234375 M 394.453125 398.226562 C 394.445312 398.222656 394.4375 398.21875 394.429688 398.21875 C 394.4375 398.21875 394.441406 398.222656 394.453125 398.226562 M 394.40625 398.214844 C 394.398438 398.210938 394.394531 398.210938 394.390625 398.210938 C 394.394531 398.210938 394.398438 398.210938 394.40625 398.214844 M 394.371094 398.203125 C 394.363281 398.203125 394.359375 398.203125 394.355469 398.203125 C 394.363281 398.203125 394.363281 398.203125 394.371094 398.203125 M 394.324219 398.195312 C 394.324219 398.195312 394.316406 398.191406 394.3125 398.191406 C 394.316406 398.191406 394.320312 398.195312 394.324219 398.195312 M 394.289062 398.1875 C 394.285156 398.183594 394.28125 398.183594 394.277344 398.183594 C 394.28125 398.183594 394.285156 398.183594 394.289062 398.1875 M 394.246094 398.175781 C 394.242188 398.175781 394.238281 398.171875 394.234375 398.171875 C 394.238281 398.171875 394.242188 398.175781 394.246094 398.175781 M 394.207031 398.164062 C 394.203125 398.164062 394.203125 398.164062 394.199219 398.164062 C 394.203125 398.164062 394.203125 398.164062 394.207031 398.164062 M 394.167969 398.15625 C 394.164062 398.15625 394.160156 398.15625 394.160156 398.15625 C 394.160156 398.15625 394.164062 398.15625 394.167969 398.15625 M 394.085938 398.136719 C 394.085938 398.136719 394.082031 398.136719 394.082031 398.132812 C 394.085938 398.136719 394.085938 398.136719 394.085938 398.136719 M 394.007812 398.113281 L 394.003906 398.113281 C 394.003906 398.113281 394.003906 398.113281 394.007812 398.113281 " fill-opacity="1" fill-rule="nonzero"/><path fill="#6a601f" d="M 397.003906 398.730469 C 397 398.730469 397 398.730469 397 398.730469 C 396.996094 398.730469 396.996094 398.730469 396.992188 398.730469 C 396.996094 398.730469 396.996094 398.730469 397.003906 398.730469 M 396.953125 398.722656 C 396.949219 398.722656 396.949219 398.722656 396.949219 398.722656 C 396.953125 398.722656 396.953125 398.722656 396.953125 398.722656 M 396.925781 398.71875 C 396.925781 398.71875 396.921875 398.71875 396.921875 398.71875 C 396.917969 398.71875 396.917969 398.714844 396.914062 398.714844 C 396.917969 398.71875 396.921875 398.71875 396.925781 398.71875 M 396.878906 398.710938 C 396.875 398.710938 396.871094 398.710938 396.871094 398.710938 C 396.871094 398.710938 396.871094 398.710938 396.867188 398.707031 C 396.871094 398.710938 396.875 398.710938 396.878906 398.710938 M 396.847656 398.703125 C 396.84375 398.703125 396.839844 398.703125 396.839844 398.703125 C 396.839844 398.703125 396.84375 398.703125 396.847656 398.703125 M 396.835938 398.703125 C 396.832031 398.703125 396.828125 398.703125 396.824219 398.703125 C 396.828125 398.703125 396.832031 398.703125 396.835938 398.703125 M 396.808594 398.699219 C 396.804688 398.699219 396.804688 398.699219 396.804688 398.699219 C 396.804688 398.699219 396.800781 398.695312 396.796875 398.695312 C 396.800781 398.695312 396.804688 398.699219 396.808594 398.699219 M 396.789062 398.695312 C 396.785156 398.695312 396.78125 398.695312 396.78125 398.695312 C 396.78125 398.695312 396.785156 398.695312 396.789062 398.695312 M 396.765625 398.691406 C 396.765625 398.691406 396.761719 398.691406 396.761719 398.691406 C 396.757812 398.691406 396.753906 398.691406 396.75 398.6875 C 396.753906 398.691406 396.757812 398.691406 396.765625 398.691406 M 396.734375 398.6875 C 396.730469 398.6875 396.730469 398.6875 396.726562 398.6875 C 396.726562 398.6875 396.722656 398.683594 396.722656 398.683594 C 396.726562 398.6875 396.730469 398.6875 396.734375 398.6875 M 396.714844 398.683594 C 396.710938 398.683594 396.710938 398.683594 396.707031 398.683594 C 396.707031 398.679688 396.703125 398.679688 396.699219 398.679688 C 396.703125 398.679688 396.710938 398.683594 396.714844 398.683594 M 396.691406 398.679688 C 396.6875 398.679688 396.683594 398.679688 396.683594 398.679688 C 396.679688 398.679688 396.675781 398.675781 396.675781 398.675781 C 396.679688 398.679688 396.683594 398.679688 396.691406 398.679688 M 396.664062 398.675781 C 396.664062 398.675781 396.660156 398.675781 396.660156 398.675781 C 396.65625 398.671875 396.652344 398.671875 396.648438 398.671875 C 396.65625 398.671875 396.660156 398.675781 396.664062 398.675781 M 396.640625 398.671875 C 396.632812 398.671875 396.628906 398.667969 396.625 398.667969 C 396.632812 398.667969 396.632812 398.671875 396.640625 398.671875 M 396.617188 398.667969 C 396.609375 398.664062 396.605469 398.664062 396.597656 398.664062 C 396.605469 398.664062 396.609375 398.664062 396.617188 398.667969 M 396.59375 398.664062 C 396.589844 398.664062 396.585938 398.660156 396.578125 398.660156 C 396.578125 398.660156 396.574219 398.660156 396.574219 398.660156 C 396.582031 398.660156 396.589844 398.664062 396.59375 398.664062 M 396.574219 398.660156 C 396.574219 398.660156 396.574219 398.660156 396.570312 398.660156 C 396.550781 398.65625 396.527344 398.652344 396.503906 398.648438 C 396.527344 398.652344 396.550781 398.65625 396.574219 398.660156 M 396.5 398.648438 C 396.496094 398.648438 396.496094 398.648438 396.492188 398.644531 C 396.488281 398.644531 396.484375 398.644531 396.480469 398.644531 C 396.488281 398.644531 396.496094 398.644531 396.5 398.648438 M 396.476562 398.644531 C 396.46875 398.640625 396.464844 398.640625 396.457031 398.636719 C 396.464844 398.640625 396.46875 398.640625 396.476562 398.644531 M 396.453125 398.636719 C 396.445312 398.636719 396.4375 398.636719 396.433594 398.636719 C 396.4375 398.636719 396.445312 398.636719 396.453125 398.636719 M 396.429688 398.632812 C 396.425781 398.632812 396.421875 398.632812 396.417969 398.632812 C 396.414062 398.628906 396.410156 398.628906 396.410156 398.628906 C 396.414062 398.632812 396.421875 398.632812 396.429688 398.632812 M 396.402344 398.628906 C 396.398438 398.628906 396.390625 398.628906 396.382812 398.625 C 396.390625 398.628906 396.394531 398.628906 396.402344 398.628906 M 396.378906 398.625 C 396.371094 398.625 396.367188 398.621094 396.359375 398.621094 C 396.367188 398.621094 396.371094 398.625 396.378906 398.625 M 396.355469 398.621094 C 396.300781 398.613281 396.246094 398.601562 396.191406 398.589844 C 396.246094 398.601562 396.304688 398.613281 396.355469 398.621094 M 396.191406 398.589844 C 396.183594 398.589844 396.175781 398.589844 396.167969 398.585938 C 396.175781 398.589844 396.183594 398.589844 396.191406 398.589844 M 396.167969 398.585938 C 395.699219 398.5 395.234375 398.40625 394.769531 398.300781 L 394.769531 398.296875 C 394.746094 398.292969 394.71875 398.285156 394.695312 398.28125 C 394.695312 398.28125 394.695312 398.28125 394.691406 398.28125 C 394.667969 398.277344 394.644531 398.269531 394.621094 398.265625 C 394.617188 398.261719 394.613281 398.261719 394.613281 398.261719 C 394.589844 398.257812 394.566406 398.253906 394.542969 398.246094 C 394.539062 398.246094 394.535156 398.246094 394.53125 398.246094 C 394.519531 398.242188 394.503906 398.238281 394.492188 398.234375 C 394.488281 398.234375 394.488281 398.234375 394.484375 398.234375 C 394.480469 398.230469 394.472656 398.230469 394.464844 398.226562 C 394.460938 398.226562 394.457031 398.226562 394.453125 398.226562 C 394.441406 398.222656 394.4375 398.21875 394.429688 398.21875 C 394.421875 398.21875 394.414062 398.214844 394.40625 398.214844 C 394.398438 398.210938 394.394531 398.210938 394.390625 398.210938 C 394.382812 398.207031 394.378906 398.207031 394.371094 398.203125 C 394.363281 398.203125 394.363281 398.203125 394.355469 398.203125 C 394.347656 398.199219 394.335938 398.195312 394.324219 398.195312 C 394.320312 398.195312 394.316406 398.191406 394.3125 398.191406 C 394.304688 398.1875 394.296875 398.1875 394.289062 398.1875 C 394.285156 398.183594 394.28125 398.183594 394.277344 398.183594 C 394.265625 398.179688 394.257812 398.179688 394.246094 398.175781 C 394.242188 398.175781 394.238281 398.171875 394.234375 398.171875 C 394.226562 398.171875 394.21875 398.167969 394.207031 398.164062 C 394.203125 398.164062 394.203125 398.164062 394.199219 398.164062 C 394.191406 398.160156 394.179688 398.160156 394.167969 398.15625 C 394.164062 398.15625 394.160156 398.15625 394.160156 398.15625 C 394.136719 398.148438 394.109375 398.140625 394.085938 398.136719 C 394.085938 398.136719 394.085938 398.136719 394.082031 398.132812 C 394.054688 398.128906 394.03125 398.121094 394.007812 398.113281 C 394.003906 398.113281 394.003906 398.113281 394.003906 398.113281 C 393.777344 398.058594 393.546875 398 393.320312 397.933594 C 394.257812 398.191406 395.203125 398.410156 396.167969 398.585938 M 393.316406 397.933594 C 393.300781 397.929688 393.289062 397.925781 393.273438 397.921875 C 393.289062 397.925781 393.304688 397.929688 393.316406 397.933594 M 393.273438 397.921875 C 393.265625 397.917969 393.257812 397.917969 393.25 397.917969 C 393.257812 397.917969 393.265625 397.917969 393.273438 397.921875 M 393.242188 397.914062 C 393.230469 397.910156 393.222656 397.910156 393.207031 397.90625 C 393.21875 397.910156 393.230469 397.910156 393.242188 397.914062 M 393.199219 397.902344 C 393.1875 397.898438 393.179688 397.894531 393.167969 397.894531 C 393.179688 397.894531 393.1875 397.898438 393.199219 397.902344 M 393.152344 397.890625 C 393.148438 397.886719 393.140625 397.886719 393.136719 397.882812 C 393.140625 397.886719 393.148438 397.886719 393.152344 397.890625 M 393.113281 397.878906 C 393.109375 397.875 393.101562 397.875 393.09375 397.871094 C 393.101562 397.875 393.109375 397.875 393.113281 397.878906 M 393.074219 397.867188 C 393.070312 397.867188 393.066406 397.863281 393.058594 397.863281 C 393.066406 397.863281 393.070312 397.867188 393.074219 397.867188 M 393.035156 397.855469 C 393.03125 397.855469 393.027344 397.851562 393.023438 397.851562 C 393.027344 397.851562 393.03125 397.855469 393.035156 397.855469 M 392.992188 397.84375 C 392.988281 397.84375 392.984375 397.84375 392.984375 397.839844 C 392.984375 397.84375 392.988281 397.84375 392.992188 397.84375 M 392.953125 397.832031 C 392.953125 397.832031 392.949219 397.832031 392.949219 397.832031 C 392.949219 397.832031 392.953125 397.832031 392.953125 397.832031 M 392.914062 397.820312 C 392.914062 397.820312 392.910156 397.820312 392.910156 397.820312 C 392.910156 397.820312 392.914062 397.820312 392.914062 397.820312 M 392.875 397.808594 C 392.871094 397.808594 392.871094 397.808594 392.871094 397.808594 C 392.871094 397.808594 392.871094 397.808594 392.875 397.808594 M 392.796875 397.785156 L 392.792969 397.785156 C 392.796875 397.785156 392.796875 397.785156 392.796875 397.785156 M 428.546875 354.941406 C 428.546875 354.933594 428.542969 354.925781 428.542969 354.917969 C 428.53125 354.796875 428.523438 354.671875 428.515625 354.550781 C 428.527344 354.679688 428.535156 354.8125 428.546875 354.941406 " fill-opacity="1" fill-rule="nonzero"/><path fill="#a6a166" d="M 397.042969 398.738281 C 397.039062 398.738281 397.039062 398.738281 397.035156 398.734375 C 397.035156 398.738281 397.039062 398.738281 397.042969 398.738281 M 396.964844 398.722656 C 396.960938 398.722656 396.960938 398.722656 396.960938 398.722656 C 396.960938 398.722656 396.953125 398.722656 396.953125 398.722656 C 396.957031 398.722656 396.960938 398.722656 396.964844 398.722656 M 396.914062 398.714844 C 396.910156 398.714844 396.910156 398.714844 396.90625 398.714844 C 396.910156 398.714844 396.914062 398.714844 396.914062 398.714844 M 396.886719 398.710938 L 396.882812 398.710938 C 396.878906 398.710938 396.878906 398.710938 396.878906 398.710938 C 396.878906 398.710938 396.882812 398.710938 396.886719 398.710938 M 396.839844 398.703125 C 396.839844 398.703125 396.835938 398.703125 396.835938 398.703125 C 396.835938 398.703125 396.835938 398.703125 396.839844 398.703125 M 396.796875 398.695312 C 396.792969 398.695312 396.792969 398.695312 396.789062 398.695312 C 396.792969 398.695312 396.796875 398.695312 396.796875 398.695312 M 396.75 398.6875 C 396.75 398.6875 396.746094 398.6875 396.746094 398.6875 C 396.742188 398.6875 396.742188 398.6875 396.742188 398.6875 C 396.742188 398.6875 396.746094 398.6875 396.75 398.6875 M 396.722656 398.683594 C 396.722656 398.683594 396.71875 398.683594 396.714844 398.683594 C 396.71875 398.683594 396.722656 398.683594 396.722656 398.683594 M 396.675781 398.675781 C 396.671875 398.675781 396.667969 398.675781 396.664062 398.675781 C 396.667969 398.675781 396.671875 398.675781 396.675781 398.675781 M 396.648438 398.671875 C 396.644531 398.671875 396.640625 398.671875 396.640625 398.671875 C 396.644531 398.671875 396.644531 398.671875 396.648438 398.671875 M 396.625 398.667969 C 396.621094 398.667969 396.617188 398.667969 396.617188 398.667969 C 396.617188 398.667969 396.621094 398.667969 396.625 398.667969 M 396.597656 398.664062 C 396.597656 398.664062 396.597656 398.664062 396.59375 398.664062 C 396.597656 398.664062 396.597656 398.664062 396.597656 398.664062 M 396.503906 398.648438 C 396.503906 398.648438 396.503906 398.648438 396.5 398.648438 C 396.503906 398.648438 396.503906 398.648438 396.503906 398.648438 M 396.480469 398.644531 C 396.480469 398.644531 396.476562 398.644531 396.476562 398.644531 C 396.476562 398.644531 396.480469 398.644531 396.480469 398.644531 M 396.457031 398.636719 C 396.457031 398.636719 396.453125 398.636719 396.453125 398.636719 C 396.453125 398.636719 396.457031 398.636719 396.457031 398.636719 M 396.433594 398.636719 C 396.429688 398.632812 396.429688 398.632812 396.429688 398.632812 C 396.429688 398.632812 396.429688 398.632812 396.433594 398.636719 M 396.410156 398.628906 C 396.40625 398.628906 396.40625 398.628906 396.402344 398.628906 C 396.402344 398.628906 396.40625 398.628906 396.410156 398.628906 M 396.382812 398.625 C 396.382812 398.625 396.382812 398.625 396.378906 398.625 C 396.382812 398.625 396.382812 398.625 396.382812 398.625 M 396.359375 398.621094 C 396.359375 398.621094 396.359375 398.621094 396.355469 398.621094 L 396.359375 398.621094 M 396.191406 398.589844 L 396.191406 398.589844 M 396.167969 398.585938 L 396.167969 398.585938 " fill-opacity="1" fill-rule="nonzero"/><path fill="#564b1b" d="M 402.171875 399.144531 C 400.503906 399.144531 398.804688 399.011719 397.078125 398.742188 C 397.066406 398.742188 397.054688 398.738281 397.042969 398.738281 C 397.039062 398.738281 397.035156 398.738281 397.035156 398.734375 C 397.023438 398.734375 397.011719 398.730469 397.003906 398.730469 C 396.996094 398.730469 396.996094 398.730469 396.992188 398.730469 C 396.980469 398.726562 396.972656 398.726562 396.964844 398.722656 C 396.960938 398.722656 396.957031 398.722656 396.953125 398.722656 C 396.953125 398.722656 396.953125 398.722656 396.949219 398.722656 C 396.941406 398.71875 396.933594 398.71875 396.925781 398.71875 C 396.921875 398.71875 396.917969 398.71875 396.914062 398.714844 C 396.914062 398.714844 396.910156 398.714844 396.90625 398.714844 C 396.898438 398.714844 396.890625 398.710938 396.886719 398.710938 C 396.882812 398.710938 396.878906 398.710938 396.878906 398.710938 C 396.875 398.710938 396.871094 398.710938 396.867188 398.707031 C 396.859375 398.707031 396.855469 398.707031 396.847656 398.703125 C 396.84375 398.703125 396.839844 398.703125 396.839844 398.703125 C 396.835938 398.703125 396.835938 398.703125 396.835938 398.703125 C 396.832031 398.703125 396.828125 398.703125 396.824219 398.703125 C 396.820312 398.699219 396.8125 398.699219 396.808594 398.699219 C 396.804688 398.699219 396.800781 398.695312 396.796875 398.695312 C 396.796875 398.695312 396.792969 398.695312 396.789062 398.695312 C 396.785156 398.695312 396.78125 398.695312 396.78125 398.695312 C 396.773438 398.695312 396.769531 398.691406 396.765625 398.691406 C 396.757812 398.691406 396.753906 398.691406 396.75 398.6875 C 396.746094 398.6875 396.742188 398.6875 396.742188 398.6875 C 396.738281 398.6875 396.738281 398.6875 396.734375 398.6875 C 396.730469 398.6875 396.726562 398.6875 396.722656 398.683594 C 396.722656 398.683594 396.71875 398.683594 396.714844 398.683594 C 396.710938 398.683594 396.703125 398.679688 396.699219 398.679688 C 396.695312 398.679688 396.691406 398.679688 396.691406 398.679688 C 396.683594 398.679688 396.679688 398.679688 396.675781 398.675781 C 396.671875 398.675781 396.667969 398.675781 396.664062 398.675781 C 396.660156 398.675781 396.65625 398.671875 396.648438 398.671875 C 396.644531 398.671875 396.644531 398.671875 396.640625 398.671875 C 396.632812 398.671875 396.632812 398.667969 396.625 398.667969 C 396.621094 398.667969 396.617188 398.667969 396.617188 398.667969 C 396.609375 398.664062 396.605469 398.664062 396.597656 398.664062 C 396.597656 398.664062 396.597656 398.664062 396.59375 398.664062 C 396.589844 398.664062 396.582031 398.660156 396.574219 398.660156 C 396.550781 398.65625 396.527344 398.652344 396.503906 398.648438 C 396.503906 398.648438 396.503906 398.648438 396.5 398.648438 C 396.496094 398.644531 396.488281 398.644531 396.480469 398.644531 C 396.480469 398.644531 396.476562 398.644531 396.476562 398.644531 C 396.46875 398.640625 396.464844 398.640625 396.457031 398.636719 C 396.457031 398.636719 396.453125 398.636719 396.453125 398.636719 C 396.445312 398.636719 396.4375 398.636719 396.433594 398.636719 C 396.429688 398.632812 396.429688 398.632812 396.429688 398.632812 C 396.421875 398.632812 396.414062 398.632812 396.410156 398.628906 C 396.40625 398.628906 396.402344 398.628906 396.402344 398.628906 C 396.394531 398.628906 396.390625 398.628906 396.382812 398.625 C 396.382812 398.625 396.382812 398.625 396.378906 398.625 C 396.371094 398.625 396.367188 398.621094 396.359375 398.621094 L 396.355469 398.621094 C 396.304688 398.613281 396.246094 398.601562 396.191406 398.589844 C 396.183594 398.589844 396.175781 398.589844 396.167969 398.585938 C 395.203125 398.410156 394.257812 398.191406 393.320312 397.933594 C 393.320312 397.933594 393.320312 397.933594 393.316406 397.933594 C 393.304688 397.929688 393.289062 397.925781 393.273438 397.921875 C 393.265625 397.917969 393.257812 397.917969 393.25 397.917969 C 393.25 397.917969 393.246094 397.914062 393.242188 397.914062 C 393.230469 397.910156 393.21875 397.910156 393.207031 397.90625 C 393.207031 397.902344 393.199219 397.902344 393.199219 397.902344 C 393.1875 397.898438 393.179688 397.894531 393.167969 397.894531 C 393.164062 397.890625 393.15625 397.890625 393.152344 397.890625 C 393.148438 397.886719 393.140625 397.886719 393.136719 397.882812 C 393.128906 397.882812 393.121094 397.878906 393.113281 397.878906 C 393.109375 397.875 393.101562 397.875 393.09375 397.871094 C 393.089844 397.871094 393.082031 397.867188 393.074219 397.867188 C 393.070312 397.867188 393.066406 397.863281 393.058594 397.863281 C 393.050781 397.859375 393.042969 397.859375 393.035156 397.855469 C 393.03125 397.855469 393.027344 397.851562 393.023438 397.851562 C 393.011719 397.851562 393 397.847656 392.992188 397.84375 C 392.988281 397.84375 392.984375 397.84375 392.984375 397.839844 C 392.972656 397.839844 392.964844 397.835938 392.953125 397.832031 C 392.953125 397.832031 392.949219 397.832031 392.949219 397.832031 C 392.9375 397.828125 392.925781 397.824219 392.914062 397.820312 C 392.914062 397.820312 392.910156 397.820312 392.910156 397.820312 C 392.898438 397.816406 392.886719 397.8125 392.875 397.808594 C 392.871094 397.808594 392.871094 397.808594 392.871094 397.808594 C 392.84375 397.800781 392.820312 397.792969 392.796875 397.785156 C 392.796875 397.785156 392.796875 397.785156 392.792969 397.785156 C 386.636719 395.996094 381.117188 392.539062 376.714844 388.007812 C 375.515625 385.4375 374.042969 382.941406 372.304688 380.570312 C 377.929688 387.761719 386.101562 392.96875 395.382812 394.421875 C 397.109375 394.695312 398.808594 394.824219 400.476562 394.824219 C 416.292969 394.824219 429.027344 383.03125 429.910156 366.53125 C 430.121094 362.570312 429.628906 358.660156 428.546875 354.941406 C 428.535156 354.8125 428.527344 354.679688 428.515625 354.550781 C 428.511719 354.542969 428.511719 354.539062 428.511719 354.535156 C 430.527344 359.054688 431.648438 363.976562 431.652344 369.023438 C 431.652344 369.628906 431.636719 370.238281 431.605469 370.847656 C 431.238281 377.695312 428.832031 383.730469 425.011719 388.453125 C 421.367188 390.546875 418.179688 393.109375 415.585938 396.027344 C 411.574219 398.039062 407.015625 399.144531 402.171875 399.144531 M 371.527344 379.546875 C 370.757812 378.558594 369.941406 377.59375 369.070312 376.652344 C 368.570312 375.507812 368.128906 374.339844 367.746094 373.148438 C 368.792969 375.398438 370.066406 377.542969 371.527344 379.546875 " fill-opacity="1" fill-rule="nonzero"/><path fill="#9c9830" d="M 389.84375 349.785156 C 384.386719 349.785156 379.992188 347.730469 379.242188 344.476562 C 378.304688 340.390625 383.476562 335.953125 390.789062 334.570312 C 392.277344 334.289062 393.742188 334.15625 395.132812 334.15625 C 400.589844 334.15625 404.988281 336.207031 405.738281 339.464844 C 406.675781 343.550781 401.503906 347.984375 394.1875 349.367188 C 392.699219 349.648438 391.238281 349.785156 389.84375 349.785156 " fill-opacity="1" fill-rule="nonzero"/><path fill="#403717" d="M 417.480469 377.847656 L 413.296875 380.328125 C 412.667969 380.742188 412.523438 381.59375 412.976562 382.183594 L 415.945312 386.023438 C 416.382812 386.589844 416.351562 387.441406 415.761719 387.984375 C 415.238281 388.464844 414.425781 388.457031 413.859375 388.039062 L 410.421875 385.511719 C 409.78125 385.039062 408.855469 385.261719 408.496094 385.984375 L 406.78125 389.421875 C 406.445312 390.085938 405.632812 390.429688 404.890625 390.109375 C 404.230469 389.828125 403.914062 389.066406 404.09375 388.371094 L 405.253906 383.777344 C 405.421875 383.125 405.050781 382.457031 404.40625 382.253906 L 399.238281 380.597656 C 398.550781 380.378906 398.097656 379.664062 398.277344 378.886719 C 398.441406 378.199219 399.117188 377.75 399.828125 377.773438 L 404.359375 377.929688 C 405.136719 377.957031 405.769531 377.296875 405.699219 376.523438 L 405.457031 371.46875 C 405.390625 370.714844 405.925781 370 406.742188 369.898438 C 407.464844 369.808594 408.125 370.316406 408.320312 371.011719 L 409.667969 376.136719 C 409.875 376.886719 410.695312 377.273438 411.417969 376.964844 L 416.195312 375.273438 C 416.875 374.984375 417.695312 375.242188 418.050781 375.9375 C 418.394531 376.601562 418.113281 377.429688 417.480469 377.847656 " fill-opacity="1" fill-rule="nonzero"/><path fill="#837c23" d="M 323.78125 424.039062 C 308.5 409.375 305.820312 386.441406 317.796875 372.8125 C 329.773438 359.1875 351.867188 360.027344 367.148438 374.691406 C 382.425781 389.355469 385.105469 412.289062 373.128906 425.914062 C 361.15625 439.542969 339.058594 438.703125 323.78125 424.039062 " fill-opacity="1" fill-rule="nonzero"/><path fill="#403717" d="M 349.554688 426.273438 C 345.308594 422.382812 345.597656 415.164062 350.199219 410.144531 C 354.800781 405.128906 361.96875 404.214844 366.214844 408.101562 C 370.460938 411.992188 370.171875 419.210938 365.570312 424.230469 C 360.96875 429.246094 353.796875 430.160156 349.554688 426.273438 " fill-opacity="1" fill-rule="nonzero"/><path fill="#584d1b" d="M 350.113281 410.242188 L 350.113281 410.242188 M 350.125 410.226562 C 350.125 410.226562 350.128906 410.226562 350.128906 410.222656 C 350.128906 410.226562 350.125 410.226562 350.125 410.226562 M 350.136719 410.210938 C 350.140625 410.210938 350.140625 410.210938 350.144531 410.207031 C 350.140625 410.210938 350.140625 410.210938 350.136719 410.210938 M 350.152344 410.199219 C 350.152344 410.195312 350.15625 410.195312 350.15625 410.191406 C 350.15625 410.195312 350.152344 410.195312 350.152344 410.199219 M 350.167969 410.183594 C 350.167969 410.179688 350.167969 410.175781 350.171875 410.175781 C 350.167969 410.175781 350.167969 410.179688 350.167969 410.183594 M 350.179688 410.164062 C 350.183594 410.164062 350.183594 410.160156 350.1875 410.160156 C 350.183594 410.160156 350.183594 410.164062 350.179688 410.164062 M 350.199219 410.144531 C 350.488281 409.832031 350.785156 409.535156 351.089844 409.25 C 350.785156 409.535156 350.488281 409.832031 350.199219 410.144531 M 351.09375 409.25 C 351.097656 409.246094 351.105469 409.242188 351.109375 409.234375 C 351.105469 409.242188 351.097656 409.246094 351.09375 409.25 " fill-opacity="1" fill-rule="nonzero"/><path fill="#2c2416" d="M 351.820312 420.890625 C 349.9375 420.890625 348.117188 420.402344 346.566406 419.398438 C 346.480469 416.300781 347.664062 412.96875 350.097656 410.257812 C 350.101562 410.25 350.105469 410.246094 350.113281 410.242188 C 350.117188 410.234375 350.121094 410.230469 350.125 410.226562 C 350.125 410.226562 350.128906 410.226562 350.128906 410.222656 C 350.132812 410.21875 350.136719 410.214844 350.136719 410.210938 C 350.140625 410.210938 350.140625 410.210938 350.144531 410.207031 C 350.144531 410.203125 350.148438 410.203125 350.152344 410.199219 C 350.152344 410.195312 350.15625 410.195312 350.15625 410.191406 C 350.160156 410.1875 350.164062 410.183594 350.167969 410.183594 C 350.167969 410.179688 350.167969 410.175781 350.171875 410.175781 C 350.175781 410.171875 350.175781 410.167969 350.179688 410.164062 C 350.183594 410.164062 350.183594 410.160156 350.1875 410.160156 C 350.191406 410.15625 350.195312 410.152344 350.199219 410.144531 C 350.488281 409.832031 350.785156 409.535156 351.089844 409.25 C 351.09375 409.25 351.09375 409.25 351.09375 409.25 C 351.097656 409.246094 351.105469 409.242188 351.109375 409.234375 C 351.113281 409.230469 351.121094 409.226562 351.125 409.222656 C 353.667969 406.902344 356.800781 405.695312 359.765625 405.695312 C 361.652344 405.695312 363.46875 406.183594 365.019531 407.183594 C 365.109375 410.328125 363.890625 413.707031 361.386719 416.4375 C 358.707031 419.359375 355.15625 420.890625 351.820312 420.890625 " fill-opacity="1" fill-rule="nonzero"/><path fill="#cfcca1" d="M 323.558594 423.828125 L 323.558594 423.828125 M 323.554688 423.824219 C 323.289062 423.5625 323.027344 423.304688 322.769531 423.042969 C 322.960938 423.234375 323.152344 423.425781 323.347656 423.617188 C 323.355469 423.628906 323.363281 423.636719 323.371094 423.644531 C 323.398438 423.667969 323.425781 423.695312 323.453125 423.722656 C 323.453125 423.722656 323.453125 423.726562 323.457031 423.726562 C 323.464844 423.734375 323.46875 423.742188 323.476562 423.746094 C 323.480469 423.75 323.480469 423.75 323.484375 423.753906 C 323.488281 423.757812 323.496094 423.765625 323.503906 423.773438 C 323.503906 423.773438 323.507812 423.777344 323.511719 423.777344 C 323.523438 423.792969 323.539062 423.808594 323.554688 423.824219 M 322.769531 423.039062 C 322.761719 423.03125 322.753906 423.023438 322.75 423.019531 C 322.753906 423.023438 322.761719 423.03125 322.769531 423.039062 M 322.746094 423.011719 C 322.730469 423 322.722656 422.988281 322.707031 422.976562 C 322.722656 422.988281 322.730469 423 322.746094 423.011719 M 322.703125 422.972656 C 322.699219 422.96875 322.695312 422.960938 322.6875 422.957031 C 322.695312 422.960938 322.699219 422.96875 322.703125 422.972656 M 322.679688 422.945312 C 322.675781 422.941406 322.667969 422.9375 322.664062 422.929688 C 322.667969 422.9375 322.675781 422.941406 322.679688 422.945312 M 322.652344 422.921875 C 322.648438 422.914062 322.640625 422.90625 322.632812 422.898438 C 322.640625 422.90625 322.644531 422.914062 322.652344 422.921875 M 322.617188 422.882812 C 322.613281 422.878906 322.609375 422.875 322.605469 422.871094 C 322.609375 422.875 322.613281 422.878906 322.617188 422.882812 M 322.589844 422.855469 C 322.585938 422.851562 322.582031 422.847656 322.582031 422.847656 C 322.582031 422.847656 322.585938 422.851562 322.589844 422.855469 M 322.558594 422.824219 C 322.558594 422.824219 322.558594 422.820312 322.554688 422.820312 C 322.558594 422.820312 322.558594 422.824219 322.558594 422.824219 M 322.53125 422.792969 C 322.527344 422.789062 322.527344 422.789062 322.523438 422.789062 C 322.523438 422.789062 322.527344 422.789062 322.53125 422.792969 M 322.5 422.761719 C 322.5 422.761719 322.5 422.761719 322.5 422.757812 C 322.5 422.761719 322.5 422.761719 322.5 422.761719 " fill-opacity="1" fill-rule="nonzero"/><path fill="#6a601f" d="M 350.917969 431.105469 C 341.605469 431.105469 331.726562 427.21875 323.722656 419.535156 C 315.632812 411.769531 311.085938 401.691406 310.367188 391.902344 C 309.828125 402.855469 314.296875 414.703125 323.347656 423.617188 C 323.152344 423.425781 322.960938 423.234375 322.769531 423.042969 C 322.769531 423.039062 322.769531 423.039062 322.769531 423.039062 C 322.761719 423.03125 322.753906 423.023438 322.75 423.019531 C 322.746094 423.015625 322.746094 423.015625 322.746094 423.011719 C 322.730469 423 322.722656 422.988281 322.707031 422.976562 C 322.707031 422.976562 322.707031 422.972656 322.703125 422.972656 C 322.699219 422.96875 322.695312 422.960938 322.6875 422.957031 C 322.6875 422.953125 322.679688 422.949219 322.679688 422.945312 C 322.675781 422.941406 322.667969 422.9375 322.664062 422.929688 C 322.660156 422.929688 322.65625 422.925781 322.652344 422.921875 C 322.644531 422.914062 322.640625 422.90625 322.632812 422.898438 C 322.628906 422.894531 322.621094 422.890625 322.617188 422.882812 C 322.613281 422.878906 322.609375 422.875 322.605469 422.871094 C 322.601562 422.867188 322.59375 422.859375 322.589844 422.855469 C 322.585938 422.851562 322.582031 422.847656 322.582031 422.847656 C 322.574219 422.839844 322.566406 422.832031 322.558594 422.824219 C 322.558594 422.824219 322.558594 422.820312 322.554688 422.820312 C 322.546875 422.808594 322.539062 422.800781 322.53125 422.792969 C 322.527344 422.789062 322.523438 422.789062 322.523438 422.789062 C 322.515625 422.78125 322.507812 422.773438 322.5 422.761719 C 322.5 422.761719 322.5 422.761719 322.5 422.757812 C 313.222656 413.121094 309.097656 400.335938 310.632812 388.9375 C 311.683594 398.261719 316.175781 407.726562 323.859375 415.101562 C 331.566406 422.496094 341.003906 426.375 350 426.65625 C 351.703125 428.019531 353.804688 428.679688 356 428.679688 C 359.339844 428.679688 362.890625 427.152344 365.570312 424.230469 C 366.167969 423.574219 366.699219 422.878906 367.152344 422.164062 C 369.363281 420.761719 371.402344 419.035156 373.210938 416.976562 C 377.210938 412.425781 379.566406 406.828125 380.375 400.851562 C 381.410156 410.070312 379.082031 419.140625 373.128906 425.914062 C 378.773438 419.492188 381.152344 411.007812 380.503906 402.292969 C 380.164062 409.382812 377.734375 416.105469 373.070312 421.410156 C 367.371094 427.898438 359.375 431.105469 350.917969 431.105469 M 323.558594 423.828125 C 323.558594 423.824219 323.554688 423.824219 323.554688 423.824219 C 323.539062 423.808594 323.523438 423.792969 323.511719 423.777344 C 323.527344 423.792969 323.542969 423.8125 323.558594 423.828125 M 323.503906 423.773438 C 323.496094 423.765625 323.488281 423.757812 323.484375 423.753906 C 323.492188 423.757812 323.496094 423.765625 323.503906 423.773438 M 323.476562 423.746094 C 323.46875 423.742188 323.464844 423.734375 323.457031 423.726562 C 323.464844 423.734375 323.46875 423.738281 323.476562 423.746094 M 323.453125 423.722656 C 323.425781 423.695312 323.398438 423.667969 323.371094 423.644531 C 323.398438 423.671875 323.425781 423.695312 323.453125 423.722656 M 323.371094 423.644531 C 323.363281 423.636719 323.355469 423.628906 323.347656 423.617188 C 323.355469 423.628906 323.363281 423.636719 323.371094 423.644531 " fill-opacity="1" fill-rule="nonzero"/><path fill="#342c17" d="M 356 428.679688 C 353.804688 428.679688 351.703125 428.019531 350 426.65625 C 350.351562 426.667969 350.707031 426.671875 351.058594 426.671875 C 356.832031 426.671875 362.390625 425.175781 367.152344 422.164062 C 366.699219 422.878906 366.167969 423.574219 365.570312 424.230469 C 362.890625 427.152344 359.339844 428.679688 356 428.679688 " fill-opacity="1" fill-rule="nonzero"/><path fill="#cfcca1" d="M 323.75 424.011719 C 323.75 424.011719 323.746094 424.007812 323.742188 424.003906 C 323.746094 424.003906 323.746094 424.007812 323.746094 424.007812 C 323.75 424.007812 323.75 424.011719 323.75 424.011719 " fill-opacity="1" fill-rule="nonzero"/><path fill="#6a601f" d="M 323.746094 424.007812 C 323.746094 424.007812 323.746094 424.003906 323.742188 424.003906 C 323.742188 424.003906 323.742188 424 323.738281 424 C 323.742188 424.003906 323.742188 424.003906 323.746094 424.007812 " fill-opacity="1" fill-rule="nonzero"/><path fill="#cfcca1" d="M 323.722656 423.984375 C 323.722656 423.984375 323.71875 423.980469 323.714844 423.980469 C 323.71875 423.980469 323.71875 423.980469 323.71875 423.980469 C 323.722656 423.984375 323.722656 423.984375 323.722656 423.984375 " fill-opacity="1" fill-rule="nonzero"/><path fill="#6a601f" d="M 323.71875 423.980469 C 323.71875 423.980469 323.71875 423.980469 323.714844 423.980469 C 323.714844 423.976562 323.707031 423.972656 323.707031 423.96875 C 323.710938 423.972656 323.714844 423.980469 323.71875 423.980469 " fill-opacity="1" fill-rule="nonzero"/><path fill="#cfcca1" d="M 323.695312 423.957031 C 323.691406 423.953125 323.683594 423.945312 323.679688 423.941406 C 323.683594 423.945312 323.6875 423.953125 323.695312 423.957031 " fill-opacity="1" fill-rule="nonzero"/><path fill="#6a601f" d="M 323.695312 423.957031 C 323.6875 423.953125 323.683594 423.945312 323.679688 423.941406 L 323.675781 423.941406 C 323.683594 423.945312 323.6875 423.953125 323.695312 423.957031 " fill-opacity="1" fill-rule="nonzero"/><path fill="#cfcca1" d="M 323.667969 423.929688 C 323.660156 423.925781 323.65625 423.921875 323.648438 423.914062 C 323.65625 423.921875 323.660156 423.925781 323.667969 423.929688 " fill-opacity="1" fill-rule="nonzero"/><path fill="#6a601f" d="M 323.667969 423.929688 C 323.660156 423.925781 323.65625 423.921875 323.648438 423.914062 C 323.65625 423.917969 323.660156 423.925781 323.667969 423.929688 " fill-opacity="1" fill-rule="nonzero"/><path fill="#cfcca1" d="M 323.640625 423.90625 C 323.632812 423.898438 323.628906 423.894531 323.625 423.890625 C 323.628906 423.894531 323.632812 423.898438 323.636719 423.902344 C 323.636719 423.902344 323.640625 423.90625 323.640625 423.90625 " fill-opacity="1" fill-rule="nonzero"/><path fill="#6a601f" d="M 323.636719 423.902344 C 323.632812 423.898438 323.628906 423.894531 323.625 423.890625 C 323.625 423.890625 323.621094 423.886719 323.621094 423.886719 C 323.625 423.890625 323.632812 423.898438 323.636719 423.902344 " fill-opacity="1" fill-rule="nonzero"/><path fill="#cfcca1" d="M 323.613281 423.878906 C 323.605469 423.871094 323.597656 423.863281 323.589844 423.855469 C 323.59375 423.859375 323.59375 423.859375 323.59375 423.859375 C 323.601562 423.867188 323.605469 423.871094 323.609375 423.875 C 323.609375 423.878906 323.613281 423.878906 323.613281 423.878906 " fill-opacity="1" fill-rule="nonzero"/><path fill="#6a601f" d="M 323.609375 423.875 C 323.605469 423.871094 323.601562 423.867188 323.59375 423.859375 C 323.601562 423.867188 323.605469 423.871094 323.609375 423.875 " fill-opacity="1" fill-rule="nonzero"/><path fill="#cfcca1" d="M 323.585938 423.851562 C 323.578125 423.84375 323.570312 423.839844 323.5625 423.832031 C 323.566406 423.832031 323.566406 423.832031 323.566406 423.835938 C 323.574219 423.839844 323.578125 423.847656 323.585938 423.851562 " fill-opacity="1" fill-rule="nonzero"/><path fill="#6a601f" d="M 323.585938 423.851562 C 323.578125 423.847656 323.574219 423.839844 323.566406 423.835938 C 323.574219 423.839844 323.578125 423.847656 323.585938 423.851562 " fill-opacity="1" fill-rule="nonzero"/><path fill="#cfcca1" d="M 323.753906 424.015625 C 323.753906 424.015625 323.753906 424.011719 323.75 424.011719 C 323.753906 424.011719 323.753906 424.011719 323.753906 424.015625 " fill-opacity="1" fill-rule="nonzero"/><path fill="#6a601f" d="M 323.78125 424.039062 C 323.773438 424.03125 323.761719 424.023438 323.753906 424.015625 C 323.761719 424.023438 323.773438 424.03125 323.78125 424.039062 " fill-opacity="1" fill-rule="nonzero"/><path fill="#cfcca1" d="M 323.730469 423.992188 C 323.726562 423.988281 323.726562 423.988281 323.722656 423.984375 C 323.722656 423.988281 323.726562 423.988281 323.726562 423.988281 C 323.726562 423.988281 323.730469 423.988281 323.730469 423.992188 " fill-opacity="1" fill-rule="nonzero"/><path fill="#6a601f" d="M 323.738281 424 C 323.734375 423.996094 323.734375 423.996094 323.730469 423.992188 C 323.730469 423.988281 323.726562 423.988281 323.726562 423.988281 C 323.730469 423.992188 323.734375 423.996094 323.738281 424 " fill-opacity="1" fill-rule="nonzero"/><path fill="#cfcca1" d="M 323.703125 423.96875 C 323.699219 423.964844 323.699219 423.960938 323.695312 423.957031 C 323.699219 423.960938 323.699219 423.964844 323.699219 423.964844 C 323.703125 423.964844 323.703125 423.964844 323.703125 423.96875 " fill-opacity="1" fill-rule="nonzero"/><path fill="#6a601f" d="M 323.707031 423.96875 C 323.707031 423.96875 323.707031 423.96875 323.703125 423.96875 C 323.703125 423.964844 323.703125 423.964844 323.699219 423.964844 C 323.703125 423.964844 323.707031 423.96875 323.707031 423.96875 " fill-opacity="1" fill-rule="nonzero"/><path fill="#cfcca1" d="M 323.675781 423.941406 C 323.675781 423.9375 323.671875 423.9375 323.667969 423.933594 C 323.671875 423.9375 323.675781 423.9375 323.675781 423.941406 " fill-opacity="1" fill-rule="nonzero"/><path fill="#6a601f" d="M 323.675781 423.941406 C 323.675781 423.9375 323.671875 423.9375 323.667969 423.933594 C 323.667969 423.933594 323.667969 423.933594 323.667969 423.929688 C 323.671875 423.933594 323.675781 423.9375 323.675781 423.941406 " fill-opacity="1" fill-rule="nonzero"/><path fill="#cfcca1" d="M 323.644531 423.910156 C 323.644531 423.90625 323.640625 423.90625 323.640625 423.90625 C 323.644531 423.90625 323.640625 423.90625 323.644531 423.910156 " fill-opacity="1" fill-rule="nonzero"/><path fill="#6a601f" d="M 323.648438 423.914062 C 323.648438 423.914062 323.644531 423.910156 323.644531 423.910156 C 323.640625 423.90625 323.644531 423.90625 323.640625 423.90625 C 323.644531 423.90625 323.648438 423.914062 323.648438 423.914062 " fill-opacity="1" fill-rule="nonzero"/><path fill="#cfcca1" d="M 323.621094 423.886719 C 323.617188 423.882812 323.617188 423.882812 323.613281 423.878906 C 323.617188 423.882812 323.617188 423.882812 323.617188 423.886719 C 323.621094 423.886719 323.617188 423.882812 323.621094 423.886719 " fill-opacity="1" fill-rule="nonzero"/><path fill="#cfcca1" d="M 323.589844 423.855469 C 323.589844 423.855469 323.585938 423.855469 323.585938 423.851562 C 323.585938 423.855469 323.589844 423.855469 323.589844 423.855469 M 323.5625 423.832031 C 323.5625 423.828125 323.558594 423.828125 323.558594 423.828125 C 323.558594 423.828125 323.5625 423.828125 323.5625 423.832031 " fill-opacity="1" fill-rule="nonzero"/><path fill="#a6a166" d="M 350.976562 435.609375 C 350.910156 435.609375 350.839844 435.609375 350.773438 435.609375 C 350.839844 435.609375 350.910156 435.609375 350.976562 435.609375 M 351.109375 435.609375 C 358.050781 435.582031 364.675781 433.390625 369.964844 428.996094 C 364.675781 433.394531 358.054688 435.585938 351.109375 435.609375 M 323.753906 424.015625 C 323.753906 424.011719 323.753906 424.011719 323.75 424.011719 C 323.75 424.011719 323.75 424.007812 323.746094 424.007812 C 323.75 424.011719 323.75 424.011719 323.753906 424.015625 M 323.726562 423.988281 C 323.726562 423.988281 323.722656 423.988281 323.722656 423.984375 C 323.722656 423.984375 323.722656 423.984375 323.71875 423.980469 C 323.722656 423.984375 323.726562 423.988281 323.726562 423.988281 M 323.699219 423.964844 C 323.699219 423.964844 323.699219 423.960938 323.695312 423.957031 C 323.699219 423.960938 323.699219 423.960938 323.699219 423.964844 M 323.640625 423.90625 C 323.640625 423.90625 323.636719 423.902344 323.636719 423.902344 C 323.636719 423.902344 323.640625 423.90625 323.640625 423.90625 M 323.617188 423.886719 C 323.617188 423.882812 323.617188 423.882812 323.613281 423.878906 C 323.613281 423.878906 323.609375 423.878906 323.609375 423.875 C 323.613281 423.878906 323.617188 423.882812 323.617188 423.886719 M 323.59375 423.859375 C 323.59375 423.859375 323.59375 423.859375 323.589844 423.855469 C 323.589844 423.855469 323.585938 423.855469 323.585938 423.851562 C 323.585938 423.855469 323.59375 423.855469 323.59375 423.859375 M 323.566406 423.835938 C 323.566406 423.832031 323.566406 423.832031 323.5625 423.832031 C 323.5625 423.828125 323.558594 423.828125 323.558594 423.828125 C 323.5625 423.832031 323.566406 423.832031 323.566406 423.835938 M 323.511719 423.777344 C 323.507812 423.777344 323.503906 423.773438 323.503906 423.773438 C 323.503906 423.773438 323.507812 423.777344 323.511719 423.777344 M 323.484375 423.753906 C 323.480469 423.75 323.480469 423.75 323.476562 423.746094 C 323.480469 423.75 323.480469 423.75 323.484375 423.753906 M 323.457031 423.726562 C 323.453125 423.726562 323.453125 423.722656 323.453125 423.722656 C 323.453125 423.722656 323.453125 423.726562 323.457031 423.726562 M 323.371094 423.644531 L 323.371094 423.644531 " fill-opacity="1" fill-rule="nonzero"/><path fill="#564b1b" d="M 350.976562 435.609375 C 350.910156 435.609375 350.839844 435.609375 350.773438 435.609375 C 341.519531 435.554688 331.726562 431.667969 323.78125 424.039062 C 323.773438 424.03125 323.761719 424.023438 323.753906 424.015625 C 323.75 424.011719 323.75 424.011719 323.746094 424.007812 C 323.742188 424.003906 323.742188 424.003906 323.738281 424 C 323.734375 423.996094 323.730469 423.992188 323.726562 423.988281 C 323.726562 423.988281 323.722656 423.984375 323.71875 423.980469 C 323.714844 423.980469 323.710938 423.972656 323.707031 423.96875 C 323.707031 423.96875 323.703125 423.964844 323.699219 423.964844 C 323.699219 423.960938 323.699219 423.960938 323.695312 423.957031 C 323.6875 423.953125 323.683594 423.945312 323.675781 423.941406 C 323.675781 423.9375 323.671875 423.933594 323.667969 423.929688 C 323.660156 423.925781 323.65625 423.917969 323.648438 423.914062 C 323.648438 423.914062 323.644531 423.90625 323.640625 423.90625 C 323.640625 423.90625 323.636719 423.902344 323.636719 423.902344 C 323.632812 423.898438 323.625 423.890625 323.621094 423.886719 L 323.617188 423.886719 C 323.617188 423.882812 323.613281 423.878906 323.609375 423.875 C 323.605469 423.871094 323.601562 423.867188 323.59375 423.859375 C 323.59375 423.855469 323.585938 423.855469 323.585938 423.851562 C 323.578125 423.847656 323.574219 423.839844 323.566406 423.835938 C 323.566406 423.832031 323.5625 423.832031 323.558594 423.828125 C 323.542969 423.8125 323.527344 423.792969 323.511719 423.777344 C 323.507812 423.777344 323.503906 423.773438 323.503906 423.773438 C 323.496094 423.765625 323.492188 423.757812 323.484375 423.753906 C 323.480469 423.75 323.480469 423.75 323.476562 423.746094 C 323.46875 423.738281 323.464844 423.734375 323.457031 423.726562 C 323.453125 423.726562 323.453125 423.722656 323.453125 423.722656 C 323.425781 423.695312 323.398438 423.671875 323.371094 423.644531 C 323.363281 423.636719 323.355469 423.628906 323.347656 423.617188 C 314.296875 414.703125 309.828125 402.855469 310.367188 391.902344 C 311.085938 401.691406 315.632812 411.769531 323.722656 419.535156 C 331.726562 427.21875 341.605469 431.105469 350.917969 431.105469 C 359.375 431.105469 367.371094 427.898438 373.070312 421.410156 C 377.734375 416.105469 380.164062 409.382812 380.503906 402.292969 C 381.152344 411.007812 378.773438 419.492188 373.128906 425.914062 C 372.140625 427.039062 371.082031 428.070312 369.964844 428.996094 C 364.675781 433.390625 358.050781 435.582031 351.109375 435.609375 C 351.066406 435.609375 351.019531 435.609375 350.976562 435.609375 " fill-opacity="1" fill-rule="nonzero"/><path fill="#9c9830" d="M 345.796875 380.726562 C 344.433594 380.726562 343.007812 380.644531 341.558594 380.476562 C 332.597656 379.425781 325.910156 375.382812 326.621094 371.445312 C 327.21875 368.148438 332.824219 365.972656 339.898438 365.972656 C 341.265625 365.972656 342.691406 366.050781 344.140625 366.222656 C 353.101562 367.273438 359.789062 371.316406 359.078125 375.25 C 358.476562 378.550781 352.871094 380.726562 345.796875 380.726562 " fill-opacity="1" fill-rule="nonzero"/><path fill="#837c23" d="M 448.914062 448.226562 C 472.078125 449.089844 491.40625 435.027344 492.085938 416.8125 C 492.765625 398.59375 474.542969 383.128906 451.378906 382.261719 C 428.21875 381.398438 408.890625 395.464844 408.210938 413.679688 C 407.53125 431.894531 425.753906 447.359375 448.914062 448.226562 " fill-opacity="1" fill-rule="nonzero"/><path fill="#cfcca1" d="M 448.914062 448.226562 C 448.90625 448.226562 448.898438 448.226562 448.886719 448.226562 C 448.898438 448.226562 448.90625 448.226562 448.914062 448.226562 M 448.867188 448.222656 C 448.863281 448.222656 448.859375 448.222656 448.859375 448.222656 C 448.859375 448.222656 448.859375 448.222656 448.863281 448.222656 C 448.863281 448.222656 448.863281 448.222656 448.867188 448.222656 M 448.835938 448.222656 C 448.835938 448.222656 448.832031 448.222656 448.828125 448.222656 C 448.832031 448.222656 448.835938 448.222656 448.835938 448.222656 M 492.085938 416.78125 L 492.085938 416.78125 M 492.089844 416.753906 L 492.089844 416.753906 M 492.089844 416.703125 C 492.089844 416.699219 492.089844 416.699219 492.089844 416.695312 C 492.089844 416.699219 492.089844 416.699219 492.089844 416.703125 M 492.089844 416.675781 L 492.089844 416.671875 C 492.089844 416.671875 492.089844 416.671875 492.089844 416.675781 M 492.089844 416.648438 L 492.089844 416.644531 C 492.089844 416.644531 492.089844 416.648438 492.089844 416.648438 M 492.089844 416.621094 C 492.089844 416.621094 492.089844 416.617188 492.089844 416.617188 C 492.089844 416.617188 492.089844 416.621094 492.089844 416.621094 M 492.09375 416.59375 L 492.09375 416.589844 C 492.09375 416.59375 492.09375 416.59375 492.09375 416.59375 " fill-opacity="1" fill-rule="nonzero"/><path fill="#6a601f" d="M 448.914062 448.226562 C 448.90625 448.226562 448.898438 448.226562 448.886719 448.226562 C 448.882812 448.226562 448.875 448.226562 448.871094 448.226562 C 448.886719 448.226562 448.902344 448.226562 448.914062 448.226562 M 448.863281 448.222656 C 448.859375 448.222656 448.859375 448.222656 448.859375 448.222656 C 448.847656 448.222656 448.84375 448.222656 448.835938 448.222656 C 448.835938 448.222656 448.832031 448.222656 448.828125 448.222656 C 448.824219 448.222656 448.824219 448.222656 448.824219 448.222656 C 448.835938 448.222656 448.851562 448.222656 448.863281 448.222656 M 448.816406 448.222656 C 448.800781 448.222656 448.789062 448.222656 448.773438 448.222656 C 448.789062 448.222656 448.800781 448.222656 448.816406 448.222656 M 448.765625 448.222656 C 448.75 448.21875 448.738281 448.21875 448.726562 448.21875 C 448.738281 448.21875 448.75 448.21875 448.765625 448.222656 M 448.71875 448.21875 C 448.703125 448.21875 448.691406 448.21875 448.679688 448.21875 C 448.691406 448.21875 448.703125 448.21875 448.71875 448.21875 M 448.671875 448.214844 C 448.660156 448.214844 448.644531 448.214844 448.632812 448.214844 C 448.644531 448.214844 448.660156 448.214844 448.671875 448.214844 M 448.621094 448.214844 C 448.609375 448.214844 448.59375 448.214844 448.582031 448.214844 C 448.59375 448.214844 448.609375 448.214844 448.621094 448.214844 M 448.570312 448.214844 C 448.558594 448.210938 448.546875 448.210938 448.535156 448.210938 C 448.546875 448.210938 448.558594 448.210938 448.570312 448.214844 M 448.519531 448.210938 C 448.507812 448.210938 448.496094 448.210938 448.484375 448.207031 C 448.496094 448.210938 448.507812 448.210938 448.519531 448.210938 M 448.476562 448.207031 C 448.464844 448.207031 448.453125 448.207031 448.4375 448.207031 C 448.453125 448.207031 448.464844 448.207031 448.476562 448.207031 M 448.429688 448.207031 C 448.414062 448.207031 448.40625 448.207031 448.390625 448.203125 C 448.40625 448.207031 448.414062 448.207031 448.429688 448.207031 M 448.378906 448.203125 C 448.367188 448.203125 448.355469 448.203125 448.339844 448.203125 C 448.355469 448.203125 448.367188 448.203125 448.378906 448.203125 M 448.328125 448.203125 C 448.316406 448.199219 448.304688 448.199219 448.289062 448.199219 C 448.304688 448.199219 448.316406 448.199219 448.328125 448.203125 M 448.28125 448.199219 C 448.269531 448.199219 448.257812 448.199219 448.246094 448.199219 C 448.257812 448.199219 448.269531 448.199219 448.28125 448.199219 M 448.234375 448.199219 C 448.226562 448.195312 448.210938 448.195312 448.199219 448.195312 C 448.210938 448.195312 448.222656 448.195312 448.234375 448.199219 M 448.1875 448.195312 C 448.175781 448.195312 448.160156 448.191406 448.148438 448.191406 C 448.160156 448.191406 448.175781 448.195312 448.1875 448.195312 M 448.136719 448.191406 C 448.125 448.191406 448.109375 448.191406 448.097656 448.1875 C 448.113281 448.191406 448.125 448.191406 448.136719 448.191406 M 448.089844 448.1875 C 448.074219 448.1875 448.0625 448.1875 448.050781 448.1875 C 448.0625 448.1875 448.078125 448.1875 448.089844 448.1875 M 448.042969 448.1875 C 448.03125 448.1875 448.019531 448.183594 448.003906 448.183594 C 448.015625 448.183594 448.03125 448.1875 448.042969 448.1875 M 447.996094 448.183594 C 447.984375 448.183594 447.96875 448.183594 447.957031 448.179688 C 447.96875 448.183594 447.984375 448.183594 447.996094 448.183594 M 447.945312 448.179688 C 447.933594 448.179688 447.921875 448.179688 447.90625 448.179688 C 447.921875 448.179688 447.933594 448.179688 447.945312 448.179688 M 447.898438 448.179688 C 447.882812 448.179688 447.871094 448.175781 447.855469 448.175781 C 447.871094 448.175781 447.882812 448.179688 447.898438 448.179688 M 447.851562 448.175781 C 447.839844 448.175781 447.820312 448.175781 447.808594 448.171875 C 447.820312 448.175781 447.835938 448.175781 447.851562 448.175781 M 447.804688 448.171875 C 447.792969 448.171875 447.777344 448.171875 447.761719 448.171875 C 447.777344 448.171875 447.792969 448.171875 447.804688 448.171875 M 447.757812 448.171875 C 447.742188 448.171875 447.726562 448.167969 447.710938 448.167969 C 447.726562 448.167969 447.742188 448.171875 447.757812 448.171875 M 447.707031 448.167969 C 447.691406 448.167969 447.679688 448.164062 447.664062 448.164062 C 447.679688 448.164062 447.695312 448.167969 447.707031 448.167969 M 447.664062 448.164062 C 429.667969 447.074219 414.863281 437.160156 409.945312 424.113281 C 417.285156 430.199219 427.484375 434.164062 438.882812 434.59375 C 439.558594 434.617188 440.230469 434.628906 440.902344 434.628906 C 463.15625 434.628906 481.390625 420.855469 482.050781 403.175781 C 482.1875 399.554688 481.5625 396.046875 480.316406 392.738281 C 487.777344 398.925781 492.292969 407.296875 492.097656 416.386719 C 492.242188 409.660156 489.804688 403.328125 485.507812 397.984375 C 488.078125 402.46875 489.429688 407.449219 489.238281 412.65625 C 488.574219 430.339844 470.34375 444.109375 448.089844 444.113281 C 447.417969 444.113281 446.746094 444.097656 446.066406 444.074219 C 431.683594 443.539062 419.210938 437.363281 411.984375 428.398438 C 418.253906 439.28125 431.699219 447.199219 447.664062 448.164062 M 492.085938 416.785156 C 492.085938 416.785156 492.085938 416.78125 492.085938 416.777344 L 492.085938 416.78125 C 492.085938 416.785156 492.085938 416.785156 492.085938 416.785156 M 492.089844 416.761719 C 492.089844 416.757812 492.089844 416.753906 492.089844 416.753906 C 492.089844 416.757812 492.089844 416.757812 492.089844 416.761719 M 492.089844 416.707031 C 492.089844 416.703125 492.089844 416.699219 492.089844 416.695312 C 492.089844 416.699219 492.089844 416.699219 492.089844 416.703125 C 492.089844 416.703125 492.089844 416.703125 492.089844 416.707031 M 492.089844 416.679688 C 492.089844 416.675781 492.089844 416.671875 492.089844 416.671875 L 492.089844 416.675781 C 492.089844 416.675781 492.089844 416.679688 492.089844 416.679688 M 492.089844 416.648438 C 492.089844 416.648438 492.089844 416.648438 492.089844 416.644531 L 492.089844 416.648438 M 492.089844 416.625 C 492.089844 416.621094 492.089844 416.617188 492.089844 416.613281 C 492.089844 416.617188 492.089844 416.617188 492.089844 416.617188 C 492.089844 416.617188 492.089844 416.621094 492.089844 416.621094 C 492.089844 416.621094 492.089844 416.625 492.089844 416.625 M 492.09375 416.597656 C 492.09375 416.597656 492.09375 416.59375 492.09375 416.589844 L 492.09375 416.59375 C 492.09375 416.597656 492.09375 416.597656 492.09375 416.597656 M 492.09375 416.566406 C 492.09375 416.566406 492.09375 416.5625 492.09375 416.558594 C 492.09375 416.5625 492.09375 416.566406 492.09375 416.566406 M 492.09375 416.542969 C 492.09375 416.542969 492.09375 416.535156 492.09375 416.53125 C 492.09375 416.535156 492.09375 416.535156 492.09375 416.539062 C 492.09375 416.542969 492.09375 416.542969 492.09375 416.542969 M 492.09375 416.519531 C 492.09375 416.515625 492.09375 416.511719 492.09375 416.507812 C 492.09375 416.511719 492.09375 416.515625 492.09375 416.519531 M 492.097656 416.488281 C 492.097656 416.484375 492.097656 416.480469 492.097656 416.476562 C 492.097656 416.480469 492.097656 416.484375 492.097656 416.488281 M 492.097656 416.464844 C 492.097656 416.460938 492.097656 416.453125 492.097656 416.449219 C 492.097656 416.457031 492.097656 416.460938 492.097656 416.464844 M 492.097656 416.441406 C 492.097656 416.425781 492.097656 416.40625 492.097656 416.386719 C 492.097656 416.40625 492.097656 416.425781 492.097656 416.441406 " fill-opacity="1" fill-rule="nonzero"/><path fill="#cfcca1" d="M 450.9375 448.261719 C 450.269531 448.261719 449.59375 448.25 448.914062 448.226562 C 449.59375 448.25 450.269531 448.261719 450.9375 448.261719 C 473.191406 448.265625 491.425781 434.492188 492.085938 416.8125 C 492.085938 416.804688 492.085938 416.792969 492.085938 416.785156 C 492.085938 416.792969 492.085938 416.800781 492.085938 416.8125 C 491.425781 434.492188 473.191406 448.265625 450.9375 448.261719 M 448.871094 448.226562 C 448.871094 448.226562 448.867188 448.222656 448.867188 448.222656 C 448.867188 448.222656 448.867188 448.222656 448.871094 448.226562 M 492.085938 416.777344 C 492.085938 416.773438 492.085938 416.769531 492.089844 416.761719 C 492.085938 416.765625 492.085938 416.773438 492.085938 416.777344 M 492.089844 416.753906 C 492.089844 416.746094 492.089844 416.738281 492.089844 416.730469 C 492.089844 416.738281 492.089844 416.746094 492.089844 416.753906 M 492.089844 416.730469 L 492.089844 416.730469 M 492.089844 416.730469 C 492.089844 416.726562 492.089844 416.722656 492.089844 416.722656 C 492.089844 416.714844 492.089844 416.710938 492.089844 416.707031 C 492.089844 416.714844 492.089844 416.722656 492.089844 416.730469 M 492.089844 416.695312 C 492.089844 416.691406 492.089844 416.6875 492.089844 416.683594 C 492.089844 416.6875 492.089844 416.691406 492.089844 416.695312 M 492.089844 416.671875 C 492.089844 416.664062 492.089844 416.664062 492.089844 416.65625 C 492.089844 416.664062 492.089844 416.667969 492.089844 416.671875 M 492.089844 416.644531 C 492.089844 416.640625 492.089844 416.632812 492.089844 416.628906 C 492.089844 416.632812 492.089844 416.640625 492.089844 416.644531 M 492.089844 416.613281 C 492.09375 416.609375 492.09375 416.609375 492.09375 416.605469 C 492.09375 416.609375 492.09375 416.609375 492.089844 416.613281 M 492.09375 416.589844 C 492.09375 416.589844 492.09375 416.585938 492.09375 416.582031 C 492.09375 416.585938 492.09375 416.589844 492.09375 416.589844 M 492.09375 416.527344 L 492.09375 416.527344 " fill-opacity="1" fill-rule="nonzero"/><path fill="#6a601f" d="M 448.871094 448.226562 L 448.871094 448.226562 M 448.824219 448.222656 C 448.820312 448.222656 448.820312 448.222656 448.820312 448.222656 C 448.816406 448.222656 448.816406 448.222656 448.816406 448.222656 C 448.816406 448.222656 448.820312 448.222656 448.824219 448.222656 M 448.773438 448.222656 C 448.773438 448.222656 448.773438 448.222656 448.769531 448.222656 C 448.769531 448.222656 448.765625 448.222656 448.765625 448.222656 C 448.765625 448.222656 448.773438 448.222656 448.773438 448.222656 M 448.726562 448.21875 C 448.722656 448.21875 448.71875 448.21875 448.71875 448.21875 C 448.71875 448.21875 448.722656 448.21875 448.726562 448.21875 M 448.679688 448.21875 C 448.675781 448.214844 448.675781 448.214844 448.671875 448.214844 C 448.675781 448.214844 448.675781 448.21875 448.679688 448.21875 M 448.632812 448.214844 C 448.628906 448.214844 448.625 448.214844 448.621094 448.214844 C 448.625 448.214844 448.628906 448.214844 448.632812 448.214844 M 448.582031 448.214844 C 448.578125 448.214844 448.574219 448.214844 448.570312 448.214844 C 448.574219 448.214844 448.578125 448.214844 448.582031 448.214844 M 448.535156 448.210938 C 448.527344 448.210938 448.527344 448.210938 448.519531 448.210938 C 448.523438 448.210938 448.53125 448.210938 448.535156 448.210938 M 448.484375 448.207031 C 448.480469 448.207031 448.480469 448.207031 448.476562 448.207031 C 448.480469 448.207031 448.480469 448.207031 448.484375 448.207031 M 448.4375 448.207031 C 448.4375 448.207031 448.433594 448.207031 448.429688 448.207031 C 448.433594 448.207031 448.4375 448.207031 448.4375 448.207031 M 448.390625 448.203125 C 448.386719 448.203125 448.382812 448.203125 448.378906 448.203125 C 448.382812 448.203125 448.386719 448.203125 448.390625 448.203125 M 448.339844 448.203125 C 448.335938 448.203125 448.332031 448.203125 448.328125 448.203125 C 448.332031 448.203125 448.335938 448.203125 448.339844 448.203125 M 448.289062 448.199219 C 448.289062 448.199219 448.285156 448.199219 448.28125 448.199219 C 448.285156 448.199219 448.289062 448.199219 448.289062 448.199219 M 448.246094 448.199219 C 448.242188 448.199219 448.238281 448.199219 448.234375 448.199219 C 448.242188 448.199219 448.242188 448.199219 448.246094 448.199219 M 448.199219 448.195312 C 448.195312 448.195312 448.191406 448.195312 448.1875 448.195312 C 448.191406 448.195312 448.195312 448.195312 448.199219 448.195312 M 448.148438 448.191406 C 448.144531 448.191406 448.140625 448.191406 448.136719 448.191406 C 448.140625 448.191406 448.144531 448.191406 448.148438 448.191406 M 448.097656 448.1875 C 448.097656 448.1875 448.09375 448.1875 448.089844 448.1875 C 448.09375 448.1875 448.09375 448.1875 448.097656 448.1875 M 448.050781 448.1875 C 448.046875 448.1875 448.042969 448.1875 448.042969 448.1875 C 448.042969 448.1875 448.046875 448.1875 448.050781 448.1875 M 448.003906 448.183594 C 448 448.183594 448 448.183594 447.996094 448.183594 C 448 448.183594 448.003906 448.183594 448.003906 448.183594 M 447.957031 448.179688 C 447.953125 448.179688 447.949219 448.179688 447.945312 448.179688 C 447.949219 448.179688 447.953125 448.179688 447.957031 448.179688 M 447.90625 448.179688 C 447.902344 448.179688 447.902344 448.179688 447.898438 448.179688 C 447.902344 448.179688 447.902344 448.179688 447.90625 448.179688 M 447.855469 448.175781 C 447.855469 448.175781 447.851562 448.175781 447.851562 448.175781 C 447.855469 448.175781 447.855469 448.175781 447.855469 448.175781 M 447.808594 448.171875 L 447.804688 448.171875 C 447.808594 448.171875 447.804688 448.171875 447.808594 448.171875 M 447.761719 448.171875 C 447.761719 448.171875 447.757812 448.171875 447.757812 448.171875 C 447.757812 448.171875 447.761719 448.171875 447.761719 448.171875 M 447.710938 448.167969 C 447.710938 448.167969 447.710938 448.167969 447.707031 448.167969 C 447.710938 448.167969 447.710938 448.167969 447.710938 448.167969 M 492.085938 416.8125 C 492.085938 416.800781 492.085938 416.792969 492.085938 416.785156 C 492.085938 416.792969 492.085938 416.804688 492.085938 416.8125 M 492.085938 416.777344 C 492.085938 416.773438 492.085938 416.765625 492.089844 416.761719 C 492.085938 416.769531 492.085938 416.773438 492.085938 416.777344 M 492.089844 416.753906 C 492.089844 416.746094 492.089844 416.738281 492.089844 416.730469 C 492.089844 416.738281 492.089844 416.746094 492.089844 416.753906 M 492.089844 416.722656 C 492.089844 416.714844 492.089844 416.710938 492.089844 416.707031 C 492.089844 416.710938 492.089844 416.714844 492.089844 416.722656 M 492.089844 416.695312 C 492.089844 416.691406 492.089844 416.683594 492.089844 416.679688 C 492.089844 416.679688 492.089844 416.679688 492.089844 416.683594 C 492.089844 416.6875 492.089844 416.691406 492.089844 416.695312 M 492.089844 416.671875 C 492.089844 416.664062 492.089844 416.65625 492.089844 416.648438 C 492.089844 416.652344 492.089844 416.652344 492.089844 416.65625 C 492.089844 416.664062 492.089844 416.664062 492.089844 416.671875 M 492.089844 416.644531 C 492.089844 416.636719 492.089844 416.632812 492.089844 416.625 C 492.089844 416.625 492.089844 416.625 492.089844 416.628906 C 492.089844 416.632812 492.089844 416.640625 492.089844 416.644531 M 492.089844 416.613281 C 492.09375 416.609375 492.09375 416.605469 492.09375 416.597656 C 492.09375 416.601562 492.09375 416.601562 492.09375 416.605469 C 492.09375 416.609375 492.09375 416.609375 492.089844 416.613281 M 492.09375 416.589844 C 492.09375 416.582031 492.09375 416.574219 492.09375 416.566406 C 492.09375 416.574219 492.09375 416.578125 492.09375 416.582031 C 492.09375 416.585938 492.09375 416.589844 492.09375 416.589844 M 492.09375 416.558594 C 492.09375 416.554688 492.09375 416.550781 492.09375 416.542969 C 492.09375 416.550781 492.09375 416.554688 492.09375 416.558594 M 492.09375 416.53125 C 492.09375 416.527344 492.09375 416.523438 492.09375 416.519531 C 492.09375 416.523438 492.09375 416.523438 492.09375 416.527344 C 492.09375 416.53125 492.09375 416.53125 492.09375 416.53125 M 492.09375 416.507812 C 492.09375 416.5 492.097656 416.492188 492.097656 416.488281 C 492.097656 416.496094 492.09375 416.5 492.09375 416.507812 M 492.097656 416.476562 C 492.097656 416.472656 492.097656 416.46875 492.097656 416.464844 C 492.097656 416.46875 492.097656 416.472656 492.097656 416.476562 M 492.097656 416.449219 C 492.097656 416.449219 492.097656 416.445312 492.097656 416.441406 C 492.097656 416.445312 492.097656 416.449219 492.097656 416.449219 M 492.097656 416.386719 L 492.097656 416.386719 " fill-opacity="1" fill-rule="nonzero"/><path fill="#a6a166" d="M 448.871094 448.226562 C 448.867188 448.222656 448.867188 448.222656 448.867188 448.222656 C 448.863281 448.222656 448.863281 448.222656 448.863281 448.222656 C 448.863281 448.222656 448.867188 448.222656 448.871094 448.226562 M 492.089844 416.753906 L 492.089844 416.753906 M 492.089844 416.730469 C 492.089844 416.726562 492.089844 416.722656 492.089844 416.722656 C 492.089844 416.722656 492.089844 416.726562 492.089844 416.730469 M 492.089844 416.671875 L 492.089844 416.671875 M 492.089844 416.644531 L 492.089844 416.644531 " fill-opacity="1" fill-rule="nonzero"/><path fill="#564b1b" d="M 450.9375 448.261719 C 450.269531 448.261719 449.59375 448.25 448.914062 448.226562 C 448.902344 448.226562 448.886719 448.226562 448.871094 448.226562 C 448.867188 448.222656 448.863281 448.222656 448.863281 448.222656 C 448.851562 448.222656 448.835938 448.222656 448.824219 448.222656 C 448.820312 448.222656 448.816406 448.222656 448.816406 448.222656 C 448.800781 448.222656 448.789062 448.222656 448.773438 448.222656 C 448.773438 448.222656 448.765625 448.222656 448.765625 448.222656 C 448.75 448.21875 448.738281 448.21875 448.726562 448.21875 C 448.722656 448.21875 448.71875 448.21875 448.71875 448.21875 C 448.703125 448.21875 448.691406 448.21875 448.679688 448.21875 C 448.675781 448.21875 448.675781 448.214844 448.671875 448.214844 C 448.660156 448.214844 448.644531 448.214844 448.632812 448.214844 C 448.628906 448.214844 448.625 448.214844 448.621094 448.214844 C 448.609375 448.214844 448.59375 448.214844 448.582031 448.214844 C 448.578125 448.214844 448.574219 448.214844 448.570312 448.214844 C 448.558594 448.210938 448.546875 448.210938 448.535156 448.210938 C 448.53125 448.210938 448.523438 448.210938 448.519531 448.210938 C 448.507812 448.210938 448.496094 448.210938 448.484375 448.207031 C 448.480469 448.207031 448.480469 448.207031 448.476562 448.207031 C 448.464844 448.207031 448.453125 448.207031 448.4375 448.207031 C 448.4375 448.207031 448.433594 448.207031 448.429688 448.207031 C 448.414062 448.207031 448.40625 448.207031 448.390625 448.203125 C 448.386719 448.203125 448.382812 448.203125 448.378906 448.203125 C 448.367188 448.203125 448.355469 448.203125 448.339844 448.203125 C 448.335938 448.203125 448.332031 448.203125 448.328125 448.203125 C 448.316406 448.199219 448.304688 448.199219 448.289062 448.199219 C 448.289062 448.199219 448.285156 448.199219 448.28125 448.199219 C 448.269531 448.199219 448.257812 448.199219 448.246094 448.199219 C 448.242188 448.199219 448.242188 448.199219 448.234375 448.199219 C 448.222656 448.195312 448.210938 448.195312 448.199219 448.195312 C 448.195312 448.195312 448.191406 448.195312 448.1875 448.195312 C 448.175781 448.195312 448.160156 448.191406 448.148438 448.191406 C 448.144531 448.191406 448.140625 448.191406 448.136719 448.191406 C 448.125 448.191406 448.113281 448.191406 448.097656 448.1875 C 448.09375 448.1875 448.09375 448.1875 448.089844 448.1875 C 448.078125 448.1875 448.0625 448.1875 448.050781 448.1875 C 448.046875 448.1875 448.042969 448.1875 448.042969 448.1875 C 448.03125 448.1875 448.015625 448.183594 448.003906 448.183594 C 448.003906 448.183594 448 448.183594 447.996094 448.183594 C 447.984375 448.183594 447.96875 448.183594 447.957031 448.179688 C 447.953125 448.179688 447.949219 448.179688 447.945312 448.179688 C 447.933594 448.179688 447.921875 448.179688 447.90625 448.179688 C 447.902344 448.179688 447.902344 448.179688 447.898438 448.179688 C 447.882812 448.179688 447.871094 448.175781 447.855469 448.175781 C 447.855469 448.175781 447.855469 448.175781 447.851562 448.175781 C 447.835938 448.175781 447.820312 448.175781 447.808594 448.171875 C 447.804688 448.171875 447.808594 448.171875 447.804688 448.171875 C 447.792969 448.171875 447.777344 448.171875 447.761719 448.171875 C 447.761719 448.171875 447.757812 448.171875 447.757812 448.171875 C 447.742188 448.171875 447.726562 448.167969 447.710938 448.167969 C 447.710938 448.167969 447.710938 448.167969 447.707031 448.167969 C 447.695312 448.167969 447.679688 448.164062 447.664062 448.164062 C 431.699219 447.199219 418.253906 439.28125 411.984375 428.398438 C 419.210938 437.363281 431.683594 443.539062 446.066406 444.074219 C 446.746094 444.097656 447.417969 444.113281 448.089844 444.113281 C 470.34375 444.109375 488.574219 430.339844 489.238281 412.65625 C 489.429688 407.449219 488.078125 402.46875 485.507812 397.984375 C 489.804688 403.328125 492.242188 409.660156 492.097656 416.386719 C 492.097656 416.40625 492.097656 416.425781 492.097656 416.441406 C 492.097656 416.445312 492.097656 416.449219 492.097656 416.449219 C 492.097656 416.453125 492.097656 416.460938 492.097656 416.464844 C 492.097656 416.46875 492.097656 416.472656 492.097656 416.476562 C 492.097656 416.480469 492.097656 416.484375 492.097656 416.488281 C 492.097656 416.492188 492.09375 416.5 492.09375 416.507812 C 492.09375 416.511719 492.09375 416.515625 492.09375 416.519531 C 492.09375 416.523438 492.09375 416.527344 492.09375 416.53125 C 492.09375 416.535156 492.09375 416.542969 492.09375 416.542969 C 492.09375 416.550781 492.09375 416.554688 492.09375 416.558594 C 492.09375 416.5625 492.09375 416.566406 492.09375 416.566406 C 492.09375 416.574219 492.09375 416.582031 492.09375 416.589844 C 492.09375 416.59375 492.09375 416.597656 492.09375 416.597656 C 492.09375 416.605469 492.09375 416.609375 492.089844 416.613281 C 492.089844 416.617188 492.089844 416.621094 492.089844 416.625 C 492.089844 416.632812 492.089844 416.636719 492.089844 416.644531 C 492.089844 416.648438 492.089844 416.648438 492.089844 416.648438 C 492.089844 416.65625 492.089844 416.664062 492.089844 416.671875 C 492.089844 416.671875 492.089844 416.675781 492.089844 416.679688 C 492.089844 416.683594 492.089844 416.691406 492.089844 416.695312 C 492.089844 416.699219 492.089844 416.703125 492.089844 416.707031 C 492.089844 416.710938 492.089844 416.714844 492.089844 416.722656 C 492.089844 416.722656 492.089844 416.726562 492.089844 416.730469 C 492.089844 416.738281 492.089844 416.746094 492.089844 416.753906 C 492.089844 416.753906 492.089844 416.757812 492.089844 416.761719 C 492.085938 416.765625 492.085938 416.773438 492.085938 416.777344 C 492.085938 416.78125 492.085938 416.785156 492.085938 416.785156 C 492.085938 416.792969 492.085938 416.800781 492.085938 416.8125 C 491.425781 434.492188 473.191406 448.265625 450.9375 448.261719 " fill-opacity="1" fill-rule="nonzero"/><path fill="#403717" d="M 416 425.535156 C 419.25 425.65625 422.09375 420.242188 422.347656 413.441406 C 422.601562 406.640625 420.171875 401.027344 416.921875 400.90625 C 413.671875 400.785156 410.828125 406.199219 410.574219 413 C 410.320312 419.800781 412.75 425.414062 416 425.535156 " fill-opacity="1" fill-rule="nonzero"/><path fill="#584d1b" d="M 422.277344 414.617188 C 422.277344 414.617188 422.277344 414.613281 422.277344 414.613281 C 422.277344 414.613281 422.277344 414.617188 422.277344 414.617188 M 422.277344 414.597656 C 422.277344 414.597656 422.277344 414.59375 422.277344 414.59375 C 422.277344 414.59375 422.277344 414.597656 422.277344 414.597656 M 422.28125 414.582031 C 422.28125 414.578125 422.28125 414.574219 422.28125 414.570312 C 422.28125 414.574219 422.28125 414.578125 422.28125 414.582031 M 422.28125 414.566406 C 422.308594 414.203125 422.332031 413.835938 422.347656 413.460938 C 422.332031 413.835938 422.308594 414.203125 422.28125 414.566406 M 422.347656 413.421875 C 422.347656 413.414062 422.347656 413.410156 422.347656 413.402344 C 422.347656 413.410156 422.347656 413.414062 422.347656 413.421875 M 422.347656 413.398438 C 422.347656 413.394531 422.347656 413.386719 422.347656 413.382812 C 422.347656 413.386719 422.347656 413.394531 422.347656 413.398438 M 422.347656 413.382812 C 422.359375 413.097656 422.363281 412.8125 422.363281 412.53125 C 422.363281 412.8125 422.359375 413.097656 422.347656 413.382812 M 422.363281 412.53125 C 422.363281 412.523438 422.363281 412.519531 422.363281 412.515625 C 422.363281 412.519531 422.363281 412.523438 422.363281 412.53125 M 422.363281 412.507812 C 422.363281 412.503906 422.363281 412.5 422.363281 412.496094 C 422.363281 412.5 422.363281 412.503906 422.363281 412.507812 M 422.363281 412.488281 C 422.363281 412.480469 422.363281 412.480469 422.363281 412.476562 C 422.363281 412.480469 422.363281 412.480469 422.363281 412.488281 M 422.363281 412.464844 C 422.363281 412.460938 422.363281 412.457031 422.363281 412.457031 C 422.363281 412.457031 422.363281 412.460938 422.363281 412.464844 " fill-opacity="1" fill-rule="nonzero"/><path fill="#2c2416" d="M 419.917969 422.75 C 418.730469 420.445312 418.050781 417.046875 418.191406 413.285156 C 418.332031 409.523438 419.265625 406.1875 420.621094 403.976562 C 421.699219 406.074219 422.363281 409.078125 422.363281 412.4375 C 422.363281 412.441406 422.363281 412.449219 422.363281 412.457031 C 422.363281 412.457031 422.363281 412.460938 422.363281 412.464844 C 422.363281 412.464844 422.363281 412.472656 422.363281 412.476562 C 422.363281 412.480469 422.363281 412.480469 422.363281 412.488281 C 422.363281 412.488281 422.363281 412.492188 422.363281 412.496094 C 422.363281 412.5 422.363281 412.503906 422.363281 412.507812 C 422.363281 412.511719 422.363281 412.511719 422.363281 412.515625 C 422.363281 412.519531 422.363281 412.523438 422.363281 412.53125 C 422.363281 412.8125 422.359375 413.097656 422.347656 413.382812 C 422.347656 413.386719 422.347656 413.394531 422.347656 413.398438 C 422.347656 413.402344 422.347656 413.402344 422.347656 413.402344 C 422.347656 413.410156 422.347656 413.414062 422.347656 413.421875 C 422.347656 413.425781 422.347656 413.433594 422.347656 413.441406 C 422.347656 413.449219 422.347656 413.453125 422.347656 413.460938 C 422.332031 413.835938 422.308594 414.203125 422.28125 414.566406 C 422.28125 414.566406 422.28125 414.570312 422.28125 414.570312 C 422.28125 414.574219 422.28125 414.578125 422.28125 414.582031 C 422.28125 414.585938 422.277344 414.589844 422.277344 414.59375 C 422.277344 414.59375 422.277344 414.597656 422.277344 414.597656 C 422.277344 414.605469 422.277344 414.609375 422.277344 414.613281 C 422.277344 414.613281 422.277344 414.617188 422.277344 414.617188 C 422.003906 417.894531 421.128906 420.773438 419.917969 422.75 " fill-opacity="1" fill-rule="nonzero"/><path fill="#9c9830" d="M 443.179688 399.070312 C 434.914062 399.070312 428.464844 396.578125 428.1875 393.003906 C 427.878906 388.976562 435.554688 385.097656 445.335938 384.347656 C 446.453125 384.261719 447.546875 384.21875 448.613281 384.21875 C 456.878906 384.21875 463.332031 386.714844 463.605469 390.28125 C 463.914062 394.316406 456.238281 398.191406 446.457031 398.941406 C 445.339844 399.027344 444.246094 399.070312 443.179688 399.070312 " fill-opacity="1" fill-rule="nonzero"/></svg>