<svg xmlns="http://www.w3.org/2000/svg" xmlns:xlink="http://www.w3.org/1999/xlink" width="1080" zoomAndPan="magnify" viewBox="0 0 810 809.999993" height="1080" preserveAspectRatio="xMidYMid meet" version="1.0"><defs><clipPath id="0cd89ae017"><path d="M 312 312 L 498.75 312 L 498.75 502 L 312 502 Z M 312 312 " clip-rule="nonzero"/></clipPath></defs><path fill="#ed1d24" d="M 326.773438 469.292969 C 345.605469 474.832031 366.261719 461.417969 389.335938 438.347656 C 412.414062 415.28125 407.757812 407.5625 410.691406 399.363281 C 414.835938 387.785156 432.238281 382.9375 441.257812 388.203125 C 449.625 393.085938 463.179688 409.441406 447.847656 428.015625 C 432.519531 446.589844 373.46875 504.929688 324.285156 476.589844 C 320.417969 474.363281 315.085938 465.554688 316.484375 460.53125 C 316.484375 460.53125 321.605469 467.769531 326.773438 469.292969 " fill-opacity="1" fill-rule="nonzero"/><path fill="#4b1615" d="M 326.773438 469.292969 L 326.539062 470.089844 C 329.472656 470.953125 332.457031 471.371094 335.472656 471.371094 C 343.921875 471.367188 352.636719 468.132812 361.675781 462.484375 C 370.722656 456.832031 380.113281 448.746094 389.925781 438.933594 C 395.722656 433.140625 399.792969 428.300781 402.679688 424.152344 C 407.015625 417.9375 408.699219 413.261719 409.542969 409.398438 C 409.96875 407.46875 410.1875 405.746094 410.433594 404.15625 C 410.679688 402.5625 410.953125 401.101562 411.476562 399.644531 C 412.898438 395.667969 416 392.480469 419.84375 390.289062 C 423.679688 388.09375 428.242188 386.914062 432.445312 386.914062 C 435.597656 386.914062 438.539062 387.578125 440.835938 388.921875 C 443.527344 390.488281 446.847656 393.351562 449.457031 397.109375 C 452.070312 400.875 453.980469 405.523438 453.980469 410.71875 C 453.976562 415.816406 452.152344 421.484375 447.207031 427.484375 C 441.042969 434.957031 427.6875 448.976562 410.765625 461.085938 C 402.304688 467.144531 392.953125 472.726562 383.167969 476.789062 C 373.382812 480.851562 363.167969 483.394531 352.976562 483.394531 C 343.429688 483.390625 333.902344 481.171875 324.699219 475.871094 C 323.957031 475.445312 323.074219 474.679688 322.203125 473.695312 C 320.894531 472.21875 319.597656 470.25 318.644531 468.210938 C 317.6875 466.175781 317.085938 464.0625 317.089844 462.335938 C 317.089844 461.761719 317.152344 461.230469 317.285156 460.753906 L 316.484375 460.53125 L 315.804688 461.011719 C 315.820312 461.035156 317.121094 462.871094 319.089844 464.917969 C 320.078125 465.941406 321.234375 467.019531 322.492188 467.949219 C 323.75 468.882812 325.109375 469.667969 326.539062 470.089844 L 326.773438 469.292969 L 327.007812 468.492188 C 325.851562 468.15625 324.632812 467.46875 323.480469 466.613281 C 321.746094 465.332031 320.152344 463.683594 319.007812 462.359375 C 318.433594 461.695312 317.96875 461.117188 317.648438 460.703125 C 317.488281 460.496094 317.367188 460.332031 317.285156 460.21875 C 317.242188 460.164062 317.210938 460.121094 317.191406 460.09375 L 317.171875 460.0625 L 317.164062 460.050781 C 316.976562 459.789062 316.660156 459.660156 316.339844 459.710938 C 316.027344 459.765625 315.769531 460 315.683594 460.308594 C 315.503906 460.953125 315.425781 461.636719 315.425781 462.335938 C 315.425781 463.734375 315.734375 465.21875 316.238281 466.707031 C 317 468.929688 318.203125 471.15625 319.558594 473.042969 C 320.921875 474.925781 322.410156 476.464844 323.871094 477.3125 C 333.328125 482.765625 343.171875 485.058594 352.976562 485.054688 C 363.445312 485.054688 373.871094 482.453125 383.804688 478.324219 C 398.710938 472.136719 412.527344 462.527344 423.800781 453.050781 C 435.078125 443.570312 443.796875 434.230469 448.492188 428.542969 C 453.640625 422.308594 455.648438 416.226562 455.648438 410.71875 C 455.644531 405.105469 453.585938 400.136719 450.824219 396.160156 C 448.058594 392.183594 444.597656 389.191406 441.675781 387.484375 C 439.050781 385.953125 435.828125 385.253906 432.445312 385.25 C 427.933594 385.253906 423.125 386.5 419.019531 388.84375 C 414.917969 391.183594 411.5 394.640625 409.910156 399.082031 C 409.140625 401.242188 408.878906 403.324219 408.539062 405.546875 C 408.035156 408.886719 407.386719 412.578125 404.726562 417.648438 C 402.0625 422.714844 397.367188 429.144531 388.75 437.757812 C 378.988281 447.519531 369.675781 455.527344 360.792969 461.074219 C 351.914062 466.625 343.484375 469.707031 335.472656 469.703125 C 332.605469 469.703125 329.789062 469.3125 327.007812 468.492188 L 326.773438 469.292969 " fill-opacity="1" fill-rule="nonzero"/><path fill="#ed1d24" d="M 359.585938 477.621094 C 359.585938 477.621094 413.164062 466.664062 443.753906 417.28125 L 359.585938 477.621094 " fill-opacity="1" fill-rule="nonzero"/><path fill="#4b1615" d="M 359.753906 478.433594 C 359.808594 478.421875 373.269531 475.667969 390.582031 466.707031 C 407.894531 457.75 429.066406 442.578125 444.460938 417.722656 C 444.707031 417.332031 444.585938 416.816406 444.191406 416.574219 C 443.804688 416.335938 443.289062 416.457031 443.046875 416.84375 C 427.855469 441.371094 406.941406 456.367188 389.820312 465.230469 C 381.257812 469.660156 373.644531 472.558594 368.179688 474.34375 C 365.445312 475.238281 363.25 475.855469 361.742188 476.246094 C 360.984375 476.441406 360.402344 476.582031 360.007812 476.671875 C 359.8125 476.71875 359.664062 476.75 359.5625 476.773438 C 359.515625 476.78125 359.476562 476.792969 359.457031 476.796875 L 359.421875 476.804688 C 358.96875 476.894531 358.679688 477.335938 358.769531 477.785156 C 358.863281 478.234375 359.304688 478.523438 359.753906 478.433594 " fill-opacity="1" fill-rule="nonzero"/><path fill="#6ac632" d="M 427.472656 389.75 C 427.472656 389.75 428.183594 383.039062 434.652344 376.820312 C 434.652344 376.820312 446.964844 332.746094 414.097656 332.09375 C 414.097656 332.09375 405.449219 336.632812 403.011719 333.699219 C 400.570312 330.765625 400.800781 316.71875 407.234375 317.324219 C 407.234375 317.324219 416.335938 320.898438 416.375 323.875 C 416.375 323.875 453.203125 331.929688 440.203125 377.609375 C 440.203125 377.609375 440.425781 385.972656 447.390625 393.230469 C 447.390625 393.230469 434.25 394.644531 427.472656 389.75 " fill-opacity="1" fill-rule="nonzero"/><path fill="#4b1615" d="M 427.472656 389.75 L 428.300781 389.839844 L 428.199219 389.828125 L 428.300781 389.839844 L 428.199219 389.828125 L 428.300781 389.839844 C 428.304688 389.796875 428.492188 388.167969 429.453125 385.816406 C 430.414062 383.460938 432.140625 380.386719 435.226562 377.417969 C 435.335938 377.3125 435.414062 377.1875 435.453125 377.042969 C 435.460938 377 437.738281 368.863281 437.742188 359.433594 C 437.742188 356.289062 437.488281 352.996094 436.800781 349.804688 C 435.773438 345.027344 433.765625 340.453125 430.144531 337.03125 C 428.335938 335.324219 426.128906 333.910156 423.472656 332.914062 C 420.816406 331.914062 417.714844 331.332031 414.113281 331.261719 C 413.972656 331.257812 413.835938 331.292969 413.710938 331.355469 L 413.699219 331.363281 C 413.570312 331.429688 412.335938 332.0625 410.738281 332.675781 C 409.941406 332.980469 409.054688 333.277344 408.175781 333.496094 C 407.300781 333.71875 406.433594 333.855469 405.691406 333.855469 C 405.199219 333.855469 404.765625 333.792969 404.425781 333.675781 C 404.085938 333.554688 403.839844 333.390625 403.648438 333.167969 C 403.503906 332.992188 403.332031 332.699219 403.179688 332.320312 C 402.949219 331.746094 402.75 330.980469 402.617188 330.105469 C 402.480469 329.234375 402.410156 328.253906 402.410156 327.242188 C 402.40625 325.003906 402.777344 322.601562 403.550781 320.863281 C 403.9375 319.992188 404.417969 319.292969 404.960938 318.835938 C 405.507812 318.382812 406.089844 318.140625 406.835938 318.136719 C 406.941406 318.136719 407.046875 318.140625 407.152344 318.152344 L 407.234375 317.324219 L 406.929688 318.097656 L 406.953125 318.105469 C 407.199219 318.207031 409.445312 319.113281 411.59375 320.328125 C 412.667969 320.933594 413.714844 321.617188 414.453125 322.285156 C 414.820312 322.617188 415.113281 322.941406 415.292969 323.222656 C 415.476562 323.507812 415.542969 323.734375 415.542969 323.882812 C 415.546875 324.273438 415.816406 324.605469 416.195312 324.6875 L 416.207031 324.6875 C 416.539062 324.761719 423.078125 326.308594 429.472656 331.40625 C 432.667969 333.953125 435.832031 337.378906 438.203125 341.960938 C 440.570312 346.542969 442.148438 352.28125 442.148438 359.492188 C 442.148438 364.660156 441.335938 370.589844 439.402344 377.382812 C 439.378906 377.464844 439.367188 377.546875 439.371094 377.632812 C 439.375 377.6875 439.433594 379.847656 440.390625 382.941406 C 441.347656 386.035156 443.199219 390.066406 446.792969 393.808594 L 447.390625 393.230469 L 447.300781 392.402344 C 447.300781 392.402344 447.28125 392.40625 447.230469 392.410156 C 446.878906 392.445312 445.273438 392.589844 443.0625 392.589844 C 440.878906 392.589844 438.097656 392.449219 435.367188 391.929688 C 432.632812 391.417969 429.957031 390.519531 427.960938 389.078125 L 427.472656 389.75 L 428.300781 389.839844 L 427.472656 389.75 L 426.984375 390.425781 C 429.289062 392.082031 432.179688 393.023438 435.058594 393.566406 C 437.9375 394.109375 440.808594 394.253906 443.0625 394.253906 C 445.671875 394.253906 447.457031 394.0625 447.480469 394.058594 C 447.796875 394.023438 448.0625 393.816406 448.171875 393.515625 C 448.28125 393.21875 448.214844 392.882812 447.992188 392.65625 C 444.617188 389.140625 442.878906 385.359375 441.980469 382.453125 C 441.53125 381 441.292969 379.769531 441.171875 378.910156 C 441.105469 378.480469 441.074219 378.140625 441.054688 377.914062 C 441.046875 377.800781 441.039062 377.714844 441.039062 377.660156 L 441.035156 377.597656 L 441.035156 377.585938 L 440.203125 377.609375 L 441.003906 377.835938 C 442.972656 370.917969 443.816406 364.835938 443.816406 359.492188 C 443.816406 351.917969 442.121094 345.824219 439.5625 340.96875 C 435.722656 333.679688 429.972656 329.207031 425.195312 326.558594 C 420.417969 323.910156 416.605469 323.074219 416.550781 323.0625 L 416.375 323.875 L 417.207031 323.863281 C 417.195312 323.273438 416.972656 322.746094 416.664062 322.28125 C 416.117188 321.460938 415.285156 320.75 414.335938 320.082031 C 412.917969 319.085938 411.230469 318.214844 409.886719 317.578125 C 408.542969 316.945312 407.550781 316.554688 407.539062 316.550781 C 407.46875 316.519531 407.390625 316.503906 407.316406 316.496094 C 407.152344 316.480469 406.992188 316.472656 406.835938 316.472656 C 405.699219 316.46875 404.679688 316.890625 403.882812 317.566406 C 402.691406 318.589844 401.9375 320.117188 401.445312 321.820312 C 400.960938 323.527344 400.746094 325.429688 400.746094 327.242188 C 400.746094 328.699219 400.882812 330.09375 401.144531 331.292969 C 401.277344 331.894531 401.4375 332.449219 401.636719 332.941406 C 401.835938 333.433594 402.070312 333.867188 402.371094 334.230469 C 402.777344 334.722656 403.316406 335.054688 403.882812 335.246094 C 404.457031 335.445312 405.066406 335.519531 405.691406 335.519531 C 406.664062 335.515625 407.679688 335.339844 408.675781 335.085938 C 411.652344 334.324219 414.453125 332.84375 414.484375 332.832031 L 414.097656 332.09375 L 414.082031 332.925781 C 418.675781 333.019531 422.308594 333.972656 425.199219 335.511719 C 427.363281 336.667969 429.113281 338.15625 430.535156 339.890625 C 432.667969 342.488281 434.054688 345.644531 434.910156 349.023438 C 435.765625 352.402344 436.078125 355.996094 436.078125 359.433594 C 436.078125 364.015625 435.523438 368.316406 434.960938 371.46875 C 434.683594 373.042969 434.402344 374.328125 434.195312 375.21875 C 434.089844 375.664062 434.003906 376.011719 433.941406 376.242188 C 433.914062 376.359375 433.890625 376.449219 433.871094 376.507812 L 433.855469 376.574219 L 433.851562 376.59375 L 434.652344 376.820312 L 434.074219 376.21875 C 430.742188 379.421875 428.886719 382.761719 427.863281 385.304688 C 426.84375 387.855469 426.652344 389.605469 426.644531 389.664062 C 426.617188 389.960938 426.746094 390.25 426.984375 390.425781 L 427.472656 389.75 " fill-opacity="1" fill-rule="nonzero"/><path fill="#519e28" d="M 443.054688 392.589844 C 441.390625 392.589844 439.386719 392.507812 437.316406 392.238281 C 439.390625 382.191406 439.519531 371.789062 437.699219 361.691406 C 437.726562 360.949219 437.742188 360.195312 437.742188 359.433594 C 437.742188 356.289062 437.488281 352.996094 436.800781 349.804688 C 435.773438 345.027344 433.765625 340.453125 430.144531 337.03125 C 429.390625 336.320312 428.570312 335.664062 427.675781 335.0625 C 425.933594 332.179688 423.984375 329.390625 421.835938 326.71875 C 424.09375 327.761719 426.796875 329.273438 429.472656 331.40625 C 432.667969 333.953125 435.832031 337.378906 438.203125 341.960938 C 440.570312 346.542969 442.148438 352.28125 442.148438 359.492188 C 442.148438 364.660156 441.335938 370.589844 439.402344 377.382812 C 439.378906 377.464844 439.367188 377.546875 439.371094 377.632812 C 439.375 377.6875 439.433594 379.847656 440.390625 382.941406 C 441.007812 384.941406 442 387.332031 443.59375 389.785156 C 443.527344 389.730469 443.464844 389.683594 443.398438 389.632812 C 443.394531 390.621094 443.375 391.605469 443.335938 392.589844 C 443.246094 392.589844 443.15625 392.589844 443.066406 392.589844 C 443.066406 392.589844 443.066406 392.589844 443.0625 392.589844 C 443.0625 392.589844 443.058594 392.589844 443.054688 392.589844 " fill-opacity="1" fill-rule="nonzero"/><path fill="#3d1211" d="M 443.074219 393.417969 C 441.363281 393.417969 439.292969 393.335938 437.144531 393.054688 C 437.207031 392.785156 437.261719 392.511719 437.316406 392.238281 C 439.386719 392.507812 441.390625 392.589844 443.054688 392.589844 C 443.058594 392.589844 443.0625 392.589844 443.0625 392.589844 C 443.066406 392.589844 443.066406 392.589844 443.066406 392.589844 C 443.15625 392.589844 443.246094 392.589844 443.335938 392.589844 C 443.324219 392.863281 443.3125 393.140625 443.296875 393.417969 C 443.222656 393.417969 443.148438 393.417969 443.074219 393.417969 M 447.386719 393.230469 C 446.144531 391.894531 444.847656 390.734375 443.59375 389.785156 C 442 387.332031 441.007812 384.941406 440.390625 382.941406 C 439.433594 379.847656 439.375 377.6875 439.371094 377.632812 C 439.367188 377.546875 439.378906 377.464844 439.402344 377.382812 C 441.335938 370.589844 442.148438 364.660156 442.148438 359.492188 C 442.148438 352.28125 440.570312 346.542969 438.203125 341.960938 C 435.832031 337.378906 432.667969 333.953125 429.472656 331.40625 C 426.796875 329.273438 424.09375 327.761719 421.835938 326.71875 C 421.453125 326.246094 421.0625 325.773438 420.667969 325.304688 C 429.976562 329.125 450.390625 341.8125 440.203125 377.609375 C 440.203125 377.609375 440.425781 385.972656 447.390625 393.230469 C 447.390625 393.230469 447.390625 393.230469 447.386719 393.230469 M 437.699219 361.691406 C 437.460938 360.367188 437.191406 359.050781 436.882812 357.742188 C 436.652344 350.105469 434.746094 341.949219 428.777344 336.9375 C 428.417969 336.308594 428.054688 335.683594 427.675781 335.0625 C 428.570312 335.664062 429.390625 336.320312 430.144531 337.03125 C 433.765625 340.453125 435.773438 345.027344 436.800781 349.804688 C 437.488281 352.996094 437.742188 356.289062 437.742188 359.433594 C 437.742188 360.195312 437.726562 360.949219 437.699219 361.691406 " fill-opacity="1" fill-rule="nonzero"/><path fill="#f14852" d="M 329.082031 476.960938 C 329.292969 477.066406 332.113281 478.375 337.191406 478.375 C 340.21875 478.375 344.042969 477.90625 348.574219 476.460938 C 353.101562 475.015625 358.332031 472.589844 364.195312 468.691406 C 374.777344 461.648438 385.5625 453.632812 394.4375 445.601562 C 398.878906 441.585938 402.839844 437.566406 406.066406 433.640625 C 409.296875 429.710938 411.792969 425.878906 413.273438 422.167969 C 414.695312 418.605469 415.523438 415.402344 416.144531 412.558594 C 416.609375 410.429688 416.960938 408.503906 417.351562 406.785156 C 417.640625 405.496094 417.953125 404.320312 418.335938 403.257812 C 418.914062 401.660156 419.640625 400.3125 420.746094 399.054688 C 421.851562 397.800781 423.363281 396.617188 425.59375 395.46875 C 426.550781 394.980469 426.929688 393.800781 426.4375 392.84375 C 425.945312 391.886719 424.769531 391.507812 423.8125 392 C 422.292969 392.78125 420.988281 393.613281 419.867188 394.519531 C 417.910156 396.097656 416.527344 397.898438 415.566406 399.824219 C 414.839844 401.273438 414.335938 402.78125 413.925781 404.34375 C 413.3125 406.6875 412.898438 409.15625 412.304688 411.855469 C 411.710938 414.550781 410.941406 417.472656 409.648438 420.726562 C 408.398438 423.882812 406.117188 427.4375 403.054688 431.160156 C 398.460938 436.753906 392.125 442.730469 384.980469 448.589844 C 377.835938 454.460938 369.878906 460.222656 362.03125 465.445312 C 356.441406 469.164062 351.539062 471.417969 347.382812 472.742188 C 343.226562 474.070312 339.816406 474.472656 337.191406 474.472656 C 334.988281 474.472656 333.335938 474.1875 332.253906 473.921875 C 331.714844 473.785156 331.316406 473.65625 331.070312 473.566406 C 330.945312 473.519531 330.859375 473.484375 330.808594 473.464844 L 330.765625 473.441406 L 330.761719 473.441406 L 330.386719 474.257812 L 330.777344 473.449219 L 330.761719 473.441406 L 330.386719 474.257812 L 330.777344 473.449219 C 329.808594 472.980469 328.640625 473.386719 328.171875 474.359375 C 327.703125 475.328125 328.109375 476.492188 329.082031 476.960938 " fill-opacity="1" fill-rule="nonzero"/><path fill="#8e191d" d="M 352.980469 483.394531 C 352.980469 483.394531 352.976562 483.394531 352.976562 483.394531 C 352.863281 483.394531 352.75 483.390625 352.636719 483.390625 C 361.527344 480.265625 370.257812 476.566406 378.601562 472.261719 C 382.265625 470.757812 386.304688 468.921875 390.582031 466.707031 C 407.894531 457.75 429.066406 442.578125 444.460938 417.722656 C 444.707031 417.332031 444.585938 416.816406 444.191406 416.574219 C 444.058594 416.492188 443.90625 416.453125 443.753906 416.453125 C 443.476562 416.453125 443.207031 416.589844 443.046875 416.84375 C 442.6875 417.425781 442.324219 418 441.960938 418.570312 L 436.25 422.664062 C 440.277344 413.726562 442.660156 404.058594 443.25 394.253906 C 445.03125 394.246094 446.402344 394.152344 447.058594 394.097656 C 447.894531 395.019531 448.707031 396.03125 449.457031 397.109375 C 450.835938 399.097656 452.019531 401.324219 452.828125 403.753906 C 452.96875 405.226562 453.050781 406.847656 453.050781 408.640625 C 453.050781 411.605469 452.832031 415.046875 452.320312 419.09375 C 451.238281 421.796875 449.582031 424.601562 447.207031 427.484375 C 441.042969 434.957031 427.6875 448.976562 410.765625 461.085938 C 402.304688 467.144531 392.953125 472.726562 383.167969 476.789062 C 373.382812 480.851562 363.171875 483.394531 352.980469 483.394531 " fill-opacity="1" fill-rule="nonzero"/><path fill="#300b0d" d="M 352.980469 484.222656 C 352.121094 484.222656 351.253906 484.203125 350.394531 484.167969 C 351.140625 483.910156 351.890625 483.652344 352.636719 483.390625 C 352.75 483.390625 352.863281 483.394531 352.976562 483.394531 C 352.976562 483.394531 352.980469 483.394531 352.980469 483.394531 C 363.171875 483.394531 373.382812 480.851562 383.167969 476.789062 C 392.953125 472.726562 402.304688 467.144531 410.765625 461.085938 C 427.6875 448.976562 441.042969 434.957031 447.207031 427.484375 C 449.582031 424.601562 451.238281 421.796875 452.320312 419.09375 C 452.203125 420.011719 452.070312 420.964844 451.921875 421.945312 C 450.886719 423.9375 449.546875 425.960938 447.847656 428.015625 C 435.425781 443.066406 394.304688 484.222656 352.980469 484.222656 M 452.828125 403.753906 C 452.019531 401.324219 450.835938 399.097656 449.457031 397.109375 C 448.707031 396.03125 447.894531 395.019531 447.058594 394.097656 C 447.328125 394.074219 447.472656 394.058594 447.480469 394.058594 C 447.660156 394.039062 447.820312 393.964844 447.949219 393.847656 C 449.617188 395.742188 451.167969 397.960938 452.375 400.445312 C 452.558594 401.460938 452.714844 402.558594 452.828125 403.753906 " fill-opacity="1" fill-rule="nonzero"/><path fill="#8e191d" d="M 429.039062 435.402344 C 431.839844 431.382812 434.246094 427.113281 436.25 422.664062 L 441.960938 418.570312 C 437.96875 424.792969 433.605469 430.382812 429.039062 435.402344 " fill-opacity="1" fill-rule="nonzero"/><path fill="#300b0d" d="M 378.601562 472.261719 C 379.34375 471.878906 380.085938 471.492188 380.820312 471.101562 C 388.144531 467.195312 395.207031 462.832031 402.542969 458.949219 C 413.429688 453.191406 422.347656 445.015625 429.039062 435.402344 C 433.605469 430.382812 437.96875 424.792969 441.960938 418.570312 C 442.324219 418 442.6875 417.425781 443.046875 416.84375 C 443.207031 416.589844 443.476562 416.453125 443.753906 416.453125 C 443.90625 416.453125 444.058594 416.492188 444.191406 416.574219 C 444.585938 416.816406 444.707031 417.332031 444.460938 417.722656 C 429.066406 442.578125 407.894531 457.75 390.582031 466.707031 C 386.304688 468.921875 382.265625 470.757812 378.601562 472.261719 " fill-opacity="1" fill-rule="nonzero"/><path fill="#300b0d" d="M 443.25 394.253906 C 443.269531 393.976562 443.285156 393.695312 443.296875 393.417969 C 445.675781 393.40625 447.308594 393.238281 447.386719 393.230469 C 447.578125 393.433594 447.765625 393.640625 447.949219 393.847656 C 447.820312 393.964844 447.660156 394.039062 447.480469 394.058594 C 447.472656 394.058594 447.328125 394.074219 447.058594 394.097656 C 446.402344 394.152344 445.03125 394.246094 443.25 394.253906 " fill-opacity="1" fill-rule="nonzero"/><path fill="#401b1c" d="M 443.335938 392.589844 C 443.375 391.605469 443.394531 390.621094 443.398438 389.632812 C 443.464844 389.683594 443.527344 389.730469 443.59375 389.785156 C 444.1875 390.691406 444.863281 391.613281 445.632812 392.523438 C 445.003906 392.554688 444.222656 392.582031 443.335938 392.589844 " fill-opacity="1" fill-rule="nonzero"/><path fill="#27090a" d="M 443.296875 393.417969 C 443.3125 393.140625 443.324219 392.863281 443.335938 392.589844 C 444.222656 392.582031 445.003906 392.554688 445.632812 392.523438 C 444.863281 391.613281 444.1875 390.691406 443.59375 389.785156 C 444.847656 390.734375 446.144531 391.894531 447.386719 393.230469 C 447.308594 393.238281 445.675781 393.40625 443.296875 393.417969 " fill-opacity="1" fill-rule="nonzero"/><path fill="#ed1d24" d="M 416.761719 489.585938 C 435.488281 483.707031 445.183594 461.070312 451.515625 429.058594 C 457.851562 397.050781 449.6875 393.230469 447.5625 384.789062 C 444.558594 372.867188 456.320312 359.152344 466.742188 358.503906 C 476.414062 357.90625 496.777344 363.949219 494.378906 387.910156 C 491.980469 411.878906 475.390625 493.210938 418.757812 497.035156 C 414.304688 497.335938 404.96875 492.984375 403.335938 488.035156 C 403.335938 488.035156 411.621094 491.199219 416.761719 489.585938 " fill-opacity="1" fill-rule="nonzero"/><path fill="#4b1615" d="M 416.761719 489.585938 L 417.011719 490.378906 C 421.820312 488.871094 426.054688 486.28125 429.773438 482.753906 C 435.355469 477.464844 439.796875 470.085938 443.445312 461.039062 C 447.09375 451.988281 449.953125 441.257812 452.332031 429.21875 C 454.054688 420.535156 454.714844 413.894531 454.714844 408.640625 C 454.71875 401.554688 453.496094 396.992188 452.074219 393.46875 C 451.367188 391.707031 450.617188 390.214844 449.957031 388.796875 C 449.300781 387.378906 448.734375 386.046875 448.367188 384.585938 C 448.0625 383.367188 447.917969 382.125 447.917969 380.878906 C 447.917969 378.304688 448.535156 375.699219 449.613281 373.230469 C 451.226562 369.523438 453.882812 366.125 456.960938 363.628906 C 460.039062 361.125 463.539062 359.53125 466.792969 359.335938 C 467.195312 359.3125 467.621094 359.296875 468.058594 359.296875 C 470.351562 359.296875 473.125 359.648438 475.976562 360.480469 C 480.261719 361.726562 484.707031 364.046875 488.066406 367.828125 C 491.425781 371.613281 493.738281 376.851562 493.742188 384.121094 C 493.742188 385.304688 493.679688 386.539062 493.550781 387.828125 C 492.363281 399.726562 487.621094 425.996094 476.15625 449.664062 C 470.425781 461.5 463.019531 472.683594 453.574219 481.121094 C 444.121094 489.558594 432.660156 495.261719 418.699219 496.207031 C 418.578125 496.214844 418.441406 496.21875 418.304688 496.21875 C 417.277344 496.222656 415.929688 495.976562 414.496094 495.523438 C 412.335938 494.84375 409.96875 493.699219 408.039062 492.316406 C 407.070312 491.621094 406.210938 490.871094 405.535156 490.097656 C 404.863281 489.324219 404.378906 488.535156 404.128906 487.773438 L 403.335938 488.035156 L 403.042969 488.8125 C 403.058594 488.820312 404.398438 489.328125 406.347656 489.84375 C 408.296875 490.355469 410.851562 490.875 413.335938 490.875 C 414.605469 490.875 415.855469 490.742188 417.011719 490.378906 L 416.511719 488.792969 C 415.578125 489.085938 414.484375 489.214844 413.335938 489.214844 C 411.082031 489.214844 408.636719 488.726562 406.769531 488.234375 C 405.839844 487.988281 405.050781 487.742188 404.496094 487.558594 C 404.21875 487.46875 404.003906 487.390625 403.851562 487.335938 C 403.78125 487.3125 403.726562 487.292969 403.6875 487.277344 L 403.648438 487.261719 L 403.636719 487.257812 C 403.335938 487.140625 402.996094 487.210938 402.765625 487.433594 C 402.53125 487.652344 402.445312 487.992188 402.546875 488.296875 C 403.007812 489.675781 403.9375 490.929688 405.117188 492.0625 C 406.894531 493.761719 409.253906 495.195312 411.628906 496.222656 C 412.820312 496.738281 414.011719 497.152344 415.144531 497.433594 C 416.277344 497.722656 417.34375 497.882812 418.304688 497.882812 C 418.476562 497.882812 418.648438 497.878906 418.8125 497.867188 C 433.171875 496.898438 445.019531 491 454.679688 482.363281 C 469.179688 469.402344 478.832031 450.320312 485.117188 432.234375 C 491.394531 414.144531 494.300781 397.046875 495.207031 387.996094 C 495.339844 386.652344 495.40625 385.363281 495.40625 384.121094 C 495.40625 379.039062 494.3125 374.808594 492.503906 371.347656 C 489.792969 366.15625 485.484375 362.71875 480.976562 360.59375 C 476.46875 358.46875 471.746094 357.636719 468.058594 357.632812 C 467.585938 357.632812 467.128906 357.648438 466.691406 357.671875 C 464.210938 357.828125 461.707031 358.667969 459.34375 359.996094 C 455.792969 361.988281 452.542969 365.085938 450.15625 368.738281 C 447.773438 372.394531 446.253906 376.617188 446.253906 380.878906 C 446.253906 382.253906 446.410156 383.632812 446.753906 384.992188 C 447.164062 386.613281 447.777344 388.050781 448.449219 389.496094 C 449.460938 391.667969 450.601562 393.867188 451.496094 396.8125 C 452.390625 399.757812 453.050781 403.464844 453.050781 408.640625 C 453.050781 413.75 452.40625 420.289062 450.703125 428.898438 C 447.542969 444.859375 443.546875 458.453125 438.054688 468.730469 C 435.308594 473.867188 432.191406 478.175781 428.628906 481.546875 C 425.066406 484.921875 421.066406 487.363281 416.511719 488.792969 L 416.761719 489.585938 " fill-opacity="1" fill-rule="nonzero"/><path fill="#ed1d24" d="M 448.660156 478.242188 C 448.660156 478.242188 487.074219 439.328125 485.003906 381.273438 L 448.660156 478.242188 " fill-opacity="1" fill-rule="nonzero"/><path fill="#4b1615" d="M 449.25 478.828125 C 449.289062 478.789062 458.441406 469.515625 467.597656 453.257812 C 476.75 437.007812 485.917969 413.761719 485.917969 385.808594 C 485.917969 384.300781 485.890625 382.777344 485.835938 381.246094 C 485.820312 380.785156 485.433594 380.425781 484.972656 380.445312 C 484.515625 380.460938 484.15625 380.84375 484.171875 381.304688 C 484.226562 382.820312 484.253906 384.320312 484.253906 385.808594 C 484.253906 413.390625 475.207031 436.363281 466.148438 452.445312 C 461.617188 460.480469 457.089844 466.796875 453.699219 471.09375 C 452 473.242188 450.589844 474.890625 449.601562 475.996094 C 449.109375 476.550781 448.722656 476.964844 448.460938 477.246094 C 448.328125 477.382812 448.230469 477.488281 448.164062 477.558594 L 448.089844 477.632812 L 448.066406 477.660156 C 447.742188 477.984375 447.746094 478.511719 448.074219 478.835938 C 448.402344 479.15625 448.929688 479.15625 449.25 478.828125 " fill-opacity="1" fill-rule="nonzero"/><path fill="#6ac632" d="M 456.152344 367.464844 C 456.152344 367.464844 453.003906 361.488281 454.917969 352.722656 C 454.917969 352.722656 440.621094 309.253906 412.949219 327.003906 C 412.949219 327.003906 408.292969 335.585938 404.632812 334.511719 C 400.972656 333.433594 395.023438 319.898438 400.703125 316.820312 C 400.703125 316.820312 408.574219 316.457031 410.265625 318.90625 C 410.265625 318.90625 445.347656 305.105469 459.972656 350.285156 C 459.972656 350.285156 464.8125 357.113281 474.636719 359.269531 C 474.636719 359.269531 464.507812 367.757812 456.152344 367.464844 " fill-opacity="1" fill-rule="nonzero"/><path fill="#4b1615" d="M 456.152344 367.464844 L 456.890625 367.074219 L 456.628906 367.210938 L 456.890625 367.078125 L 456.890625 367.074219 L 456.628906 367.210938 L 456.890625 367.078125 C 456.875 367.046875 455.132812 363.679688 455.132812 358.359375 C 455.132812 356.710938 455.296875 354.882812 455.734375 352.902344 C 455.761719 352.753906 455.757812 352.605469 455.710938 352.464844 C 455.695312 352.425781 453.214844 344.878906 448.289062 337.28125 C 445.820312 333.480469 442.742188 329.664062 439.011719 326.769531 C 435.289062 323.878906 430.886719 321.910156 425.867188 321.914062 C 421.769531 321.910156 417.296875 323.222656 412.5 326.300781 C 412.382812 326.378906 412.285156 326.480469 412.21875 326.605469 L 412.210938 326.625 C 412.101562 326.824219 411.058594 328.691406 409.65625 330.464844 C 408.953125 331.351562 408.160156 332.214844 407.382812 332.828125 C 406.992188 333.132812 406.605469 333.378906 406.25 333.539062 C 405.894531 333.695312 405.570312 333.773438 405.289062 333.769531 C 405.144531 333.769531 405.003906 333.75 404.867188 333.710938 C 404.683594 333.660156 404.425781 333.523438 404.136719 333.296875 C 403.625 332.902344 403.035156 332.234375 402.460938 331.398438 C 401.597656 330.140625 400.765625 328.5 400.164062 326.785156 C 399.5625 325.070312 399.183594 323.273438 399.1875 321.730469 C 399.183594 320.734375 399.34375 319.847656 399.65625 319.144531 C 399.972656 318.441406 400.425781 317.917969 401.101562 317.550781 L 400.703125 316.820312 L 400.742188 317.648438 C 400.742188 317.648438 400.761719 317.648438 400.808594 317.648438 C 400.945312 317.640625 401.289062 317.632812 401.769531 317.632812 C 402.847656 317.632812 404.609375 317.6875 406.214844 317.964844 C 407.019531 318.101562 407.78125 318.296875 408.378906 318.546875 C 408.980469 318.796875 409.398438 319.105469 409.582031 319.378906 C 409.800781 319.699219 410.210938 319.824219 410.570312 319.679688 L 410.578125 319.675781 C 410.820312 319.582031 415.683594 317.753906 422.375 317.753906 C 428.03125 317.753906 434.96875 319.050781 441.621094 323.765625 C 448.273438 328.484375 454.679688 336.644531 459.179688 350.542969 C 459.207031 350.625 459.242188 350.699219 459.292969 350.769531 C 459.324219 350.8125 460.582031 352.578125 463.097656 354.617188 C 465.613281 356.652344 469.394531 358.96875 474.460938 360.082031 L 474.636719 359.269531 L 474.105469 358.632812 L 474.082031 358.648438 C 473.8125 358.871094 471.335938 360.894531 467.964844 362.84375 C 466.28125 363.816406 464.371094 364.773438 462.414062 365.476562 C 460.457031 366.1875 458.453125 366.640625 456.582031 366.640625 C 456.449219 366.640625 456.316406 366.636719 456.179688 366.632812 L 456.152344 367.464844 L 456.890625 367.074219 L 456.152344 367.464844 L 456.125 368.296875 C 456.277344 368.300781 456.429688 368.304688 456.582031 368.304688 C 458.789062 368.300781 461.035156 367.761719 463.179688 366.96875 C 466.394531 365.78125 469.375 364.019531 471.566406 362.554688 C 473.757812 361.089844 475.15625 359.921875 475.171875 359.90625 C 475.417969 359.699219 475.523438 359.378906 475.445312 359.070312 C 475.371094 358.761719 475.128906 358.523438 474.816406 358.457031 C 470.054688 357.410156 466.503906 355.238281 464.144531 353.324219 C 462.964844 352.367188 462.082031 351.476562 461.496094 350.832031 C 461.207031 350.507812 460.992188 350.246094 460.851562 350.066406 C 460.777344 349.980469 460.726562 349.910156 460.691406 349.867188 L 460.65625 349.816406 L 460.648438 349.808594 L 460.648438 349.804688 L 459.972656 350.285156 L 460.761719 350.03125 C 456.183594 335.878906 449.574219 327.363281 442.585938 322.40625 C 435.597656 317.453125 428.277344 316.089844 422.375 316.089844 C 415.15625 316.09375 410.023438 318.109375 409.960938 318.132812 L 410.265625 318.90625 L 410.949219 318.433594 C 410.480469 317.761719 409.785156 317.335938 409.019531 317.011719 C 407.863281 316.53125 406.488281 316.285156 405.175781 316.140625 C 403.863281 316 402.617188 315.96875 401.769531 315.96875 C 401.097656 315.96875 400.675781 315.988281 400.664062 315.988281 C 400.539062 315.992188 400.417969 316.027344 400.308594 316.089844 C 399.292969 316.632812 398.570312 317.484375 398.136719 318.46875 C 397.699219 319.453125 397.523438 320.566406 397.523438 321.730469 C 397.527344 324.480469 398.492188 327.570312 399.789062 330.125 C 400.433594 331.40625 401.167969 332.550781 401.929688 333.449219 C 402.316406 333.902344 402.707031 334.289062 403.113281 334.609375 C 403.515625 334.925781 403.9375 335.171875 404.398438 335.308594 C 404.691406 335.394531 404.992188 335.433594 405.289062 335.433594 C 405.882812 335.433594 406.449219 335.277344 406.980469 335.03125 C 407.914062 334.601562 408.761719 333.902344 409.546875 333.113281 C 410.71875 331.921875 411.738281 330.503906 412.480469 329.378906 C 413.21875 328.25 413.671875 327.414062 413.679688 327.398438 L 412.949219 327.003906 L 413.398438 327.703125 C 417.988281 324.761719 422.128906 323.578125 425.867188 323.574219 C 430.441406 323.578125 434.46875 325.355469 437.992188 328.085938 C 443.273438 332.175781 447.339844 338.410156 450.050781 343.621094 C 451.40625 346.226562 452.429688 348.574219 453.109375 350.269531 C 453.449219 351.113281 453.707031 351.796875 453.878906 352.265625 C 453.964844 352.5 454.027344 352.679688 454.066406 352.804688 C 454.089844 352.863281 454.105469 352.910156 454.113281 352.9375 L 454.128906 352.984375 L 454.917969 352.722656 L 454.105469 352.546875 C 453.644531 354.648438 453.46875 356.601562 453.46875 358.359375 C 453.472656 364.136719 455.378906 367.773438 455.417969 367.851562 C 455.558594 368.117188 455.828125 368.285156 456.125 368.296875 L 456.152344 367.464844 " fill-opacity="1" fill-rule="nonzero"/><path fill="#519e28" d="M 465.71875 364.050781 C 461.847656 354.550781 456.167969 345.835938 449.03125 338.457031 C 448.789062 338.066406 448.542969 337.671875 448.289062 337.28125 C 445.820312 333.480469 442.742188 329.664062 439.011719 326.769531 C 435.292969 323.882812 430.898438 321.917969 425.882812 321.914062 C 422.828125 320.488281 419.660156 319.257812 416.382812 318.234375 C 418.105469 317.957031 420.132812 317.753906 422.363281 317.753906 C 422.367188 317.753906 422.371094 317.753906 422.375 317.753906 C 428.03125 317.753906 434.96875 319.050781 441.621094 323.765625 C 448.273438 328.484375 454.679688 336.644531 459.179688 350.542969 C 459.207031 350.625 459.242188 350.699219 459.292969 350.769531 C 459.324219 350.8125 460.582031 352.578125 463.097656 354.617188 C 464.722656 355.933594 466.875 357.367188 469.566406 358.515625 C 469.484375 358.511719 469.402344 358.507812 469.320312 358.5 C 469.863281 359.324219 470.394531 360.152344 470.910156 360.992188 C 470.050781 361.574219 469.054688 362.210938 467.964844 362.84375 C 467.253906 363.253906 466.5 363.660156 465.71875 364.050781 " fill-opacity="1" fill-rule="nonzero"/><path fill="#3d1211" d="M 466.027344 364.824219 C 465.925781 364.566406 465.824219 364.308594 465.71875 364.050781 C 466.5 363.660156 467.253906 363.253906 467.964844 362.84375 C 469.054688 362.210938 470.050781 361.574219 470.910156 360.992188 C 471.054688 361.226562 471.199219 361.464844 471.34375 361.703125 C 469.886719 362.683594 468.050781 363.820312 466.027344 364.824219 M 474.636719 359.269531 C 472.859375 358.851562 471.136719 358.609375 469.566406 358.515625 C 466.875 357.367188 464.722656 355.933594 463.097656 354.617188 C 460.582031 352.578125 459.324219 350.8125 459.292969 350.769531 C 459.242188 350.699219 459.207031 350.625 459.179688 350.542969 C 454.679688 336.644531 448.273438 328.484375 441.621094 323.765625 C 434.96875 319.050781 428.03125 317.753906 422.375 317.753906 C 422.371094 317.753906 422.367188 317.753906 422.363281 317.753906 C 420.132812 317.753906 418.105469 317.957031 416.382812 318.234375 C 415.804688 318.050781 415.222656 317.875 414.632812 317.707031 C 416.683594 317.289062 419.34375 316.921875 422.378906 316.921875 C 433.9375 316.921875 450.894531 322.242188 459.972656 350.285156 C 459.972656 350.285156 464.8125 357.113281 474.636719 359.269531 M 449.03125 338.457031 C 448.097656 337.492188 447.140625 336.546875 446.15625 335.632812 C 441.710938 329.417969 435.59375 323.703125 427.839844 322.855469 C 427.191406 322.535156 426.539062 322.21875 425.882812 321.914062 C 430.898438 321.917969 435.292969 323.882812 439.011719 326.769531 C 442.742188 329.664062 445.820312 333.480469 448.289062 337.28125 C 448.542969 337.671875 448.789062 338.066406 449.03125 338.457031 " fill-opacity="1" fill-rule="nonzero"/><path fill="#f14852" d="M 422.945312 494.675781 C 423.203125 494.640625 426.878906 494.0625 431.726562 490.449219 C 436.578125 486.839844 442.5625 480.210938 447.519531 468.265625 C 451.675781 458.246094 455.558594 447.558594 458.414062 437.421875 C 459.84375 432.355469 461.015625 427.429688 461.832031 422.785156 C 462.648438 418.136719 463.109375 413.777344 463.113281 409.828125 C 463.109375 407.113281 462.890625 404.589844 462.398438 402.296875 C 461.234375 396.871094 459.464844 392.753906 458.054688 389.320312 C 457.347656 387.601562 456.734375 386.058594 456.308594 384.609375 C 455.882812 383.160156 455.640625 381.820312 455.640625 380.449219 C 455.644531 379.402344 455.78125 378.328125 456.113281 377.152344 C 456.445312 375.976562 456.976562 374.695312 457.773438 373.257812 C 458.296875 372.316406 457.957031 371.128906 457.015625 370.605469 C 456.074219 370.082031 454.886719 370.425781 454.363281 371.367188 C 453.445312 373.019531 452.789062 374.578125 452.359375 376.089844 C 451.933594 377.59375 451.738281 379.046875 451.742188 380.449219 C 451.738281 382.285156 452.066406 384.019531 452.566406 385.710938 C 453.316406 388.253906 454.433594 390.710938 455.542969 393.484375 C 456.652344 396.257812 457.773438 399.34375 458.585938 403.117188 C 459.003906 405.066406 459.210938 407.324219 459.210938 409.828125 C 459.210938 413.46875 458.777344 417.625 457.988281 422.105469 C 455.628906 435.558594 450.078125 451.917969 443.914062 466.769531 C 439.179688 478.164062 433.640625 484.152344 429.394531 487.320312 C 427.269531 488.902344 425.457031 489.78125 424.210938 490.265625 C 423.585938 490.503906 423.097656 490.644531 422.789062 490.726562 C 422.632812 490.765625 422.519531 490.789062 422.453125 490.800781 L 422.390625 490.8125 L 422.386719 490.816406 L 422.566406 491.976562 L 422.398438 490.8125 L 422.386719 490.816406 L 422.566406 491.976562 L 422.398438 490.8125 C 421.332031 490.960938 420.589844 491.949219 420.742188 493.015625 C 420.890625 494.082031 421.878906 494.824219 422.945312 494.675781 " fill-opacity="1" fill-rule="nonzero"/><path fill="#8e191d" d="M 446.101562 486.90625 C 451.746094 479.363281 456.9375 471.433594 461.472656 463.214844 C 463.445312 460.273438 465.519531 456.945312 467.597656 453.257812 C 476.75 437.007812 485.917969 413.761719 485.917969 385.808594 C 485.917969 384.300781 485.890625 382.777344 485.835938 381.246094 C 485.820312 380.796875 485.453125 380.445312 485.003906 380.445312 C 484.996094 380.445312 484.984375 380.445312 484.972656 380.445312 C 484.515625 380.460938 484.15625 380.84375 484.171875 381.304688 C 484.195312 381.984375 484.214844 382.664062 484.230469 383.34375 L 481.765625 389.917969 C 480.132812 380.253906 476.734375 370.898438 471.765625 362.421875 C 473.242188 361.425781 474.332031 360.582031 474.84375 360.171875 C 475.222656 360.265625 475.597656 360.371094 475.976562 360.480469 C 480.261719 361.726562 484.707031 364.046875 488.066406 367.828125 C 491.425781 371.613281 493.738281 376.851562 493.742188 384.121094 C 493.742188 385.304688 493.679688 386.539062 493.550781 387.828125 C 492.363281 399.726562 487.621094 425.996094 476.15625 449.664062 C 470.425781 461.5 463.019531 472.683594 453.574219 481.121094 C 451.210938 483.230469 448.722656 485.171875 446.101562 486.90625 " fill-opacity="1" fill-rule="nonzero"/><path fill="#300b0d" d="M 444.664062 488.800781 C 445.148438 488.171875 445.625 487.539062 446.101562 486.90625 C 448.722656 485.171875 451.210938 483.230469 453.574219 481.121094 C 463.019531 472.683594 470.425781 461.5 476.15625 449.664062 C 487.621094 425.996094 492.363281 399.726562 493.550781 387.828125 C 493.679688 386.539062 493.742188 385.304688 493.742188 384.121094 C 493.738281 376.851562 491.425781 371.613281 488.066406 367.828125 C 484.707031 364.046875 480.261719 361.726562 475.976562 360.480469 C 475.597656 360.371094 475.222656 360.265625 474.84375 360.171875 C 475.054688 360.003906 475.167969 359.910156 475.171875 359.90625 C 475.3125 359.789062 475.40625 359.636719 475.445312 359.472656 C 485.148438 362.03125 496.179688 369.917969 494.378906 387.910156 C 492.394531 407.738281 480.699219 466.804688 444.664062 488.800781 " fill-opacity="1" fill-rule="nonzero"/><path fill="#8e191d" d="M 482.863281 404.515625 C 482.949219 399.621094 482.574219 394.730469 481.765625 389.917969 L 484.230469 383.34375 C 484.246094 384.167969 484.253906 384.992188 484.253906 385.808594 C 484.253906 392.308594 483.75 398.554688 482.863281 404.515625 " fill-opacity="1" fill-rule="nonzero"/><path fill="#300b0d" d="M 461.472656 463.214844 C 461.878906 462.484375 462.277344 461.75 462.671875 461.011719 C 466.582031 453.691406 470.023438 446.132812 473.957031 438.824219 C 479.796875 427.984375 482.652344 416.230469 482.863281 404.515625 C 483.75 398.554688 484.253906 392.308594 484.253906 385.808594 C 484.253906 384.992188 484.246094 384.167969 484.230469 383.34375 C 484.214844 382.664062 484.195312 381.984375 484.171875 381.304688 C 484.15625 380.84375 484.515625 380.460938 484.972656 380.445312 C 484.984375 380.445312 484.996094 380.445312 485.003906 380.445312 C 485.453125 380.445312 485.820312 380.796875 485.835938 381.246094 C 485.890625 382.777344 485.917969 384.300781 485.917969 385.808594 C 485.917969 413.761719 476.75 437.007812 467.597656 453.257812 C 465.519531 456.945312 463.445312 460.273438 461.472656 463.214844 " fill-opacity="1" fill-rule="nonzero"/><path fill="#300b0d" d="M 471.765625 362.421875 C 471.625 362.179688 471.484375 361.941406 471.34375 361.703125 C 473.3125 360.371094 474.574219 359.320312 474.636719 359.269531 C 474.90625 359.335938 475.175781 359.402344 475.445312 359.472656 C 475.40625 359.636719 475.3125 359.789062 475.171875 359.90625 C 475.167969 359.910156 475.054688 360.003906 474.84375 360.171875 C 474.332031 360.582031 473.242188 361.425781 471.765625 362.421875 " fill-opacity="1" fill-rule="nonzero"/><path fill="#401b1c" d="M 470.910156 360.992188 C 470.394531 360.152344 469.863281 359.324219 469.320312 358.5 C 469.402344 358.507812 469.484375 358.511719 469.566406 358.515625 C 470.5625 358.941406 471.636719 359.332031 472.785156 359.660156 C 472.28125 360.035156 471.644531 360.492188 470.910156 360.992188 " fill-opacity="1" fill-rule="nonzero"/><path fill="#27090a" d="M 471.34375 361.703125 C 471.199219 361.464844 471.054688 361.226562 470.910156 360.992188 C 471.644531 360.492188 472.28125 360.035156 472.785156 359.660156 C 471.636719 359.332031 470.5625 358.941406 469.566406 358.515625 C 471.136719 358.609375 472.859375 358.851562 474.636719 359.269531 C 474.574219 359.320312 473.3125 360.371094 471.34375 361.703125 " fill-opacity="1" fill-rule="nonzero"/><g clip-path="url(#0cd89ae017)"><path fill="#4b1615" d="M 445.285156 346.230469 L 445.257812 346.136719 L 445.25 346.113281 C 445.128906 345.707031 444.992188 345.296875 444.839844 344.851562 C 444.8125 344.765625 444.78125 344.675781 444.75 344.585938 L 444.714844 344.492188 C 444.609375 344.195312 444.503906 343.902344 444.394531 343.613281 C 444.34375 343.480469 444.289062 343.347656 444.238281 343.214844 C 444.125 342.921875 444.007812 342.632812 443.886719 342.351562 L 443.84375 342.25 C 443.816406 342.179688 443.785156 342.105469 443.753906 342.035156 C 443.574219 341.617188 443.40625 341.246094 443.238281 340.890625 C 443.214844 340.839844 443.1875 340.78125 443.160156 340.722656 L 443.144531 340.691406 C 443.003906 340.398438 442.851562 340.089844 442.695312 339.789062 C 442.648438 339.695312 442.59375 339.59375 442.542969 339.496094 L 442.511719 339.441406 C 442.382812 339.1875 442.246094 338.941406 442.113281 338.699219 L 442.082031 338.644531 C 442.027344 338.542969 441.972656 338.445312 441.914062 338.34375 C 441.765625 338.082031 441.605469 337.8125 441.445312 337.542969 L 441.414062 337.492188 C 441.382812 337.441406 441.355469 337.390625 441.324219 337.34375 C 441.121094 337.011719 440.921875 336.695312 440.703125 336.363281 C 440.65625 336.289062 440.613281 336.226562 440.570312 336.164062 L 440.519531 336.089844 C 440.367188 335.859375 440.210938 335.636719 440.058594 335.414062 C 439.972656 335.296875 439.898438 335.1875 439.820312 335.078125 C 439.671875 334.875 439.519531 334.667969 439.367188 334.464844 L 439.316406 334.394531 C 439.257812 334.320312 439.207031 334.246094 439.148438 334.171875 C 438.941406 333.902344 438.726562 333.632812 438.515625 333.371094 L 438.441406 333.277344 L 438.398438 333.226562 C 438.191406 332.976562 437.992188 332.734375 437.785156 332.5 C 437.71875 332.417969 437.648438 332.34375 437.582031 332.265625 L 437.527344 332.207031 C 437.378906 332.035156 437.226562 331.863281 437.074219 331.695312 C 436.996094 331.613281 436.917969 331.527344 436.839844 331.441406 C 437.070312 331.636719 437.296875 331.835938 437.527344 332.042969 L 437.585938 332.097656 L 437.710938 332.214844 C 437.828125 332.324219 437.945312 332.429688 438.0625 332.542969 C 438.121094 332.597656 438.175781 332.652344 438.226562 332.699219 L 438.269531 332.746094 C 438.457031 332.929688 438.640625 333.109375 438.824219 333.292969 L 438.878906 333.351562 C 438.945312 333.417969 439.011719 333.488281 439.082031 333.558594 C 439.175781 333.660156 439.273438 333.761719 439.371094 333.867188 C 439.464844 333.96875 439.5625 334.070312 439.65625 334.175781 C 439.769531 334.300781 439.882812 334.425781 439.992188 334.546875 C 440.117188 334.691406 440.25 334.84375 440.382812 334.996094 L 440.558594 335.203125 L 440.621094 335.277344 C 440.726562 335.402344 440.832031 335.527344 440.9375 335.65625 L 441.027344 335.765625 L 441.148438 335.914062 C 441.304688 336.105469 441.460938 336.304688 441.621094 336.503906 L 441.722656 336.636719 L 441.808594 336.75 C 441.914062 336.890625 442.027344 337.035156 442.136719 337.183594 L 442.328125 337.441406 C 446.863281 343.570312 449.675781 350.515625 450.617188 353.042969 C 449.925781 356.917969 450.085938 360.289062 450.5 362.890625 C 448.941406 364.59375 447.582031 366.453125 446.460938 368.410156 C 446.488281 368.203125 446.515625 368.003906 446.542969 367.800781 C 446.601562 367.386719 446.652344 366.976562 446.703125 366.566406 L 446.714844 366.484375 C 446.734375 366.316406 446.753906 366.144531 446.773438 365.976562 C 446.824219 365.507812 446.871094 365.023438 446.914062 364.535156 L 446.921875 364.4375 C 446.929688 364.371094 446.9375 364.304688 446.941406 364.238281 C 446.988281 363.683594 447.023438 363.132812 447.058594 362.535156 C 447.0625 362.417969 447.070312 362.300781 447.074219 362.183594 L 447.078125 362.039062 C 447.097656 361.640625 447.113281 361.242188 447.121094 360.847656 C 447.125 360.65625 447.128906 360.464844 447.132812 360.277344 C 447.136719 359.894531 447.140625 359.511719 447.136719 359.128906 L 447.136719 358.992188 C 447.136719 358.875 447.136719 358.757812 447.132812 358.640625 C 447.125 358.074219 447.109375 357.5625 447.085938 357.070312 C 447.085938 357.019531 447.082031 356.964844 447.078125 356.902344 C 447.054688 356.441406 447.023438 355.984375 446.988281 355.527344 C 446.980469 355.398438 446.96875 355.269531 446.957031 355.136719 L 446.945312 355.035156 C 446.914062 354.683594 446.882812 354.332031 446.84375 353.988281 L 446.839844 353.957031 C 446.824219 353.800781 446.808594 353.644531 446.789062 353.492188 C 446.742188 353.109375 446.691406 352.738281 446.636719 352.371094 L 446.625 352.277344 C 446.613281 352.195312 446.601562 352.113281 446.589844 352.03125 C 446.515625 351.546875 446.433594 351.070312 446.347656 350.613281 C 446.332031 350.535156 446.316406 350.449219 446.296875 350.363281 L 446.28125 350.277344 C 446.210938 349.921875 446.140625 349.570312 446.0625 349.21875 C 446.035156 349.089844 446.003906 348.957031 445.972656 348.824219 L 445.960938 348.777344 C 445.882812 348.449219 445.808594 348.132812 445.726562 347.820312 L 445.703125 347.734375 C 445.679688 347.628906 445.648438 347.519531 445.621094 347.410156 C 445.507812 347 445.398438 346.601562 445.285156 346.230469 Z M 401.761719 312.640625 C 401.035156 312.640625 400.5625 312.664062 400.511719 312.664062 C 399.882812 312.695312 399.269531 312.863281 398.71875 313.160156 C 397.128906 314.023438 395.09375 315.789062 394.414062 319.3125 C 393.441406 324.363281 395.917969 331.144531 398.957031 335.0625 C 399.214844 335.554688 399.5 335.984375 399.816406 336.363281 C 400.757812 337.496094 402.542969 338.847656 405.691406 338.847656 C 409.121094 338.847656 413.066406 337.203125 415.003906 336.289062 C 419.628906 336.53125 423.355469 337.816406 426.097656 340.121094 C 426.65625 340.589844 427.1875 341.109375 427.675781 341.671875 L 427.703125 341.699219 C 428.40625 342.515625 429.050781 343.4375 429.609375 344.445312 L 429.636719 344.5 C 429.984375 345.136719 430.316406 345.824219 430.609375 346.550781 L 430.625 346.589844 L 430.636719 346.621094 C 430.933594 347.347656 431.195312 348.105469 431.421875 348.882812 L 431.421875 348.886719 L 431.429688 348.917969 C 431.53125 349.253906 431.628906 349.621094 431.726562 350.023438 L 431.738281 350.078125 L 431.757812 350.164062 C 431.945312 350.929688 432.101562 351.726562 432.234375 352.546875 L 432.257812 352.6875 L 432.265625 352.753906 C 432.324219 353.101562 432.371094 353.453125 432.414062 353.800781 L 432.429688 353.90625 L 432.4375 353.976562 C 432.488281 354.386719 432.53125 354.792969 432.566406 355.199219 L 432.570312 355.238281 L 432.578125 355.347656 C 432.609375 355.699219 432.632812 356.050781 432.65625 356.402344 L 432.675781 356.6875 C 432.695312 357.070312 432.710938 357.453125 432.726562 357.835938 C 432.957031 365.230469 431.503906 372.15625 430.902344 374.6875 C 428.171875 377.523438 426.425781 380.414062 425.320312 382.804688 C 421.671875 383.695312 418.230469 385.222656 415.265625 387.28125 C 411.199219 390.105469 408.265625 393.796875 406.773438 397.964844 C 405.96875 400.21875 405.648438 402.378906 405.335938 404.472656 C 404.402344 410.753906 403.242188 418.570312 386.394531 435.40625 C 365.257812 456.535156 349.078125 466.375 335.472656 466.375 C 332.90625 466.375 330.375 466.015625 327.949219 465.300781 C 325.089844 464.460938 321.277344 460.109375 319.878906 458.128906 C 319.09375 457.019531 317.820312 456.371094 316.484375 456.371094 C 316.25 456.371094 316.011719 456.394531 315.773438 456.433594 C 314.191406 456.710938 312.90625 457.871094 312.476562 459.417969 C 311.230469 463.894531 313.355469 468.941406 314.730469 471.550781 C 316.792969 475.453125 319.585938 478.6875 322.210938 480.195312 C 331.636719 485.628906 341.992188 488.382812 352.976562 488.382812 C 391.882812 488.382812 428.765625 454.429688 442.816406 439.832031 L 442.855469 439.789062 C 443.777344 438.832031 444.691406 437.863281 445.582031 436.898438 C 442.621094 449.617188 439.175781 459.570312 435.117188 467.160156 C 429.800781 477.109375 423.390625 483.148438 415.515625 485.617188 C 414.957031 485.792969 414.203125 485.886719 413.335938 485.886719 C 409.449219 485.886719 404.863281 484.164062 404.820312 484.144531 C 404.339844 483.964844 403.839844 483.875 403.339844 483.875 C 402.289062 483.875 401.253906 484.277344 400.464844 485.03125 C 399.304688 486.140625 398.886719 487.816406 399.386719 489.335938 C 401.660156 496.226562 412.261719 501.210938 418.304688 501.210938 C 418.554688 501.210938 418.800781 501.203125 419.039062 501.1875 C 430.375 500.421875 440.914062 496.671875 450.359375 490.039062 L 450.382812 490.023438 C 477.828125 470.742188 490.054688 431.53125 494.898438 409.871094 L 494.90625 409.835938 C 495.261719 408.238281 495.601562 406.632812 495.917969 405.058594 L 495.929688 404.988281 C 496.132812 403.972656 496.328125 402.972656 496.503906 402.015625 L 496.511719 401.976562 C 496.597656 401.5 496.683594 401.03125 496.769531 400.566406 L 496.777344 400.511719 L 496.789062 400.449219 C 496.953125 399.527344 497.109375 398.613281 497.25 397.746094 L 497.253906 397.710938 L 497.257812 397.683594 C 497.328125 397.257812 497.394531 396.839844 497.460938 396.425781 L 497.472656 396.359375 L 497.480469 396.289062 C 497.609375 395.472656 497.730469 394.667969 497.835938 393.894531 L 497.851562 393.792969 C 497.90625 393.40625 497.957031 393.042969 498.003906 392.6875 L 498.019531 392.566406 L 498.023438 392.523438 C 498.121094 391.808594 498.207031 391.121094 498.28125 390.464844 L 498.292969 390.371094 L 498.300781 390.320312 C 498.339844 389.992188 498.371094 389.6875 498.40625 389.386719 L 498.414062 389.308594 L 498.421875 389.234375 C 498.457031 388.910156 498.488281 388.613281 498.519531 388.324219 C 498.558594 387.929688 498.589844 387.539062 498.621094 387.152344 C 498.625 387.058594 498.632812 386.964844 498.636719 386.875 L 498.644531 386.769531 C 498.660156 386.515625 498.675781 386.253906 498.6875 385.992188 C 498.695312 385.878906 498.699219 385.765625 498.703125 385.652344 L 498.707031 385.546875 C 498.714844 385.320312 498.71875 385.085938 498.726562 384.855469 C 498.726562 384.738281 498.726562 384.621094 498.726562 384.507812 L 498.730469 384.398438 C 498.730469 384.175781 498.730469 383.957031 498.730469 383.738281 C 498.726562 383.578125 498.722656 383.425781 498.71875 383.273438 C 498.714844 383.066406 498.710938 382.851562 498.703125 382.636719 C 498.695312 382.484375 498.691406 382.335938 498.683594 382.1875 C 498.671875 381.976562 498.65625 381.765625 498.644531 381.558594 C 498.632812 381.40625 498.625 381.261719 498.609375 381.117188 C 498.59375 380.90625 498.574219 380.699219 498.550781 380.488281 C 498.539062 380.34375 498.523438 380.207031 498.507812 380.070312 C 498.484375 379.859375 498.457031 379.652344 498.433594 379.441406 L 498.417969 379.347656 C 498.40625 379.246094 498.390625 379.144531 498.378906 379.046875 C 498.347656 378.824219 498.3125 378.609375 498.273438 378.390625 L 498.261719 378.316406 C 498.25 378.222656 498.234375 378.128906 498.214844 378.039062 C 498.175781 377.804688 498.128906 377.5625 498.082031 377.324219 L 498.070312 377.261719 C 498.054688 377.195312 498.042969 377.125 498.027344 377.058594 C 497.890625 376.414062 497.734375 375.769531 497.558594 375.140625 C 497.546875 375.09375 497.527344 375.03125 497.507812 374.96875 C 497.4375 374.722656 497.363281 374.46875 497.28125 374.21875 C 497.261719 374.15625 497.238281 374.082031 497.210938 374.007812 L 497.195312 373.949219 C 497.125 373.738281 497.054688 373.527344 496.980469 373.324219 C 496.957031 373.25 496.925781 373.171875 496.898438 373.089844 L 496.871094 373.023438 C 496.800781 372.828125 496.730469 372.636719 496.65625 372.449219 C 496.609375 372.339844 496.574219 372.242188 496.53125 372.144531 C 496.453125 371.949219 496.378906 371.769531 496.300781 371.589844 C 496.253906 371.484375 496.207031 371.378906 496.160156 371.273438 C 496.082031 371.101562 496.003906 370.929688 495.921875 370.753906 C 495.875 370.648438 495.820312 370.542969 495.769531 370.4375 C 495.691406 370.277344 495.605469 370.109375 495.519531 369.941406 L 495.5 369.902344 C 495.453125 369.8125 495.40625 369.726562 495.359375 369.636719 C 495.277344 369.476562 495.183594 369.308594 495.089844 369.140625 L 495.074219 369.109375 C 495.027344 369.023438 494.980469 368.941406 494.933594 368.859375 C 494.835938 368.695312 494.738281 368.527344 494.636719 368.359375 L 494.601562 368.304688 C 494.5625 368.238281 494.523438 368.171875 494.484375 368.109375 C 494.371094 367.929688 494.257812 367.753906 494.140625 367.578125 L 494.121094 367.546875 C 494.085938 367.492188 494.054688 367.4375 494.019531 367.386719 C 493.863281 367.160156 493.71875 366.945312 493.570312 366.738281 L 493.527344 366.679688 C 493.351562 366.433594 493.179688 366.203125 493.003906 365.972656 L 492.917969 365.859375 C 492.769531 365.671875 492.625 365.492188 492.480469 365.3125 C 492.4375 365.257812 492.386719 365.199219 492.339844 365.144531 L 492.296875 365.09375 C 492.183594 364.957031 492.0625 364.816406 491.945312 364.679688 C 491.886719 364.617188 491.828125 364.550781 491.769531 364.484375 L 491.722656 364.429688 C 491.605469 364.300781 491.496094 364.183594 491.390625 364.066406 C 491.3125 363.984375 491.238281 363.90625 491.160156 363.824219 L 491.140625 363.804688 C 491.035156 363.691406 490.929688 363.582031 490.820312 363.476562 C 490.730469 363.382812 490.640625 363.292969 490.546875 363.203125 C 490.453125 363.109375 490.351562 363.011719 490.25 362.914062 C 490.148438 362.8125 490.050781 362.722656 489.957031 362.636719 C 489.863281 362.550781 489.757812 362.453125 489.652344 362.359375 C 489.554688 362.273438 489.457031 362.183594 489.355469 362.097656 C 489.257812 362.011719 489.160156 361.929688 489.066406 361.847656 L 489.011719 361.804688 C 488.921875 361.726562 488.832031 361.652344 488.742188 361.578125 C 488.648438 361.5 488.554688 361.421875 488.457031 361.347656 L 488.414062 361.3125 C 488.320312 361.238281 488.222656 361.160156 488.125 361.085938 L 487.9375 360.9375 L 487.871094 360.890625 C 487.738281 360.789062 487.617188 360.695312 487.496094 360.605469 L 487.355469 360.507812 L 487.316406 360.480469 C 486.597656 359.957031 485.84375 359.464844 485.078125 359.007812 L 485.019531 358.972656 L 484.988281 358.957031 C 484.816406 358.855469 484.644531 358.753906 484.46875 358.65625 C 484.417969 358.628906 484.375 358.601562 484.332031 358.578125 C 484.175781 358.492188 483.996094 358.394531 483.820312 358.300781 L 483.789062 358.285156 L 483.703125 358.238281 C 483.53125 358.144531 483.347656 358.050781 483.164062 357.960938 L 483.066406 357.910156 C 482.882812 357.820312 482.699219 357.730469 482.511719 357.640625 L 482.425781 357.597656 C 482.230469 357.507812 482.035156 357.414062 481.839844 357.328125 L 481.796875 357.3125 C 479.855469 356.441406 477.796875 355.742188 475.675781 355.238281 C 475.625 355.226562 475.578125 355.214844 475.53125 355.203125 C 468.78125 353.726562 464.808594 349.597656 463.691406 348.285156 C 463.558594 347.890625 463.417969 347.476562 463.261719 347.03125 C 463.210938 346.886719 463.160156 346.746094 463.113281 346.605469 L 463.046875 346.425781 C 462.886719 345.976562 462.722656 345.53125 462.558594 345.089844 C 462.476562 344.878906 462.394531 344.664062 462.3125 344.453125 C 462.136719 343.992188 461.960938 343.546875 461.78125 343.105469 L 461.71875 342.953125 C 461.671875 342.835938 461.628906 342.722656 461.578125 342.613281 C 461.328125 342.007812 461.078125 341.421875 460.835938 340.871094 C 460.792969 340.78125 460.757812 340.695312 460.71875 340.609375 L 460.660156 340.488281 C 460.460938 340.046875 460.257812 339.605469 460.054688 339.175781 C 459.964844 338.988281 459.871094 338.796875 459.78125 338.609375 C 459.597656 338.234375 459.414062 337.867188 459.230469 337.503906 L 459.15625 337.355469 C 459.089844 337.226562 459.019531 337.09375 458.953125 336.964844 C 458.730469 336.535156 458.5 336.109375 458.273438 335.691406 L 458.230469 335.621094 C 458.195312 335.550781 458.15625 335.480469 458.121094 335.410156 C 457.855469 334.9375 457.578125 334.457031 457.277344 333.949219 C 457.21875 333.851562 457.152344 333.746094 457.089844 333.644531 L 457.015625 333.523438 C 456.808594 333.183594 456.601562 332.84375 456.390625 332.511719 C 456.289062 332.355469 456.1875 332.195312 456.085938 332.035156 C 455.871094 331.710938 455.660156 331.390625 455.449219 331.078125 L 455.390625 330.992188 C 455.316406 330.886719 455.242188 330.777344 455.171875 330.671875 C 454.847656 330.207031 454.546875 329.785156 454.257812 329.394531 C 454.222656 329.347656 454.191406 329.304688 454.160156 329.265625 L 454.144531 329.242188 C 453.882812 328.890625 453.601562 328.523438 453.316406 328.164062 C 453.25 328.078125 453.175781 327.988281 453.101562 327.898438 L 453.015625 327.789062 C 452.789062 327.503906 452.566406 327.234375 452.34375 326.972656 C 452.230469 326.835938 452.125 326.710938 452.019531 326.589844 C 451.769531 326.296875 451.519531 326.015625 451.269531 325.738281 L 451.207031 325.667969 C 451.148438 325.605469 451.09375 325.542969 451.035156 325.476562 C 450.71875 325.132812 450.386719 324.785156 450.054688 324.445312 C 449.992188 324.378906 449.933594 324.320312 449.878906 324.265625 L 449.804688 324.195312 C 449.554688 323.945312 449.300781 323.695312 449.042969 323.445312 C 448.929688 323.335938 448.816406 323.230469 448.699219 323.125 C 448.460938 322.902344 448.222656 322.683594 447.980469 322.46875 L 447.902344 322.398438 C 447.820312 322.324219 447.738281 322.25 447.65625 322.179688 C 447.351562 321.914062 447.039062 321.648438 446.734375 321.398438 L 446.644531 321.320312 C 446.304688 321.046875 445.964844 320.777344 445.59375 320.496094 C 445.523438 320.441406 445.453125 320.386719 445.386719 320.339844 L 445.289062 320.265625 C 445.03125 320.074219 444.785156 319.894531 444.535156 319.71875 C 444.414062 319.628906 444.296875 319.546875 444.179688 319.46875 C 443.921875 319.289062 443.667969 319.117188 443.414062 318.949219 L 443.316406 318.886719 C 443.25 318.839844 443.179688 318.792969 443.109375 318.75 C 442.753906 318.519531 442.402344 318.300781 442.0625 318.097656 C 442.007812 318.0625 441.953125 318.03125 441.898438 318 L 441.863281 317.980469 C 441.578125 317.8125 441.285156 317.644531 440.996094 317.480469 C 440.902344 317.429688 440.804688 317.378906 440.710938 317.328125 L 440.644531 317.289062 C 440.390625 317.15625 440.148438 317.027344 439.90625 316.902344 C 439.789062 316.839844 439.664062 316.777344 439.542969 316.71875 C 439.265625 316.578125 438.988281 316.445312 438.710938 316.316406 L 438.671875 316.296875 C 438.605469 316.265625 438.539062 316.230469 438.472656 316.203125 C 438.132812 316.046875 437.78125 315.890625 437.429688 315.742188 C 437.359375 315.714844 437.285156 315.683594 437.207031 315.652344 L 437.121094 315.617188 C 436.863281 315.511719 436.617188 315.414062 436.371094 315.316406 C 436.242188 315.265625 436.113281 315.21875 435.984375 315.167969 C 435.742188 315.078125 435.511719 314.996094 435.277344 314.914062 L 435.214844 314.894531 C 435.113281 314.859375 435.011719 314.820312 434.914062 314.789062 C 434.597656 314.679688 434.277344 314.578125 433.960938 314.476562 L 433.804688 314.433594 L 433.746094 314.414062 C 433.449219 314.324219 433.152344 314.238281 432.855469 314.15625 C 432.753906 314.128906 432.644531 314.097656 432.53125 314.070312 L 432.472656 314.054688 C 432.253906 313.996094 432.039062 313.941406 431.824219 313.886719 C 431.671875 313.851562 431.539062 313.820312 431.410156 313.789062 C 431.195312 313.738281 430.980469 313.691406 430.765625 313.644531 L 430.679688 313.625 C 430.585938 313.605469 430.488281 313.582031 430.390625 313.566406 C 430.074219 313.5 429.761719 313.4375 429.449219 313.382812 C 429.347656 313.363281 429.253906 313.347656 429.160156 313.332031 L 429.0625 313.316406 C 428.863281 313.285156 428.660156 313.25 428.464844 313.222656 C 428.300781 313.195312 428.152344 313.175781 428.003906 313.152344 C 427.84375 313.132812 427.660156 313.105469 427.476562 313.082031 C 427.335938 313.066406 427.183594 313.046875 427.035156 313.03125 C 426.847656 313.007812 426.664062 312.988281 426.480469 312.96875 C 426.269531 312.949219 426.058594 312.929688 425.847656 312.910156 C 425.636719 312.894531 425.4375 312.875 425.234375 312.863281 C 425.0625 312.851562 424.90625 312.84375 424.753906 312.832031 C 424.613281 312.824219 424.46875 312.816406 424.324219 312.808594 C 424.152344 312.800781 423.996094 312.792969 423.835938 312.789062 L 423.449219 312.78125 C 423.269531 312.773438 423.101562 312.769531 422.933594 312.769531 C 422.871094 312.765625 422.792969 312.765625 422.714844 312.765625 L 422.355469 312.765625 C 422.105469 312.765625 421.851562 312.769531 421.605469 312.773438 L 421.535156 312.773438 L 421.347656 312.777344 C 421.164062 312.78125 420.984375 312.785156 420.804688 312.792969 L 420.554688 312.804688 C 420.363281 312.8125 420.179688 312.820312 420 312.832031 L 419.808594 312.84375 C 419.203125 312.878906 418.585938 312.929688 417.980469 312.992188 L 417.871094 313.003906 C 417.679688 313.023438 417.488281 313.046875 417.304688 313.066406 L 417.265625 313.070312 L 417.234375 313.074219 C 414.65625 313.390625 412.546875 313.875 411.066406 314.285156 C 409.523438 313.492188 406.765625 312.640625 401.761719 312.640625 Z M 453.644531 403.578125 C 452.667969 393.625 448.90625 390.132812 447.5625 384.789062 C 445.714844 377.460938 449.449219 369.460938 455.015625 364.230469 C 454.359375 361.628906 453.851562 357.613281 454.917969 352.722656 C 454.917969 352.722656 451.804688 343.253906 445.671875 334.960938 C 445.601562 334.871094 445.53125 334.777344 445.464844 334.6875 C 445.34375 334.527344 445.222656 334.367188 445.101562 334.210938 C 445.035156 334.121094 444.96875 334.03125 444.898438 333.945312 C 444.726562 333.726562 444.554688 333.507812 444.378906 333.292969 C 444.304688 333.199219 444.226562 333.109375 444.152344 333.015625 C 444.035156 332.875 443.917969 332.734375 443.800781 332.589844 C 443.714844 332.492188 443.625 332.386719 443.539062 332.285156 C 443.394531 332.117188 443.246094 331.949219 443.097656 331.78125 C 442.976562 331.644531 442.855469 331.511719 442.730469 331.375 C 442.625 331.261719 442.519531 331.144531 442.414062 331.027344 C 442.304688 330.914062 442.191406 330.796875 442.082031 330.679688 C 441.988281 330.582031 441.894531 330.484375 441.796875 330.386719 C 441.59375 330.179688 441.386719 329.96875 441.175781 329.765625 C 441.09375 329.6875 441.015625 329.613281 440.9375 329.535156 C 440.804688 329.410156 440.667969 329.28125 440.53125 329.15625 C 440.460938 329.089844 440.390625 329.027344 440.320312 328.964844 C 439.851562 328.539062 439.371094 328.125 438.878906 327.730469 C 438.832031 327.691406 438.78125 327.65625 438.734375 327.617188 C 438.210938 327.199219 437.671875 326.804688 437.125 326.429688 L 437.042969 326.375 C 435.671875 325.453125 434.226562 324.667969 432.703125 324.070312 L 432.679688 324.058594 C 432.035156 323.808594 431.375 323.585938 430.703125 323.402344 L 430.640625 323.386719 C 429.984375 323.210938 429.316406 323.066406 428.636719 322.960938 L 428.519531 322.945312 C 428.296875 322.910156 428.078125 322.882812 427.855469 322.859375 C 427.199219 322.785156 426.535156 322.75 425.855469 322.75 C 423.402344 322.75 420.796875 323.238281 418.039062 324.34375 C 419.332031 324.753906 421.273438 325.472656 423.515625 326.609375 L 423.570312 326.636719 C 423.726562 326.71875 423.886719 326.800781 424.050781 326.886719 L 424.113281 326.921875 C 424.589844 327.171875 425.078125 327.445312 425.578125 327.738281 C 425.628906 327.765625 425.675781 327.792969 425.726562 327.824219 C 425.867188 327.90625 426.003906 327.992188 426.144531 328.078125 C 426.214844 328.117188 426.285156 328.160156 426.355469 328.203125 C 426.492188 328.289062 426.625 328.371094 426.761719 328.457031 C 426.835938 328.503906 426.90625 328.550781 426.976562 328.597656 C 427.222656 328.753906 427.464844 328.917969 427.714844 329.082031 C 427.796875 329.140625 427.878906 329.195312 427.960938 329.25 C 428.078125 329.332031 428.199219 329.417969 428.316406 329.503906 C 428.417969 329.574219 428.519531 329.644531 428.617188 329.71875 C 428.734375 329.800781 428.847656 329.882812 428.964844 329.96875 C 429.074219 330.050781 429.183594 330.132812 429.289062 330.214844 C 429.402344 330.300781 429.511719 330.382812 429.617188 330.464844 C 429.78125 330.589844 429.941406 330.71875 430.101562 330.84375 C 430.230469 330.949219 430.355469 331.054688 430.484375 331.160156 C 430.617188 331.269531 430.753906 331.378906 430.882812 331.492188 C 430.980469 331.578125 431.082031 331.660156 431.179688 331.746094 C 431.300781 331.855469 431.429688 331.96875 431.554688 332.078125 C 431.648438 332.164062 431.746094 332.25 431.839844 332.335938 C 431.980469 332.464844 432.121094 332.597656 432.261719 332.730469 C 432.339844 332.800781 432.414062 332.871094 432.492188 332.945312 C 432.699219 333.144531 432.902344 333.351562 433.109375 333.558594 C 433.183594 333.632812 433.257812 333.710938 433.328125 333.789062 C 433.472656 333.933594 433.613281 334.082031 433.753906 334.230469 C 433.835938 334.320312 433.917969 334.410156 434.003906 334.5 C 434.136719 334.648438 434.273438 334.800781 434.40625 334.957031 C 434.484375 335.042969 434.558594 335.128906 434.636719 335.214844 C 434.816406 335.425781 435 335.640625 435.175781 335.855469 L 435.28125 335.988281 C 435.472656 336.21875 435.660156 336.460938 435.84375 336.699219 C 435.910156 336.789062 435.976562 336.875 436.042969 336.964844 C 436.175781 337.144531 436.3125 337.324219 436.441406 337.511719 C 436.511719 337.605469 436.582031 337.703125 436.652344 337.800781 C 436.789062 338 436.925781 338.199219 437.0625 338.402344 C 437.117188 338.484375 437.171875 338.5625 437.222656 338.644531 C 437.410156 338.925781 437.59375 339.210938 437.769531 339.503906 C 437.808594 339.566406 437.84375 339.628906 437.882812 339.691406 C 438.023438 339.929688 438.167969 340.167969 438.304688 340.414062 C 438.363281 340.511719 438.417969 340.613281 438.476562 340.71875 C 438.597656 340.933594 438.714844 341.152344 438.832031 341.375 C 438.886719 341.476562 438.941406 341.582031 438.992188 341.6875 C 439.132812 341.953125 439.265625 342.226562 439.398438 342.503906 C 439.421875 342.558594 439.453125 342.613281 439.476562 342.667969 C 439.632812 342.996094 439.785156 343.332031 439.933594 343.675781 C 439.972656 343.769531 440.011719 343.867188 440.050781 343.960938 C 440.160156 344.214844 440.265625 344.472656 440.367188 344.734375 C 440.414062 344.851562 440.460938 344.972656 440.503906 345.089844 C 440.601562 345.347656 440.699219 345.613281 440.792969 345.875 C 440.828125 345.984375 440.867188 346.089844 440.90625 346.199219 C 441.03125 346.570312 441.15625 346.945312 441.269531 347.328125 L 441.296875 347.414062 C 441.402344 347.769531 441.507812 348.128906 441.601562 348.492188 C 441.636719 348.613281 441.667969 348.738281 441.699219 348.863281 C 441.773438 349.140625 441.839844 349.425781 441.90625 349.714844 C 441.941406 349.847656 441.972656 349.984375 442 350.121094 C 442.070312 350.433594 442.136719 350.753906 442.199219 351.074219 C 442.21875 351.175781 442.238281 351.273438 442.257812 351.378906 C 442.335938 351.796875 442.410156 352.222656 442.476562 352.65625 C 442.492188 352.761719 442.503906 352.867188 442.519531 352.96875 C 442.570312 353.304688 442.617188 353.644531 442.65625 353.988281 C 442.675781 354.140625 442.691406 354.292969 442.710938 354.441406 C 442.746094 354.757812 442.773438 355.078125 442.804688 355.398438 C 442.816406 355.550781 442.832031 355.695312 442.84375 355.847656 C 442.875 356.261719 442.902344 356.679688 442.921875 357.101562 C 442.925781 357.15625 442.929688 357.207031 442.929688 357.261719 C 442.953125 357.738281 442.964844 358.21875 442.972656 358.707031 C 442.976562 358.855469 442.976562 359.007812 442.976562 359.15625 C 442.980469 359.507812 442.976562 359.863281 442.972656 360.222656 C 442.96875 360.394531 442.96875 360.570312 442.960938 360.746094 C 442.953125 361.109375 442.941406 361.476562 442.925781 361.851562 C 442.917969 362.003906 442.914062 362.15625 442.902344 362.3125 C 442.875 362.832031 442.839844 363.355469 442.796875 363.886719 C 442.789062 363.980469 442.777344 364.078125 442.769531 364.171875 C 442.730469 364.617188 442.6875 365.0625 442.636719 365.519531 C 442.617188 365.703125 442.59375 365.890625 442.574219 366.074219 C 442.527344 366.460938 442.476562 366.84375 442.421875 367.234375 C 442.398438 367.429688 442.371094 367.617188 442.339844 367.8125 C 442.273438 368.261719 442.203125 368.710938 442.128906 369.164062 C 442.105469 369.292969 442.085938 369.421875 442.0625 369.550781 C 441.964844 370.128906 441.851562 370.714844 441.734375 371.308594 C 441.703125 371.472656 441.664062 371.640625 441.628906 371.804688 C 441.539062 372.246094 441.441406 372.695312 441.339844 373.148438 C 441.292969 373.355469 441.246094 373.566406 441.195312 373.777344 C 441.089844 374.214844 440.984375 374.652344 440.875 375.09375 C 440.824219 375.292969 440.777344 375.488281 440.722656 375.6875 C 440.558594 376.320312 440.386719 376.960938 440.203125 377.609375 C 440.203125 377.609375 440.425781 385.972656 447.390625 393.230469 C 448.90625 394.859375 450.347656 396.753906 451.546875 398.875 L 451.566406 398.90625 C 451.660156 399.074219 451.753906 399.242188 451.847656 399.414062 L 451.871094 399.46875 C 451.964844 399.636719 452.050781 399.804688 452.136719 399.972656 L 452.164062 400.023438 C 452.25 400.195312 452.335938 400.367188 452.421875 400.542969 L 452.4375 400.578125 C 452.773438 401.277344 453.078125 402 453.355469 402.742188 C 453.371094 402.796875 453.394531 402.851562 453.414062 402.910156 C 453.460938 403.03125 453.503906 403.160156 453.542969 403.28125 C 453.578125 403.371094 453.609375 403.460938 453.636719 403.550781 L 453.644531 403.578125 M 401.761719 316.800781 C 403.804688 316.800781 408.234375 316.984375 409.917969 318.515625 C 410.113281 318.609375 410.3125 318.707031 410.519531 318.8125 C 411.320312 318.527344 413.972656 317.664062 417.710938 317.207031 L 417.792969 317.199219 C 417.964844 317.179688 418.140625 317.160156 418.320312 317.140625 L 418.394531 317.132812 C 418.933594 317.074219 419.484375 317.027344 420.0625 316.996094 C 420.117188 316.992188 420.175781 316.988281 420.234375 316.984375 C 420.398438 316.976562 420.5625 316.96875 420.726562 316.960938 C 420.804688 316.957031 420.882812 316.953125 420.964844 316.949219 C 421.128906 316.945312 421.289062 316.9375 421.453125 316.933594 C 421.53125 316.933594 421.605469 316.929688 421.683594 316.929688 C 421.90625 316.925781 422.128906 316.921875 422.355469 316.921875 C 422.445312 316.921875 422.53125 316.925781 422.621094 316.925781 C 422.707031 316.925781 422.792969 316.925781 422.882812 316.925781 C 423.03125 316.929688 423.179688 316.933594 423.332031 316.9375 C 423.449219 316.941406 423.566406 316.941406 423.6875 316.945312 C 423.832031 316.953125 423.976562 316.957031 424.125 316.964844 C 424.253906 316.972656 424.386719 316.980469 424.515625 316.988281 C 424.660156 316.996094 424.800781 317.003906 424.945312 317.011719 C 425.128906 317.023438 425.3125 317.039062 425.5 317.058594 C 425.683594 317.074219 425.875 317.089844 426.0625 317.109375 C 426.226562 317.125 426.390625 317.144531 426.558594 317.164062 C 426.691406 317.175781 426.824219 317.191406 426.957031 317.210938 C 427.117188 317.230469 427.273438 317.253906 427.433594 317.273438 C 427.566406 317.292969 427.699219 317.3125 427.832031 317.332031 C 428.011719 317.359375 428.195312 317.390625 428.378906 317.421875 C 428.488281 317.441406 428.597656 317.457031 428.710938 317.476562 C 428.992188 317.527344 429.273438 317.582031 429.554688 317.636719 C 429.664062 317.660156 429.777344 317.6875 429.882812 317.710938 C 430.078125 317.75 430.269531 317.792969 430.464844 317.839844 C 430.585938 317.867188 430.710938 317.898438 430.832031 317.925781 C 431.023438 317.976562 431.214844 318.023438 431.40625 318.074219 C 431.523438 318.105469 431.640625 318.136719 431.753906 318.167969 C 432.015625 318.238281 432.277344 318.316406 432.539062 318.394531 C 432.605469 318.414062 432.671875 318.433594 432.734375 318.453125 C 433.015625 318.539062 433.296875 318.632812 433.578125 318.726562 C 433.683594 318.765625 433.792969 318.800781 433.898438 318.839844 C 434.109375 318.914062 434.316406 318.988281 434.523438 319.066406 C 434.640625 319.109375 434.753906 319.152344 434.867188 319.195312 C 435.089844 319.28125 435.308594 319.371094 435.53125 319.460938 C 435.625 319.5 435.71875 319.535156 435.8125 319.574219 C 436.121094 319.707031 436.429688 319.839844 436.742188 319.984375 C 436.8125 320.015625 436.878906 320.050781 436.949219 320.085938 C 437.195312 320.199219 437.441406 320.316406 437.6875 320.441406 C 437.792969 320.492188 437.902344 320.546875 438.007812 320.605469 C 438.226562 320.714844 438.441406 320.828125 438.660156 320.945312 C 438.765625 321.003906 438.871094 321.058594 438.976562 321.121094 C 439.234375 321.261719 439.496094 321.410156 439.753906 321.566406 C 439.808594 321.597656 439.867188 321.628906 439.921875 321.664062 C 440.234375 321.851562 440.546875 322.046875 440.859375 322.246094 C 440.945312 322.304688 441.035156 322.363281 441.125 322.421875 C 441.351562 322.570312 441.582031 322.726562 441.808594 322.882812 C 441.914062 322.957031 442.019531 323.03125 442.125 323.105469 C 442.347656 323.265625 442.570312 323.429688 442.792969 323.59375 C 442.886719 323.664062 442.980469 323.730469 443.074219 323.804688 C 443.382812 324.039062 443.695312 324.28125 444.003906 324.535156 L 444.085938 324.601562 C 444.363281 324.835938 444.644531 325.074219 444.925781 325.316406 C 445.023438 325.402344 445.121094 325.488281 445.21875 325.574219 C 445.429688 325.765625 445.648438 325.964844 445.859375 326.164062 C 445.960938 326.257812 446.066406 326.355469 446.167969 326.453125 C 446.398438 326.675781 446.628906 326.898438 446.859375 327.132812 C 446.933594 327.207031 447.007812 327.277344 447.082031 327.351562 C 447.378906 327.660156 447.679688 327.972656 447.972656 328.292969 C 448.042969 328.371094 448.113281 328.453125 448.183594 328.527344 C 448.410156 328.78125 448.636719 329.035156 448.863281 329.300781 C 448.960938 329.414062 449.0625 329.53125 449.160156 329.648438 C 449.363281 329.890625 449.566406 330.136719 449.769531 330.386719 C 449.863281 330.507812 449.957031 330.621094 450.050781 330.742188 C 450.308594 331.066406 450.558594 331.394531 450.8125 331.734375 C 450.847656 331.78125 450.882812 331.820312 450.914062 331.867188 C 451.195312 332.25 451.476562 332.640625 451.753906 333.042969 C 451.839844 333.167969 451.921875 333.292969 452.007812 333.417969 C 452.203125 333.707031 452.398438 334 452.59375 334.300781 C 452.6875 334.445312 452.785156 334.59375 452.878906 334.746094 C 453.074219 335.050781 453.269531 335.363281 453.460938 335.679688 C 453.539062 335.8125 453.621094 335.941406 453.703125 336.078125 C 453.964844 336.523438 454.230469 336.976562 454.488281 337.441406 C 454.535156 337.527344 454.582031 337.613281 454.628906 337.699219 C 454.84375 338.089844 455.054688 338.484375 455.265625 338.890625 C 455.351562 339.054688 455.4375 339.222656 455.523438 339.390625 C 455.695312 339.730469 455.867188 340.078125 456.039062 340.429688 C 456.125 340.605469 456.210938 340.785156 456.296875 340.960938 C 456.492188 341.367188 456.679688 341.78125 456.871094 342.203125 C 456.925781 342.320312 456.976562 342.4375 457.03125 342.558594 C 457.269531 343.09375 457.503906 343.644531 457.738281 344.203125 C 457.800781 344.359375 457.863281 344.515625 457.925781 344.671875 C 458.097656 345.089844 458.265625 345.515625 458.433594 345.945312 C 458.511719 346.148438 458.585938 346.351562 458.664062 346.554688 C 458.820312 346.972656 458.976562 347.394531 459.128906 347.824219 C 459.195312 348.015625 459.269531 348.207031 459.335938 348.402344 C 459.550781 349.019531 459.761719 349.648438 459.972656 350.285156 C 459.972656 350.285156 464.8125 357.113281 474.636719 359.269531 C 476.4375 359.691406 478.296875 360.300781 480.125 361.121094 L 480.132812 361.125 C 480.3125 361.203125 480.488281 361.285156 480.664062 361.367188 L 480.710938 361.390625 C 480.882812 361.46875 481.046875 361.550781 481.210938 361.632812 L 481.289062 361.671875 C 481.449219 361.753906 481.605469 361.835938 481.765625 361.917969 L 481.859375 361.96875 C 482.015625 362.054688 482.171875 362.136719 482.324219 362.222656 L 482.414062 362.273438 C 482.570312 362.359375 482.726562 362.449219 482.878906 362.539062 L 482.953125 362.585938 C 483.609375 362.972656 484.25 363.394531 484.878906 363.847656 C 484.929688 363.886719 484.980469 363.917969 485.03125 363.957031 C 485.136719 364.035156 485.246094 364.117188 485.351562 364.199219 C 485.425781 364.253906 485.496094 364.308594 485.566406 364.363281 C 485.664062 364.441406 485.761719 364.519531 485.859375 364.59375 C 485.941406 364.660156 486.019531 364.722656 486.101562 364.792969 C 486.191406 364.863281 486.277344 364.941406 486.367188 365.015625 C 486.453125 365.085938 486.539062 365.160156 486.625 365.234375 C 486.710938 365.308594 486.792969 365.382812 486.878906 365.457031 C 486.964844 365.535156 487.050781 365.613281 487.136719 365.695312 C 487.214844 365.769531 487.296875 365.84375 487.375 365.921875 C 487.464844 366.003906 487.550781 366.089844 487.640625 366.175781 C 487.714844 366.25 487.789062 366.324219 487.863281 366.398438 C 487.957031 366.492188 488.042969 366.585938 488.132812 366.675781 C 488.207031 366.75 488.273438 366.824219 488.34375 366.898438 C 488.4375 367 488.53125 367.101562 488.621094 367.203125 C 488.683594 367.273438 488.746094 367.34375 488.8125 367.417969 C 488.914062 367.53125 489.007812 367.648438 489.109375 367.765625 C 489.160156 367.828125 489.214844 367.886719 489.265625 367.953125 C 489.386719 368.101562 489.507812 368.25 489.625 368.402344 L 489.707031 368.507812 C 489.855469 368.699219 490 368.894531 490.140625 369.09375 L 490.167969 369.132812 C 490.300781 369.316406 490.425781 369.5 490.554688 369.6875 C 490.589844 369.742188 490.625 369.800781 490.660156 369.855469 C 490.757812 370.003906 490.855469 370.152344 490.949219 370.304688 C 490.992188 370.371094 491.035156 370.441406 491.078125 370.515625 C 491.160156 370.65625 491.246094 370.792969 491.328125 370.9375 C 491.375 371.015625 491.417969 371.097656 491.460938 371.175781 C 491.539062 371.3125 491.617188 371.453125 491.691406 371.59375 C 491.738281 371.679688 491.777344 371.761719 491.824219 371.84375 C 491.894531 371.988281 491.964844 372.128906 492.035156 372.273438 C 492.082031 372.359375 492.121094 372.449219 492.164062 372.535156 C 492.230469 372.679688 492.296875 372.824219 492.363281 372.976562 C 492.40625 373.0625 492.445312 373.152344 492.480469 373.242188 C 492.546875 373.394531 492.613281 373.546875 492.675781 373.699219 C 492.710938 373.789062 492.746094 373.875 492.78125 373.964844 C 492.84375 374.125 492.90625 374.292969 492.964844 374.453125 C 492.996094 374.539062 493.03125 374.625 493.0625 374.710938 C 493.121094 374.886719 493.183594 375.066406 493.242188 375.246094 C 493.265625 375.324219 493.292969 375.398438 493.316406 375.476562 C 493.386719 375.691406 493.449219 375.902344 493.507812 376.121094 C 493.523438 376.167969 493.539062 376.214844 493.550781 376.265625 C 493.703125 376.800781 493.839844 377.351562 493.957031 377.917969 C 493.972656 377.992188 493.984375 378.066406 494 378.140625 C 494.042969 378.351562 494.082031 378.558594 494.121094 378.769531 C 494.136719 378.871094 494.15625 378.96875 494.171875 379.070312 C 494.203125 379.261719 494.234375 379.449219 494.261719 379.640625 C 494.277344 379.753906 494.292969 379.871094 494.304688 379.984375 C 494.332031 380.167969 494.355469 380.351562 494.375 380.535156 C 494.390625 380.660156 494.402344 380.785156 494.414062 380.90625 C 494.433594 381.089844 494.449219 381.269531 494.464844 381.457031 C 494.476562 381.585938 494.484375 381.714844 494.492188 381.84375 C 494.507812 382.027344 494.515625 382.214844 494.527344 382.398438 C 494.535156 382.535156 494.542969 382.664062 494.546875 382.800781 C 494.554688 382.988281 494.558594 383.179688 494.5625 383.367188 C 494.566406 383.507812 494.566406 383.640625 494.570312 383.777344 C 494.570312 383.972656 494.570312 384.167969 494.570312 384.367188 C 494.566406 384.503906 494.566406 384.640625 494.566406 384.777344 C 494.5625 384.984375 494.554688 385.195312 494.546875 385.402344 C 494.542969 385.535156 494.539062 385.667969 494.535156 385.800781 C 494.523438 386.03125 494.507812 386.269531 494.492188 386.507812 C 494.484375 386.621094 494.480469 386.730469 494.472656 386.84375 C 494.445312 387.195312 494.414062 387.550781 494.378906 387.910156 C 494.351562 388.191406 494.320312 388.476562 494.289062 388.769531 C 494.285156 388.824219 494.277344 388.882812 494.269531 388.9375 C 494.238281 389.226562 494.207031 389.523438 494.171875 389.824219 C 494.164062 389.875 494.15625 389.925781 494.152344 389.976562 C 494.078125 390.613281 493.992188 391.285156 493.902344 391.980469 C 493.894531 392.03125 493.886719 392.082031 493.878906 392.136719 C 493.835938 392.484375 493.785156 392.839844 493.734375 393.199219 L 493.71875 393.3125 C 493.613281 394.0625 493.496094 394.84375 493.371094 395.648438 C 493.363281 395.695312 493.355469 395.742188 493.347656 395.785156 C 493.285156 396.191406 493.222656 396.597656 493.152344 397.015625 L 493.144531 397.078125 C 493.003906 397.933594 492.851562 398.820312 492.691406 399.730469 L 492.671875 399.835938 C 492.589844 400.292969 492.507812 400.753906 492.421875 401.222656 L 492.421875 401.230469 C 492.242188 402.1875 492.050781 403.171875 491.851562 404.175781 L 491.835938 404.242188 C 491.535156 405.753906 491.203125 407.320312 490.84375 408.929688 L 490.835938 408.964844 C 485.261719 433.886719 472.785156 469.214844 447.972656 486.632812 L 447.972656 486.636719 C 439.679688 492.457031 430.007812 496.277344 418.757812 497.035156 C 418.609375 497.046875 418.460938 497.050781 418.304688 497.050781 C 413.699219 497.050781 404.914062 492.820312 403.335938 488.035156 C 403.335938 488.035156 408.597656 490.042969 413.335938 490.042969 C 414.542969 490.042969 415.71875 489.914062 416.761719 489.585938 C 435.488281 483.707031 445.183594 461.070312 451.515625 429.058594 C 452.226562 425.464844 452.753906 422.230469 453.128906 419.300781 C 453.105469 419.359375 453.085938 419.421875 453.058594 419.484375 C 453.035156 419.539062 453.011719 419.597656 452.988281 419.652344 C 452.902344 419.863281 452.816406 420.070312 452.722656 420.28125 C 452.683594 420.363281 452.644531 420.449219 452.605469 420.535156 C 452.523438 420.71875 452.441406 420.902344 452.351562 421.085938 C 452.304688 421.179688 452.257812 421.277344 452.207031 421.375 C 452.121094 421.546875 452.035156 421.71875 451.949219 421.890625 C 451.894531 421.996094 451.839844 422.101562 451.78125 422.207031 C 451.691406 422.371094 451.601562 422.535156 451.507812 422.703125 C 451.449219 422.8125 451.386719 422.921875 451.324219 423.03125 C 451.230469 423.195312 451.136719 423.359375 451.039062 423.523438 C 450.972656 423.636719 450.902344 423.746094 450.835938 423.859375 C 450.734375 424.023438 450.628906 424.183594 450.527344 424.347656 C 450.453125 424.460938 450.382812 424.570312 450.308594 424.683594 C 450.199219 424.851562 450.089844 425.015625 449.976562 425.179688 C 449.902344 425.292969 449.828125 425.402344 449.75 425.515625 C 449.628906 425.6875 449.503906 425.859375 449.382812 426.03125 C 449.304688 426.136719 449.230469 426.238281 449.152344 426.34375 C 449.015625 426.53125 448.871094 426.722656 448.726562 426.910156 C 448.65625 427 448.589844 427.089844 448.519531 427.179688 C 448.304688 427.457031 448.078125 427.734375 447.847656 428.015625 C 447.667969 428.234375 447.480469 428.460938 447.285156 428.691406 L 447.195312 428.796875 C 447.003906 429.023438 446.8125 429.253906 446.609375 429.488281 L 446.515625 429.601562 C 446.09375 430.09375 445.648438 430.609375 445.175781 431.140625 L 445.089844 431.238281 C 444.855469 431.507812 444.613281 431.78125 444.359375 432.058594 L 444.308594 432.117188 C 443.792969 432.695312 443.25 433.292969 442.679688 433.90625 L 442.628906 433.964844 C 441.757812 434.914062 440.824219 435.902344 439.839844 436.925781 L 439.820312 436.945312 C 422.289062 455.160156 387.703125 484.222656 352.976562 484.222656 C 343.304688 484.222656 333.613281 481.96875 324.285156 476.589844 C 320.417969 474.363281 315.085938 465.554688 316.484375 460.53125 C 316.484375 460.53125 321.605469 467.769531 326.773438 469.292969 C 329.632812 470.132812 332.53125 470.535156 335.472656 470.535156 C 351.929688 470.535156 369.765625 457.914062 389.335938 438.347656 C 412.414062 415.28125 407.757812 407.5625 410.691406 399.363281 C 413.238281 392.25 420.792969 387.679688 428.328125 386.433594 C 429.226562 383.90625 431.042969 380.285156 434.652344 376.820312 C 434.652344 376.820312 437.199219 367.703125 436.882812 357.707031 C 436.871094 357.292969 436.851562 356.875 436.828125 356.457031 C 436.820312 356.351562 436.816406 356.25 436.808594 356.144531 C 436.785156 355.757812 436.757812 355.375 436.722656 354.988281 C 436.71875 354.933594 436.714844 354.878906 436.710938 354.824219 C 436.671875 354.375 436.621094 353.929688 436.570312 353.480469 C 436.5625 353.417969 436.550781 353.351562 436.542969 353.285156 C 436.496094 352.894531 436.4375 352.507812 436.378906 352.121094 C 436.367188 352.039062 436.355469 351.960938 436.339844 351.882812 C 436.195312 350.980469 436.019531 350.085938 435.808594 349.203125 C 435.796875 349.144531 435.78125 349.089844 435.765625 349.035156 C 435.660156 348.605469 435.546875 348.175781 435.425781 347.75 L 435.417969 347.722656 C 435.152344 346.816406 434.847656 345.929688 434.496094 345.066406 L 434.460938 344.976562 C 434.109375 344.113281 433.710938 343.269531 433.261719 342.457031 L 433.246094 342.429688 C 432.566406 341.203125 431.769531 340.042969 430.847656 338.976562 L 430.8125 338.9375 C 430.195312 338.226562 429.515625 337.558594 428.777344 336.9375 C 425.363281 334.070312 420.621094 332.222656 414.097656 332.09375 C 414.097656 332.09375 409.160156 334.6875 405.691406 334.6875 C 404.574219 334.6875 403.605469 334.417969 403.011719 333.699219 C 402.820312 333.472656 402.648438 333.171875 402.496094 332.824219 C 399.195312 328.855469 396.054688 319.339844 400.703125 316.820312 C 400.703125 316.820312 401.113281 316.800781 401.761719 316.800781 " fill-opacity="1" fill-rule="nonzero"/></g></svg>