<svg xmlns="http://www.w3.org/2000/svg" xmlns:xlink="http://www.w3.org/1999/xlink" width="1080" zoomAndPan="magnify" viewBox="0 0 810 809.999993" height="1080" preserveAspectRatio="xMidYMid meet" version="1.0"><defs><clipPath id="0f292c08e3"><path d="M 313 368.320312 L 459 368.320312 L 459 433 L 313 433 Z M 313 368.320312 " clip-rule="nonzero"/></clipPath><clipPath id="f5a4146e5a"><path d="M 326 368.320312 L 459 368.320312 L 459 419 L 326 419 Z M 326 368.320312 " clip-rule="nonzero"/></clipPath><clipPath id="e642a0a807"><path d="M 328.546875 381.691406 L 474.417969 381.691406 L 474.417969 441.8125 L 328.546875 441.8125 Z M 328.546875 381.691406 " clip-rule="nonzero"/></clipPath><clipPath id="7e079ec7fb"><path d="M 346.746094 382.332031 L 474.417969 382.332031 L 474.417969 441.8125 L 346.746094 441.8125 Z M 346.746094 382.332031 " clip-rule="nonzero"/></clipPath><clipPath id="f06fc794b3"><path d="M 349.3125 369 L 498.671875 369 L 498.671875 416.75 L 349.3125 416.75 Z M 349.3125 369 " clip-rule="nonzero"/></clipPath><clipPath id="1cb2cf369a"><path d="M 367.382812 369.105469 L 498.671875 369.105469 L 498.671875 416.75 L 367.382812 416.75 Z M 367.382812 369.105469 " clip-rule="nonzero"/></clipPath></defs><g clip-path="url(#0f292c08e3)"><path fill="#dfebef" d="M 443.917969 381.808594 C 443.914062 381.800781 443.90625 381.796875 443.898438 381.792969 C 443.90625 381.789062 443.914062 381.785156 443.921875 381.78125 C 443.921875 381.773438 443.925781 381.769531 443.925781 381.765625 C 443.925781 381.765625 443.929688 381.773438 443.929688 381.777344 C 443.925781 381.785156 443.921875 381.796875 443.917969 381.808594 Z M 335.863281 419.777344 C 335.863281 419.785156 335.863281 419.796875 335.863281 419.808594 C 335.84375 419.796875 335.828125 419.789062 335.808594 419.78125 C 335.828125 419.769531 335.84375 419.761719 335.863281 419.753906 C 335.863281 419.761719 335.863281 419.769531 335.863281 419.777344 Z M 458.210938 380.191406 C 457.507812 379.78125 456.597656 379.796875 455.816406 379.5625 C 454.667969 379.339844 453.539062 378.925781 452.375 378.84375 C 450.816406 378.453125 449.207031 378.480469 447.554688 378.566406 C 449.375 376.488281 450.457031 373.976562 451.453125 371.429688 C 451.816406 370.683594 452.011719 369.859375 452.304688 369.089844 C 452.414062 368.375 451.664062 368.316406 451.242188 368.734375 C 447.425781 371.984375 443.667969 375.308594 439.742188 378.429688 C 439.199219 378.820312 438.492188 378.898438 437.871094 379.125 C 433.6875 380.300781 429.675781 381.992188 425.371094 382.703125 C 412.152344 385.769531 398.65625 387.769531 385.789062 392.214844 C 379.15625 394.34375 372.746094 397.082031 366.160156 399.339844 C 357.492188 402.257812 349.070312 405.878906 340.976562 410.140625 C 338.191406 411.429688 335.476562 412.863281 332.765625 414.304688 C 330.132812 415.609375 327.410156 417.046875 325.101562 418.773438 C 320.835938 421.40625 317 424.816406 313.945312 428.804688 C 311.335938 431.765625 314.9375 431.835938 317.144531 431.539062 C 317.664062 431.421875 318.109375 431.71875 318.609375 431.8125 C 319.230469 432.09375 319.933594 432.09375 320.597656 432.175781 C 322.203125 432.289062 323.777344 431.886719 325.328125 431.511719 C 328.589844 430.566406 331.945312 429.957031 335.191406 428.976562 C 335.464844 429.035156 335.675781 428.867188 335.910156 428.78125 C 335.910156 428.789062 335.910156 428.796875 335.910156 428.804688 C 336.144531 429.023438 336.402344 428.894531 336.640625 428.835938 C 337.777344 428.550781 338.921875 428.296875 340.066406 428.039062 C 352.507812 425.132812 365.078125 422.242188 377.035156 417.78125 C 383.761719 415.1875 390.484375 412.589844 397.210938 409.996094 C 398.996094 409.070312 401.023438 408.464844 402.828125 407.5 C 403.257812 407.28125 403.875 407.199219 404.101562 406.699219 C 408.9375 404.320312 413.714844 401.78125 418.425781 399.152344 C 422.464844 397.347656 426.226562 394.625 430.050781 392.316406 C 433.851562 389.550781 438.203125 387.597656 441.839844 384.597656 C 446.308594 383.675781 450.832031 383.046875 455.339844 382.359375 C 456.226562 382.21875 457.097656 382 457.972656 381.800781 C 458.347656 381.714844 458.597656 381.425781 458.625 381.042969 C 458.644531 380.691406 458.601562 380.351562 458.210938 380.191406 " fill-opacity="1" fill-rule="nonzero"/></g><path fill="#fdf2ad" d="M 322.785156 425.984375 C 322.644531 425.714844 322.46875 425.453125 322.222656 425.277344 C 322 425.117188 321.726562 425.03125 321.457031 424.976562 C 320.582031 424.785156 319.636719 424.855469 318.832031 425.25 C 318.027344 425.648438 317.382812 426.390625 317.183594 427.269531 C 316.988281 428.144531 317.277344 429.136719 317.976562 429.699219 C 318.378906 430.03125 318.894531 430.207031 319.410156 430.277344 C 320.515625 430.433594 321.675781 430.125 322.5625 429.445312 C 322.792969 429.265625 323.019531 429.03125 323.023438 428.742188 L 322.910156 429.003906 C 323.367188 428.0625 323.269531 426.910156 322.785156 425.984375 " fill-opacity="1" fill-rule="nonzero"/><path fill="#91a8b0" d="M 443.929688 381.777344 C 443.929688 381.777344 443.925781 381.777344 443.921875 381.78125 L 443.929688 381.777344 " fill-opacity="1" fill-rule="nonzero"/><path fill="#91a8b0" d="M 443.289062 379.457031 C 435.835938 382.039062 428.625 385.269531 421.113281 387.695312 C 413.742188 390.074219 406.164062 391.382812 398.636719 393.214844 C 390.960938 395.082031 383.355469 397.238281 375.839844 399.679688 C 372.042969 400.910156 368.273438 402.214844 364.527344 403.589844 C 361.011719 404.882812 357.734375 406.449219 354.324219 407.984375 C 347.960938 410.851562 341.632812 413.832031 335.035156 416.117188 C 333.386719 416.644531 331.714844 417.097656 330.023438 417.460938 C 329.011719 417.660156 327.992188 417.832031 326.976562 418.003906 C 326.691406 418.050781 326.394531 418.046875 326.105469 418.066406 C 325.773438 418.273438 325.4375 418.480469 325.105469 418.691406 C 325.09375 418.699219 325.101562 418.746094 325.101562 418.773438 C 327.011719 418.453125 328.941406 418.03125 330.898438 418.375 C 331.40625 418.488281 332.554688 418.453125 332.546875 419.15625 C 332.289062 419.605469 331.007812 419.070312 330.511719 419.136719 C 325.699219 418.765625 321.453125 421.363281 318.257812 424.757812 C 320.222656 423.441406 323.558594 423.4375 324.523438 425.96875 C 325.808594 424.679688 327.445312 423.070312 329.421875 423.484375 C 332.023438 424.21875 333.078125 425.859375 330.597656 427.722656 C 329.980469 428.1875 329.304688 428.546875 328.566406 428.789062 C 327.875 428.992188 328.335938 429.640625 328.882812 429.382812 C 331.273438 428.824219 334.652344 426.125 332.414062 423.613281 C 330.949219 422.046875 328.675781 421.285156 326.574219 421.804688 C 325.902344 420.773438 327.351562 419.820312 328.253906 419.605469 C 331.132812 419.023438 337.472656 421.195312 339.117188 423.703125 C 339.578125 424.34375 337.265625 426.730469 336.773438 427.296875 C 336.519531 427.667969 334.984375 428.652344 335.191406 428.976562 C 336.605469 428.859375 339.105469 425.929688 339.871094 424.710938 C 341.027344 422.316406 337.496094 420.683594 335.808594 419.78125 C 347.332031 413.492188 359.546875 408.535156 372.046875 404.558594 C 380.6875 401.871094 389.496094 399.753906 398.1875 397.230469 C 405.914062 395.027344 413.769531 393.292969 421.488281 391.066406 C 429.234375 388.683594 436.875 385.8125 443.921875 381.78125 C 444.074219 381.445312 444.136719 381.039062 443.933594 380.722656 C 443.675781 380.300781 443.863281 379.808594 443.507812 379.421875 C 443.425781 379.433594 443.355469 379.433594 443.289062 379.457031 " fill-opacity="1" fill-rule="nonzero"/><path fill="#91a8b0" d="M 359.207031 419.152344 C 358.722656 418.988281 358.238281 419.226562 357.765625 419.335938 C 356.335938 419.625 354.921875 419.980469 353.511719 420.335938 C 351.59375 420.769531 349.660156 421.117188 347.722656 421.421875 C 346.738281 421.710938 342.808594 421.59375 342.84375 422.832031 C 342.871094 423.085938 343.003906 423.222656 343.328125 423.28125 C 344.476562 423.59375 345.464844 424.328125 346.203125 425.25 C 349.699219 424.253906 353.179688 423.027344 356.433594 421.332031 C 356.941406 420.875 360.53125 420.03125 359.207031 419.152344 " fill-opacity="1" fill-rule="nonzero"/><path fill="#91a8b0" d="M 418.296875 398.996094 C 415.515625 399.6875 412.875 401.054688 410.242188 402.203125 C 408.472656 403.074219 403.980469 404.378906 404.015625 406.730469 C 408.914062 404.347656 413.730469 401.765625 418.492188 399.117188 C 418.425781 399.074219 418.359375 398.988281 418.296875 398.996094 " fill-opacity="1" fill-rule="nonzero"/><path fill="#91a8b0" d="M 457.980469 380.035156 C 457.257812 379.871094 456.535156 379.71875 455.816406 379.5625 C 453.136719 380.261719 450.292969 380.511719 447.84375 381.882812 C 449.289062 382.0625 450.628906 381.496094 452.054688 381.355469 C 454.105469 380.964844 456.1875 380.703125 458.210938 380.191406 C 458.136719 380.136719 458.0625 380.054688 457.980469 380.035156 " fill-opacity="1" fill-rule="nonzero"/><path fill="#91a8b0" d="M 446.210938 375.800781 C 448.042969 374.453125 449.597656 372.75 451.453125 371.429688 C 451.71875 370.929688 451.863281 370.382812 452.023438 369.839844 C 450.148438 371.394531 448.3125 372.992188 446.460938 374.570312 C 445.988281 375.078125 445.164062 375.457031 445.101562 376.21875 C 445.601562 376.199219 445.675781 376.160156 446.210938 375.800781 " fill-opacity="1" fill-rule="nonzero"/><path fill="#91a8b0" d="M 445.453125 378.496094 C 446.785156 377.589844 448.085938 376.640625 449.453125 375.785156 C 449.90625 375.261719 450.113281 374.535156 450.386719 373.898438 C 448.964844 374.800781 447.652344 375.960938 446.261719 376.9375 C 445.835938 377.375 444.890625 377.660156 444.921875 378.363281 C 445.210938 378.628906 445.242188 378.644531 445.453125 378.496094 " fill-opacity="1" fill-rule="nonzero"/><path fill="#91a8b0" d="M 450.21875 379.644531 C 450.9375 379.378906 451.65625 379.109375 452.375 378.84375 C 451.832031 378.609375 451.167969 378.683594 450.578125 378.570312 C 449.625 379.28125 445.789062 380.070312 445.519531 381.148438 C 445.886719 381.535156 446.390625 381.113281 446.773438 380.957031 C 447.921875 380.523438 449.058594 380.046875 450.21875 379.644531 " fill-opacity="1" fill-rule="nonzero"/><path fill="#91a8b0" d="M 325.414062 430.648438 C 324.914062 430.703125 324.410156 430.769531 323.90625 430.789062 C 322.847656 430.824219 321.914062 430.214844 320.898438 430.75 C 321.113281 430.875 321.3125 430.992188 321.492188 431.09375 C 321.464844 431.871094 319.148438 431.402344 318.609375 431.8125 C 321.324219 432.726562 324.226562 431.804688 326.882812 431.082031 C 326.542969 430.652344 325.925781 430.613281 325.414062 430.648438 " fill-opacity="1" fill-rule="nonzero"/><path fill="#91a8b0" d="M 319.621094 430.773438 C 316.597656 430.230469 316.019531 427.699219 317.710938 425.359375 C 316.511719 426.207031 315.699219 427.535156 314.988281 428.816406 C 314.554688 429.667969 315.742188 430.261719 316.363281 430.4375 C 317.464844 430.6875 318.460938 431.152344 319.621094 430.773438 " fill-opacity="1" fill-rule="nonzero"/><path fill="#3c4f69" d="M 320.65625 425.179688 C 322.753906 425.113281 323.351562 427.105469 322.585938 428.785156 C 322.28125 429.457031 321.976562 429.777344 321.085938 430.054688 C 319.375 430.675781 317.019531 429.238281 317.59375 427.160156 C 317.988281 425.730469 319.230469 425.085938 320.65625 425.179688 Z M 318.355469 430.839844 C 317.488281 430.472656 314.382812 430.246094 314.988281 428.816406 C 315.699219 427.535156 316.511719 426.207031 317.710938 425.359375 C 316.019531 427.699219 316.601562 430.230469 319.621094 430.773438 C 319.160156 430.914062 318.761719 430.953125 318.355469 430.839844 Z M 330.898438 418.375 C 328.75 418.140625 325.816406 418.207031 324.007812 419.4375 C 320.230469 422.050781 316.71875 425.117188 313.945312 428.804688 C 312.804688 430.097656 312.476562 431.4375 314.644531 431.601562 C 315.480469 431.683594 316.3125 431.660156 317.144531 431.539062 C 317.664062 431.421875 318.109375 431.71875 318.609375 431.8125 C 319.148438 431.402344 321.457031 431.875 321.492188 431.09375 C 321.3125 430.992188 321.113281 430.875 320.898438 430.75 C 321.960938 430.507812 322.933594 430.035156 323.546875 429.105469 C 324.449219 428.238281 324.773438 427.1875 324.523438 425.96875 C 323.554688 423.4375 320.222656 423.445312 318.257812 424.757812 C 320.835938 422.101562 323.957031 419.769531 327.71875 419.273438 C 329.179688 419.015625 330.65625 419.09375 332.113281 419.335938 C 332.617188 419.429688 332.707031 418.921875 332.300781 418.714844 C 331.863281 418.480469 331.375 418.445312 330.898438 418.375 " fill-opacity="1" fill-rule="nonzero"/><g clip-path="url(#f5a4146e5a)"><path fill="#3c4f69" d="M 458.210938 380.191406 C 456.1875 380.703125 454.105469 380.964844 452.054688 381.355469 C 450.628906 381.496094 449.289062 382.0625 447.84375 381.882812 C 450.292969 380.511719 453.136719 380.261719 455.816406 379.5625 C 454.667969 379.339844 453.539062 378.925781 452.375 378.84375 C 450.503906 379.535156 448.628906 380.222656 446.773438 380.957031 C 446.390625 381.113281 445.882812 381.535156 445.519531 381.148438 C 445.78125 380.070312 449.625 379.28125 450.578125 378.570312 C 449.589844 378.496094 448.601562 378.484375 447.554688 378.566406 C 448.289062 377.683594 448.957031 376.820312 449.453125 375.785156 C 448.085938 376.640625 446.785156 377.589844 445.453125 378.496094 C 445.242188 378.644531 445.210938 378.628906 444.921875 378.363281 C 444.890625 377.664062 445.835938 377.371094 446.261719 376.9375 C 447.652344 375.960938 448.964844 374.800781 450.386719 373.898438 C 450.855469 373.132812 451.09375 372.25 451.453125 371.429688 C 449.898438 372.335938 446.457031 376.285156 445.101562 376.21875 C 445.171875 375.457031 445.980469 375.082031 446.460938 374.570312 C 448.3125 372.992188 450.148438 371.394531 452.023438 369.839844 C 452.121094 369.59375 452.261719 369.347656 452.304688 369.089844 C 452.386719 368.59375 452.023438 368.328125 451.566406 368.527344 C 447.410156 371.78125 443.625 375.578125 439.339844 378.664062 C 437.59375 379.242188 435.808594 379.710938 434.058594 380.277344 C 425.898438 383.335938 416.855469 384.316406 408.363281 386.332031 C 393.03125 389.972656 378.113281 394.503906 363.433594 400.238281 C 355.367188 403.394531 347.402344 406.789062 339.699219 410.742188 C 335.121094 413.089844 330.425781 415.261719 326.105469 418.066406 C 332.703125 417.433594 338.917969 414.828125 344.933594 412.175781 C 351.996094 409.0625 358.902344 405.8125 366.152344 403.101562 C 373.535156 400.339844 381.035156 397.894531 388.625 395.773438 C 394.878906 394.03125 401.1875 392.507812 407.546875 391.210938 C 413.605469 389.976562 419.414062 388.207031 425.3125 386.300781 C 431.484375 384.304688 437.328125 381.371094 443.507812 379.421875 C 443.863281 379.808594 443.675781 380.300781 443.933594 380.722656 C 444.128906 381.03125 444.082031 381.433594 443.925781 381.765625 C 443.925781 381.765625 443.929688 381.773438 443.929688 381.777344 C 443.519531 382.941406 442.480469 383.699219 441.734375 384.621094 C 446.234375 383.683594 450.796875 383.054688 455.339844 382.359375 C 456.226562 382.21875 457.097656 382 457.972656 381.800781 C 458.347656 381.714844 458.597656 381.425781 458.625 381.042969 C 458.644531 380.691406 458.601562 380.351562 458.210938 380.191406 " fill-opacity="1" fill-rule="nonzero"/></g><path fill="#3c4f69" d="M 320.132812 429.148438 C 321.828125 429.445312 322.28125 426.929688 320.832031 426.328125 C 318.523438 425.542969 317.71875 428.652344 320.132812 429.148438 " fill-opacity="1" fill-rule="nonzero"/><g clip-path="url(#e642a0a807)"><path fill="#dfebef" d="M 459.511719 432.480469 C 459.507812 432.472656 459.507812 432.460938 459.503906 432.453125 C 459.511719 432.457031 459.519531 432.457031 459.53125 432.460938 C 459.53125 432.457031 459.539062 432.453125 459.542969 432.449219 C 459.542969 432.453125 459.539062 432.457031 459.539062 432.464844 C 459.53125 432.46875 459.519531 432.472656 459.511719 432.480469 Z M 353.074219 390.160156 C 353.066406 390.167969 353.0625 390.175781 353.054688 390.183594 C 353.046875 390.164062 353.039062 390.148438 353.03125 390.125 C 353.050781 390.132812 353.070312 390.136719 353.089844 390.140625 C 353.085938 390.148438 353.078125 390.152344 353.074219 390.160156 Z M 471.359375 440.648438 C 471.09375 439.875 470.398438 439.289062 469.960938 438.597656 C 469.238281 437.675781 468.660156 436.625 467.835938 435.796875 C 466.914062 434.476562 465.675781 433.441406 464.375 432.417969 C 467.113281 432.046875 469.570312 430.859375 471.988281 429.59375 C 472.753906 429.269531 473.4375 428.773438 474.164062 428.386719 C 474.714844 427.917969 474.1875 427.382812 473.597656 427.417969 C 468.585938 427.367188 463.574219 427.40625 458.566406 427.183594 C 457.898438 427.125 457.3125 426.714844 456.699219 426.480469 C 452.769531 424.621094 448.632812 423.261719 444.917969 420.96875 C 432.929688 414.601562 421.433594 407.246094 408.808594 402.148438 C 402.40625 399.398438 395.777344 397.253906 389.324219 394.632812 C 380.871094 391.140625 372.140625 388.34375 363.242188 386.246094 C 360.296875 385.386719 357.308594 384.6875 354.320312 383.996094 C 351.476562 383.246094 348.480469 382.546875 345.609375 382.332031 C 340.664062 381.519531 335.535156 381.574219 330.621094 382.578125 C 326.710938 383.097656 329.382812 385.519531 331.242188 386.746094 C 331.710938 386.996094 331.855469 387.515625 332.171875 387.914062 C 332.457031 388.535156 332.988281 388.996094 333.4375 389.492188 C 334.574219 390.632812 336.027344 391.363281 337.441406 392.101562 C 340.519531 393.527344 343.457031 395.273438 346.546875 396.664062 C 346.714844 396.886719 346.984375 396.898438 347.21875 396.988281 C 347.210938 396.996094 347.207031 397 347.203125 397.007812 C 347.238281 397.324219 347.515625 397.398438 347.734375 397.507812 C 348.777344 398.042969 349.808594 398.601562 350.839844 399.160156 C 362.136719 405.136719 373.519531 411.214844 385.464844 415.703125 C 392.242188 418.160156 399.019531 420.617188 405.796875 423.078125 C 407.75 423.550781 409.679688 424.425781 411.671875 424.886719 C 412.136719 425 412.65625 425.34375 413.15625 425.113281 C 418.367188 426.496094 423.632812 427.71875 428.910156 428.828125 C 433.144531 430.117188 437.765625 430.535156 442.160156 431.304688 C 446.839844 431.714844 451.40625 433.097656 456.113281 433.21875 C 460.089844 435.460938 463.917969 437.957031 467.769531 440.402344 C 468.53125 440.875 469.335938 441.28125 470.125 441.707031 C 470.464844 441.890625 470.84375 441.832031 471.113281 441.5625 C 471.359375 441.3125 471.546875 441.027344 471.359375 440.648438 " fill-opacity="1" fill-rule="nonzero"/></g><path fill="#fdf2ad" d="M 339.175781 385.351562 C 339.113281 385.082031 338.960938 384.84375 338.796875 384.621094 C 338.257812 383.902344 337.5 383.335938 336.632812 383.105469 C 335.765625 382.878906 334.792969 383.015625 334.070312 383.546875 C 333.347656 384.078125 332.917969 385.015625 333.074219 385.902344 C 333.167969 386.417969 333.4375 386.886719 333.78125 387.28125 C 334.511719 388.125 335.589844 388.65625 336.707031 388.722656 C 336.996094 388.738281 337.320312 388.710938 337.515625 388.492188 L 337.257812 388.617188 C 338.21875 388.207031 338.898438 387.269531 339.140625 386.253906 C 339.210938 385.957031 339.246094 385.648438 339.175781 385.351562 " fill-opacity="1" fill-rule="nonzero"/><path fill="#91a8b0" d="M 459.539062 432.464844 C 459.535156 432.460938 459.53125 432.460938 459.53125 432.460938 C 459.527344 432.460938 459.527344 432.460938 459.527344 432.460938 L 459.539062 432.464844 " fill-opacity="1" fill-rule="nonzero"/><path fill="#91a8b0" d="M 460.574219 430.289062 C 453.253906 427.34375 445.695312 425.046875 438.4375 421.941406 C 431.3125 418.894531 424.738281 414.90625 417.855469 411.34375 C 410.835938 407.710938 403.683594 404.34375 396.410156 401.25 C 392.738281 399.683594 389.039062 398.191406 385.308594 396.769531 C 381.8125 395.4375 378.3125 394.46875 374.730469 393.386719 C 368.054688 391.367188 361.324219 389.460938 354.84375 386.855469 C 353.253906 386.167969 351.695312 385.410156 350.179688 384.574219 C 349.285156 384.0625 348.40625 383.523438 347.527344 382.984375 C 347.277344 382.832031 347.058594 382.632812 346.828125 382.457031 C 346.441406 382.394531 346.050781 382.332031 345.664062 382.273438 C 345.648438 382.273438 345.625 382.3125 345.609375 382.332031 C 347.257812 383.34375 348.992188 384.292969 350.242188 385.839844 C 350.554688 386.261719 351.445312 386.984375 350.976562 387.515625 C 350.488281 387.683594 349.875 386.4375 349.453125 386.160156 C 346.0625 382.722656 341.15625 381.890625 336.519531 382.355469 C 338.867188 382.652344 341.386719 384.839844 340.464844 387.386719 C 342.277344 387.257812 344.5625 387.113281 345.789062 388.726562 C 347.269531 390.992188 346.992188 392.921875 343.898438 392.699219 C 343.128906 392.644531 342.382812 392.472656 341.671875 392.171875 C 341.015625 391.871094 340.9375 392.660156 341.519531 392.828125 C 343.6875 393.976562 348.007812 394.160156 347.960938 390.789062 C 347.878906 388.644531 346.664062 386.578125 344.734375 385.589844 C 344.90625 384.371094 346.621094 384.601562 347.441406 385.03125 C 350 386.484375 353.363281 392.289062 352.964844 395.261719 C 352.890625 396.050781 349.582031 396.332031 348.839844 396.433594 C 348.40625 396.550781 346.605469 396.285156 346.546875 396.664062 C 347.691406 397.503906 351.496094 396.9375 352.871094 396.515625 C 355.316406 395.46875 353.714844 391.917969 353.03125 390.125 C 365.847656 392.949219 378.316406 397.234375 390.355469 402.4375 C 398.636719 406.089844 406.675781 410.273438 414.886719 414.082031 C 422.164062 417.492188 429.226562 421.34375 436.515625 424.734375 C 443.921875 428.023438 451.570312 430.875 459.53125 432.460938 C 459.863281 432.308594 460.175781 432.042969 460.230469 431.671875 C 460.308594 431.183594 460.773438 430.933594 460.757812 430.40625 C 460.691406 430.363281 460.636719 430.316406 460.574219 430.289062 " fill-opacity="1" fill-rule="nonzero"/><path fill="#91a8b0" d="M 371.109375 405.023438 C 370.851562 404.582031 370.328125 404.445312 369.902344 404.214844 C 368.632812 403.496094 367.335938 402.832031 366.035156 402.175781 C 364.304688 401.246094 362.613281 400.238281 360.953125 399.191406 C 360.019531 398.765625 357.132812 396.09375 356.347656 397.050781 C 356.203125 397.261719 356.214844 397.453125 356.417969 397.710938 C 357.082031 398.703125 357.34375 399.902344 357.300781 401.085938 C 360.59375 402.628906 364.023438 403.992188 367.589844 404.847656 C 368.269531 404.835938 371.535156 406.558594 371.109375 405.023438 " fill-opacity="1" fill-rule="nonzero"/><path fill="#91a8b0" d="M 428.917969 428.625 C 426.363281 427.320312 423.472656 426.617188 420.734375 425.753906 C 418.828125 425.25 414.585938 423.285156 413.070312 425.082031 C 418.328125 426.5 423.652344 427.714844 428.984375 428.84375 C 428.960938 428.769531 428.964844 428.660156 428.917969 428.625 " fill-opacity="1" fill-rule="nonzero"/><path fill="#91a8b0" d="M 471.285156 440.378906 C 470.847656 439.78125 470.402344 439.191406 469.960938 438.597656 C 467.480469 437.367188 465.171875 435.6875 462.425781 435.113281 C 463.394531 436.199219 464.78125 436.652344 465.949219 437.480469 C 467.753906 438.535156 469.496094 439.703125 471.359375 440.648438 C 471.335938 440.558594 471.335938 440.449219 471.285156 440.378906 " fill-opacity="1" fill-rule="nonzero"/><path fill="#91a8b0" d="M 465.167969 429.449219 C 467.4375 429.636719 469.726562 429.375 471.988281 429.59375 C 472.519531 429.390625 472.984375 429.070312 473.457031 428.769531 C 471.027344 428.710938 468.59375 428.710938 466.164062 428.683594 C 465.472656 428.757812 464.605469 428.503906 464.058594 429.039062 C 464.453125 429.351562 464.53125 429.371094 465.167969 429.449219 " fill-opacity="1" fill-rule="nonzero"/><path fill="#91a8b0" d="M 462.835938 430.988281 C 464.433594 431.175781 466.039062 431.316406 467.628906 431.566406 C 468.3125 431.46875 468.945312 431.058594 469.566406 430.753906 C 467.90625 430.503906 466.15625 430.515625 464.464844 430.34375 C 463.855469 430.390625 462.957031 429.988281 462.523438 430.535156 C 462.5625 430.929688 462.578125 430.960938 462.835938 430.988281 " fill-opacity="1" fill-rule="nonzero"/><path fill="#91a8b0" d="M 465.679688 434.984375 C 466.398438 435.253906 467.117188 435.527344 467.835938 435.796875 C 467.578125 435.265625 467.023438 434.882812 466.65625 434.410156 C 465.46875 434.320312 462.058594 432.394531 461.148438 433.035156 C 461.171875 433.566406 461.832031 433.578125 462.222656 433.710938 C 463.375 434.136719 464.542969 434.527344 465.679688 434.984375 " fill-opacity="1" fill-rule="nonzero"/><path fill="#91a8b0" d="M 338.070312 391.503906 C 337.65625 391.214844 337.234375 390.9375 336.839844 390.621094 C 336.019531 389.949219 335.710938 388.878906 334.59375 388.613281 C 334.675781 388.847656 334.75 389.066406 334.816406 389.261719 C 334.289062 389.832031 332.847656 387.957031 332.171875 387.914062 C 333.625 390.386719 336.417969 391.597656 338.898438 392.796875 C 338.921875 392.25 338.480469 391.816406 338.070312 391.503906 " fill-opacity="1" fill-rule="nonzero"/><path fill="#91a8b0" d="M 333.613281 387.789062 C 331.6875 385.398438 332.910156 383.105469 335.714844 382.449219 C 334.257812 382.300781 332.773438 382.769531 331.398438 383.269531 C 330.515625 383.628906 331.019531 384.855469 331.375 385.398438 C 332.042969 386.3125 332.492188 387.316406 333.613281 387.789062 " fill-opacity="1" fill-rule="nonzero"/><path fill="#3c4f69" d="M 338.058594 384.25 C 339.683594 385.578125 338.832031 387.472656 337.15625 388.238281 C 336.488281 388.546875 336.046875 388.589844 335.191406 388.210938 C 333.496094 387.558594 332.65625 384.921875 334.449219 383.734375 C 335.683594 382.910156 337.042969 383.242188 338.058594 384.25 Z M 332.617188 387.011719 C 332.203125 386.164062 330.003906 383.953125 331.398438 383.269531 C 332.773438 382.769531 334.257812 382.300781 335.714844 382.449219 C 332.90625 383.105469 331.691406 385.402344 333.613281 387.789062 C 333.175781 387.597656 332.851562 387.363281 332.617188 387.011719 Z M 350.242188 385.839844 C 348.777344 384.25 346.519531 382.375 344.347656 382.117188 C 339.78125 381.609375 335.128906 381.617188 330.621094 382.578125 C 328.910156 382.808594 327.785156 383.601562 329.316406 385.148438 C 329.894531 385.761719 330.539062 386.289062 331.242188 386.746094 C 331.710938 386.996094 331.855469 387.515625 332.171875 387.914062 C 332.851562 387.957031 334.28125 389.832031 334.816406 389.261719 C 334.75 389.066406 334.675781 388.847656 334.59375 388.613281 C 335.554688 389.128906 336.597656 389.410156 337.671875 389.109375 C 338.921875 389.050781 339.851562 388.46875 340.464844 387.386719 C 341.386719 384.839844 338.867188 382.652344 336.519531 382.355469 C 340.207031 382.046875 344.09375 382.332031 347.257812 384.429688 C 348.527344 385.195312 349.59375 386.222656 350.535156 387.363281 C 350.851562 387.765625 351.25 387.441406 351.082031 387.015625 C 350.902344 386.554688 350.558594 386.203125 350.242188 385.839844 " fill-opacity="1" fill-rule="nonzero"/><g clip-path="url(#7e079ec7fb)"><path fill="#3c4f69" d="M 471.359375 440.648438 C 469.496094 439.703125 467.753906 438.535156 465.949219 437.480469 C 464.78125 436.652344 463.398438 436.199219 462.425781 435.113281 C 465.167969 435.6875 467.480469 437.367188 469.960938 438.597656 C 469.238281 437.675781 468.660156 436.625 467.835938 435.796875 C 465.96875 435.089844 464.105469 434.378906 462.222656 433.710938 C 461.832031 433.578125 461.171875 433.566406 461.148438 433.035156 C 462.050781 432.394531 465.46875 434.320312 466.65625 434.410156 C 465.960938 433.707031 465.21875 433.046875 464.375 432.417969 C 465.507812 432.238281 466.578125 432.023438 467.628906 431.566406 C 466.039062 431.316406 464.433594 431.175781 462.835938 430.988281 C 462.578125 430.960938 462.5625 430.929688 462.523438 430.535156 C 462.953125 429.988281 463.859375 430.390625 464.464844 430.34375 C 466.15625 430.515625 467.90625 430.503906 469.566406 430.753906 C 470.421875 430.484375 471.179688 429.976562 471.988281 429.59375 C 470.226562 429.253906 465.042969 429.976562 464.058594 429.039062 C 464.613281 428.507812 465.46875 428.753906 466.164062 428.683594 C 468.59375 428.710938 471.027344 428.710938 473.457031 428.769531 C 473.695312 428.644531 473.960938 428.554688 474.164062 428.386719 C 474.550781 428.066406 474.453125 427.628906 473.972656 427.476562 C 468.710938 427.203125 463.367188 427.585938 458.113281 427.097656 C 456.410156 426.386719 454.757812 425.566406 453.066406 424.84375 C 444.90625 421.792969 437.433594 416.59375 429.703125 412.539062 C 415.746094 405.214844 401.515625 398.832031 386.679688 393.523438 C 378.523438 390.601562 370.289062 387.933594 361.882812 385.859375 C 356.890625 384.625 351.925781 383.175781 346.828125 382.457031 C 352.222656 386.3125 358.621094 388.429688 364.898438 390.378906 C 372.265625 392.667969 379.609375 394.753906 386.859375 397.46875 C 394.238281 400.230469 401.503906 403.3125 408.621094 406.699219 C 414.480469 409.488281 420.246094 412.488281 425.894531 415.683594 C 431.277344 418.730469 436.816406 421.210938 442.519531 423.648438 C 448.488281 426.199219 454.820312 427.816406 460.757812 430.40625 C 460.773438 430.933594 460.308594 431.183594 460.230469 431.671875 C 460.175781 432.03125 459.875 432.304688 459.542969 432.449219 C 459.542969 432.453125 459.539062 432.457031 459.539062 432.464844 C 458.46875 433.074219 457.183594 432.960938 456.015625 433.167969 C 460.03125 435.417969 463.886719 437.9375 467.769531 440.402344 C 468.53125 440.875 469.335938 441.28125 470.125 441.707031 C 470.464844 441.890625 470.84375 441.832031 471.113281 441.5625 C 471.359375 441.3125 471.546875 441.027344 471.359375 440.648438 " fill-opacity="1" fill-rule="nonzero"/></g><path fill="#3c4f69" d="M 335.0625 386.902344 C 336.148438 388.238281 338.136719 386.636719 337.441406 385.234375 C 336.210938 383.121094 333.566406 384.941406 335.0625 386.902344 " fill-opacity="1" fill-rule="nonzero"/><g clip-path="url(#f06fc794b3)"><path fill="#dfebef" d="M 484.265625 408.390625 C 484.265625 408.382812 484.261719 408.375 484.257812 408.363281 C 484.265625 408.367188 484.273438 408.367188 484.285156 408.367188 C 484.289062 408.363281 484.292969 408.359375 484.296875 408.355469 C 484.296875 408.363281 484.296875 408.367188 484.292969 408.371094 C 484.285156 408.375 484.277344 408.382812 484.265625 408.390625 Z M 374.339844 376.253906 C 374.335938 376.261719 374.328125 376.269531 374.324219 376.277344 C 374.316406 376.261719 374.304688 376.242188 374.296875 376.222656 C 374.316406 376.226562 374.335938 376.230469 374.355469 376.234375 C 374.351562 376.242188 374.34375 376.246094 374.339844 376.253906 Z M 496.828125 415.410156 C 496.492188 414.667969 495.746094 414.148438 495.242188 413.5 C 494.441406 412.648438 493.761719 411.65625 492.863281 410.910156 C 491.824219 409.683594 490.496094 408.765625 489.105469 407.871094 C 491.796875 407.246094 494.132812 405.832031 496.421875 404.34375 C 497.152344 403.949219 497.785156 403.394531 498.472656 402.9375 C 498.980469 402.421875 498.402344 401.9375 497.816406 402.027344 C 492.824219 402.449219 487.839844 402.957031 482.832031 403.207031 C 482.164062 403.210938 481.542969 402.859375 480.90625 402.683594 C 476.824219 401.195312 472.574219 400.234375 468.664062 398.300781 C 456.132812 393.085938 443.996094 386.84375 430.949219 382.953125 C 424.320312 380.820312 417.519531 379.304688 410.851562 377.304688 C 402.109375 374.621094 393.152344 372.65625 384.097656 371.402344 C 381.085938 370.824219 378.042969 370.410156 375.003906 370 C 372.105469 369.523438 369.054688 369.105469 366.175781 369.160156 C 361.175781 368.816406 356.074219 369.351562 351.277344 370.816406 C 347.433594 371.699219 350.320312 373.859375 352.285156 374.90625 C 352.777344 375.113281 352.96875 375.613281 353.320312 375.980469 C 353.660156 376.570312 354.230469 376.980469 354.726562 377.433594 C 355.96875 378.464844 357.480469 379.054688 358.957031 379.65625 C 362.15625 380.789062 365.242188 382.246094 368.449219 383.34375 C 368.640625 383.550781 368.910156 383.535156 369.148438 383.605469 C 369.144531 383.609375 369.140625 383.617188 369.136719 383.625 C 369.199219 383.9375 369.484375 383.984375 369.710938 384.070312 C 370.800781 384.503906 371.878906 384.964844 372.957031 385.421875 C 384.765625 390.316406 396.664062 395.292969 408.980469 398.640625 C 415.957031 400.453125 422.933594 402.261719 429.910156 404.074219 C 431.898438 404.363281 433.902344 405.054688 435.929688 405.324219 C 436.402344 405.390625 436.953125 405.6875 437.429688 405.410156 C 442.746094 406.296875 448.101562 407.019531 453.460938 407.628906 C 457.796875 408.515625 462.433594 408.496094 466.882812 408.847656 C 471.582031 408.816406 476.257812 409.765625 480.957031 409.445312 C 485.125 411.304688 489.167969 413.425781 493.234375 415.5 C 494.035156 415.902344 494.871094 416.230469 495.699219 416.578125 C 496.050781 416.726562 496.425781 416.636719 496.667969 416.339844 C 496.890625 416.070312 497.050781 415.769531 496.828125 415.410156 " fill-opacity="1" fill-rule="nonzero"/></g><path fill="#fdf2ad" d="M 360.054688 372.773438 C 359.964844 372.511719 359.792969 372.285156 359.609375 372.082031 C 359.003906 371.417969 358.199219 370.921875 357.3125 370.777344 C 356.429688 370.628906 355.46875 370.855469 354.800781 371.453125 C 354.132812 372.050781 353.792969 373.027344 354.03125 373.894531 C 354.167969 374.398438 354.484375 374.839844 354.863281 375.199219 C 355.667969 375.96875 356.792969 376.398438 357.910156 376.359375 C 358.199219 376.347656 358.519531 376.289062 358.695312 376.058594 L 358.449219 376.203125 C 359.367188 375.707031 359.957031 374.710938 360.101562 373.675781 C 360.144531 373.375 360.152344 373.0625 360.054688 372.773438 " fill-opacity="1" fill-rule="nonzero"/><path fill="#91a8b0" d="M 484.292969 408.371094 C 484.292969 408.371094 484.289062 408.367188 484.285156 408.367188 C 484.285156 408.367188 484.285156 408.367188 484.28125 408.367188 L 484.292969 408.371094 " fill-opacity="1" fill-rule="nonzero"/><path fill="#91a8b0" d="M 485.121094 406.109375 C 477.558594 403.863281 469.820312 402.289062 462.300781 399.878906 C 454.921875 397.515625 448.003906 394.160156 440.820312 391.257812 C 433.492188 388.304688 426.050781 385.621094 418.523438 383.222656 C 414.722656 382.011719 410.898438 380.871094 407.050781 379.808594 C 403.445312 378.808594 399.871094 378.171875 396.203125 377.433594 C 389.367188 376.050781 382.488281 374.785156 375.792969 372.796875 C 374.148438 372.261719 372.523438 371.65625 370.9375 370.964844 C 370 370.539062 369.070312 370.085938 368.144531 369.628906 C 367.886719 369.5 367.648438 369.328125 367.398438 369.171875 C 367.007812 369.148438 366.617188 369.121094 366.222656 369.101562 C 366.207031 369.097656 366.191406 369.140625 366.175781 369.160156 C 367.910156 370.015625 369.726562 370.796875 371.117188 372.21875 C 371.46875 372.609375 372.421875 373.246094 372.003906 373.816406 C 371.535156 374.03125 370.804688 372.847656 370.363281 372.613281 C 366.664062 369.507812 361.703125 369.140625 357.128906 370.039062 C 359.492188 370.113281 362.207031 372.054688 361.523438 374.675781 C 363.316406 374.375 365.582031 374.019531 366.953125 375.511719 C 368.636719 377.628906 368.542969 379.578125 365.445312 379.644531 C 364.671875 379.660156 363.914062 379.5625 363.175781 379.328125 C 362.492188 379.089844 362.492188 379.886719 363.085938 379.996094 C 365.351562 380.9375 369.667969 380.710938 369.308594 377.363281 C 369.027344 375.234375 367.621094 373.289062 365.609375 372.488281 C 365.664062 371.257812 367.394531 371.324219 368.25 371.679688 C 370.933594 372.882812 374.824219 378.347656 374.707031 381.34375 C 374.707031 382.136719 371.441406 382.726562 370.714844 382.898438 C 370.292969 383.054688 368.472656 382.960938 368.449219 383.34375 C 369.667969 384.070312 373.40625 383.148438 374.734375 382.601562 C 377.066406 381.332031 375.144531 377.945312 374.296875 376.222656 C 387.320312 377.828125 400.132812 380.925781 412.605469 384.976562 C 421.191406 387.832031 429.585938 391.246094 438.117188 394.261719 C 445.683594 396.976562 453.074219 400.148438 460.652344 402.835938 C 468.328125 405.417969 476.210938 407.539062 484.285156 408.367188 C 484.601562 408.183594 484.890625 407.890625 484.910156 407.515625 C 484.941406 407.023438 485.382812 406.730469 485.316406 406.207031 C 485.246094 406.171875 485.183594 406.128906 485.121094 406.109375 " fill-opacity="1" fill-rule="nonzero"/><path fill="#91a8b0" d="M 393.6875 389.359375 C 393.386719 388.945312 392.855469 388.855469 392.410156 388.667969 C 391.078125 388.070312 389.722656 387.535156 388.367188 387 C 386.558594 386.238281 384.78125 385.390625 383.027344 384.507812 C 382.0625 384.171875 378.933594 381.78125 378.242188 382.808594 C 378.121094 383.03125 378.148438 383.21875 378.375 383.457031 C 379.128906 384.382812 379.503906 385.554688 379.570312 386.734375 C 382.992188 387.960938 386.535156 388.996094 390.164062 389.515625 C 390.84375 389.441406 394.253906 390.84375 393.6875 389.359375 " fill-opacity="1" fill-rule="nonzero"/><path fill="#91a8b0" d="M 453.445312 407.425781 C 450.785156 406.367188 447.839844 405.9375 445.03125 405.335938 C 443.089844 405.015625 438.679688 403.453125 437.339844 405.390625 C 442.707031 406.304688 448.125 407.015625 453.535156 407.636719 C 453.507812 407.5625 453.5 407.457031 453.445312 407.425781 " fill-opacity="1" fill-rule="nonzero"/><path fill="#91a8b0" d="M 496.730469 415.148438 C 496.238281 414.59375 495.738281 414.046875 495.242188 413.5 C 492.660156 412.507812 490.203125 411.050781 487.414062 410.738281 C 488.484375 411.726562 489.90625 412.050781 491.144531 412.765625 C 493.042969 413.644531 494.882812 414.644531 496.828125 415.410156 C 496.796875 415.320312 496.789062 415.214844 496.730469 415.148438 " fill-opacity="1" fill-rule="nonzero"/><path fill="#91a8b0" d="M 489.617188 404.839844 C 491.894531 404.8125 494.144531 404.335938 496.421875 404.34375 C 496.929688 404.089844 497.363281 403.730469 497.808594 403.382812 C 495.382812 403.554688 492.960938 403.785156 490.535156 403.984375 C 489.855469 404.125 488.964844 403.953125 488.472656 404.535156 C 488.894531 404.808594 488.976562 404.820312 489.617188 404.839844 " fill-opacity="1" fill-rule="nonzero"/><path fill="#91a8b0" d="M 487.4375 406.59375 C 489.046875 406.628906 490.65625 406.621094 492.265625 406.71875 C 492.9375 406.558594 493.527344 406.089844 494.117188 405.730469 C 492.441406 405.632812 490.699219 405.808594 489 405.796875 C 488.398438 405.902344 487.464844 405.585938 487.085938 406.171875 C 487.160156 406.558594 487.179688 406.589844 487.4375 406.59375 " fill-opacity="1" fill-rule="nonzero"/><path fill="#91a8b0" d="M 490.644531 410.304688 C 491.386719 410.507812 492.125 410.707031 492.863281 410.910156 C 492.558594 410.402344 491.976562 410.074219 491.5625 409.640625 C 490.371094 409.660156 486.796875 408.066406 485.949219 408.789062 C 486.023438 409.316406 486.679688 409.265625 487.082031 409.363281 C 488.269531 409.679688 489.46875 409.957031 490.644531 410.304688 " fill-opacity="1" fill-rule="nonzero"/><path fill="#91a8b0" d="M 359.53125 379.003906 C 359.089844 378.753906 358.640625 378.515625 358.222656 378.238281 C 357.34375 377.648438 356.9375 376.609375 355.796875 376.449219 C 355.898438 376.675781 355.996094 376.886719 356.078125 377.078125 C 355.605469 377.695312 353.996094 375.960938 353.320312 375.980469 C 354.996094 378.308594 357.890625 379.25 360.472656 380.210938 C 360.445312 379.664062 359.964844 379.273438 359.53125 379.003906 " fill-opacity="1" fill-rule="nonzero"/><path fill="#91a8b0" d="M 354.746094 375.722656 C 352.601562 373.523438 353.605469 371.125 356.335938 370.210938 C 354.871094 370.199219 353.4375 370.804688 352.117188 371.429688 C 351.269531 371.871094 351.886719 373.046875 352.289062 373.554688 C 353.042969 374.398438 353.582031 375.359375 354.746094 375.722656 " fill-opacity="1" fill-rule="nonzero"/><path fill="#3c4f69" d="M 358.839844 371.78125 C 360.582031 372.949219 359.910156 374.917969 358.3125 375.835938 C 357.675781 376.207031 357.242188 376.289062 356.355469 375.992188 C 354.605469 375.503906 353.523438 372.960938 355.195312 371.605469 C 356.347656 370.671875 357.734375 370.871094 358.839844 371.78125 Z M 353.679688 375.042969 C 353.1875 374.238281 350.792969 372.242188 352.117188 371.429688 C 353.4375 370.804688 354.871094 370.199219 356.335938 370.210938 C 353.601562 371.125 352.605469 373.523438 354.746094 375.722656 C 354.289062 375.574219 353.941406 375.371094 353.679688 375.042969 Z M 371.117188 372.21875 C 369.507812 370.773438 367.085938 369.121094 364.902344 369.066406 C 360.308594 368.988281 355.671875 369.433594 351.277344 370.816406 C 349.59375 371.203125 348.550781 372.101562 350.21875 373.496094 C 350.851562 374.050781 351.539062 374.519531 352.285156 374.90625 C 352.777344 375.109375 352.96875 375.613281 353.320312 375.980469 C 354 375.960938 355.601562 377.691406 356.078125 377.078125 C 355.996094 376.886719 355.898438 376.675781 355.796875 376.449219 C 356.804688 376.875 357.867188 377.054688 358.90625 376.65625 C 360.148438 376.480469 361.019531 375.8125 361.523438 374.675781 C 362.207031 372.054688 359.492188 370.117188 357.128906 370.039062 C 360.769531 369.382812 364.667969 369.304688 368.011719 371.097656 C 369.351562 371.738281 370.507812 372.664062 371.550781 373.707031 C 371.90625 374.078125 372.269531 373.71875 372.0625 373.3125 C 371.839844 372.867188 371.464844 372.554688 371.117188 372.21875 " fill-opacity="1" fill-rule="nonzero"/><g clip-path="url(#1cb2cf369a)"><path fill="#3c4f69" d="M 496.828125 415.410156 C 494.882812 414.644531 493.042969 413.644531 491.144531 412.765625 C 489.90625 412.050781 488.484375 411.726562 487.414062 410.738281 C 490.203125 411.050781 492.660156 412.507812 495.242188 413.5 C 494.441406 412.648438 493.761719 411.65625 492.863281 410.910156 C 490.941406 410.378906 489.019531 409.847656 487.082031 409.363281 C 486.679688 409.265625 486.023438 409.316406 485.949219 408.789062 C 486.789062 408.066406 490.375 409.660156 491.5625 409.640625 C 490.804688 409.003906 490.003906 408.417969 489.105469 407.871094 C 490.21875 407.585938 491.261719 407.273438 492.265625 406.71875 C 490.65625 406.621094 489.046875 406.628906 487.4375 406.59375 C 487.179688 406.589844 487.160156 406.558594 487.085938 406.171875 C 487.460938 405.585938 488.402344 405.902344 489 405.796875 C 490.699219 405.808594 492.441406 405.632812 494.117188 405.730469 C 494.945312 405.378906 495.652344 404.800781 496.421875 404.34375 C 494.632812 404.175781 489.539062 405.378906 488.472656 404.535156 C 488.976562 403.957031 489.851562 404.121094 490.535156 403.984375 C 492.960938 403.785156 495.382812 403.554688 497.808594 403.382812 C 498.03125 403.238281 498.289062 403.125 498.472656 402.9375 C 498.832031 402.582031 498.6875 402.15625 498.199219 402.050781 C 492.933594 402.273438 487.648438 403.152344 482.371094 403.160156 C 480.613281 402.617188 478.890625 401.953125 477.136719 401.394531 C 468.726562 399.125 460.800781 394.648438 452.726562 391.335938 C 438.144531 385.355469 423.378906 380.339844 408.113281 376.445312 C 399.71875 374.304688 391.269531 372.421875 382.707031 371.144531 C 377.621094 370.382812 372.542969 369.410156 367.398438 369.171875 C 373.132812 372.503906 379.699219 374.011719 386.132812 375.363281 C 393.683594 376.949219 401.1875 378.335938 408.660156 380.355469 C 416.265625 382.414062 423.785156 384.800781 431.191406 387.503906 C 437.285156 389.730469 443.304688 392.171875 449.226562 394.828125 C 454.871094 397.355469 460.621094 399.304688 466.527344 401.195312 C 472.707031 403.171875 479.160156 404.1875 485.316406 406.207031 C 485.382812 406.730469 484.941406 407.023438 484.910156 407.515625 C 484.886719 407.878906 484.613281 408.183594 484.296875 408.355469 C 484.296875 408.363281 484.296875 408.367188 484.292969 408.371094 C 483.285156 409.078125 481.996094 409.089844 480.855469 409.402344 C 485.0625 411.265625 489.132812 413.414062 493.234375 415.5 C 494.035156 415.902344 494.871094 416.230469 495.699219 416.578125 C 496.050781 416.726562 496.425781 416.636719 496.667969 416.339844 C 496.890625 416.070312 497.050781 415.769531 496.828125 415.410156 " fill-opacity="1" fill-rule="nonzero"/></g><path fill="#3c4f69" d="M 356.101562 374.703125 C 357.3125 375.929688 359.140625 374.152344 358.316406 372.816406 C 356.890625 370.832031 354.429688 372.890625 356.101562 374.703125 " fill-opacity="1" fill-rule="nonzero"/></svg>