<svg xmlns="http://www.w3.org/2000/svg" xmlns:xlink="http://www.w3.org/1999/xlink" width="1080" zoomAndPan="magnify" viewBox="0 0 810 809.999993" height="1080" preserveAspectRatio="xMidYMid meet" version="1.0"><defs><clipPath id="bcd97acb9e"><path d="M 317 312.1875 L 433 312.1875 L 433 401 L 317 401 Z M 317 312.1875 " clip-rule="nonzero"/></clipPath></defs><path fill="#e1907d" d="M 430.476562 324.667969 C 421.777344 362.574219 407.113281 405.320312 389.304688 450.621094 C 388.269531 454.28125 387.59375 456.800781 384.558594 456.960938 C 382.800781 457.054688 381.117188 457.054688 379.5 456.972656 C 358.839844 455.972656 349.222656 441.878906 343.40625 436.855469 C 337.136719 431.433594 320.4375 414.625 318.007812 411.011719 C 315.578125 407.398438 312.429688 393.289062 312.429688 363.285156 C 312.429688 354.332031 317.503906 344.761719 320.4375 340.175781 C 321.519531 338.480469 322.3125 337.464844 322.445312 337.425781 C 332.1875 334.222656 357.660156 325.699219 357.660156 325.699219 C 357.660156 325.699219 392.925781 323.203125 404.722656 316.9375 C 413.351562 312.351562 426.140625 318.652344 430.476562 324.667969 Z M 430.476562 324.667969 " fill-opacity="1" fill-rule="nonzero"/><path fill="#d1806f" d="M 320.4375 340.175781 C 317.503906 344.761719 312.429688 354.332031 312.429688 363.285156 C 312.429688 393.289062 315.578125 407.398438 318.007812 411.011719 C 320.4375 414.625 337.136719 431.433594 343.40625 436.855469 C 349.222656 441.878906 358.839844 455.972656 379.5 456.972656 C 341.746094 431.863281 324.804688 390.828125 320.4375 340.175781 Z M 320.4375 340.175781 " fill-opacity="1" fill-rule="nonzero"/><path fill="#c76f5f" d="M 415.425781 381.425781 C 415.570312 387.082031 417.089844 393.285156 417.257812 399.21875 C 412.640625 403.988281 408.3125 408.835938 405.914062 412.832031 C 400.730469 414.621094 397.382812 389.539062 400.683594 377.164062 L 405.167969 371.101562 L 411.839844 362.078125 C 416.933594 364.902344 415.21875 373.03125 415.425781 381.425781 Z M 415.425781 381.425781 " fill-opacity="1" fill-rule="nonzero"/><path fill="#d78472" d="M 407.769531 348.40625 C 409.285156 345.640625 411.796875 342.453125 415.425781 338.734375 C 430.175781 334.648438 423.402344 362.300781 426.136719 390.304688 L 426.140625 390.308594 C 423.359375 393.074219 420.246094 396.128906 417.257812 399.21875 C 417.089844 393.285156 412.632812 390.265625 412.492188 384.609375 C 412.28125 376.21875 416.933594 364.902344 411.839844 362.078125 C 407.949219 359.917969 405.859375 357.328125 406.007812 353.890625 C 406.078125 352.265625 406.648438 350.449219 407.769531 348.40625 Z M 407.769531 348.40625 " fill-opacity="1" fill-rule="nonzero"/><path fill="#e1907d" d="M 467.613281 385.335938 C 461.945312 384.46875 459.449219 389.472656 444.660156 391.300781 C 429.871094 393.128906 435.632812 404.964844 442.820312 411.097656 L 467.585938 414.800781 L 467.589844 414.800781 C 470.726562 414.382812 474.015625 414.863281 477.128906 415.570312 C 485.34375 417.4375 492.363281 420.882812 492.292969 413.625 C 492.195312 403.617188 473.28125 386.199219 467.613281 385.335938 Z M 467.613281 385.335938 " fill-opacity="1" fill-rule="nonzero"/><path fill="#e1907d" d="M 405.914062 412.832031 C 405.609375 413.339844 405.335938 413.835938 405.097656 414.3125 C 401.488281 421.542969 400.917969 426.671875 399.53125 431.039062 C 385.988281 421.804688 390.367188 406.535156 391.195312 390 L 400.683594 377.164062 C 405.914062 386.589844 405.914062 412.832031 405.914062 412.832031 Z M 405.914062 412.832031 " fill-opacity="1" fill-rule="nonzero"/><path fill="#faae9f" d="M 421.273438 468.667969 C 424.875 473.003906 439.066406 484.40625 429.414062 488.589844 C 419.761719 492.777344 405.140625 484.621094 401.539062 478.414062 C 396.34375 469.457031 404.277344 449.402344 411.984375 450.050781 C 419.691406 450.699219 417.675781 464.339844 421.273438 468.667969 Z M 421.273438 468.667969 " fill-opacity="1" fill-rule="nonzero"/><path fill="#faae9f" d="M 480.53125 470.5 C 482.59375 475.695312 468.144531 498.175781 456.566406 497.105469 C 449.152344 496.421875 450.160156 493.0625 453.351562 482.769531 C 455.175781 476.878906 458.003906 480.734375 462.765625 469 C 464.734375 464.144531 478.464844 465.300781 480.53125 470.5 Z M 480.53125 470.5 " fill-opacity="1" fill-rule="nonzero"/><path fill="#faae9f" d="M 467.015625 447.953125 C 469.03125 451.78125 467.875 456.199219 462.1875 457.988281 C 449.796875 461.886719 439.089844 475.6875 440.21875 465.0625 C 440.769531 459.863281 447.78125 453.152344 452.101562 450.484375 C 456.425781 447.8125 464.996094 444.132812 467.015625 447.953125 Z M 467.015625 447.953125 " fill-opacity="1" fill-rule="nonzero"/><path fill="#faae9f" d="M 496.894531 432.542969 C 498.707031 436.007812 479.402344 445.570312 477.589844 440.578125 C 476.628906 437.933594 482.585938 431.824219 485.65625 430.425781 C 488.726562 429.03125 495.167969 429.242188 496.894531 432.542969 Z M 496.894531 432.542969 " fill-opacity="1" fill-rule="nonzero"/><path fill="#faae9f" d="M 440.796875 442.398438 C 434.960938 448.605469 425.238281 446.800781 423.507812 442.398438 C 421.207031 436.539062 431.71875 419.246094 434.960938 416.207031 C 436.523438 414.746094 439.5625 412.761719 442.820312 411.097656 C 446.320312 409.316406 450.074219 407.902344 452.535156 407.902344 C 455.722656 407.902344 464.160156 410.367188 467.585938 414.800781 L 467.589844 414.800781 C 469.277344 416.976562 469.753906 419.628906 467.804688 422.695312 C 461.902344 432.007812 452.390625 430.054688 440.796875 442.398438 Z M 440.796875 442.398438 " fill-opacity="1" fill-rule="nonzero"/><path fill="#faae9f" d="M 435.433594 379.304688 C 435.542969 380.804688 431.425781 385.042969 426.140625 390.308594 L 426.136719 390.304688 C 416.617188 369.566406 425.53125 339.617188 415.425781 338.734375 C 418.484375 335.601562 422.335938 332.09375 427.046875 328.144531 C 428.398438 327.007812 429.570312 325.835938 430.476562 324.667969 C 432.820312 328.460938 429.214844 344.691406 429.214844 355.058594 C 429.214844 365.429688 435.171875 375.640625 435.433594 379.304688 Z M 435.433594 379.304688 " fill-opacity="1" fill-rule="nonzero"/><path fill="#faae9f" d="M 399.53125 431.039062 C 398.75 433.503906 397.707031 435.730469 395.714844 437.953125 C 391.625 442.515625 390.296875 447.097656 389.304688 450.621094 C 389.03125 430.695312 383.070312 400.984375 383.070312 400.984375 L 391.195312 390 C 395.21875 404.808594 393.804688 419.023438 399.53125 431.039062 Z M 399.53125 431.039062 " fill-opacity="1" fill-rule="nonzero"/><g clip-path="url(#bcd97acb9e)"><path fill="#faae9f" d="M 344.082031 348.097656 C 323.601562 381.085938 383.070312 400.984375 383.070312 400.984375 C 313.378906 399.039062 311.269531 354.683594 322.445312 337.425781 C 322.449219 337.421875 322.449219 337.417969 322.453125 337.414062 C 332.082031 322.558594 343.980469 323.902344 362.53125 319.191406 C 378.273438 315.191406 389.105469 312.1875 412.871094 312.1875 C 432.90625 312.1875 435.378906 318.382812 430.476562 324.667969 C 424.355469 322.542969 420.652344 321.308594 412.023438 325.894531 C 396.449219 334.164062 359.167969 323.8125 344.082031 348.097656 Z M 344.082031 348.097656 " fill-opacity="1" fill-rule="nonzero"/></g><path fill="#faae9f" d="M 415.425781 338.734375 C 411.796875 342.453125 409.285156 345.640625 407.769531 348.40625 C 377.109375 343.488281 351.875 364.589844 400.683594 377.160156 L 400.683594 377.164062 L 391.195312 390 C 333.003906 373.023438 354.851562 333.433594 415.425781 338.734375 Z M 415.425781 338.734375 " fill-opacity="1" fill-rule="nonzero"/><path fill="#faae9f" d="M 411.839844 362.078125 L 405.167969 371.101562 L 405.164062 371.101562 C 393.945312 368.582031 383.304688 356.105469 406.007812 353.890625 C 405.859375 357.328125 407.949219 359.917969 411.839844 362.078125 Z M 411.839844 362.078125 " fill-opacity="1" fill-rule="nonzero"/><path fill="#faae9f" d="M 332.710938 400.664062 C 332.53125 399.859375 331.734375 399.351562 330.933594 399.527344 C 330.132812 399.707031 329.625 400.503906 329.800781 401.308594 C 332.359375 412.890625 341.03125 423.390625 341.402344 423.832031 C 341.695312 424.183594 342.117188 424.367188 342.542969 424.367188 C 342.878906 424.367188 343.21875 424.25 343.496094 424.019531 C 344.128906 423.492188 344.210938 422.550781 343.6875 421.917969 C 343.601562 421.816406 335.105469 411.523438 332.710938 400.664062 Z M 332.710938 400.664062 " fill-opacity="1" fill-rule="nonzero"/><path fill="#faae9f" d="M 351.769531 413.265625 C 351.625 412.457031 350.851562 411.914062 350.042969 412.054688 C 349.234375 412.199219 348.695312 412.972656 348.835938 413.785156 C 350.421875 422.824219 354.640625 432.0625 354.820312 432.453125 C 355.070312 432.996094 355.609375 433.320312 356.171875 433.320312 C 356.378906 433.320312 356.59375 433.273438 356.792969 433.183594 C 357.539062 432.835938 357.867188 431.953125 357.523438 431.203125 C 357.480469 431.109375 353.285156 421.917969 351.769531 413.265625 Z M 351.769531 413.265625 " fill-opacity="1" fill-rule="nonzero"/><path fill="#faae9f" d="M 366.5 429.644531 C 366.335938 428.839844 365.550781 428.316406 364.746094 428.476562 C 363.941406 428.640625 363.417969 429.425781 363.582031 430.234375 C 365.84375 441.488281 371.464844 446.902344 371.703125 447.128906 C 371.992188 447.398438 372.355469 447.53125 372.722656 447.53125 C 373.117188 447.53125 373.511719 447.375 373.804688 447.066406 C 374.367188 446.46875 374.34375 445.527344 373.75 444.960938 C 373.695312 444.910156 368.5625 439.90625 366.5 429.644531 Z M 366.5 429.644531 " fill-opacity="1" fill-rule="nonzero"/><path fill="#faae9f" d="M 417.144531 477.210938 C 410.425781 472.554688 410.5625 471.875 412.1875 463.550781 L 412.222656 463.378906 C 412.378906 462.570312 411.851562 461.785156 411.046875 461.625 C 410.238281 461.46875 409.457031 461.996094 409.300781 462.804688 L 409.265625 462.976562 C 407.503906 471.992188 407.410156 474.09375 415.453125 479.664062 C 415.710938 479.84375 416.003906 479.929688 416.296875 479.929688 C 416.769531 479.929688 417.234375 479.707031 417.523438 479.289062 C 417.988281 478.609375 417.820312 477.679688 417.144531 477.210938 Z M 417.144531 477.210938 " fill-opacity="1" fill-rule="nonzero"/><path fill="#e1907d" d="M 447.324219 420.636719 C 439.285156 428.421875 438.515625 435.832031 438.773438 439.554688 C 438.828125 440.34375 439.484375 440.945312 440.257812 440.945312 C 440.292969 440.945312 440.328125 440.945312 440.363281 440.941406 C 441.183594 440.882812 441.800781 440.171875 441.746094 439.351562 C 441.523438 436.144531 442.222656 429.726562 449.390625 422.78125 C 449.984375 422.210938 450 421.265625 449.429688 420.671875 C 448.855469 420.082031 447.914062 420.066406 447.324219 420.636719 Z M 447.324219 420.636719 " fill-opacity="1" fill-rule="nonzero"/><path fill="#faae9f" d="M 477.140625 411.683594 C 474.632812 406.445312 468.863281 397.714844 458.386719 398.085938 C 457.566406 398.113281 456.921875 398.804688 456.953125 399.628906 C 456.980469 400.449219 457.660156 401.089844 458.492188 401.066406 C 467.265625 400.753906 472.261719 408.390625 474.457031 412.972656 C 474.714844 413.507812 475.246094 413.820312 475.800781 413.820312 C 476.015625 413.820312 476.234375 413.773438 476.445312 413.671875 C 477.183594 413.316406 477.496094 412.425781 477.140625 411.683594 Z M 477.140625 411.683594 " fill-opacity="1" fill-rule="nonzero"/></svg>